<svg xmlns="http://www.w3.org/2000/svg" viewBox="0 0 235.2 118.71"><defs><style>.cls-2,.cls-5,.cls-6{stroke-width:0}.cls-2{fill:none}.cls-5{fill:#e35927}.cls-6{fill:#ec8f26}</style></defs><path d="M28.37 65.28c.37-.47.76-.94 1.16-1.39l-1.21 1.34z" class="cls-2"/><path d="m28.37 65.28-.05-.05 1.21-1.34c.22-.25.44-.5.67-.75l15.88-17.65c4.19-4.66 3.82-11.84-.85-16.03-4.66-4.19-11.84-3.82-16.03.85L1.52 61.07a5.913 5.913 0 0 0-.07 7.82l19.72 22.73c-.21-1.53-.32-3.1-.32-4.69 0-8.18 2.82-15.7 7.53-21.66Z" class="cls-6"/><path d="M37.65 104.65c2.77 0 5.54-1 7.74-3.06 4.51-4.21 4.63-11.35.59-16.01l-17.62-20.3c-4.71 5.96-7.53 13.48-7.53 21.66 0 1.59.12 3.15.32 4.69l7.91 9.11c2.25 2.59 5.4 3.91 8.58 3.91Z" class="cls-5"/><path d="M30.2 63.14c-.23.25-.45.5-.67.75z" class="cls-6"/><path d="M206.77 65.9c-.38.47-.76.94-1.16 1.39l1.21-1.34z" class="cls-2"/><path d="m206.77 65.9.05.05-1.21 1.34c-.22.25-.45.5-.67.75l-15.91 17.63c-4.2 4.66-3.83 11.83.82 16.04 4.66 4.2 11.83 3.83 16.04-.82l27.84-30.86a5.717 5.717 0 0 0 .08-7.57l-19.8-22.88c.2 1.53.32 3.1.32 4.69a34.8 34.8 0 0 1-7.56 21.65Z" class="cls-6"/><path d="M197.54 26.52c-2.77 0-5.55 1-7.75 3.05-4.52 4.2-4.65 11.34-.61 16.01l17.59 20.33a34.85 34.85 0 0 0 7.56-21.65c0-1.59-.11-3.15-.32-4.69l-7.89-9.12c-2.24-2.59-5.4-3.92-8.58-3.93" class="cls-5"/><path d="M204.93 68.04c.23-.25.45-.5.67-.75z" class="cls-6"/><path d="m167.71 37.35.32-25.63c0-6.48-5.22-11.72-11.67-11.72s-11.68 5.27-11.69 11.75l-.41 40.03c9.26-2.29 17.4-7.43 23.44-14.43Z" style="fill:#49499c;stroke-width:0"/><path d="M105.42 72.37c1.43 6.29 7.71 10.23 14.03 8.81l43.47-9.78a5.9 5.9 0 0 0 4.62-5.73l.16-28.32c-6.04 7-14.17 12.14-23.44 14.43v.04l-29.99 6.59c-6.32 1.42-10.29 7.67-8.86 13.95Z" style="stroke-width:0;fill:#794b9b"/><path d="m68.2 52.29-.32 54.7c0 6.48 5.21 11.73 11.66 11.72 6.45 0 11.68-5.27 11.69-11.75l.41-69.1c-9.26 2.29-17.4 7.43-23.44 14.43" class="cls-5"/><path d="M167.73 9.1C166.3 2.81 160.02-1.13 153.7.29L72.99 18.25a5.9 5.9 0 0 0-4.62 5.73l-.16 28.32c6.04-7 14.17-12.14 23.44-14.43v-.04l67.23-14.77c6.32-1.42 10.29-7.67 8.86-13.95Z" style="stroke-width:0;fill:#ec8e25"/></svg>