<svg viewBox="0 0 56 24" fill="none" xmlns="http://www.w3.org/2000/svg">
<g clip-path="url(#clip0_2749_10604)">
<path d="M10.5448 23.9999C5.20944 23.9999 0.868713 19.6592 0.868713 14.3238C0.868713 8.98848 5.10826 4.8238 10.3571 4.72363V5.45265C5.50945 5.55232 1.59773 9.52677 1.59773 14.3982C1.59773 19.2696 5.61165 23.3448 10.5448 23.3448C15.478 23.3448 19.4914 19.3314 19.4914 14.3982C19.4914 11.0546 17.6893 8.05254 14.7752 6.51608L15.1122 5.89128C18.2681 7.5785 20.2204 10.8214 20.2204 14.3987C20.2204 19.6931 15.8802 24.0009 10.5448 24.0009V23.9999Z" fill="white"/>
<path d="M10.5448 10.3829C7.86142 10.3829 5.19526 9.8461 3.36133 8.94153L3.70838 8.24691C5.43304 9.09584 7.90898 9.5805 10.5443 9.5805C13.1796 9.5805 15.6596 9.09533 17.3847 8.24438L17.7247 8.87576C15.9181 9.83497 13.3157 10.3834 10.5443 10.3834L10.5448 10.3829Z" fill="white"/>
<path d="M17.3908 20.5541C15.6672 19.7017 13.2125 19.2155 10.6182 19.2155C8.02387 19.2155 5.57474 19.7006 3.8511 20.5511L3.51416 19.9248C5.30459 19.0435 7.81695 18.5598 10.6182 18.5598C13.4194 18.5598 15.865 19.0819 17.7167 19.9961L17.3908 20.5541Z" fill="white"/>
<path d="M10.946 16.4993H10.217V23.4849H10.946V16.4993Z" fill="white"/>
<path d="M19.6315 13.9961H12.7192V14.7251H19.6315V13.9961Z" fill="white"/>
<path d="M10.217 12.2229V0.412319C10.217 0.267628 10.2494 0.17201 10.4275 0.0536268C10.4988 0.00607095 10.5438 0 10.5747 0C10.6329 0 10.7027 0.0237779 10.7902 0.0541327L17.8801 4.39992C17.9742 4.44748 18.0855 4.59925 18.0855 4.75507C18.0855 4.9109 17.9519 5.00044 17.8942 5.02877L11.0189 8.09258V12.2223H10.2165L10.217 12.2229ZM10.946 7.39796L16.9102 4.7829L10.946 1.10643V7.39847V7.39796Z" fill="white"/>
<path d="M10.6182 16.6394C9.32 16.6394 8.30261 15.6225 8.30261 14.3238C8.30261 13.0252 9.3195 12.0088 10.6182 12.0088C11.9169 12.0088 12.9337 13.0257 12.9337 14.3238C12.9337 15.622 11.8733 16.6394 10.6182 16.6394ZM10.6182 12.8117C9.74345 12.8117 9.03163 13.5235 9.03163 14.3982C9.03163 15.317 9.69893 15.9837 10.6182 15.9837C11.5374 15.9837 12.2047 15.3164 12.2047 14.3982C12.2047 13.48 11.4929 12.8117 10.6182 12.8117Z" fill="white"/>
<path d="M8.44271 13.9961H1.53143V14.7251H8.44271V13.9961Z" fill="white"/>
<path d="M26.6935 11.0663H26.0055C25.8704 11.2677 25.751 11.4235 25.6478 11.5323C25.9509 11.6542 26.2129 11.77 26.433 11.8788L26.1527 12.242C25.7738 12.0665 25.4804 11.9395 25.2734 11.8621C24.7665 12.1156 24.2935 12.2765 23.8533 12.3447L23.6535 11.9178C24.0512 11.8677 24.3977 11.7812 24.6937 11.6572C24.4033 11.552 24.1594 11.4776 23.9616 11.4351C24.1407 11.2429 24.25 11.1199 24.2889 11.0663H23.698V10.6808H24.5965L24.8075 10.3565H23.9449V9.41906H24.938V9.15295H23.9312V8.53421H23.6763V8.17097H23.9312V7.56084H24.938V7.34178H25.4095V7.56084H26.4026V8.17097H26.6829V8.53421H26.4026V9.15295H25.4095V9.41906H26.4138V10.3565H25.3761L25.1707 10.6808H25.6868C25.7146 10.6348 25.7449 10.57 25.7783 10.4865L26.2165 10.5892C26.2165 10.6171 26.2063 10.6474 26.1861 10.6808H26.6935V11.0663ZM24.9375 8.17046V7.91801H24.3856V8.17046H24.9375ZM24.9375 8.80538V8.53371H24.3856V8.80538H24.9375ZM24.9375 9.99276V9.77067H24.4023V9.99276H24.9375ZM25.4535 11.0663H24.893C24.8854 11.0795 24.8414 11.1356 24.7599 11.2353L25.1981 11.3683C25.3033 11.2631 25.3883 11.1619 25.453 11.0658L25.4535 11.0663ZM25.9417 8.17046V7.91801H25.409V8.17046H25.9417ZM25.9417 8.79982V8.53371H25.409V8.79982H25.9417ZM25.961 9.99276V9.77067H25.409V9.99276H25.961ZM28.699 11.9178L28.4496 12.3392C28.0575 12.0432 27.7792 11.765 27.6148 11.5044C27.3856 11.8226 27.1256 12.0969 26.8352 12.3281L26.5048 11.9537C26.8615 11.6653 27.1362 11.3658 27.3285 11.0552C27.1418 10.7243 27.0001 10.3449 26.904 9.91789L27.3396 9.6796C27.419 10.0272 27.4984 10.2907 27.5779 10.4703C27.7185 10.0079 27.8 9.3887 27.8222 8.61212H27.4033C27.2258 9.13726 27.0492 9.53845 26.8736 9.8162L26.5463 9.40843C26.8514 8.83726 27.0704 8.13454 27.2035 7.30029L27.6861 7.3696C27.6619 7.53251 27.6113 7.78951 27.5333 8.14061H28.618V8.61212H28.3044C28.2639 9.64975 28.1202 10.4622 27.8743 11.0501C28.0979 11.3941 28.3727 11.6835 28.698 11.9183L28.699 11.9178Z" fill="white"/>
<path d="M32.0846 7.42984C32.0218 7.62563 31.9247 7.86796 31.7932 8.15633L31.5964 8.57219V12.2972H31.0889V9.44034C30.9741 9.60324 30.8365 9.77222 30.6756 9.94777L30.4479 9.41251C30.9007 8.86866 31.2771 8.16595 31.5766 7.30438L32.0841 7.42934L32.0846 7.42984ZM35.4519 12.1455H31.782V11.6461H32.7195C32.6401 10.862 32.5004 9.98571 32.3006 9.01638L32.6527 8.77759H31.9176V8.27016H33.4015C33.3347 8.02985 33.2305 7.74604 33.0878 7.41871L33.5927 7.29932C33.7182 7.60438 33.8284 7.92817 33.9225 8.27016H35.3093V8.77759H34.5605L34.9683 9.02701C34.8701 9.8906 34.7305 10.7633 34.5494 11.6456H35.4509V12.1449L35.4519 12.1455ZM34.4811 8.77759H32.764C32.9229 9.46715 33.0782 10.4233 33.23 11.6456H34.0263C34.2484 10.6065 34.3996 9.65029 34.4811 8.77759Z" fill="white"/>
<path d="M39.6672 7.86236C39.3824 8.27468 38.9564 8.63641 38.3882 8.94704H39.4117V10.2366H38.2881L38.2299 10.7304H39.4755C39.4663 11.2424 39.434 11.6011 39.3783 11.8054C39.3227 12.0098 39.2331 12.1419 39.1092 12.2021C38.9852 12.2623 38.7394 12.2921 38.3716 12.2921C38.2476 12.2921 38.0943 12.2901 37.9112 12.2866L37.7422 11.8206C37.9365 11.8338 38.2527 11.8399 38.6908 11.8399C38.8684 11.8399 38.9569 11.6122 38.9569 11.1574H37.6779L37.8444 9.80912H38.9235V9.37909H37.9805V9.1403C37.8601 9.19949 37.7048 9.2597 37.5145 9.32041L37.2813 8.90707C37.5717 8.81652 37.85 8.70269 38.1161 8.56609C37.9774 8.47907 37.8145 8.39408 37.6279 8.31111L37.9633 7.95899C38.1186 8.02375 38.325 8.13202 38.582 8.28328C38.7687 8.15731 38.9296 8.01717 39.0647 7.86186H37.7857V7.41817H39.6662V7.86186L39.6672 7.86236ZM42.3162 8.92478L42.0581 9.32142C41.8618 9.23642 41.6883 9.14738 41.5365 9.05531V9.62952C41.5365 9.69073 41.5689 9.72109 41.6337 9.72109H42.1386V10.1511H41.4728C41.2011 10.1511 41.065 10.0115 41.065 9.73222V9.38567H40.5075C40.5075 9.77977 40.29 10.0848 39.8559 10.3009L39.5478 9.92902C39.6976 9.86629 39.8164 9.7818 39.904 9.67505C39.992 9.56881 40.0355 9.39629 40.0355 9.1575V8.94654H41.3473C40.6411 8.51398 40.1584 8.01009 39.8994 7.43487L40.3487 7.29321C40.4003 7.42273 40.4964 7.5745 40.637 7.74803C40.8035 7.61143 40.9477 7.45966 41.0696 7.29321L41.4774 7.54819C41.2978 7.76826 41.1222 7.94483 40.9502 8.07788C41.0058 8.13353 41.0908 8.20537 41.2052 8.29441C41.4177 8.11886 41.6018 7.9423 41.7571 7.76472L42.1482 8.01414C41.9615 8.23219 41.7738 8.4128 41.5851 8.55496C41.7683 8.67132 42.0111 8.79426 42.3146 8.92377L42.3162 8.92478ZM42.2079 12.0149L41.8558 12.3341C41.6155 12.1545 41.3372 11.9709 41.021 11.7822C40.6972 12.0225 40.2935 12.2122 39.8089 12.3508L39.5594 11.935C40.0031 11.8186 40.3406 11.6825 40.5718 11.5272C40.2702 11.3516 40.0143 11.213 39.8033 11.1113L40.0947 10.8118H39.7593V10.3737H41.8841V10.8118C41.7288 11.043 41.5623 11.2565 41.3848 11.4528C41.6696 11.6339 41.9443 11.8216 42.2084 12.0159L42.2079 12.0149ZM41.2978 10.8108H40.2298C40.4868 10.9403 40.7347 11.0724 40.973 11.2075C41.1151 11.0577 41.2234 10.9257 41.2972 10.8108H41.2978Z" fill="white"/>
<path d="M49.0356 10.5671H46.0401V11.7069C46.2713 11.6553 46.5956 11.5481 47.0135 11.3852V11.9068C46.6194 12.0565 46.1363 12.1972 45.5631 12.3282L45.4437 11.9179C45.5196 11.8365 45.5575 11.7606 45.5575 11.6902V10.5666H44.9777C44.9109 11.286 44.7622 11.8673 44.531 12.3115L44.104 11.9923C44.3812 11.4747 44.5199 10.7088 44.5199 9.69543V7.42944H48.7807V8.73014H45.0303V9.24871H45.9678V8.90216H46.4504V9.24871H47.5407V8.90216H48.0233V9.24871H48.8469V9.66204H48.0233V10.1391H49.0356V10.5661V10.5671ZM45.9678 10.1396V9.66254H45.0248C45.0303 9.84568 45.0268 10.0045 45.0136 10.1396H45.9678ZM48.2677 8.28444V7.88476H45.0308V8.28444H48.2677ZM47.5407 10.1396V9.66254H46.4504V10.1396H47.5407ZM49.1272 11.929L48.8469 12.356C47.8594 12.0398 47.1653 11.5435 46.7641 10.8666L47.2164 10.6865C47.3494 10.8899 47.526 11.0831 47.7461 11.2663C47.9773 11.1423 48.1908 10.9582 48.3871 10.7143L48.8474 10.9638C48.6532 11.1929 48.4377 11.3918 48.2014 11.5602C48.4493 11.7009 48.7579 11.8238 49.1277 11.929H49.1272Z" fill="white"/>
<path d="M53.8474 9.79864H50.9546V9.35192H51.7064C51.6158 9.07265 51.502 8.80553 51.3654 8.55004L51.7398 8.32238H51.0684V7.86757H52.1946C52.1374 7.72136 52.0575 7.57009 51.9558 7.41275L52.4551 7.28223C52.5457 7.42439 52.6362 7.61967 52.7268 7.86757H53.7503V8.32238H53.1761L53.5337 8.52222C53.4523 8.74988 53.3369 9.02611 53.1872 9.35141H53.8474V9.79813V9.79864ZM53.5449 12.2812H53.0567V11.9594H51.7777V12.2812H51.2728V10.1922H53.5444V12.2812H53.5449ZM53.0567 11.5046V10.6531H51.7777V11.5046H53.0567ZM53.0734 8.32289H51.8141C51.975 8.6578 52.1091 9.00081 52.2163 9.35192H52.6545C52.8669 8.92493 53.0066 8.58192 53.0734 8.32289ZM55.3646 9.37418C55.7066 9.90285 55.8776 10.3855 55.8776 10.8221C55.8776 11.0386 55.8392 11.2111 55.7628 11.3396C55.6859 11.4681 55.5933 11.5536 55.484 11.5961C55.3748 11.6386 55.1547 11.6533 54.8238 11.6407L54.6822 11.1525C54.8354 11.1671 54.9948 11.1747 55.1592 11.1747C55.224 11.1747 55.2776 11.152 55.3201 11.1069C55.3626 11.0614 55.3839 10.9557 55.3839 10.7892C55.3839 10.3693 55.2063 9.92764 54.8511 9.46322C55.0287 8.99373 55.1876 8.48023 55.3282 7.92372H54.5572V12.2867H54.0801V7.46587H55.8108V7.92372C55.6813 8.42306 55.5326 8.90671 55.3641 9.37418H55.3646Z" fill="white"/>
<path d="M28.6767 19.9734C28.4698 20.7277 28.1571 21.1052 27.7392 21.1052C27.4509 21.1052 27.1362 20.922 26.7962 20.5557C26.4557 20.1895 26.2109 19.6699 26.0611 18.997H24.5464V20.4672C25.0255 20.3675 25.5304 20.235 26.0611 20.0706L26.1082 20.5922C25.3979 20.8011 24.7048 20.9675 24.0279 21.0915L23.8589 20.581C23.9641 20.5406 24.0172 20.4606 24.0172 20.3427V16.2595H28.1586V17.8435H26.4664C26.4608 18.0818 26.4739 18.3024 26.5053 18.5038H28.5052V18.9975H26.6025C26.7041 19.4523 26.8792 19.8297 27.1281 20.1292C27.377 20.4287 27.5753 20.5785 27.723 20.5785C27.7787 20.5785 27.8257 20.5648 27.8647 20.537C27.9037 20.5092 27.9603 20.4126 28.0352 20.2471C28.1101 20.0817 28.1708 19.898 28.2168 19.6967L28.6772 19.9739L28.6767 19.9734ZM27.631 17.3442V16.7589H24.5464V17.3442H27.631ZM25.9832 18.5032C25.9574 18.311 25.9377 18.0909 25.925 17.843H24.5464V18.5032H25.9832Z" fill="white"/>
<path d="M35.4408 20.9443H30.5147V20.4505H32.7144V19.2297H30.9751V18.736H32.7144V17.5349H30.709V17.0412H32.7949C32.7225 16.8029 32.5981 16.5241 32.4205 16.2064L32.9309 16.0703C33.0898 16.3774 33.2279 16.7007 33.3443 17.0412H35.2359V17.5349H33.236V18.736H34.9809V19.2297H33.236V20.4505H35.4413V20.9443H35.4408Z" fill="white"/>
<path d="M37.9916 19.7629C37.9435 20.2491 37.8494 20.6968 37.7087 21.1056L37.2706 20.8946C37.4092 20.4712 37.4998 20.0543 37.5423 19.6435L37.9916 19.7629ZM39.2594 17.0249C38.8764 17.8202 38.4575 18.4754 38.0027 18.9914C38.2597 18.9509 38.4777 18.9008 38.6573 18.8416C38.6148 18.7066 38.5734 18.6013 38.5324 18.5254L38.9401 18.3838C39.0641 18.6777 39.1668 19.0091 39.2482 19.3769L38.8324 19.513C38.8233 19.4538 38.8066 19.3744 38.7823 19.2747C38.3234 19.3911 37.8742 19.4836 37.434 19.5519L37.3035 19.1386C37.6384 18.7855 37.9359 18.3954 38.1964 17.9679C37.9248 18.0195 37.6723 18.0615 37.4391 18.0929L37.3556 17.6325C37.6829 17.2349 37.9592 16.7219 38.1848 16.093L38.6563 16.2929C38.4529 16.8104 38.2253 17.2268 37.9738 17.5409C38.1605 17.5227 38.3325 17.4949 38.4899 17.458C38.5936 17.2769 38.6978 17.0623 38.8035 16.8144L39.2584 17.0254L39.2594 17.0249ZM38.6796 20.8248L38.2248 20.9108C38.2192 20.4874 38.1848 20.11 38.1221 19.7791L38.5324 19.7179C38.6007 20.0579 38.6497 20.4272 38.6796 20.8248ZM39.2174 20.6336L38.8486 20.7059C38.8096 20.325 38.755 19.9906 38.6847 19.7017L39.0535 19.6268C39.1349 19.9633 39.1896 20.2992 39.2174 20.6336ZM42.1163 20.6088C42.1163 20.7752 42.0697 20.8977 41.9761 20.9761C41.8825 21.0545 41.7029 21.094 41.4368 21.094C41.3589 21.094 41.2603 21.0914 41.1399 21.0859L40.9734 20.6088C41.1788 20.6164 41.368 20.6199 41.5421 20.6199C41.5679 20.6199 41.5926 20.6083 41.6154 20.585C41.6387 20.5617 41.6503 20.5385 41.6503 20.5142V16.7057H39.8027V21.0909H39.3368V16.2286H42.1163V20.6083V20.6088ZM41.4864 18.0484H39.9636V17.5991H40.208C40.1452 17.3811 40.0693 17.1691 39.9803 16.9637L40.4184 16.8499C40.5221 17.0831 40.6031 17.3325 40.6628 17.5986H40.7766C40.8692 17.3861 40.9506 17.1438 41.021 16.8716L41.4677 16.991C41.4141 17.1979 41.3412 17.4008 41.2486 17.5986H41.4869V18.0479L41.4864 18.0484ZM41.4783 19.047H40.5823V19.774C40.5823 19.7963 40.5955 19.817 40.6213 19.8363C40.6471 19.8555 40.6704 19.8656 40.6906 19.8656H41.4227V20.3037H40.5656C40.2843 20.3037 40.1442 20.1616 40.1442 19.8767V19.0475H39.9641V18.6039H40.5606C40.5257 18.4835 40.4756 18.3534 40.4108 18.2128L40.8768 18.1324C40.938 18.2801 40.9952 18.4374 41.0488 18.6039H41.4788V19.0475L41.4783 19.047Z" fill="white"/>
<path d="M44.8305 19.7792C44.7587 20.3301 44.6504 20.7778 44.5062 21.1219L44.0818 20.9053C44.2148 20.6038 44.3231 20.197 44.4061 19.6851L44.8305 19.7792ZM46.2233 19.3132L45.7963 19.4741C45.7817 19.4093 45.7574 19.3355 45.7245 19.252C45.2307 19.3871 44.7415 19.4933 44.2573 19.5712L44.1324 19.1604C44.5042 18.7997 44.8108 18.4253 45.0531 18.0368C44.7885 18.0869 44.527 18.1284 44.268 18.1618L44.1572 17.7677C44.5103 17.3422 44.8184 16.7766 45.081 16.0703L45.5525 16.2064C45.3415 16.7629 45.081 17.2476 44.7703 17.6599C44.9348 17.6432 45.1214 17.6118 45.3309 17.5658C45.4604 17.3847 45.5687 17.1894 45.6557 16.9805L46.0994 17.1439C45.7371 17.8911 45.3182 18.5159 44.8427 19.0188C45.0886 18.9783 45.3289 18.9237 45.5636 18.8549C45.5211 18.7441 45.4796 18.656 45.4386 18.5913L45.8545 18.4167C46.0154 18.7051 46.1383 19.0041 46.2233 19.3127V19.3132ZM45.5631 20.8891L45.1331 20.9777C45.1199 20.534 45.0764 20.1272 45.0025 19.7574L45.3992 19.677C45.4918 20.0468 45.5464 20.451 45.5626 20.8891H45.5631ZM46.2729 20.5476L45.8651 20.6837C45.8004 20.3564 45.7063 20.0235 45.5823 19.6851L45.9678 19.5576C46.1049 19.9092 46.2066 20.239 46.2729 20.5476ZM49.1328 18.4506L48.8748 18.8999C48.3866 18.7147 47.9566 18.5002 47.5847 18.2564C47.1557 18.5245 46.7378 18.7314 46.3311 18.8776L46.0817 18.4451C46.4884 18.3135 46.8572 18.1491 47.1886 17.9513C46.9609 17.7201 46.8097 17.5289 46.7338 17.3771C46.6822 17.4383 46.5663 17.5425 46.3872 17.6908L46.11 17.2966C46.4707 17.0209 46.8097 16.6218 47.1279 16.0981L47.5857 16.2342C47.5432 16.3324 47.4906 16.4275 47.4279 16.5201H48.7873V16.9916C48.4989 17.4297 48.2298 17.7515 47.9798 17.9569C48.3148 18.1678 48.6993 18.3322 49.1338 18.4506H49.1328ZM48.761 21.0915H48.2505V20.8947H46.9164V21.0915H46.3979V18.992H48.761V21.0915ZM48.251 20.4121V19.469H46.9169V20.4121H48.251ZM48.2343 16.9916H47.0803L47.0581 17.025C47.184 17.2784 47.3596 17.4965 47.5852 17.6796C47.8073 17.5041 48.0234 17.2749 48.2343 16.9916Z" fill="white"/>
<path d="M55.7223 20.4282C55.7223 20.8703 55.5058 21.0909 55.0732 21.0909C54.6903 21.0909 54.4105 21.0874 54.2329 21.0798L54.0857 20.5693C54.5071 20.5784 54.8005 20.583 54.965 20.583C55.1294 20.583 55.2093 20.5349 55.2093 20.4388V16.6996H50.9597V16.2336H55.7223V20.4277V20.4282ZM54.7434 17.6492H51.0791V17.1888H54.7434V17.6492ZM54.3796 20.0927H51.4089V18.1789H54.3796V20.0927ZM53.8641 19.6212V18.6448H51.9143V19.6212H53.8641Z" fill="white"/>
</g>
<defs>
<clipPath id="clip0_2749_10604">
<rect width="55.0089" height="24" fill="white" transform="translate(0.868713)"/>
</clipPath>
</defs>
</svg>
