<svg viewBox="0 0 146 24" fill="none" xmlns="http://www.w3.org/2000/svg">
<g clip-path="url(#clip0_2749_6827)">
<path d="M18.9435 14.3633C14.6199 14.3633 14.5099 20.9221 18.9435 20.9221C23.4138 20.9221 23.2672 14.3633 18.9435 14.3633ZM18.9435 20.0793C15.7557 20.006 15.7557 15.316 18.9435 15.2427C22.1313 15.2793 22.1313 20.006 18.9435 20.0793Z" fill="white"/>
<path d="M29.313 5.49609C29.0565 5.49609 28.8733 5.6793 28.8733 5.93579V9.19686C28.3603 8.53732 27.5542 8.09762 26.4916 8.09762C24.3298 8.09762 23.2305 9.74648 23.1939 11.3953C23.1939 13.0442 24.3298 14.693 26.4916 14.693C27.5909 14.693 28.3603 14.2533 28.8733 13.5938V14.1434C28.8733 14.3999 29.0565 14.5831 29.313 14.5831C29.5695 14.5831 29.7527 14.3999 29.7527 14.1434V5.93579C29.7893 5.6793 29.5695 5.49609 29.313 5.49609ZM26.4916 13.8137C24.916 13.777 24.1099 12.6045 24.1099 11.3953C24.1099 10.1862 24.916 9.01365 26.4916 8.97701C28.0672 9.01365 28.8733 10.1862 28.8733 11.3953C28.8733 12.5678 28.0672 13.777 26.4916 13.8137Z" fill="white"/>
<path d="M38.1435 0.586242C37.887 0.586242 37.7038 0.806089 37.7038 1.02594V1.57556C37.1909 0.952654 36.4214 0.476318 35.3222 0.476318C33.1603 0.476318 32.0611 2.12517 32.0244 3.77403C32.0244 5.42288 33.1603 7.07174 35.3222 7.07174C36.4214 7.07174 37.1909 6.63204 37.7038 5.9725V6.52212C37.7038 6.77861 37.9237 6.96182 38.1435 6.96182C38.4 6.96182 38.5832 6.74197 38.5832 6.52212V1.02594C38.5832 0.806089 38.4 0.586242 38.1435 0.586242ZM35.3222 6.19235C33.7466 6.15571 32.9405 4.98319 32.9405 3.77403C32.9405 2.56487 33.7466 1.39235 35.3222 1.35571C36.8977 1.39235 37.7038 2.56487 37.7038 3.77403C37.7038 4.94655 36.8977 6.15571 35.3222 6.19235Z" fill="white"/>
<path d="M8.94047 14.4731C7.58474 14.4731 6.63207 15.1327 6.1191 16.0487C5.60612 15.1327 4.65345 14.4731 3.29772 14.4731C2.30841 14.4731 1.42902 14.9128 0.916041 15.609V15.0594C0.916041 14.8029 0.732835 14.6197 0.476346 14.6197C0.219858 14.6197 0.0366516 14.8396 0.0366516 15.0594V17.2212V17.7709V20.5189C0.0366516 20.7754 0.219858 20.9586 0.476346 20.9586C0.732835 20.9586 0.916041 20.7754 0.916041 20.5189C0.916041 20.006 0.8794 17.8075 0.952682 17.038C0.989323 16.8915 1.02596 16.7815 1.02596 16.7083C1.35574 15.9022 2.16184 15.3892 3.29772 15.3525C4.87329 15.3892 5.6794 16.5617 5.6794 17.7709V20.5189C5.6794 20.7754 5.89925 20.9586 6.1191 20.9586C6.33894 20.9586 6.55879 20.7388 6.55879 20.5189V17.7709C6.55879 16.5617 7.3649 15.3892 8.94047 15.3525C9.96642 15.3525 10.6626 15.8289 10.9924 16.4884C11.2122 16.8915 11.2855 17.4044 11.3221 18.0273V18.6869V20.4823C11.3221 20.7388 11.5054 20.922 11.7618 20.922C12.0183 20.922 12.2015 20.7388 12.2015 20.4823V18.6869V17.7709C12.2382 15.8289 10.9557 14.5098 8.94047 14.4731Z" fill="white"/>
<path d="M50.345 20.8122L48.2199 16.0854H47.487V21.7648H48.1466V17.3312L48.2199 17.4778L50.1252 21.7648H50.6015L52.5802 17.3312V21.7648H53.2397V16.0854H52.5069L50.3817 20.8854L50.345 20.8122Z" fill="white"/>
<path d="M54.9985 15.5359C54.742 15.5359 54.5222 15.7557 54.5222 16.0122C54.5222 16.2687 54.742 16.4886 54.9985 16.4886C55.255 16.4886 55.4748 16.2687 55.4748 16.0122C55.4382 15.7191 55.255 15.5359 54.9985 15.5359Z" fill="white"/>
<path d="M55.3283 17.2947H54.6321V21.7649H55.3283V17.2947Z" fill="white"/>
<path d="M54.9985 15.4993C54.7054 15.4993 54.4855 15.7191 54.4855 16.0122C54.4855 16.3054 54.7054 16.5252 54.9985 16.5252C55.255 16.5252 55.5115 16.3054 55.5115 16.0122C55.5115 15.7191 55.255 15.4993 54.9985 15.4993ZM54.9985 16.4886C54.742 16.4886 54.5221 16.2687 54.5221 16.0122C54.5221 15.7558 54.742 15.5359 54.9985 15.5359C55.255 15.5359 55.4748 15.7558 55.4748 16.0122C55.4382 16.2687 55.255 16.4886 54.9985 16.4886Z" fill="white"/>
<path d="M57.4534 17.9176L57.3801 18.0275V17.2947H56.684V21.7649H57.3801V19.31C57.3801 18.394 57.8931 17.8077 58.6992 17.8077C59.5053 17.8077 60.0183 18.3573 60.0183 19.2367V21.7649H60.6779V19.1268C60.6779 17.9543 59.9817 17.2214 58.8458 17.2214C58.2595 17.2214 57.7466 17.4779 57.4534 17.9176Z" fill="white"/>
<path d="M62.4 15.5359C62.1435 15.5359 61.9237 15.7557 61.9237 16.0122C61.9237 16.2687 62.1435 16.4886 62.4 16.4886C62.6565 16.4886 62.8763 16.2687 62.8763 16.0122C62.8763 15.7191 62.6565 15.5359 62.4 15.5359Z" fill="white"/>
<path d="M62.7664 17.2947H62.0702V21.7649H62.7664V17.2947Z" fill="white"/>
<path d="M65.5878 17.7711C66.174 17.7711 66.5405 18.0642 66.6137 18.5405H67.3099C67.2366 17.6978 66.6137 17.1848 65.6244 17.1848C64.6718 17.1848 64.0122 17.6978 64.0122 18.4306C64.0122 19.3466 64.855 19.5665 65.5878 19.7863C66.174 19.9329 66.687 20.0795 66.687 20.5558C66.687 20.9955 66.284 21.252 65.7344 21.252C65.1115 21.252 64.7084 20.9589 64.6351 20.4825H63.9389C64.0122 21.2886 64.745 21.8016 65.771 21.8016C66.7237 21.8016 67.3832 21.2886 67.3832 20.5192C67.3832 19.6398 66.5771 19.4199 65.8809 19.2367C65.2947 19.0902 64.745 18.907 64.745 18.394C64.6718 18.0642 65.0382 17.7711 65.5878 17.7711Z" fill="white"/>
<path d="M69.3252 16.1587H68.629V17.2946H68.0428V17.8442H68.629V20.5556C68.629 21.3984 68.9954 21.7648 69.8382 21.7648H70.4977V21.2152H69.9847C69.5084 21.2152 69.3252 21.032 69.3252 20.5923V17.8808H70.4977V17.3312H69.3252V16.1587Z" fill="white"/>
<path d="M72.2199 18.1375V17.2947H71.5237V21.7649H72.2199V19.3466C72.2199 18.394 72.6596 17.9543 73.5023 17.9543H73.6489V17.2214C72.9893 17.2214 72.513 17.5146 72.2565 18.0275L72.2199 18.1375Z" fill="white"/>
<path d="M76.3237 20.9222L74.9313 17.2947H74.1618L75.9573 21.7283V21.7649L75.0779 23.8901H75.8107L78.4855 17.2947H77.7893L76.3603 21.0321L76.3237 20.9222Z" fill="white"/>
<path d="M83.6153 17.2214C82.2962 17.2214 81.3435 18.1741 81.3435 19.5298C81.3435 20.8856 82.2595 21.8382 83.5786 21.8382C84.9343 21.8382 85.8504 20.8856 85.8504 19.5298C85.8504 18.1741 84.9343 17.2214 83.6153 17.2214ZM83.5786 21.2153C82.8824 21.2153 82.0397 20.7756 82.0397 19.4932C82.0397 18.2107 82.8824 17.7711 83.5786 17.7711C84.3481 17.7711 85.1542 18.284 85.1542 19.4932C85.1542 20.7024 84.3481 21.2153 83.5786 21.2153Z" fill="white"/>
<path d="M87.7924 16.9283C87.7924 16.3054 88.0489 16.0489 88.7084 16.0489V15.4993C87.6092 15.4993 87.1328 15.939 87.1328 16.9283V17.2947H86.5466V17.8443H87.1328V21.7649H87.829V17.8443H88.7817V17.2947H87.829V16.9283H87.7924Z" fill="white"/>
<path d="M93.7283 16.0488H91.9695V21.7282H93.7283C95.597 21.7282 96.7695 20.629 96.7695 18.9068C96.7695 17.1481 95.597 16.0488 93.7283 16.0488ZM93.7283 21.2152H92.6657V16.5984H93.7283C95.1939 16.5984 96.0733 17.4412 96.0733 18.9068C96.0733 20.3725 95.2306 21.2152 93.7283 21.2152Z" fill="white"/>
<path d="M98.5649 17.2947H97.8687V21.7649H98.5649V17.2947Z" fill="white"/>
<path d="M98.2351 15.5359C97.9786 15.5359 97.7588 15.7557 97.7588 16.0122C97.7588 16.2687 97.9786 16.4886 98.2351 16.4886C98.4916 16.4886 98.7115 16.2687 98.7115 16.0122C98.7115 15.7191 98.4916 15.5359 98.2351 15.5359Z" fill="white"/>
<path d="M101.789 17.2214C100.544 17.2214 99.6641 18.1741 99.6641 19.4932C99.6641 20.8489 100.544 21.8016 101.789 21.8016C102.632 21.8016 103.218 21.3253 103.438 20.8856L103.511 20.7756V21.8749C103.511 22.7909 102.962 23.3772 102.082 23.3772C101.35 23.3772 100.8 23.0107 100.617 22.4611H99.9572C100.104 23.3772 100.947 23.9634 102.119 23.9634C103.402 23.9634 104.244 23.1207 104.244 21.8749V17.2947H103.548V18.2107L103.475 18.1008C103.218 17.6611 102.669 17.2214 101.789 17.2214ZM103.511 19.4932C103.511 20.5191 102.852 21.2153 101.936 21.2153C101.02 21.2153 100.36 20.5191 100.36 19.4932C100.36 18.5039 101.02 17.7711 101.936 17.7711C102.852 17.8077 103.511 18.5039 103.511 19.4932Z" fill="white"/>
<path d="M105.93 15.5359C105.673 15.5359 105.453 15.7557 105.453 16.0122C105.453 16.2687 105.673 16.4886 105.93 16.4886C106.186 16.4886 106.406 16.2687 106.406 16.0122C106.406 15.7191 106.223 15.5359 105.93 15.5359Z" fill="white"/>
<path d="M106.296 17.2947H105.6V21.7649H106.296V17.2947Z" fill="white"/>
<path d="M108.531 16.1587H107.835V17.2946H107.249V17.8442H107.835V20.5556C107.835 21.3984 108.202 21.7648 109.044 21.7648H109.704V21.2152H109.191C108.715 21.2152 108.531 21.032 108.531 20.5923V17.8808H109.704V17.3312H108.531V16.1587Z" fill="white"/>
<path d="M112.562 17.2214C111.316 17.2214 110.437 18.1741 110.437 19.4932C110.437 20.8489 111.316 21.8016 112.562 21.8016C113.295 21.8016 113.918 21.4718 114.211 20.8856L114.284 20.7756V21.7283H114.98V17.2947H114.284V18.2107L114.211 18.1008C113.918 17.5512 113.295 17.2214 112.562 17.2214ZM114.284 19.4932C114.284 20.5191 113.624 21.2153 112.708 21.2153C111.792 21.2153 111.133 20.5191 111.133 19.4932C111.133 18.5039 111.792 17.7711 112.708 17.7711C113.624 17.8077 114.284 18.5039 114.284 19.4932Z" fill="white"/>
<path d="M117.069 15.6824H116.373V21.7282H117.069V15.6824Z" fill="white"/>
<path d="M122.418 16.0854L120.366 21.7282H121.099L121.576 20.4458H124.14V20.4824L124.58 21.7282H125.313L123.261 16.0854H122.418ZM121.722 19.9328V19.8961L122.785 16.8916L123.884 19.9328H121.722Z" fill="white"/>
<path d="M127.145 16.9283C127.145 16.3054 127.402 16.0489 128.061 16.0489V15.4993C126.962 15.4993 126.485 15.939 126.485 16.9283V17.2947H125.899V17.8443H126.485V21.7649H127.182V17.8443H128.134V17.2947H127.145V16.9283Z" fill="white"/>
<path d="M129.893 16.9283C129.893 16.3054 130.15 16.0489 130.809 16.0489V15.4993C129.71 15.4993 129.234 15.939 129.234 16.9283V17.2947H128.647V17.8443H129.234V21.7649H129.93V17.8443H130.882V17.2947H129.93V16.9283H129.893Z" fill="white"/>
<path d="M133.667 17.2214C132.421 17.2214 131.542 18.1741 131.542 19.4932C131.542 20.8489 132.421 21.8016 133.667 21.8016C134.4 21.8016 135.023 21.4718 135.316 20.8856L135.389 20.7756V21.7283H136.086V17.2947H135.389V18.2107L135.316 18.1008C135.023 17.5512 134.4 17.2214 133.667 17.2214ZM135.389 19.4932C135.389 20.5191 134.73 21.2153 133.814 21.2153C132.898 21.2153 132.238 20.5191 132.238 19.4932C132.238 18.5039 132.898 17.7711 133.814 17.7711C134.73 17.8077 135.389 18.5039 135.389 19.4932Z" fill="white"/>
<path d="M137.844 15.5359C137.588 15.5359 137.368 15.7557 137.368 16.0122C137.368 16.2687 137.588 16.4886 137.844 16.4886C138.101 16.4886 138.321 16.2687 138.321 16.0122C138.284 15.7191 138.101 15.5359 137.844 15.5359Z" fill="white"/>
<path d="M138.174 17.2947H137.478V21.7649H138.174V17.2947Z" fill="white"/>
<path d="M140.226 18.1375V17.2947H139.53V21.7649H140.226V19.3466C140.226 18.394 140.666 17.9543 141.508 17.9543H141.655V17.2214C140.995 17.2214 140.519 17.5146 140.263 18.0275L140.226 18.1375Z" fill="white"/>
<path d="M144.366 19.2734C143.78 19.1268 143.231 18.9436 143.231 18.4306C143.231 18.0276 143.597 17.7711 144.147 17.7711C144.733 17.7711 145.099 18.0642 145.173 18.5405H145.869C145.795 17.6978 145.173 17.1848 144.183 17.1848C143.231 17.1848 142.571 17.6978 142.571 18.4306C142.571 19.3466 143.414 19.5665 144.147 19.7863C144.733 19.9329 145.246 20.0795 145.246 20.5558C145.246 20.9955 144.843 21.252 144.293 21.252C143.67 21.252 143.267 20.9589 143.194 20.4825H142.498C142.571 21.2886 143.304 21.8016 144.33 21.8016C145.282 21.8016 145.942 21.2886 145.942 20.5192C145.869 19.6764 145.063 19.4566 144.366 19.2734Z" fill="white"/>
<path d="M47.3038 3.04122V3.62748H47.8901H49.1725V4.1771H47.6336H47.0473V4.76336V5.53282V6.11908H47.6336H48.8428L48.4031 6.85191L46.6809 6.88855V7.47481L48.0367 7.43817L47.4137 8.46412L47.9267 8.75725L48.1466 8.42748C48.6229 8.61069 49.0626 8.75725 49.4657 8.94046C48.4397 9.6 47.1939 9.70992 47.1939 9.70992L47.2305 10.2962C47.3405 10.2962 48.8428 10.113 50.0519 9.23359C50.8947 9.67328 51.371 10.0397 51.371 10.0397L51.7374 9.56336C51.7008 9.52672 51.2977 9.19695 50.5283 8.79389C50.8947 8.42748 51.1878 7.9145 51.3344 7.32824L52.7634 7.2916V6.70534L49.0992 6.74198L49.5023 6.0458H49.7221H51.1145H51.7008V5.45954V4.69008V4.10382H51.1145H49.7221V3.62748H51.1145H51.7008V3.04122V2.38168H52.4336V1.79542H51.7008V1.17252V0.58626H51.1145H49.7221V0H49.1359V0.58626H47.8534H47.2672V1.17252V1.79542H46.5344V2.38168H47.2672V3.04122H47.3038ZM50.7481 7.36489C50.5649 7.84122 50.3084 8.20763 49.9786 8.50076C49.5389 8.28092 49.026 8.06107 48.4397 7.87786L48.7328 7.40153L50.7481 7.36489ZM47.6336 4.72672H49.1725V5.49618H47.6336V4.72672ZM51.1145 4.72672V5.49618H49.7221V4.72672H51.1145ZM47.8901 3.04122V2.38168H49.1725V3.00458H47.8901V3.04122ZM51.1145 3.04122H49.7221V2.38168H51.1145V3.04122ZM51.1145 1.17252V1.79542H49.7221V1.17252H51.1145ZM47.8901 1.17252H49.1725V1.79542H47.8901V1.17252Z" fill="white"/>
<path d="M52.5802 5.34962C52.8367 4.90992 53.0565 4.39695 53.2397 3.92061C53.4596 4.87328 53.8626 5.93588 54.4489 6.96183C53.4596 8.75725 52.2138 9.63664 52.1771 9.63664L52.5069 10.113C52.5802 10.0397 53.7893 9.23359 54.7786 7.58473C55.3649 8.61069 56.0611 9.52672 56.7939 10.2595L57.197 9.85649C56.4275 9.08702 55.6947 8.06107 55.1084 6.96183C55.658 5.8626 56.0977 4.47023 56.1344 2.71145H56.8306V2.12519H53.7893C54.0458 1.02595 54.1557 0.146565 54.1557 0.0732824L53.5695 0C53.5695 0.0366412 53.2397 2.96794 52.0672 5.01985L52.5802 5.34962ZM54.742 6.26565C54.0825 4.98321 53.6794 3.66412 53.6428 2.71145H55.5115C55.5115 4.14046 55.1817 5.31298 54.742 6.26565Z" fill="white"/>
<path d="M62.8397 10.2228V2.60139C63.5725 1.46551 63.9389 0.586119 63.9756 0.512836L63.3893 0.256348C63.3893 0.292989 62.3634 2.56474 60.6046 4.43345L61.0809 4.87314C61.484 4.43345 61.8504 3.95711 62.1802 3.51742V10.2228H62.8397Z" fill="white"/>
<path d="M70.6076 2.345H67.5664V0.0732422H66.9069V2.345H63.9023V3.00454H70.6076V2.345Z" fill="white"/>
<path d="M69.7649 4.10376L69.8382 3.77399L69.1786 3.66406L69.1054 3.99383C69.1054 4.03047 68.5924 6.59536 67.7863 9.16025H66.3939C66.1008 7.32818 65.8443 5.49612 65.6977 4.58009C65.6611 4.28696 65.6244 4.06712 65.6244 4.03047L65.5878 3.66406L64.9283 3.77399L64.9649 4.10376C64.9649 4.17704 65.0015 4.36025 65.0382 4.65338C65.1481 5.53276 65.4412 7.32818 65.7344 9.1236H63.7557V9.78315H70.8641V9.1236H68.4458C69.2886 6.59536 69.7649 4.1404 69.7649 4.10376Z" fill="white"/>
<path d="M76.5435 4.03066V4.36043H78.5588V5.45967H76.5802C76.4336 5.45967 76.287 5.56959 76.2504 5.71616L75.7374 7.87799L76.3603 8.02455L76.4336 7.73142H78.5221C78.4489 8.64745 78.3023 9.63677 78.1557 9.81997C78.0092 9.96654 77.4595 9.9299 77.0565 9.9299C76.8733 9.9299 76.6901 9.9299 76.5435 9.9299V10.5894C76.6901 10.5894 76.8733 10.5894 77.0198 10.5894C77.2031 10.5894 77.3863 10.5894 77.5328 10.5894C77.9725 10.5894 78.3756 10.5162 78.6321 10.2597C79.0718 9.74669 79.1817 7.95127 79.2183 7.40165C79.2183 7.32837 79.1817 7.21845 79.145 7.14516C79.0718 7.07188 78.9985 7.03524 78.9252 7.03524H76.6534L76.8733 6.04593H78.5954V6.26578H79.255V4.03066C79.255 3.84745 79.1084 3.70089 78.9252 3.70089H77.0931C78.9985 2.45509 79.5481 1.17265 79.5847 1.09936C79.6214 0.989439 79.6214 0.879515 79.5481 0.806233C79.4748 0.73295 79.4015 0.659668 79.2916 0.659668H76.2137V1.31921H78.7053C78.4855 1.64898 78.1191 2.08868 77.5328 2.56501C76.9466 2.05203 76.3237 1.68562 76.3237 1.68562L75.9939 2.1986C75.9939 2.1986 76.5435 2.49173 77.0198 2.93142C76.4702 3.33448 75.774 3.73753 74.8947 4.10394L75.1511 4.72684C75.6641 4.507 76.1038 4.28715 76.5435 4.03066Z" fill="white"/>
<path d="M83.2122 0.952755L82.7725 0.476419C82.7725 0.476419 82.3695 0.879472 81.7466 1.39245C81.2336 0.769549 80.9038 0.293213 80.9038 0.293213L80.3542 0.622984C80.4275 0.732908 82.0763 3.481 84.9343 4.43367L85.1542 3.81077C84.5313 3.59092 83.9817 3.29779 83.4687 2.93138L84.5313 1.97871L84.0916 1.50237L82.9191 2.56497C82.6626 2.34512 82.4061 2.12527 82.1862 1.90543C82.7725 1.35581 83.2122 0.952755 83.2122 0.952755Z" fill="white"/>
<path d="M79.5115 10.6993C80.574 10.4795 81.3435 10.0764 81.9298 9.63674C82.516 10.0032 83.2855 10.3696 84.2748 10.6993L84.458 10.0764C83.6153 9.81995 82.9557 9.49018 82.4428 9.19705C83.3588 8.31766 83.6153 7.43827 83.6153 7.36499C83.6519 7.25506 83.6153 7.14514 83.542 7.07186C83.4687 6.99858 83.3954 6.92529 83.2855 6.92529H80.3542C80.2443 6.92529 80.171 6.96193 80.0977 7.03522C80.0244 7.1085 79.9878 7.18178 80.0244 7.29171C80.0244 7.36499 80.1344 8.24438 81.3435 9.19705C80.8305 9.52682 80.171 9.85659 79.3282 10.0398L79.5115 10.6993ZM80.8305 7.58484H82.8458C82.6992 7.91461 82.4061 8.3543 81.8931 8.794C81.2702 8.31766 80.9771 7.87797 80.8305 7.58484Z" fill="white"/>
<path d="M79.7679 6.08263L79.8412 6.74217C79.8779 6.74217 81.1237 6.63225 81.0504 4.61698C81.0504 4.5437 81.0504 4.43377 81.0504 4.32385H82.2962C82.3695 4.32385 82.4061 4.39713 82.4061 4.50705V5.75286C82.4061 6.19255 82.7359 6.52232 83.1389 6.52232H83.7618C83.945 6.52232 84.2382 6.37576 84.3847 6.15591L84.6779 5.60629L84.0916 5.27652L83.7985 5.82614C83.7985 5.82614 83.7618 5.86278 83.7252 5.86278H83.1023C83.0657 5.86278 83.029 5.82614 83.029 5.75286V4.50705C83.029 4.03072 82.6626 3.66431 82.2595 3.66431H80.9771C80.8305 3.66431 80.684 3.73759 80.5741 3.81087C80.3542 4.03072 80.3908 4.36049 80.3908 4.65362C80.4275 5.9727 79.8046 6.08263 79.7679 6.08263Z" fill="white"/>
<path d="M92.8855 9.60003V7.1817H94.3878C94.6809 7.87789 95.7435 10.0031 98.6748 10.8458L98.858 10.2229C97.942 9.96644 97.2092 9.52674 96.6595 9.08705C97.3924 8.64735 98.0519 8.09774 98.0886 8.09774L97.6489 7.6214C97.6489 7.6214 96.916 8.2443 96.1466 8.64735C95.6336 8.09774 95.3038 7.58476 95.1206 7.21835H98.7847V6.5588H96.4763V5.34964H98.1618V4.6901H96.4763V3.48094H97.8321C98.0153 3.48094 98.1618 3.33438 98.1618 3.15117V1.35575C98.1618 1.06262 97.942 0.842773 97.6489 0.842773H90.4305C90.3573 0.842773 90.2473 0.879415 90.2107 0.952697C90.1374 1.02598 90.1008 1.09926 90.1374 1.20919C90.1374 1.28247 90.4672 8.28094 88.9283 10.2962L89.4412 10.6993C90.0275 9.96644 90.3573 8.64735 90.5405 7.21835H92.2626V9.74659L90.9802 9.96644L91.0901 10.626L95.1573 9.89316L95.0473 9.23361L92.8855 9.60003ZM95.8168 6.52216H93.3985V5.313H95.8168V6.52216ZM95.8168 4.6901H93.3985V3.48094H95.8168V4.6901ZM97.4657 1.50232V2.8214H90.7603C90.7603 2.23514 90.7603 1.79545 90.7237 1.50232H97.4657ZM90.7603 3.48094H92.7389V4.65346H91.2V5.313H92.7389V6.52216H90.5771C90.687 5.45957 90.7237 4.39697 90.7603 3.48094Z" fill="white"/>
<path d="M107.212 2.16185H107.908V1.50231H105.637V0.403076H104.977V1.50231H102.705V2.16185H103.402C103.511 2.67483 103.768 3.92063 103.915 4.83666H102.486V5.49621H108.092V4.83666H106.663C106.846 3.92063 107.102 2.67483 107.212 2.16185ZM104.098 2.16185H106.553C106.406 2.78476 106.186 3.95727 106.04 4.83666H104.574C104.464 3.95727 104.208 2.78476 104.098 2.16185Z" fill="white"/>
<path d="M107.102 6.44897H103.548C103.365 6.44897 103.218 6.59554 103.218 6.77875V10.6261H103.878V10.1497H106.773V10.6261H107.432V6.77875C107.432 6.59554 107.285 6.44897 107.102 6.44897ZM103.878 9.45355V7.10852H106.773V9.45355H103.878Z" fill="white"/>
<path d="M112.195 2.08855C112.305 1.83207 112.269 1.5023 112.086 1.24581C111.939 1.02596 111.646 0.879395 111.389 0.879395H109.411C109.118 0.879395 108.898 1.09924 108.898 1.39237V10.7359H109.557V1.57558H111.389C111.463 1.57558 111.536 1.64886 111.536 1.64886C111.573 1.6855 111.609 1.75878 111.536 1.86871L110.657 4.58016C110.62 4.69008 110.657 4.80001 110.693 4.87329C111.316 5.78932 112.159 7.51146 111.792 8.24428C111.646 8.53741 111.243 8.68398 110.657 8.68398H110.327V9.34352H110.657C111.499 9.34352 112.086 9.08703 112.379 8.53741C113.002 7.32825 111.719 5.2397 111.353 4.6168L112.195 2.08855Z" fill="white"/>
</g>
<defs>
<clipPath id="clip0_2749_6827">
<rect width="145.869" height="24" fill="white"/>
</clipPath>
</defs>
</svg>
