<?xml version="1.0" encoding="utf-8"?>
<!-- Generator: Adobe Illustrator 24.2.1, SVG Export Plug-In . SVG Version: 6.00 Build 0)  -->
<svg version="1.1" id="圖層_1" xmlns="http://www.w3.org/2000/svg" xmlns:xlink="http://www.w3.org/1999/xlink" x="0px" y="0px"
	 width="398.1px" height="65.5px" viewBox="0 0 398.1 65.5" style="enable-background:new 0 0 398.1 65.5;" xml:space="preserve">
<g>
	<g>
		<g>
			<path d="M51.7,39.2c-11.8,0-12.1,17.9,0,17.9C63.9,57.1,63.5,39.2,51.7,39.2z M51.7,54.8c-8.7-0.2-8.7-13,0-13.2
				C60.4,41.7,60.4,54.6,51.7,54.8z"/>
			<path d="M80,15c-0.7,0-1.2,0.5-1.2,1.2v8.9c-1.4-1.8-3.6-3-6.5-3c-5.9,0-8.9,4.5-9,9c0,4.5,3.1,9,9,9c3,0,5.1-1.2,6.5-3v1.5
				c0,0.7,0.5,1.2,1.2,1.2s1.2-0.5,1.2-1.2V16.2C81.3,15.5,80.7,15,80,15z M72.3,37.7c-4.3-0.1-6.5-3.3-6.5-6.6
				c0-3.3,2.2-6.5,6.5-6.6c4.3,0.1,6.5,3.3,6.5,6.6C78.8,34.3,76.6,37.6,72.3,37.7z"/>
			<path d="M104.1,1.6c-0.7,0-1.2,0.6-1.2,1.2v1.5c-1.4-1.7-3.5-3-6.5-3c-5.9,0-8.9,4.5-9,9c0,4.5,3.1,9,9,9c3,0,5.1-1.2,6.5-3v1.5
				c0,0.7,0.6,1.2,1.2,1.2c0.7,0,1.2-0.6,1.2-1.2V2.8C105.3,2.2,104.8,1.6,104.1,1.6z M96.4,16.9c-4.3-0.1-6.5-3.3-6.5-6.6
				c0-3.3,2.2-6.5,6.5-6.6c4.3,0.1,6.5,3.3,6.5,6.6C102.9,13.5,100.7,16.8,96.4,16.9z"/>
			<path d="M24.4,39.5c-3.7,0-6.3,1.8-7.7,4.3c-1.4-2.5-4-4.3-7.7-4.3c-2.7,0-5.1,1.2-6.5,3.1v-1.5c0-0.7-0.5-1.2-1.2-1.2
				c-0.7,0-1.2,0.6-1.2,1.2V47v1.5v7.5c0,0.7,0.5,1.2,1.2,1.2c0.7,0,1.2-0.5,1.2-1.2c0-1.4-0.1-7.4,0.1-9.5c0.1-0.4,0.2-0.7,0.2-0.9
				c0.9-2.2,3.1-3.6,6.2-3.7c4.3,0.1,6.5,3.3,6.5,6.6v7.5c0,0.7,0.6,1.2,1.2,1.2s1.2-0.6,1.2-1.2v-7.5h0c0-3.3,2.2-6.5,6.5-6.6
				c2.8,0,4.7,1.3,5.6,3.1c0.6,1.1,0.8,2.5,0.9,4.2l0,1.8v4.9c0,0.7,0.5,1.2,1.2,1.2c0.7,0,1.2-0.5,1.2-1.2V51v-2.5
				C33.4,43.2,29.9,39.6,24.4,39.5z"/>
		</g>
		<g>
			<polygon points="137.4,56.8 131.6,43.9 129.6,43.9 129.6,59.4 131.4,59.4 131.4,47.3 131.6,47.7 136.8,59.4 138.1,59.4 
				143.5,47.3 143.5,59.4 145.3,59.4 145.3,43.9 143.3,43.9 137.5,57 			"/>
			<path d="M150.1,42.4c-0.7,0-1.3,0.6-1.3,1.3c0,0.7,0.6,1.3,1.3,1.3c0.7,0,1.3-0.6,1.3-1.3C151.3,42.9,150.8,42.4,150.1,42.4z"/>
			<rect x="149.1" y="47.2" width="1.9" height="12.2"/>
			<path d="M150.1,42.3c-0.8,0-1.4,0.6-1.4,1.4s0.6,1.4,1.4,1.4c0.7,0,1.4-0.6,1.4-1.4S150.8,42.3,150.1,42.3z M150.1,45
				c-0.7,0-1.3-0.6-1.3-1.3c0-0.7,0.6-1.3,1.3-1.3c0.7,0,1.3,0.6,1.3,1.3C151.3,44.4,150.8,45,150.1,45z"/>
			<path d="M156.8,48.9l-0.2,0.3v-2h-1.9v12.2h1.9v-6.7c0-2.5,1.4-4.1,3.6-4.1c2.2,0,3.6,1.5,3.6,3.9v6.9h1.8v-7.2
				c0-3.2-1.9-5.2-5-5.2C159,47,157.6,47.7,156.8,48.9z"/>
			<path d="M170.3,42.4c-0.7,0-1.3,0.6-1.3,1.3c0,0.7,0.6,1.3,1.3,1.3c0.7,0,1.3-0.6,1.3-1.3C171.6,42.9,171,42.4,170.3,42.4z"/>
			<rect x="169.4" y="47.2" width="1.9" height="12.2"/>
			<path d="M179,48.5c1.6,0,2.6,0.8,2.8,2.1h1.9c-0.2-2.3-1.9-3.7-4.6-3.7c-2.6,0-4.4,1.4-4.4,3.4c0,2.5,2.3,3.1,4.3,3.7
				c1.6,0.4,3,0.8,3,2.1c0,1.2-1.1,1.9-2.6,1.9c-1.7,0-2.8-0.8-3-2.1h-1.9c0.2,2.2,2.2,3.6,5,3.6c2.6,0,4.4-1.4,4.4-3.5
				c0-2.4-2.2-3-4.1-3.5c-1.6-0.4-3.1-0.9-3.1-2.3C176.5,49.3,177.5,48.5,179,48.5z"/>
			<path d="M189.2,44.1h-1.9v3.1h-1.6v1.5h1.6v7.4c0,2.3,1,3.3,3.3,3.3h1.8v-1.5h-1.4c-1.3,0-1.8-0.5-1.8-1.7v-7.4h3.2v-1.5h-3.2
				V44.1z"/>
			<path d="M197.1,49.5v-2.3h-1.9v12.2h1.9v-6.6c0-2.6,1.2-3.8,3.5-3.8h0.4V47c-1.8,0-3.1,0.8-3.8,2.2L197.1,49.5z"/>
			<polygon points="208.3,57.1 204.5,47.2 202.4,47.2 207.3,59.3 207.3,59.4 204.9,65.2 206.9,65.2 214.2,47.2 212.3,47.2 
				208.4,57.4 			"/>
			<path d="M228.2,47c-3.6,0-6.2,2.6-6.2,6.3c0,3.7,2.5,6.3,6.1,6.3c3.7,0,6.2-2.6,6.2-6.3C234.3,49.6,231.8,47,228.2,47z
				 M228.1,57.9c-1.9,0-4.2-1.2-4.2-4.7c0-3.5,2.3-4.7,4.2-4.7c2.1,0,4.3,1.4,4.3,4.7C232.4,56.5,230.2,57.9,228.1,57.9z"/>
			<path d="M239.6,46.2c0-1.7,0.7-2.4,2.5-2.4v-1.5c-3,0-4.3,1.2-4.3,3.9v1h-1.6v1.5h1.6v10.7h1.9V48.7h2.6v-1.5h-2.6V46.2z"/>
			<path d="M255.8,43.8H251v15.5h4.8c5.1,0,8.3-3,8.3-7.7C264.1,46.8,260.9,43.8,255.8,43.8z M255.8,57.9h-2.9V45.3h2.9
				c4,0,6.4,2.3,6.4,6.3C262.2,55.6,259.9,57.9,255.8,57.9z"/>
			<rect x="267.1" y="47.2" width="1.9" height="12.2"/>
			<path d="M268.1,42.4c-0.7,0-1.3,0.6-1.3,1.3c0,0.7,0.6,1.3,1.3,1.3c0.7,0,1.3-0.6,1.3-1.3C269.4,42.9,268.8,42.4,268.1,42.4z"/>
			<path d="M277.8,47c-3.4,0-5.8,2.6-5.8,6.2c0,3.7,2.4,6.3,5.8,6.3c2.3,0,3.9-1.3,4.5-2.5l0.2-0.3v3c0,2.5-1.5,4.1-3.9,4.1
				c-2,0-3.5-1-4-2.5h-1.8c0.4,2.5,2.7,4.1,5.9,4.1c3.5,0,5.8-2.3,5.8-5.7V47.2h-1.9v2.5l-0.2-0.3C281.7,48.2,280.2,47,277.8,47z
				 M282.5,53.2c0,2.8-1.8,4.7-4.3,4.7c-2.5,0-4.3-1.9-4.3-4.7c0-2.7,1.8-4.7,4.3-4.7C280.7,48.6,282.5,50.5,282.5,53.2z"/>
			<path d="M289.1,42.4c-0.7,0-1.3,0.6-1.3,1.3c0,0.7,0.6,1.3,1.3,1.3c0.7,0,1.3-0.6,1.3-1.3C290.4,42.9,289.9,42.4,289.1,42.4z"/>
			<rect x="288.2" y="47.2" width="1.9" height="12.2"/>
			<path d="M296.2,44.1h-1.9v3.1h-1.6v1.5h1.6v7.4c0,2.3,1,3.3,3.3,3.3h1.8v-1.5H298c-1.3,0-1.8-0.5-1.8-1.7v-7.4h3.2v-1.5h-3.2
				V44.1z"/>
			<path d="M307.2,47c-3.4,0-5.8,2.6-5.8,6.2c0,3.7,2.4,6.3,5.8,6.3c2,0,3.7-0.9,4.5-2.5l0.2-0.3v2.6h1.9V47.2h-1.9v2.5l-0.2-0.3
				C310.9,47.9,309.2,47,307.2,47z M311.9,53.2c0,2.8-1.8,4.7-4.3,4.7c-2.5,0-4.3-1.9-4.3-4.7c0-2.7,1.8-4.7,4.3-4.7
				C310.1,48.6,311.9,50.5,311.9,53.2z"/>
			<rect x="317.6" y="42.8" width="1.9" height="16.5"/>
			<path d="M334.1,43.9l-5.6,15.4h2l1.3-3.5h7l0,0.1l1.2,3.4h2l-5.6-15.4H334.1z M332.2,54.4l0-0.1l2.9-8.2l3,8.3H332.2z"/>
			<path d="M347,46.2c0-1.7,0.7-2.4,2.5-2.4v-1.5c-3,0-4.3,1.2-4.3,3.9v1h-1.6v1.5h1.6v10.7h1.9V48.7h2.6v-1.5H347V46.2z"/>
			<path d="M354.5,46.2c0-1.7,0.7-2.4,2.5-2.4v-1.5c-3,0-4.3,1.2-4.3,3.9v1h-1.6v1.5h1.6v10.7h1.9V48.7h2.6v-1.5h-2.6V46.2z"/>
			<path d="M364.8,47c-3.4,0-5.8,2.6-5.8,6.2c0,3.7,2.4,6.3,5.8,6.3c2,0,3.7-0.9,4.5-2.5l0.2-0.3v2.6h1.9V47.2h-1.9v2.5l-0.2-0.3
				C368.5,47.9,366.8,47,364.8,47z M369.5,53.2c0,2.8-1.8,4.7-4.3,4.7c-2.5,0-4.3-1.9-4.3-4.7c0-2.7,1.8-4.7,4.3-4.7
				C367.7,48.6,369.5,50.5,369.5,53.2z"/>
			<path d="M376.2,42.4c-0.7,0-1.3,0.6-1.3,1.3c0,0.7,0.6,1.3,1.3,1.3c0.7,0,1.3-0.6,1.3-1.3C377.4,42.9,376.9,42.4,376.2,42.4z"/>
			<rect x="375.2" y="47.2" width="1.9" height="12.2"/>
			<path d="M382.7,49.5v-2.3h-1.9v12.2h1.9v-6.6c0-2.6,1.2-3.8,3.5-3.8h0.4V47c-1.8,0-3.1,0.8-3.8,2.2L382.7,49.5z"/>
			<path d="M394,52.6c-1.6-0.4-3.1-0.9-3.1-2.3c0-1.1,1-1.8,2.5-1.8c1.6,0,2.6,0.8,2.8,2.1h1.9c-0.2-2.3-1.9-3.7-4.6-3.7
				c-2.6,0-4.4,1.4-4.4,3.4c0,2.5,2.3,3.1,4.3,3.7c1.6,0.4,3,0.8,3,2.1c0,1.2-1.1,1.9-2.6,1.9c-1.7,0-2.8-0.8-3-2.1h-1.9
				c0.2,2.2,2.2,3.6,5,3.6c2.6,0,4.4-1.4,4.4-3.5C398.1,53.7,395.9,53.1,394,52.6z"/>
		</g>
	</g>
	<g>
		<g>
			<g>
				<g>
					<path d="M129.1,8.3v1.6h1.6h3.5v1.5H130h-1.6v1.6v2.1v1.6h1.6h3.3l-1.2,2l-4.7,0.1l0,1.6l3.7-0.1l-1.7,2.8l1.4,0.8l0.6-0.9
						c1.3,0.5,2.5,0.9,3.6,1.4c-2.8,1.8-6.2,2.1-6.2,2.1l0.1,1.6c0.3,0,4.4-0.5,7.7-2.9c2.3,1.2,3.6,2.2,3.6,2.2l1-1.3
						c-0.1-0.1-1.2-1-3.3-2.1c1-1,1.8-2.4,2.2-4l3.9-0.1l0-1.6l-10,0.1l1.1-1.9h0.6h3.8h1.6v-1.6v-2.1v-1.6h-1.6h-3.8V9.9h3.8h1.6
						V8.3V6.5h2V4.9h-2V3.2V1.6h-1.6h-3.8V0h-1.6v1.6h-3.5h-1.6v1.6v1.7h-2v1.6h2V8.3z M138.5,20.1c-0.5,1.3-1.2,2.3-2.1,3.1
						c-1.2-0.6-2.6-1.2-4.2-1.7l0.8-1.3L138.5,20.1z M130,12.9h4.2v2.1H130V12.9z M139.5,12.9v2.1h-3.8v-2.1H139.5z M130.7,8.3V6.5
						h3.5v1.7H130.7z M139.5,8.3h-3.8V6.5h3.8V8.3z M139.5,3.2v1.7h-3.8V3.2H139.5z M130.7,3.2h3.5v1.7h-3.5V3.2z"/>
					<path d="M143.5,14.6c0.7-1.2,1.3-2.6,1.8-3.9c0.6,2.6,1.7,5.5,3.3,8.3c-2.7,4.9-6.1,7.3-6.2,7.3l0.9,1.3
						c0.2-0.2,3.5-2.4,6.2-6.9c1.6,2.8,3.5,5.3,5.5,7.3l1.1-1.1c-2.1-2.1-4.1-4.9-5.7-7.9c1.5-3,2.7-6.8,2.8-11.6h1.9V5.8h-8.3
						c0.7-3,1-5.4,1-5.6l-1.6-0.2c0,0.1-0.9,8.1-4.1,13.7L143.5,14.6z M149.4,17.1c-1.8-3.5-2.9-7.1-3-9.7h5.1
						C151.5,11.3,150.6,14.5,149.4,17.1z"/>
				</g>
				<g>
					<path d="M171.5,27.9V7.1c2-3.1,3-5.5,3.1-5.7L173,0.7c0,0.1-2.8,6.3-7.6,11.4l1.3,1.2c1.1-1.2,2.1-2.5,3-3.7v18.3H171.5z"/>
					<polygon points="192.7,6.4 184.4,6.4 184.4,0.2 182.6,0.2 182.6,6.4 174.4,6.4 174.4,8.2 192.7,8.2 					"/>
					<path d="M190.4,11.2l0.2-0.9l-1.8-0.3l-0.2,0.9c0,0.1-1.4,7.1-3.6,14.1h-3.8c-0.8-5-1.5-10-1.9-12.5c-0.1-0.8-0.2-1.4-0.2-1.5
						L179,10l-1.8,0.3l0.1,0.9c0,0.2,0.1,0.7,0.2,1.5c0.3,2.4,1.1,7.3,1.9,12.2H174v1.8h19.4v-1.8h-6.6
						C189.1,18,190.4,11.3,190.4,11.2z"/>
				</g>
				<g>
					<path d="M208.9,11v0.9h5.5v3H209c-0.4,0-0.8,0.3-0.9,0.7l-1.4,5.9l1.7,0.4l0.2-0.8h5.7c-0.2,2.5-0.6,5.2-1,5.7
						c-0.4,0.4-1.9,0.3-3,0.3c-0.5,0-1,0-1.4,0v1.8c0.4,0,0.9,0,1.3,0c0.5,0,1,0,1.4,0c1.2,0,2.3-0.2,3-0.9c1.2-1.4,1.5-6.3,1.6-7.8
						c0-0.2-0.1-0.5-0.2-0.7c-0.2-0.2-0.4-0.3-0.6-0.3h-6.2l0.6-2.7h4.7v0.6h1.8V11c0-0.5-0.4-0.9-0.9-0.9h-5
						c5.2-3.4,6.7-6.9,6.8-7.1c0.1-0.3,0.1-0.6-0.1-0.8c-0.2-0.2-0.4-0.4-0.7-0.4h-8.4v1.8h6.8c-0.6,0.9-1.6,2.1-3.2,3.4
						c-1.6-1.4-3.3-2.4-3.3-2.4L207.4,6c0,0,1.5,0.8,2.8,2c-1.5,1.1-3.4,2.2-5.8,3.2l0.7,1.7C206.5,12.3,207.7,11.7,208.9,11z"/>
					<path d="M227.1,2.6l-1.2-1.3c0,0-1.1,1.1-2.8,2.5c-1.4-1.7-2.3-3-2.3-3l-1.5,0.9c0.2,0.3,4.7,7.8,12.5,10.4l0.6-1.7
						c-1.7-0.6-3.2-1.4-4.6-2.4l2.9-2.6l-1.2-1.3L226.3,7c-0.7-0.6-1.4-1.2-2-1.8C225.9,3.7,227.1,2.6,227.1,2.6z"/>
					<path d="M217,29.2c2.9-0.6,5-1.7,6.6-2.9c1.6,1,3.7,2,6.4,2.9l0.5-1.7c-2.3-0.7-4.1-1.6-5.5-2.4c2.5-2.4,3.2-4.8,3.2-5
						c0.1-0.3,0-0.6-0.2-0.8c-0.2-0.2-0.4-0.4-0.7-0.4h-8c-0.3,0-0.5,0.1-0.7,0.3c-0.2,0.2-0.3,0.4-0.2,0.7c0,0.2,0.3,2.6,3.6,5.2
						c-1.4,0.9-3.2,1.8-5.5,2.3L217,29.2z M220.6,20.7h5.5c-0.4,0.9-1.2,2.1-2.6,3.3C221.8,22.7,221,21.5,220.6,20.7z"/>
					<path d="M217.7,16.6l0.1,0.9L217.7,16.6l0.2,1.8c0.1,0,3.5-0.3,3.3-5.8c0-0.2,0-0.5,0-0.8h3.4c0.2,0,0.3,0.2,0.3,0.5v3.4
						c0,1.2,0.9,2.1,2,2.1h1.7c0.5,0,1.3-0.4,1.7-1l0.8-1.5l-1.6-0.9l-0.8,1.5c0,0-0.1,0.1-0.2,0.1h-1.7c-0.1,0-0.2-0.1-0.2-0.3
						v-3.4c0-1.3-1-2.3-2.1-2.3H221c-0.4,0-0.8,0.2-1.1,0.4c-0.6,0.6-0.5,1.5-0.5,2.3C219.5,16.3,217.8,16.6,217.7,16.6z"/>
				</g>
				<g>
					<path d="M253.5,26.2v-6.6h4.1c0.8,1.9,3.7,7.7,11.7,10l0.5-1.7c-2.5-0.7-4.5-1.9-6-3.1c2-1.2,3.8-2.7,3.9-2.7l-1.2-1.3
						c0,0-2,1.7-4.1,2.8c-1.4-1.5-2.3-2.9-2.8-3.9h10v-1.8h-6.3v-3.3h4.6v-1.8h-4.6V9.5h3.7c0.5,0,0.9-0.4,0.9-0.9V3.7
						c0-0.8-0.6-1.4-1.4-1.4h-19.7c-0.2,0-0.5,0.1-0.6,0.3c-0.2,0.2-0.3,0.4-0.2,0.7c0,0.2,0.9,19.3-3.3,24.8l1.4,1.1
						c1.6-2,2.5-5.6,3-9.5h4.7v6.9l-3.5,0.6l0.3,1.8l11.1-2l-0.3-1.8L253.5,26.2z M261.5,17.8h-6.6v-3.3h6.6V17.8z M261.5,12.8h-6.6
						V9.5h6.6V12.8z M266,4.1v3.6h-18.3c0-1.6,0-2.8-0.1-3.6H266z M247.7,9.5h5.4v3.2h-4.2v1.8h4.2v3.3h-5.9
						C247.5,14.9,247.6,12,247.7,9.5z"/>
				</g>
				<g>
					<path d="M292.6,5.9h1.9V4.1h-6.2v-3h-1.8v3h-6.2v1.8h1.9c0.3,1.4,1,4.8,1.4,7.3h-3.9v1.8h15.3v-1.8h-3.9
						C291.6,10.7,292.3,7.3,292.6,5.9z M284.1,5.9h6.7c-0.4,1.7-1,4.9-1.4,7.3h-4C285.1,10.8,284.4,7.6,284.1,5.9z"/>
					<path d="M292.3,17.6h-9.7c-0.5,0-0.9,0.4-0.9,0.9v10.5h1.8v-1.3h7.9v1.3h1.8V18.5C293.2,18,292.8,17.6,292.3,17.6z M283.5,25.8
						v-6.4h7.9v6.4H283.5z"/>
					<path d="M306.2,5.7c0.3-0.7,0.2-1.6-0.3-2.3c-0.4-0.6-1.2-1-1.9-1l-5.4,0c-0.8,0-1.4,0.6-1.4,1.4v25.5h1.8V4.3l5,0
						c0.2,0,0.4,0.2,0.4,0.2c0.1,0.1,0.2,0.3,0,0.6l-2.4,7.4c-0.1,0.3,0,0.6,0.1,0.8c1.7,2.5,4,7.2,3,9.2c-0.4,0.8-1.5,1.2-3.1,1.2
						h-0.9v1.8h0.9c2.3,0,3.9-0.7,4.7-2.2c1.7-3.3-1.8-9-2.8-10.7L306.2,5.7z"/>
				</g>
			</g>
		</g>
	</g>
</g>
</svg>
