<svg viewBox="0 0 293 325" fill="none" xmlns="http://www.w3.org/2000/svg">
<path d="M154.23 323.506H154.224V257.143H148.75C139.135 257.143 131.035 249.277 131.216 239.669C131.383 230.349 138.995 222.852 148.361 222.852H154.224V169.138H291.775V311.379C291.775 318.072 286.341 323.506 279.648 323.506H154.23ZM268.224 273.176V260.526H182.049V273.176H268.224ZM268.224 252.647V239.991H218.148V252.647H268.224ZM268.224 232.118V219.462H218.148V232.118H268.224ZM268.727 301.745C268.727 298.24 265.893 295.413 262.402 295.413H223.971C222.222 295.413 220.641 296.123 219.495 297.269C218.349 298.415 217.646 299.989 217.646 301.745C217.646 305.235 220.48 308.069 223.971 308.069H262.402C264.151 308.069 265.732 307.359 266.877 306.213C268.023 305.068 268.727 303.493 268.727 301.745ZM233.136 197.218V184.568H182.042V197.218H233.136ZM209.74 252.647V239.991H182.042V252.647H209.74ZM209.74 232.118V219.462H182.042V232.118H209.74Z" fill="black"/>
<path d="M291.774 162.15V169.131H154.229V162.15H207.984V156.288C207.984 146.814 215.669 139.135 225.136 139.135C234.603 139.135 242.288 146.814 242.288 156.288V162.15H291.774Z" fill="#E9580C"/>
<path d="M268.223 260.52V273.169H182.048V260.52H268.223ZM263.151 267.293L264.82 264.406H258.16L259.828 267.293L261.496 270.174L263.165 267.293H263.151Z" fill="white"/>
<path d="M268.223 239.991H218.147V252.647H268.223V239.991Z" fill="white"/>
<path d="M268.223 219.462H218.147V232.118H268.223V219.462Z" fill="white"/>
<path d="M262.402 295.413C265.892 295.413 268.726 298.247 268.726 301.745C268.726 303.494 268.016 305.075 266.877 306.214C265.738 307.353 264.15 308.07 262.402 308.07H223.97C220.48 308.07 217.646 305.236 217.646 301.745C217.646 299.989 218.356 298.408 219.495 297.269C220.634 296.13 222.222 295.413 223.97 295.413H262.402Z" fill="#E9580C"/>
<path d="M264.813 264.412L263.152 267.3L261.483 270.181L259.822 267.3L258.153 264.412H261.483H264.813Z" fill="black"/>
<path d="M233.142 184.568H182.048V197.218H233.142V184.568Z" fill="white"/>
<path d="M209.746 239.991H182.048V252.647H209.746V239.991Z" fill="white"/>
<path d="M209.746 219.462H182.048V232.118H209.746V219.462Z" fill="white"/>
<path d="M154.23 162.15H154.224V169.131H154.23V162.15Z" fill="#E9580C"/>
<path d="M154.223 257.136V323.499H36.665C29.965 323.499 24.538 318.066 24.538 311.372V257.136H19.0574C9.44287 257.136 1.34258 249.27 1.52348 239.662C1.69768 230.343 9.3089 222.845 18.6688 222.845H24.538V162.15H68.7111V156.669C68.7111 147.062 76.5769 138.961 86.1847 139.136C95.5044 139.31 103.008 146.921 103.008 156.288V162.15H154.223V222.845H148.361C139.001 222.845 131.39 230.336 131.215 239.662C131.028 249.27 139.128 257.136 148.749 257.136H154.223Z" fill="#F2F3F5"/>
<path d="M233.142 184.568H182.048V197.218H233.142V184.568Z" stroke="black" stroke-width="1.5" stroke-miterlimit="10" stroke-linecap="round" stroke-linejoin="round"/>
<path d="M262.402 308.076H223.97C220.48 308.076 217.646 305.242 217.646 301.751C217.646 299.996 218.356 298.415 219.495 297.276C220.634 296.137 222.222 295.42 223.97 295.42H262.402C265.892 295.42 268.726 298.254 268.726 301.751C268.726 303.5 268.016 305.081 266.877 306.22C265.738 307.359 264.15 308.076 262.402 308.076Z" stroke="black" stroke-width="1.5" stroke-miterlimit="10" stroke-linecap="round" stroke-linejoin="round"/>
<path d="M209.746 219.462H182.048V232.118H209.746V219.462Z" stroke="black" stroke-width="1.5" stroke-miterlimit="10" stroke-linecap="round" stroke-linejoin="round"/>
<path d="M268.223 219.462H218.147V232.118H268.223V219.462Z" stroke="black" stroke-width="1.5" stroke-miterlimit="10" stroke-linecap="round" stroke-linejoin="round"/>
<path d="M209.746 239.99H182.048V252.647H209.746V239.99Z" stroke="black" stroke-width="1.5" stroke-miterlimit="10" stroke-linecap="round" stroke-linejoin="round"/>
<path d="M268.223 239.99H218.147V252.647H268.223V239.99Z" stroke="black" stroke-width="1.5" stroke-miterlimit="10" stroke-linecap="round" stroke-linejoin="round"/>
<path d="M268.223 260.519H182.048V273.169H268.223V260.519Z" stroke="black" stroke-width="1.5" stroke-miterlimit="10" stroke-linecap="round" stroke-linejoin="round"/>
<path d="M291.774 169.131V311.372C291.774 318.066 286.34 323.499 279.647 323.499H154.229" stroke="black" stroke-width="1.5" stroke-miterlimit="10" stroke-linecap="round" stroke-linejoin="round"/>
<path d="M154.224 323.506V257.142H148.75C139.135 257.142 131.035 249.277 131.216 239.669C131.383 230.349 138.995 222.852 148.361 222.852H154.224V169.138" stroke="black" stroke-width="1.5" stroke-miterlimit="10" stroke-linecap="round" stroke-linejoin="round"/>
<path d="M154.229 162.15V169.131V222.845" stroke="black" stroke-width="1.5" stroke-miterlimit="10" stroke-linecap="round" stroke-linejoin="round"/>
<path d="M154.23 257.136V323.499H36.665C29.965 323.499 24.538 318.066 24.538 311.372V257.136H19.0574C9.44287 257.136 1.34258 249.27 1.52348 239.662C1.69768 230.343 9.3089 222.845 18.6688 222.845H24.538V162.15H68.7111V156.669C68.7111 147.062 76.5769 138.961 86.1847 139.136C95.5044 139.31 103.008 146.921 103.008 156.288V162.15H154.223" stroke="black" stroke-width="1.5" stroke-miterlimit="10" stroke-linecap="round" stroke-linejoin="round"/>
<path d="M242.282 162.15H291.54H291.775V169.131H154.23H154.224V162.15H154.23H207.984" stroke="black" stroke-width="1.5" stroke-miterlimit="10" stroke-linecap="round" stroke-linejoin="round"/>
<path d="M207.984 162.15V156.288C207.984 146.814 215.669 139.135 225.136 139.135C234.603 139.135 242.288 146.814 242.288 156.288V162.15" stroke="black" stroke-width="1.5" stroke-miterlimit="10" stroke-linecap="round" stroke-linejoin="round"/>
<path d="M154.224 110.446H154.123V162.009" stroke="black" stroke-width="1.5" stroke-linecap="round" stroke-linejoin="round" stroke-dasharray="7 7"/>
<path d="M154.223 76.1555H148.361C138.887 76.1555 131.209 83.8337 131.209 93.3075C131.209 102.781 138.887 110.453 148.361 110.453H154.123" stroke="black" stroke-width="1.5" stroke-linecap="round" stroke-linejoin="round" stroke-dasharray="7 7"/>
<path d="M291.54 162.009V24.5923H242.282V18.1134C242.282 8.63963 234.603 0.961426 225.129 0.961426C215.656 0.961426 207.978 8.63963 207.978 18.1134V24.5923H154.116V76.1555" stroke="black" stroke-width="1.5" stroke-linecap="round" stroke-linejoin="round" stroke-dasharray="7 7"/>
<path d="M181.794 284.298H268.479" stroke="#E9580C" stroke-width="1.5" stroke-miterlimit="10" stroke-linecap="round" stroke-linejoin="round"/>
<path d="M181.794 208.34H268.479" stroke="#E9580C" stroke-width="1.5" stroke-miterlimit="10" stroke-linecap="round" stroke-linejoin="round"/>
<path d="M35.5263 203.905L40.2766 210.517L26.2736 215.569L21.2084 217.398C18.649 218.323 16.4849 215.308 18.1733 213.177L21.5166 208.956L30.7693 197.298L35.5196 203.911L35.5263 203.905Z" fill="black"/>
<path d="M56.7713 213.881L64.5232 216.36L56.2889 228.755L53.3073 233.237C51.7998 235.502 48.269 234.376 48.3561 231.656L48.5302 226.276L49.0127 211.402L56.7646 213.881H56.7713Z" fill="black"/>
<path d="M67.7527 134.814L64.53 160.274L35.1572 156.194L39.3447 130.238C40.611 122.392 47.9944 117.059 55.8401 118.325C63.6858 119.591 69.019 126.975 67.7527 134.821V134.814Z" fill="white"/>
<path d="M48.5308 105.568L47.9814 106.506C48.1422 106.178 48.3298 105.863 48.5308 105.568Z" fill="#C1410C"/>
<path d="M55.8401 118.319C47.9944 117.052 40.611 122.385 39.3447 130.231L35.1572 156.187L64.53 160.267L67.7527 134.807C69.019 126.962 63.6858 119.578 55.8401 118.312V118.319Z" stroke="black" stroke-width="1.5" stroke-linecap="round" stroke-linejoin="round"/>
<path d="M46.6279 134.332C49.0131 139.256 53.4083 143.772 60.8386 147.196L57.4819 154.472C51.5055 151.712 46.7485 148.114 43.2578 143.819" stroke="black" stroke-width="1.5" stroke-linecap="round" stroke-linejoin="round"/>
<path d="M60.0818 100.765C54.4739 99.2908 48.7387 102.641 47.2647 108.249C46.6684 110.507 46.8627 112.778 47.6667 114.788H47.6801L61.797 101.388C61.2543 101.127 60.6714 100.926 60.0751 100.765H60.0818Z" fill="black"/>
<path d="M47.6872 114.781H47.6738C48.8597 117.776 51.4124 120.182 54.7624 121.066C60.377 122.533 66.1055 119.183 67.5728 113.569C68.886 108.564 66.3534 103.452 61.8041 101.381L47.6872 114.788V114.781Z" fill="#E9580C"/>
<path d="M61.8105 101.381C61.2678 101.127 60.6849 100.926 60.0886 100.765C54.4807 99.2908 48.7455 102.641 47.2715 108.249C46.6752 110.507 46.8695 112.778 47.6735 114.788C48.8594 117.783 51.4121 120.188 54.7621 121.072C60.3767 122.54 66.1052 119.19 67.5725 113.575C68.8857 108.57 66.3531 103.458 61.8038 101.388L61.8105 101.381Z" stroke="black" stroke-width="1.5" stroke-linecap="round" stroke-linejoin="round"/>
<path d="M61.8034 101.388L47.6865 114.781" stroke="black" stroke-width="1.5" stroke-linecap="round" stroke-linejoin="round"/>
<path d="M43.0501 171.242C42.4069 171.081 37.516 169.942 35.6266 172.013C33.0136 174.887 32.377 183.932 38.4472 200.702L20.9468 207.04C12.9269 184.857 13.2619 168.823 21.9585 159.39C29.8712 150.8 41.3818 151.068 46.9227 152.576L64.0881 157.835C64.1417 158.244 69.0729 200.494 67.4649 222.685L45.1874 221.063C46.1254 208.099 44.37 185.078 43.0501 171.242Z" fill="#E9580C"/>
<path d="M43.0505 171.242C42.5681 166.103 42.1393 162.244 41.9316 160.616" stroke="black" stroke-width="1.5" stroke-linecap="round" stroke-linejoin="round"/>
<path d="M43.0501 171.242C42.4069 171.081 37.516 169.942 35.6266 172.013C33.0136 174.887 32.377 183.932 38.4472 200.702L20.9468 207.04C12.9269 184.857 13.2619 168.823 21.9585 159.39C29.8712 150.8 41.3818 151.068 46.9227 152.576L64.0881 157.835C64.1417 158.244 69.0729 200.494 67.4649 222.685L45.1874 221.063C46.1254 208.099 44.37 185.078 43.0501 171.242Z" stroke="black" stroke-width="1.5" stroke-linecap="round" stroke-linejoin="round"/>
<path d="M93.428 136.207L91.6525 160.823L55.1777 158.177L55.6266 152.066L56.9666 133.568L93.4347 136.214L93.428 136.207ZM75.1638 151.309C77.7165 151.497 79.9409 149.574 80.1285 147.021C80.3161 144.469 78.3932 142.244 75.8405 142.07C73.2878 141.882 71.0634 143.799 70.8758 146.358C70.7016 148.904 72.6178 151.128 75.1638 151.309Z" fill="#A5A19D"/>
<path d="M80.128 147.021C79.9404 149.567 77.7226 151.49 75.1632 151.309C72.6172 151.122 70.7011 148.904 70.8753 146.358C71.0629 143.805 73.2805 141.889 75.8399 142.07C78.3859 142.244 80.3156 144.469 80.128 147.021Z" fill="white"/>
<path d="M55.6197 152.06L55.1709 158.17L40.873 152.79C39.8747 152.415 40.2031 150.941 41.2684 151.021L55.6197 152.06Z" fill="#A5A19D"/>
<path d="M55.1709 158.17L40.873 152.79C39.8747 152.415 40.2031 150.941 41.2684 151.021L55.6197 152.06" stroke="black" stroke-width="1.5" stroke-linecap="round" stroke-linejoin="round"/>
<path d="M55.6198 152.06L56.9598 133.561L93.4279 136.208L91.6457 160.817L55.1709 158.17L55.6198 152.06Z" stroke="black" stroke-width="1.5" stroke-linecap="round" stroke-linejoin="round"/>
<path d="M58.2924 115.518C57.2874 115.116 56.7983 113.984 57.1936 112.979" stroke="white" stroke-width="1.5" stroke-miterlimit="10" stroke-linecap="round" stroke-linejoin="round"/>
<path d="M60.8313 114.419C60.4293 115.424 59.297 115.913 58.292 115.518" stroke="white" stroke-width="1.5" stroke-miterlimit="10" stroke-linecap="round" stroke-linejoin="round"/>
<path d="M138.395 44C170.092 44 195.781 63.2331 195.781 86.9794C195.781 110.726 170.092 129.938 138.395 129.938C123.122 129.938 109.227 125.456 98.9365 118.154L80.2049 128.872C77.4468 130.46 74.6157 126.94 76.7469 124.589L89.952 109.974C84.3001 103.319 81.0302 95.4416 81.0302 86.9794C81.0302 63.2436 106.72 44 138.395 44Z" fill="white"/>
<path d="M138.395 44C106.72 44 81.0302 63.2331 81.0302 86.9794C81.0302 95.4416 84.3106 103.319 89.952 109.974L76.7469 124.589C74.6157 126.94 77.4468 130.46 80.2049 128.872L98.9365 118.154C109.227 125.446 123.122 129.938 138.395 129.938C170.092 129.938 195.781 110.705 195.781 86.9794C195.781 63.254 170.092 44 138.395 44Z" stroke="black" stroke-width="1.5" stroke-miterlimit="10" stroke-linecap="round" stroke-linejoin="round"/>
<g clip-path="url(#clip0_2322_3129)">
<path d="M164.19 114.38H145.64V114.15V111.94C145.64 108.37 142.75 105.48 139.18 105.48C135.61 105.48 132.72 108.37 132.72 111.94V114.15V114.38L112.38 114.42V95H110.21C106.64 95 103.75 92.11 103.75 88.54C103.75 84.97 106.64 82.08 110.21 82.08H112.38V62.65H132.67V62.42V60.21C132.67 56.64 135.56 53.75 139.13 53.75C142.7 53.75 145.59 56.64 145.59 60.21V62.42V62.65H164.14V97.16L164.19 114.38Z" fill="white" stroke="black" stroke-width="1.5" stroke-linecap="round" stroke-linejoin="round"/>
</g>
<path d="M130.854 89.9013V91.6942C130.854 92.042 130.493 92.2695 130.18 92.1178L123.268 88.8264C123.103 88.7462 123 88.5811 123 88.4027V86.2754C123 86.0925 123.103 85.9275 123.268 85.8517L130.18 82.5424C130.493 82.3908 130.854 82.6227 130.854 82.9661V84.7412C130.854 84.9285 130.747 85.0935 130.577 85.1693L126.751 86.8864C126.381 87.0514 126.381 87.5821 126.751 87.7471L130.577 89.4642C130.747 89.54 130.854 89.7095 130.854 89.8924V89.9013Z" fill="#E9580C"/>
<path d="M147.556 86.8908L143.73 85.1737C143.56 85.0979 143.453 84.9284 143.453 84.7456V82.9705C143.453 82.6226 143.814 82.3952 144.127 82.5468L151.039 85.8561C151.204 85.9364 151.307 86.1014 151.307 86.2798V88.4071C151.307 88.59 151.204 88.755 151.039 88.8308L144.127 92.1222C143.814 92.2694 143.453 92.042 143.453 91.6985V89.9057C143.453 89.7184 143.56 89.5533 143.73 89.4775L147.556 87.7605C147.926 87.5954 147.926 87.0647 147.556 86.8997V86.8908Z" fill="#E9580C"/>
<path d="M135.354 92.6929H133.534C133.186 92.6929 132.959 92.3316 133.11 92.015L138.761 80.2676C138.841 80.1026 139.006 80 139.185 80H141.036C141.383 80 141.611 80.3657 141.459 80.6779L135.777 92.4253C135.697 92.5858 135.532 92.6929 135.354 92.6929Z" fill="#E9580C"/>
<defs>
<clipPath id="clip0_2322_3129">
<rect width="61.94" height="62.16" fill="white" transform="translate(103 53)"/>
</clipPath>
</defs>
</svg>
