<svg width="164" height="164" viewBox="0 0 164 164" fill="none" xmlns="http://www.w3.org/2000/svg">
<rect width="164" height="164" fill="white"/>
<mask id="mask0_2362_6373" style="mask-type:luminance" maskUnits="userSpaceOnUse" x="40" y="33" width="82" height="93">
<path d="M110.324 43.3582L121.541 107.142C122.102 110.334 119.97 113.377 116.778 113.938L52.9991 125.154L48.9211 101.966L52.6431 101.311C58.9581 100.2 63.4281 94.3072 62.4881 87.9622C61.5161 81.3802 55.3191 76.9402 48.8061 78.0852L44.8441 78.7822L40.7651 55.5902L63.9531 51.5122L63.2981 47.7902C62.1871 41.4752 66.2031 35.2672 72.4821 33.9822C79.0051 32.6492 85.2941 36.9642 86.4391 43.4732L87.1361 47.4352L110.324 43.3572V43.3582Z" fill="white"/>
</mask>
<g mask="url(#mask0_2362_6373)">
<path d="M155.537 28.2129L45.1211 8.98193L20.3426 151.249L130.758 170.48L155.537 28.2129Z" fill="#F2F3F5"/>
<g opacity="0.2">
<path d="M68.7485 38.5521L68.439 40.3293L74.1904 41.3311L74.4999 39.5538L68.7485 38.5521Z" fill="white"/>
</g>
<g opacity="0.2">
<path d="M66.4292 74.732L66.1196 76.5093L71.871 77.511L72.1806 75.7337L66.4292 74.732Z" fill="white"/>
</g>
<g opacity="0.2">
<path d="M76.7002 76.5204L76.3906 78.2976L88.3821 80.3861L88.6916 78.6089L76.7002 76.5204Z" fill="white"/>
</g>
<g opacity="0.2">
<path d="M95.77 79.8414L95.4604 81.6187L100.613 82.516L100.922 80.7388L95.77 79.8414Z" fill="white"/>
</g>
<g opacity="0.2">
<path d="M73.3706 75.9413L73.061 77.7185L75.2018 78.0914L75.5114 76.3141L73.3706 75.9413Z" fill="white"/>
</g>
<g opacity="0.2">
<path d="M89.5532 78.7584L89.2437 80.5356L91.3844 80.9085L91.694 79.1312L89.5532 78.7584Z" fill="white"/>
</g>
<g opacity="0.2">
<path d="M92.7192 79.3099L92.4097 81.0872L94.5504 81.46L94.86 79.6828L92.7192 79.3099Z" fill="white"/>
</g>
<g opacity="0.2">
<path d="M62.7783 44.2298L62.4688 46.0071L71.0289 47.498L71.3384 45.7207L62.7783 44.2298Z" fill="#0082B6"/>
</g>
<g opacity="0.2">
<path d="M58.8925 66.5521L58.583 68.3293L67.1431 69.8202L67.4527 68.043L58.8925 66.5521Z" fill="#0082B6"/>
</g>
<g opacity="0.2">
<path d="M68.4287 68.2118L68.1191 69.989L82.2021 72.4418L82.5117 70.6646L68.4287 68.2118Z" fill="#E9580C"/>
</g>
<g opacity="0.2">
<path d="M86.3686 71.3358L86.0591 73.113L91.4736 74.0561L91.7831 72.2788L86.3686 71.3358Z" fill="#E400AE"/>
</g>
<g opacity="0.2">
<path d="M95.3423 91.2474L95.0327 93.0247L100.04 93.8968L100.35 92.1196L95.3423 91.2474Z" fill="#E400AE"/>
</g>
<g opacity="0.2">
<path d="M60.2119 80.4232L59.9023 82.2004L65.3168 83.1435L65.6264 81.3662L60.2119 80.4232Z" fill="#E400AE"/>
</g>
<g opacity="0.2">
<path d="M61.6391 50.7677L61.3296 52.5449L64.9905 53.1825L65.3 51.4053L61.6391 50.7677Z" fill="#0082B6"/>
</g>
<g opacity="0.2">
<path d="M82.4809 54.3961L82.1714 56.1733L84.1664 56.5208L84.4759 54.7436L82.4809 54.3961Z" fill="#0082B6"/>
</g>
<g opacity="0.2">
<path d="M70.0395 82.1341L69.73 83.9114L73.0342 84.4869L73.3438 82.7096L70.0395 82.1341Z" fill="#0082B6"/>
</g>
<g opacity="0.2">
<path d="M66.4756 51.6087L66.166 53.386L71.4051 54.2985L71.7147 52.5212L66.4756 51.6087Z" fill="#E9580C"/>
</g>
<g opacity="0.2">
<path d="M75.7763 53.2284L75.4668 55.0056L80.7059 55.9181L81.0155 54.1409L75.7763 53.2284Z" fill="#E9580C"/>
</g>
<g opacity="0.2">
<path d="M85.917 54.9935L85.6074 56.7708L90.8466 57.6832L91.1561 55.906L85.917 54.9935Z" fill="#E9580C"/>
</g>
<g opacity="0.2">
<path d="M73.3662 46.0724L73.0566 47.8496L90.633 50.9109L90.9426 49.1336L73.3662 46.0724Z" fill="#1BB400"/>
</g>
<path opacity="0.2" d="M64.9594 39.3592L64.8414 40.0362L63.1274 38.8212L63.2404 38.1742L65.2644 37.6052L65.1474 38.2782L63.8484 38.6092L64.9584 39.3592H64.9594Z" fill="white"/>
<g opacity="0.2">
<path d="M93.4501 49.5654C93.7011 49.6094 93.8761 49.8414 93.8301 50.1004C93.7851 50.3604 93.5411 50.5284 93.2901 50.4844C93.0351 50.4404 92.8661 50.2004 92.9111 49.9404C92.9561 49.6804 93.1951 49.5204 93.4501 49.5654ZM93.0121 51.7524C92.7861 51.7134 92.6491 51.5184 92.6901 51.2844C92.7311 51.0504 92.9511 50.8954 93.1931 50.9374C93.4571 50.9834 93.6311 51.2194 93.5711 51.5644C93.4691 52.1514 92.9901 52.4064 92.5791 52.3744L92.6331 52.0634C92.8261 52.0624 93.0781 51.9524 93.1361 51.7434C93.1111 51.7614 93.0591 51.7604 93.0121 51.7524Z" fill="white"/>
</g>
<g opacity="0.2">
<path d="M92.7665 55.7764C93.0175 55.8204 93.1925 56.0523 93.1465 56.3113C93.1015 56.5714 92.8575 56.7394 92.6065 56.6954C92.3555 56.6514 92.1825 56.4114 92.2275 56.1514C92.2725 55.8914 92.5115 55.7314 92.7665 55.7764ZM92.3285 57.9634C92.1025 57.9244 91.9655 57.7294 92.0065 57.4954C92.0475 57.2614 92.2675 57.1063 92.5095 57.1483C92.7735 57.1943 92.9475 57.4304 92.8875 57.7754C92.7855 58.3624 92.3065 58.6173 91.8955 58.5853L91.9495 58.2744C92.1425 58.2734 92.3945 58.1633 92.4525 57.9543C92.4275 57.9723 92.3755 57.9714 92.3285 57.9634Z" fill="white"/>
</g>
<g opacity="0.2">
<path d="M72.7964 51.8003L73.4864 51.9203L74.4124 55.1913L73.7314 55.0723L72.7964 51.8003Z" fill="white"/>
</g>
<g opacity="0.2">
<path d="M61.3763 76.5444L60.6953 76.4254L62.6723 73.6604L63.3623 73.7804L61.3773 76.5444H61.3763Z" fill="white"/>
<path d="M62.8104 76.7934L62.1294 76.6744L64.1064 73.9094L64.7964 74.0294L62.8114 76.7934H62.8104Z" fill="white"/>
</g>
<g opacity="0.2">
<path d="M68.0146 97.8595L67.7051 99.6367L71.431 100.286L71.7405 98.5084L68.0146 97.8595Z" fill="white"/>
</g>
<g opacity="0.2">
<path d="M62.5766 96.9115L62.2671 98.6887L65.993 99.3377L66.3025 97.5604L62.5766 96.9115Z" fill="white"/>
</g>
<g opacity="0.2">
<path d="M72.8471 98.6996L72.5376 100.477L84.5291 102.565L84.8386 100.788L72.8471 98.6996Z" fill="white"/>
</g>
<g opacity="0.2">
<path d="M91.917 102.021L91.6074 103.798L96.7599 104.695L97.0694 102.918L91.917 102.021Z" fill="white"/>
</g>
<g opacity="0.2">
<path d="M85.6992 100.938L85.3896 102.715L87.5304 103.088L87.84 101.31L85.6992 100.938Z" fill="white"/>
</g>
<g opacity="0.2">
<path d="M88.8652 101.489L88.5557 103.266L90.6964 103.639L91.006 101.862L88.8652 101.489Z" fill="white"/>
</g>
<g opacity="0.2">
<path d="M58.2972 98.5154L57.6162 98.3964L59.5932 95.6313L60.2832 95.7513L58.2982 98.5154H58.2972Z" fill="white"/>
<path d="M59.7313 98.7654L59.0503 98.6464L61.0273 95.8813L61.7173 96.0013L59.7323 98.7654H59.7313Z" fill="white"/>
</g>
<g opacity="0.2">
<path d="M66.6503 82.2713L66.7523 81.6843L68.8593 82.0513L68.7573 82.6383L66.6503 82.2713ZM66.4883 83.2033L66.5923 82.6073L68.6993 82.9743L68.5953 83.5703L66.4883 83.2033Z" fill="white"/>
</g>
<g opacity="0.2">
<path d="M59.4155 84.9972L59.106 86.7744L64.5204 87.7174L64.83 85.9402L59.4155 84.9972Z" fill="#E400AE"/>
</g>
<g opacity="0.2">
<path d="M69.2431 86.7084L68.9336 88.4856L74.8574 89.5173L75.167 87.7401L69.2431 86.7084Z" fill="#E400AE"/>
</g>
<g opacity="0.2">
<path d="M81.4985 88.8412L81.189 90.6184L92.0091 92.5029L92.3186 90.7257L81.4985 88.8412Z" fill="#E9580C"/>
</g>
<g opacity="0.2">
<path d="M65.8544 86.8443L65.9564 86.2573L68.0634 86.6243L67.9614 87.2113L65.8544 86.8443ZM65.6924 87.7763L65.7964 87.1803L67.9034 87.5473L67.7994 88.1433L65.6924 87.7763Z" fill="white"/>
</g>
<g opacity="0.2">
<path d="M50.143 116.806L49.8335 118.583L55.248 119.526L55.5575 117.749L50.143 116.806Z" fill="#E400AE"/>
</g>
<g opacity="0.2">
<path d="M57.0155 118.725L57.1175 118.138L59.2245 118.505L59.1225 119.092L57.0155 118.725ZM56.8535 119.657L56.9575 119.061L59.0645 119.428L58.9605 120.024L56.8535 119.657Z" fill="white"/>
</g>
<g opacity="0.2">
<path d="M76.6665 89.2925L76.7845 88.6155L78.0995 88.8445L77.9815 89.5215L76.6665 89.2925Z" fill="white"/>
<path d="M79.7446 89.4464L78.6346 88.6964L78.7536 88.0154L80.4666 89.2344L80.3536 89.8814L78.3306 90.4454L78.4466 89.7774L79.7456 89.4464H79.7446Z" fill="white"/>
</g>
<g opacity="0.2">
<path d="M86.1373 83.4492L86.5013 83.9292C85.9473 84.3152 85.5613 84.8222 85.4233 85.6102C85.2873 86.3932 85.4783 87.0052 85.8693 87.5562L85.3643 87.8852C84.9113 87.3112 84.5933 86.5452 84.7753 85.4982C84.9573 84.4512 85.5163 83.8382 86.1363 83.4502L86.1373 83.4492Z" fill="white"/>
<path d="M87.2722 88.2163L86.9082 87.7363C87.4622 87.3503 87.8492 86.8393 87.9862 86.0553C88.1232 85.2683 87.9312 84.6603 87.5402 84.1093L88.0452 83.7803C88.4982 84.3543 88.8162 85.1203 88.6342 86.1673C88.4522 87.2143 87.8932 87.8273 87.2732 88.2153L87.2722 88.2163Z" fill="white"/>
<path d="M89.9721 85.5852C90.2231 85.6292 90.3981 85.8612 90.3521 86.1202C90.3071 86.3802 90.0631 86.5482 89.8121 86.5042C89.5571 86.4602 89.3881 86.2202 89.4331 85.9602C89.4781 85.7002 89.7171 85.5402 89.9721 85.5852ZM89.5341 87.7722C89.3081 87.7332 89.1711 87.5382 89.2121 87.3042C89.2531 87.0702 89.4731 86.9152 89.7151 86.9572C89.9791 87.0032 90.1531 87.2392 90.0931 87.5842C89.9911 88.1712 89.5121 88.4262 89.1011 88.3942L89.1551 88.0832C89.3481 88.0812 89.6001 87.9722 89.6581 87.7632C89.6331 87.7812 89.5811 87.7802 89.5341 87.7722Z" fill="white"/>
</g>
<g opacity="0.2">
<path d="M94.7242 89.6553L95.0882 90.1353C94.5342 90.5213 94.1482 91.0283 94.0102 91.8163C93.8742 92.5993 94.0652 93.2113 94.4562 93.7623L93.9512 94.0913C93.4982 93.5173 93.1802 92.7513 93.3622 91.7043C93.5442 90.6573 94.1032 90.0443 94.7232 89.6563L94.7242 89.6553Z" fill="white"/>
<path d="M100.71 95.2673L100.346 94.7873C100.9 94.4013 101.287 93.8903 101.424 93.1063C101.561 92.3193 101.369 91.7113 100.978 91.1603L101.483 90.8313C101.936 91.4053 102.254 92.1713 102.072 93.2183C101.89 94.2653 101.331 94.8783 100.711 95.2663L100.71 95.2673Z" fill="white"/>
<path d="M103.588 92.6672C103.839 92.7112 104.014 92.9432 103.968 93.2022C103.923 93.4622 103.679 93.6302 103.428 93.5862C103.173 93.5422 103.004 93.3022 103.049 93.0422C103.094 92.7822 103.333 92.6222 103.588 92.6672ZM103.15 94.8542C102.924 94.8152 102.787 94.6202 102.828 94.3862C102.869 94.1522 103.089 93.9972 103.331 94.0392C103.595 94.0852 103.769 94.3212 103.709 94.6662C103.607 95.2532 103.128 95.5082 102.717 95.4762L102.771 95.1652C102.964 95.1632 103.216 95.0542 103.274 94.8452C103.249 94.8632 103.197 94.8622 103.15 94.8542Z" fill="white"/>
</g>
<g opacity="0.2">
<path d="M58.645 89.5426L58.3354 91.3198L63.7499 92.2629L64.0595 90.4856L58.645 89.5426Z" fill="#E400AE"/>
</g>
<g opacity="0.2">
<path d="M68.4736 91.255L68.1641 93.0322L74.0879 94.064L74.3974 92.2867L68.4736 91.255Z" fill="#E400AE"/>
</g>
<g opacity="0.2">
<path d="M80.728 93.3868L80.4185 95.1641L86.5117 96.2253L86.8213 94.4481L80.728 93.3868Z" fill="#E9580C"/>
</g>
<g opacity="0.2">
<path d="M65.0853 91.3902L65.1873 90.8032L67.2943 91.1702L67.1923 91.7572L65.0853 91.3902ZM64.9233 92.3222L65.0273 91.7262L67.1343 92.0932L67.0303 92.6892L64.9233 92.3222Z" fill="white"/>
</g>
<g opacity="0.2">
<path d="M75.8965 93.8374L76.0145 93.1604L77.3295 93.3894L77.2115 94.0664L75.8965 93.8374Z" fill="white"/>
<path d="M78.9745 93.9923L77.8646 93.2423L77.9836 92.5613L79.6966 93.7803L79.5836 94.4273L77.5605 94.9913L77.6766 94.3233L78.9755 93.9923H78.9745Z" fill="white"/>
</g>
<g opacity="0.2">
<path d="M89.4351 93.6484L89.7991 94.1284C89.2451 94.5144 88.8591 95.0214 88.7211 95.8094C88.5851 96.5924 88.7761 97.2044 89.1671 97.7554L88.6621 98.0844C88.2091 97.5104 87.8911 96.7444 88.0731 95.6974C88.2551 94.6504 88.8141 94.0374 89.4341 93.6494L89.4351 93.6484Z" fill="white"/>
<path d="M90.5701 98.4155L90.2061 97.9355C90.7601 97.5495 91.1471 97.0385 91.2841 96.2545C91.4211 95.4675 91.2291 94.8595 90.8381 94.3085L91.3431 93.9795C91.7961 94.5535 92.1141 95.3195 91.9321 96.3665C91.7501 97.4135 91.1911 98.0265 90.5711 98.4145L90.5701 98.4155Z" fill="white"/>
<path d="M93.1811 95.7695C93.4321 95.8135 93.6071 96.0455 93.5611 96.3045C93.5161 96.5645 93.2721 96.7325 93.0211 96.6885C92.7661 96.6445 92.5971 96.4045 92.6421 96.1445C92.6871 95.8845 92.9261 95.7245 93.1811 95.7695ZM92.7431 97.9565C92.5171 97.9175 92.3801 97.7225 92.4211 97.4885C92.4621 97.2545 92.6821 97.0995 92.9241 97.1415C93.1881 97.1875 93.3621 97.4235 93.3021 97.7685C93.2001 98.3555 92.7211 98.6105 92.3101 98.5785L92.3641 98.2675C92.5571 98.2665 92.8091 98.1565 92.8671 97.9475C92.8421 97.9655 92.7901 97.9645 92.7431 97.9565Z" fill="white"/>
</g>
<g opacity="0.2">
<path d="M60.8374 55.3729L60.5278 57.1501L64.1887 57.7878L64.4983 56.0105L60.8374 55.3729Z" fill="#0082B6"/>
</g>
<g opacity="0.2">
<path d="M65.6743 56.2147L65.3647 57.9919L74.978 59.6663L75.2876 57.889L65.6743 56.2147Z" fill="#E9580C"/>
</g>
<g opacity="0.2">
<path d="M74.4516 82.9029L74.1421 84.6802L83.7554 86.3545L84.0649 84.5773L74.4516 82.9029Z" fill="#E9580C"/>
</g>
<g opacity="0.2">
<path d="M49.5092 120.45L49.1997 122.227L54.6142 123.17L54.9237 121.393L49.5092 120.45Z" fill="#E400AE"/>
</g>
<g opacity="0.2">
<path d="M59.9624 122.271L59.6528 124.048L62.9571 124.624L63.2666 122.846L59.9624 122.271Z" fill="#0082B6"/>
</g>
<g opacity="0.2">
<path d="M56.3851 122.37L56.4871 121.783L58.5941 122.15L58.4921 122.737L56.3851 122.37ZM56.2231 123.302L56.3271 122.706L58.4341 123.073L58.3301 123.669L56.2231 123.302Z" fill="white"/>
</g>
<g opacity="0.2">
<path d="M76.0621 123.581L76.4261 124.061C75.8721 124.447 75.4861 124.954 75.3491 125.742C75.2131 126.525 75.4041 127.137 75.7951 127.688L75.2901 128.017C74.8371 127.443 74.5191 126.677 74.7011 125.63C74.8831 124.583 75.4421 123.97 76.0621 123.582V123.581Z" fill="white"/>
<path d="M77.196 128.348L76.832 127.868C77.386 127.482 77.773 126.971 77.91 126.187C78.047 125.4 77.855 124.792 77.464 124.241L77.969 123.912C78.422 124.486 78.74 125.252 78.558 126.299C78.376 127.346 77.817 127.959 77.197 128.347L77.196 128.348Z" fill="white"/>
</g>
<g opacity="0.2">
<path d="M64.3745 123.038L64.0649 124.816L73.6782 126.49L73.9878 124.713L64.3745 123.038Z" fill="#E9580C"/>
</g>
<g opacity="0.2">
<path d="M56.3613 102.544L56.0518 104.321L69.1387 106.6L69.4483 104.823L56.3613 102.544Z" fill="#E400AE"/>
</g>
<g opacity="0.2">
<path d="M74.7026 105.738L74.3931 107.515L77.6973 108.09L78.0069 106.313L74.7026 105.738Z" fill="#0082B6"/>
</g>
<g opacity="0.2">
<path d="M91.6997 108.695L91.3901 110.473L94.6944 111.048L95.0039 109.271L91.6997 108.695Z" fill="#0082B6"/>
</g>
<g opacity="0.2">
<path d="M70.9501 105.813L71.0521 105.226L73.1591 105.593L73.0571 106.18L70.9501 105.813ZM70.7881 106.745L70.8921 106.149L72.9991 106.516L72.8951 107.112L70.7881 106.745Z" fill="white"/>
</g>
<g opacity="0.2">
<path d="M90.6485 107.022L91.0125 107.502C90.4585 107.888 90.0725 108.395 89.9345 109.183C89.7985 109.966 89.9895 110.578 90.3805 111.129L89.8755 111.458C89.4225 110.884 89.1045 110.118 89.2865 109.071C89.4685 108.024 90.0275 107.411 90.6475 107.023L90.6485 107.022Z" fill="white"/>
</g>
<g opacity="0.2">
<path d="M79.1133 106.505L78.8037 108.283L88.417 109.957L88.7265 108.18L79.1133 106.505Z" fill="#E9580C"/>
</g>
<g opacity="0.2">
<path d="M96.4013 109.514L96.0918 111.291L112.922 114.222L113.232 112.445L96.4013 109.514Z" fill="#E9580C"/>
</g>
<g opacity="0.2">
<path d="M80.2158 58.7467L79.9062 60.5239L93.9528 62.9704L94.2623 61.1931L80.2158 58.7467Z" fill="#E9580C"/>
</g>
<g opacity="0.2">
<path d="M95.8783 61.0622C96.1293 61.1062 96.3043 61.3382 96.2583 61.5972C96.2133 61.8572 95.9693 62.0252 95.7183 61.9812C95.4633 61.9372 95.2943 61.6972 95.3393 61.4372C95.3843 61.1772 95.6233 61.0172 95.8783 61.0622ZM95.4403 63.2492C95.2143 63.2102 95.0773 63.0152 95.1183 62.7812C95.1593 62.5472 95.3793 62.3922 95.6213 62.4342C95.8853 62.4802 96.0593 62.7162 95.9993 63.0612C95.8973 63.6482 95.4183 63.9032 95.0073 63.8712L95.0613 63.5602C95.2543 63.5592 95.5063 63.4492 95.5643 63.2402C95.5393 63.2582 95.4873 63.2572 95.4403 63.2492Z" fill="white"/>
</g>
<g opacity="0.2">
<path d="M76.9824 57.2744L77.6724 57.3944L78.5984 60.6654L77.9174 60.5464L76.9824 57.2744Z" fill="white"/>
</g>
<g opacity="0.2">
<path d="M60.0366 59.9784L59.7271 61.7556L63.3879 62.3932L63.6975 60.616L60.0366 59.9784Z" fill="#0082B6"/>
</g>
<g opacity="0.2">
<path d="M48.874 124.095L48.5645 125.872L55.368 127.057L55.6776 125.28L48.874 124.095Z" fill="#0082B6"/>
</g>
<g opacity="0.2">
<path d="M64.872 60.8204L64.5625 62.5977L69.8016 63.5101L70.1112 61.7329L64.872 60.8204Z" fill="#E9580C"/>
</g>
<g opacity="0.2">
<path d="M73.853 62.3839L73.5435 64.1611L79.1028 65.1294L79.4123 63.3521L73.853 62.3839Z" fill="#E9580C"/>
</g>
<g opacity="0.2">
<path d="M83.6577 64.0897L83.3481 65.8669L103.389 69.3575L103.699 67.5803L83.6577 64.0897Z" fill="#E9580C"/>
</g>
<g opacity="0.2">
<path d="M105.201 67.4304C105.452 67.4744 105.627 67.7064 105.581 67.9654C105.536 68.2254 105.292 68.3934 105.041 68.3494C104.786 68.3054 104.617 68.0654 104.662 67.8054C104.707 67.5454 104.946 67.3854 105.201 67.4304ZM104.763 69.6174C104.537 69.5784 104.4 69.3834 104.441 69.1494C104.482 68.9154 104.702 68.7604 104.944 68.8024C105.208 68.8484 105.382 69.0844 105.322 69.4294C105.22 70.0164 104.741 70.2714 104.33 70.2394L104.384 69.9284C104.577 69.9274 104.829 69.8174 104.887 69.6084C104.862 69.6264 104.81 69.6254 104.763 69.6174Z" fill="white"/>
</g>
<g opacity="0.2">
<path d="M70.8604 60.9534L71.5504 61.0734L72.4764 64.3444L71.7954 64.2254L70.8604 60.9534Z" fill="white"/>
</g>
<g opacity="0.2">
<path d="M80.7124 62.6682L81.4024 62.7882L82.3284 66.0592L81.6474 65.9402L80.7124 62.6682Z" fill="white"/>
</g>
<g opacity="0.2">
<path d="M85.2735 69.8853L85.6375 70.3653C85.0835 70.7513 84.6975 71.2583 84.5595 72.0463C84.4235 72.8293 84.6145 73.4413 85.0055 73.9923L84.5005 74.3213C84.0475 73.7473 83.7295 72.9813 83.9115 71.9343C84.0935 70.8873 84.6525 70.2743 85.2725 69.8863L85.2735 69.8853Z" fill="white"/>
</g>
<g opacity="0.2">
<path d="M92.3953 75.6943L92.0312 75.2143C92.5853 74.8283 92.9723 74.3173 93.1093 73.5333C93.2463 72.7463 93.0543 72.1383 92.6633 71.5873L93.1682 71.2583C93.6212 71.8323 93.9393 72.5983 93.7573 73.6453C93.5753 74.6923 93.0163 75.3053 92.3963 75.6933L92.3953 75.6943Z" fill="white"/>
<path d="M95.7904 75.2853C95.7444 75.5493 95.8804 75.6513 96.0374 75.6793L96.1604 75.7003L96.0614 76.2703L95.8864 76.2403C95.3804 76.1523 95.0414 75.8303 95.1474 75.2213L95.2584 74.5823C95.3054 74.3103 95.1584 74.1743 94.9204 74.1333L95.0274 73.5203C95.2654 73.5613 95.4494 73.4883 95.4974 73.2163L95.6074 72.5823C95.7134 71.9733 96.1404 71.7853 96.6474 71.8733L96.8224 71.9033L96.7234 72.4733L96.6004 72.4523C96.4424 72.4253 96.2814 72.4713 96.2354 72.7353L96.1084 73.4673C96.0634 73.7273 95.8924 73.9033 95.6054 73.9363C95.8594 74.0643 95.9654 74.2883 95.9194 74.5523L95.7924 75.2843L95.7904 75.2853Z" fill="white"/>
</g>
<g opacity="0.2">
<path d="M50.0471 110.365C50.0931 110.101 50.2681 109.925 50.5501 109.891C50.2921 109.763 50.1901 109.539 50.2351 109.279L50.3621 108.547C50.4081 108.283 50.2721 108.185 50.1141 108.157L49.9911 108.136L50.0901 107.566L50.2641 107.596C50.7711 107.684 51.1091 108.006 51.0031 108.615L50.8931 109.249C50.8461 109.521 50.9941 109.652 51.2321 109.694L51.1251 110.307C50.8871 110.266 50.7021 110.343 50.6551 110.615L50.5441 111.253C50.4381 111.862 50.0101 112.05 49.5041 111.962L49.3301 111.932L49.4291 111.362L49.5521 111.383C49.7101 111.41 49.8721 111.36 49.9181 111.096L50.0451 110.364L50.0471 110.365Z" fill="white"/>
</g>
<g opacity="0.2">
<path d="M91.9535 49.0892C92.1705 49.1272 92.2975 49.3022 92.2605 49.5202C92.2245 49.7242 92.0245 49.8692 91.7905 49.8282C91.5395 49.7842 91.3805 49.5642 91.4335 49.2612C91.5315 48.6992 91.9845 48.4892 92.3645 48.5242L92.3105 48.8352C92.1325 48.8262 91.9015 48.9172 91.8395 49.0952C91.8585 49.0852 91.9125 49.0812 91.9545 49.0892H91.9535Z" fill="#1BB400"/>
</g>
<g opacity="0.2">
<path d="M72.5131 45.7054C72.7301 45.7434 72.8571 45.9184 72.8201 46.1364C72.7841 46.3404 72.5841 46.4854 72.3501 46.4444C72.0991 46.4004 71.9401 46.1804 71.9931 45.8774C72.0911 45.3154 72.5441 45.1054 72.9241 45.1404L72.8701 45.4514C72.6921 45.4424 72.4611 45.5334 72.3991 45.7114C72.4181 45.7014 72.4721 45.6974 72.5141 45.7054H72.5131Z" fill="#1BB400"/>
</g>
<g opacity="0.2">
<path d="M61.4848 118.545L61.1753 120.322L101.44 127.335L101.75 125.558L61.4848 118.545Z" fill="#1BB400"/>
</g>
<g opacity="0.2">
<path d="M103.179 125.579C103.396 125.617 103.523 125.792 103.486 126.009C103.45 126.213 103.25 126.358 103.016 126.317C102.765 126.273 102.606 126.053 102.659 125.75C102.757 125.188 103.21 124.978 103.59 125.013L103.536 125.324C103.358 125.315 103.127 125.406 103.065 125.584C103.084 125.574 103.138 125.57 103.18 125.578L103.179 125.579Z" fill="#1BB400"/>
</g>
<g opacity="0.2">
<path d="M60.6332 118.172C60.8502 118.21 60.9772 118.385 60.9402 118.602C60.9042 118.806 60.7042 118.951 60.4702 118.91C60.2192 118.866 60.0602 118.646 60.1132 118.343C60.2112 117.781 60.6642 117.571 61.0442 117.606L60.9902 117.917C60.8122 117.908 60.5812 117.999 60.5192 118.177C60.5382 118.167 60.5922 118.163 60.6342 118.171L60.6332 118.172Z" fill="#1BB400"/>
</g>
<g opacity="0.2">
<path d="M115.602 111.366L115.966 111.846C115.412 112.232 115.026 112.739 114.888 113.527C114.752 114.31 114.943 114.922 115.334 115.473L114.829 115.802C114.376 115.228 114.058 114.462 114.24 113.415C114.422 112.368 114.981 111.755 115.601 111.367L115.602 111.366Z" fill="white"/>
<path d="M116.736 116.133L116.372 115.653C116.926 115.267 117.313 114.756 117.45 113.972C117.587 113.185 117.395 112.577 117.004 112.026L117.509 111.697C117.962 112.271 118.28 113.037 118.098 114.084C117.916 115.131 117.357 115.744 116.737 116.132L116.736 116.133Z" fill="white"/>
<path d="M118.238 116.395L117.874 115.915C118.428 115.529 118.815 115.018 118.952 114.234C119.089 113.447 118.897 112.839 118.506 112.288L119.011 111.959C119.464 112.533 119.782 113.299 119.6 114.346C119.418 115.393 118.859 116.006 118.239 116.394L118.238 116.395Z" fill="white"/>
<path d="M120.85 113.749C121.101 113.793 121.276 114.025 121.23 114.284C121.185 114.544 120.941 114.712 120.69 114.668C120.439 114.624 120.266 114.384 120.311 114.124C120.356 113.864 120.595 113.704 120.85 113.749ZM120.412 115.936C120.186 115.897 120.049 115.702 120.09 115.468C120.131 115.234 120.351 115.079 120.593 115.121C120.857 115.167 121.031 115.403 120.971 115.748C120.869 116.335 120.39 116.59 119.979 116.558L120.033 116.247C120.226 116.246 120.478 116.136 120.536 115.927C120.511 115.945 120.459 115.944 120.412 115.936Z" fill="white"/>
</g>
<path opacity="0.2" d="M66.3073 39.1603C66.3423 38.9603 66.4483 38.7553 66.7233 38.6103L66.9503 38.4923C67.0563 38.4363 67.1143 38.3583 67.1313 38.2603C67.1553 38.1203 67.0713 37.9733 66.8843 37.9413C66.7053 37.9103 66.5533 38.0283 66.5213 38.2113C66.5083 38.2883 66.5073 38.3443 66.5123 38.3633L65.8103 38.2413C65.8073 38.1833 65.8133 38.1233 65.8253 38.0553C65.9143 37.5443 66.3673 37.1853 67.0013 37.2953C67.7253 37.4213 67.9803 37.9173 67.9053 38.3473C67.8463 38.6883 67.6473 38.8993 67.3543 39.0453L67.1673 39.1403C67.0183 39.2153 66.9223 39.2903 66.8913 39.4653L66.2953 39.3613C66.2923 39.3033 66.2953 39.2303 66.3083 39.1623L66.3073 39.1603ZM66.5693 39.6183C66.7993 39.6583 66.9473 39.8643 66.9063 40.0983C66.8673 40.3243 66.6573 40.4713 66.4273 40.4313C66.1973 40.3913 66.0493 40.1813 66.0893 39.9553C66.1303 39.7213 66.3393 39.5773 66.5693 39.6183Z" fill="white"/>
</g>
<path d="M110.324 43.3582L121.541 107.142C122.102 110.334 119.97 113.377 116.778 113.938L52.9991 125.154L48.9211 101.966L52.6431 101.311C58.9581 100.2 63.4281 94.3072 62.4881 87.9622C61.5161 81.3802 55.3191 76.9402 48.8061 78.0852L44.8441 78.7822L40.7651 55.5902L63.9531 51.5122L63.2981 47.7902C62.1871 41.4752 66.2031 35.2672 72.4821 33.9822C79.0051 32.6492 85.2941 36.9642 86.4391 43.4732L87.1361 47.4352L110.324 43.3572V43.3582Z" stroke="black" stroke-width="1.5" stroke-linecap="round" stroke-linejoin="round"/>
<path d="M136.205 114.758C125.693 147.698 90.4687 165.88 57.5287 155.368C24.5887 144.856 6.4067 109.632 16.9187 76.692L21.5547 62.165" stroke="black" stroke-width="1.5" stroke-linecap="round" stroke-linejoin="round"/>
<path d="M26.1909 47.6381C36.7019 14.6981 71.9269 -3.48389 104.867 7.02711C137.807 17.5391 155.989 52.7631 145.477 85.7031L140.841 100.23" stroke="black" stroke-width="1.5" stroke-linecap="round" stroke-linejoin="round"/>
<path d="M142.761 94.216L149.706 96.432L144.314 101.339L138.922 106.246L137.368 99.123L135.815 91.999L142.761 94.216Z" fill="black"/>
<path d="M19.6349 68.1799L12.6899 65.9639L18.0819 61.0569L23.4739 56.1499L25.0279 63.2729L26.5809 70.3969L19.6349 68.1799Z" fill="black"/>
</svg>
