<svg width="164" height="164" viewBox="0 0 164 164" fill="none" xmlns="http://www.w3.org/2000/svg">
<rect width="164" height="164" fill="white"/>
<path d="M74.8384 77.7001L77.2284 97.8901L57.0384 100.28L57.4484 103.73C58.1384 109.52 53.7984 114.76 47.8784 115.07C42.4784 115.36 37.8684 111.15 37.2284 105.77L36.8684 102.67L21.0484 104.54C18.6384 104.82 16.4484 103.1 16.1584 100.69L14.2884 84.8701L17.7384 84.46C23.5384 83.78 27.6084 78.34 26.5384 72.51C25.5484 67.19 20.3784 63.69 15.0084 64.33L11.8984 64.6901L10.0284 48.88C9.7484 46.46 11.4684 44.28 13.8784 43.99L29.6984 42.1201L29.2884 38.6701C28.5984 32.8701 32.9384 27.64 38.8584 27.33C44.2584 27.04 48.8684 31.25 49.5084 36.63L49.8784 39.73L70.0584 37.34L72.4484 57.53L68.9984 57.93C63.2084 58.62 59.1284 64.0601 60.2084 69.8901C61.1884 75.2101 66.3584 78.7101 71.7284 78.07L74.8384 77.7001Z" fill="#A5A19D"/>
<path d="M36.8684 102.67L37.2284 105.77C37.8684 111.15 42.4784 115.36 47.8784 115.07C53.7984 114.76 58.1384 109.52 57.4484 103.73L57.0384 100.28L77.2284 97.8901L74.8384 77.7L71.7284 78.0701C66.3584 78.7101 61.1884 75.2101 60.2084 69.8901C59.1284 64.0601 63.2084 58.62 68.9984 57.93L72.4484 57.53L70.0584 37.34L49.8784 39.73L49.5084 36.63C48.8684 31.25 44.2584 27.04 38.8584 27.33C32.9384 27.64 28.5984 32.8701 29.2884 38.6701L29.6984 42.1201L13.8784 43.99C11.4684 44.28 9.7484 46.46 10.0284 48.88L11.8984 64.6901L15.0084 64.33C20.3784 63.69 25.5484 67.19 26.5384 72.51C27.6084 78.34 23.5384 83.78 17.7384 84.46L14.2884 84.8701L16.1584 100.69C16.4484 103.1 18.6384 104.82 21.0484 104.54L36.8684 102.67Z" stroke="black" stroke-width="1.5" stroke-miterlimit="10"/>
<mask id="mask0_2362_6148" style="mask-type:luminance" maskUnits="userSpaceOnUse" x="72" y="49" width="86" height="88">
<path d="M116.08 49.1983L156.348 88.8943C158.363 90.8813 158.386 94.1253 156.4 96.1403L116.707 136.405L102.068 121.974L104.385 119.624C108.315 115.637 108.512 109.182 104.631 105.144C100.608 100.954 93.9506 100.932 89.8976 105.044L87.4315 107.545L72.7896 93.1113L87.2206 78.4723L84.8706 76.1553C80.8836 72.2253 80.5976 65.7763 84.4146 61.6833C88.3806 57.4333 95.0386 57.3193 99.1476 61.3703L101.649 63.8363L116.08 49.1973V49.1983Z" fill="white"/>
</mask>
<g mask="url(#mask0_2362_6148)">
<path d="M140.572 15.5277L52.2939 57.7478L106.693 171.492L194.972 129.271L140.572 15.5277Z" fill="#F2F3F5"/>
<g opacity="0.2">
<path d="M88.6626 64.6266L84.0645 66.8257L84.744 68.2465L89.3421 66.0474L88.6626 64.6266Z" fill="white"/>
</g>
<g opacity="0.2">
<path d="M105.327 91.5362L100.729 93.7354L101.409 95.1562L106.007 92.9571L105.327 91.5362Z" fill="white"/>
</g>
<g opacity="0.2">
<path d="M118.526 85.2238L108.939 89.8088L109.619 91.2297L119.205 86.6446L118.526 85.2238Z" fill="white"/>
</g>
<g opacity="0.2">
<path d="M128.304 80.5471L124.184 82.5176L124.864 83.9384L128.984 81.968L128.304 80.5471Z" fill="white"/>
</g>
<g opacity="0.2">
<path d="M107.988 90.2633L106.277 91.0818L106.956 92.5026L108.668 91.6842L107.988 90.2633Z" fill="white"/>
</g>
<g opacity="0.2">
<path d="M120.925 84.0765L119.214 84.895L119.893 86.3159L121.605 85.4974L120.925 84.0765Z" fill="white"/>
</g>
<g opacity="0.2">
<path d="M123.456 82.8651L121.745 83.6836L122.424 85.1045L124.136 84.286L123.456 82.8651Z" fill="white"/>
</g>
<g opacity="0.2">
<path d="M89.5359 70.613L82.6914 73.8865L83.3709 75.3073L90.2155 72.0339L89.5359 70.613Z" fill="#0082B6"/>
</g>
<g opacity="0.2">
<path d="M98.07 88.458L91.2256 91.7314L91.9051 93.1523L98.7496 89.8789L98.07 88.458Z" fill="#0082B6"/>
</g>
<g opacity="0.2">
<path d="M110.109 82.7007L98.8491 88.0857L99.5287 89.5066L110.788 84.1215L110.109 82.7007Z" fill="#E9580C"/>
</g>
<g opacity="0.2">
<path d="M117.521 79.1563L113.191 81.2268L113.871 82.6477L118.2 80.5771L117.521 79.1563Z" fill="#E400AE"/>
</g>
<g opacity="0.2">
<path d="M133.658 88.9331L129.654 90.8479L130.334 92.2688L134.338 90.354L133.658 88.9331Z" fill="#E400AE"/>
</g>
<g opacity="0.2">
<path d="M103.516 98.8606L99.1865 100.931L99.8661 102.352L104.195 100.281L103.516 98.8606Z" fill="#E400AE"/>
</g>
<g opacity="0.2">
<path d="M88.1183 77.7132L85.1909 79.1133L85.8705 80.5341L88.7979 79.1341L88.1183 77.7132Z" fill="#0082B6"/>
</g>
<g opacity="0.2">
<path d="M103.448 70.382L101.853 71.1448L102.532 72.5656L104.127 71.8028L103.448 70.382Z" fill="#0082B6"/>
</g>
<g opacity="0.2">
<path d="M109.685 95.9105L107.044 97.1738L107.723 98.5947L110.365 97.3314L109.685 95.9105Z" fill="#0082B6"/>
</g>
<g opacity="0.2">
<path d="M93.2457 75.2609L89.0571 77.2642L89.7367 78.685L93.9253 76.6818L93.2457 75.2609Z" fill="#E9580C"/>
</g>
<g opacity="0.2">
<path d="M100.682 71.7045L96.4932 73.7078L97.1727 75.1286L101.361 73.1254L100.682 71.7045Z" fill="#E9580C"/>
</g>
<g opacity="0.2">
<path d="M108.788 67.8276L104.599 69.8308L105.279 71.2517L109.467 69.2484L108.788 67.8276Z" fill="#E9580C"/>
</g>
<g opacity="0.2">
<path d="M105.207 63.1186L91.1548 69.8394L91.8343 71.2602L105.887 64.5394L105.207 63.1186Z" fill="#1BB400"/>
</g>
<path opacity="0.2" d="M81.7834 69.3185L82.0424 69.8595L80.2084 69.8625L79.9614 69.3455L81.1134 67.9165L81.3704 68.4545L80.6144 69.3475L81.7844 69.3195L81.7834 69.3185Z" fill="white"/>
<g opacity="0.2">
<path d="M107.218 62.1557C107.419 62.0597 107.66 62.1367 107.76 62.3437C107.859 62.5517 107.771 62.7947 107.57 62.8907C107.366 62.9887 107.124 62.9027 107.025 62.6957C106.926 62.4887 107.014 62.2537 107.218 62.1557ZM108.014 63.9327C107.834 64.0187 107.637 63.9497 107.548 63.7627C107.458 63.5757 107.537 63.3547 107.731 63.2617C107.942 63.1607 108.185 63.2407 108.317 63.5167C108.542 63.9867 108.33 64.4097 108.021 64.5947L107.902 64.3467C108.039 64.2477 108.162 64.0427 108.098 63.8647C108.089 63.8897 108.052 63.9157 108.014 63.9337V63.9327Z" fill="white"/>
</g>
<g opacity="0.2">
<path d="M109.875 66.9196C110.076 66.8236 110.317 66.9006 110.417 67.1076C110.516 67.3156 110.428 67.5586 110.227 67.6546C110.023 67.7526 109.781 67.6666 109.682 67.4596C109.583 67.2516 109.671 67.0176 109.875 66.9196ZM110.671 68.6966C110.491 68.7826 110.294 68.7136 110.205 68.5266C110.115 68.3396 110.194 68.1186 110.388 68.0256C110.599 67.9246 110.842 68.0046 110.974 68.2806C111.199 68.7506 110.987 69.1736 110.678 69.3586L110.559 69.1106C110.696 69.0116 110.819 68.8066 110.755 68.6286C110.746 68.6536 110.709 68.6796 110.671 68.6976V68.6966Z" fill="white"/>
</g>
<g opacity="0.2">
<path d="M142.123 123.374C142.324 123.278 142.565 123.355 142.665 123.562C142.764 123.77 142.676 124.013 142.475 124.109C142.271 124.207 142.029 124.121 141.93 123.914C141.831 123.706 141.919 123.472 142.123 123.374ZM142.919 125.151C142.739 125.237 142.542 125.168 142.453 124.981C142.363 124.794 142.442 124.573 142.636 124.48C142.847 124.379 143.09 124.459 143.222 124.735C143.447 125.205 143.235 125.628 142.926 125.813L142.807 125.565C142.944 125.466 143.067 125.261 143.003 125.083C142.994 125.108 142.957 125.134 142.919 125.152V125.151Z" fill="white"/>
</g>
<g opacity="0.2">
<path d="M93.6563 74.2015L94.2073 73.9375L96.5213 75.7955L95.9763 76.0555L93.6553 74.2005L93.6563 74.2015Z" fill="white"/>
</g>
<g opacity="0.2">
<path d="M98.0572 97.5843L97.5132 97.8443L97.5202 94.8763L98.0712 94.6123L98.0582 97.5833L98.0572 97.5843Z" fill="white"/>
<path d="M99.2042 97.0355L98.6602 97.2955L98.6672 94.3275L99.2182 94.0635L99.2052 97.0345L99.2042 97.0355Z" fill="white"/>
</g>
<g opacity="0.2">
<path d="M116.541 107.958L113.562 109.382L114.242 110.803L117.221 109.379L116.541 107.958Z" fill="white"/>
</g>
<g opacity="0.2">
<path d="M112.193 110.038L109.214 111.463L109.894 112.884L112.873 111.459L112.193 110.038Z" fill="white"/>
</g>
<g opacity="0.2">
<path d="M127.012 102.951L117.425 107.536L118.104 108.957L127.691 104.371L127.012 102.951Z" fill="white"/>
</g>
<g opacity="0.2">
<path d="M136.789 98.2746L132.669 100.245L133.348 101.666L137.469 99.6955L136.789 98.2746Z" fill="white"/>
</g>
<g opacity="0.2">
<path d="M129.411 101.803L127.7 102.622L128.379 104.043L130.091 103.224L129.411 101.803Z" fill="white"/>
</g>
<g opacity="0.2">
<path d="M131.942 100.592L130.23 101.41L130.91 102.831L132.621 102.013L131.942 100.592Z" fill="white"/>
</g>
<g opacity="0.2">
<path d="M106.989 114.773L106.445 115.033L106.452 112.065L107.003 111.801L106.99 114.772L106.989 114.773Z" fill="white"/>
<path d="M108.136 114.224L107.592 114.484L107.599 111.516L108.15 111.252L108.137 114.223L108.136 114.224Z" fill="white"/>
</g>
<g opacity="0.2">
<path d="M104.709 98.9884L104.484 98.5184L106.168 97.7124L106.393 98.1824L104.709 98.9884ZM105.065 99.7334L104.837 99.2574L106.521 98.4514L106.749 98.9274L105.065 99.7334Z" fill="white"/>
</g>
<g opacity="0.2">
<path d="M105.264 102.518L100.935 104.588L101.615 106.009L105.944 103.938L105.264 102.518Z" fill="#E400AE"/>
</g>
<g opacity="0.2">
<path d="M113.528 98.5644L108.792 100.83L109.472 102.25L114.208 99.9853L113.528 98.5644Z" fill="#E400AE"/>
</g>
<g opacity="0.2">
<path d="M127.238 92.0066L118.587 96.1438L119.267 97.5647L127.918 93.4274L127.238 92.0066Z" fill="#E9580C"/>
</g>
<g opacity="0.2">
<path d="M106.457 102.644L106.232 102.174L107.916 101.368L108.141 101.838L106.457 102.644ZM106.813 103.389L106.585 102.913L108.269 102.107L108.497 102.583L106.813 103.389Z" fill="white"/>
</g>
<g opacity="0.2">
<path d="M114.769 129.836L110.44 131.906L111.119 133.327L115.449 131.257L114.769 129.836Z" fill="#E400AE"/>
</g>
<g opacity="0.2">
<path d="M116.308 129.798L116.083 129.328L117.767 128.522L117.992 128.992L116.308 129.798ZM116.664 130.543L116.435 130.067L118.12 129.261L118.348 129.737L116.664 130.543Z" fill="white"/>
</g>
<g opacity="0.2">
<path d="M115.387 98.9127L115.128 98.3717L116.18 97.8687L116.439 98.4097L115.387 98.9127Z" fill="white"/>
<path d="M117.656 97.4645L116.486 97.4925L116.226 96.9485H118.062L118.309 97.4655L117.155 98.8915L116.899 98.3575L117.655 97.4645H117.656Z" fill="white"/>
</g>
<g opacity="0.2">
<path d="M119.167 89.9617L119.669 90.1187C119.47 90.6737 119.452 91.2307 119.753 91.8597C120.054 92.4887 120.499 92.8247 121.055 93.0177L120.863 93.5067C120.25 93.3277 119.636 92.9437 119.236 92.1067C118.836 91.2697 118.922 90.5507 119.167 89.9607V89.9617Z" fill="white"/>
<path d="M122.388 92.7786L121.885 92.6216C122.084 92.0666 122.101 91.5066 121.802 90.8806C121.501 90.2506 121.056 89.9156 120.499 89.7226L120.691 89.2336C121.304 89.4126 121.918 89.7966 122.318 90.6336C122.718 91.4706 122.632 92.1896 122.387 92.7796L122.388 92.7786Z" fill="white"/>
<path d="M122.977 89.5404C123.178 89.4444 123.419 89.5214 123.519 89.7284C123.618 89.9364 123.53 90.1794 123.329 90.2754C123.125 90.3734 122.883 90.2874 122.784 90.0804C122.685 89.8724 122.773 89.6384 122.977 89.5404ZM123.773 91.3174C123.593 91.4034 123.396 91.3344 123.307 91.1474C123.217 90.9604 123.296 90.7384 123.49 90.6464C123.701 90.5454 123.944 90.6254 124.076 90.9014C124.301 91.3714 124.089 91.7944 123.78 91.9794L123.661 91.7314C123.798 91.6324 123.921 91.4274 123.857 91.2484C123.848 91.2734 123.811 91.2994 123.773 91.3174Z" fill="white"/>
</g>
<g opacity="0.2">
<path d="M128.417 90.0305L128.919 90.1875C128.72 90.7425 128.702 91.2995 129.003 91.9285C129.302 92.5545 129.749 92.8935 130.305 93.0865L130.113 93.5755C129.5 93.3965 128.886 93.0125 128.486 92.1755C128.086 91.3385 128.172 90.6195 128.417 90.0295V90.0305Z" fill="white"/>
<path d="M135.517 90.9915L135.015 90.8345C135.214 90.2795 135.23 89.7195 134.931 89.0935C134.63 88.4635 134.185 88.1285 133.628 87.9355L133.82 87.4465C134.433 87.6255 135.047 88.0095 135.447 88.8465C135.847 89.6835 135.761 90.4025 135.516 90.9925L135.517 90.9915Z" fill="white"/>
<path d="M136.248 87.6855C136.449 87.5895 136.69 87.6665 136.79 87.8735C136.889 88.0815 136.801 88.3245 136.6 88.4205C136.396 88.5185 136.154 88.4325 136.055 88.2255C135.956 88.0175 136.044 87.7835 136.248 87.6855ZM137.044 89.4625C136.864 89.5485 136.667 89.4795 136.578 89.2925C136.488 89.1055 136.567 88.8835 136.761 88.7915C136.972 88.6905 137.215 88.7705 137.347 89.0465C137.572 89.5165 137.36 89.9395 137.051 90.1245L136.932 89.8765C137.069 89.7775 137.192 89.5725 137.128 89.3935C137.119 89.4185 137.082 89.4445 137.044 89.4625Z" fill="white"/>
</g>
<g opacity="0.2">
<path d="M107.018 106.14L102.688 108.211L103.368 109.632L107.697 107.561L107.018 106.14Z" fill="#E400AE"/>
</g>
<g opacity="0.2">
<path d="M115.281 102.188L110.544 104.453L111.224 105.874L115.96 103.609L115.281 102.188Z" fill="#E400AE"/>
</g>
<g opacity="0.2">
<path d="M125.213 97.4365L120.342 99.7664L121.021 101.187L125.893 98.8574L125.213 97.4365Z" fill="#E9580C"/>
</g>
<g opacity="0.2">
<path d="M108.211 106.267L107.986 105.797L109.67 104.991L109.895 105.461L108.211 106.267ZM108.567 107.012L108.339 106.536L110.023 105.73L110.251 106.206L108.567 107.012Z" fill="white"/>
</g>
<g opacity="0.2">
<path d="M117.141 102.535L116.882 101.994L117.934 101.491L118.193 102.032L117.141 102.535Z" fill="white"/>
<path d="M119.408 101.087L118.239 101.115L117.979 100.571H119.815L120.062 101.088L118.908 102.514L118.652 101.98L119.408 101.087H119.408Z" fill="white"/>
</g>
<g opacity="0.2">
<path d="M126.676 95.5474L127.178 95.7044C126.979 96.2594 126.961 96.8154 127.262 97.4454C127.561 98.0714 128.008 98.4104 128.564 98.6034L128.372 99.0924C127.759 98.9134 127.145 98.5294 126.745 97.6924C126.345 96.8554 126.431 96.1364 126.676 95.5464V95.5474Z" fill="white"/>
<path d="M129.897 98.3643L129.395 98.2073C129.594 97.6523 129.61 97.0923 129.311 96.4663C129.01 95.8363 128.565 95.5013 128.009 95.3083L128.201 94.8193C128.814 94.9983 129.428 95.3823 129.828 96.2193C130.228 97.0563 130.142 97.7753 129.897 98.3653V98.3643Z" fill="white"/>
<path d="M130.415 95.1603C130.616 95.0643 130.857 95.1413 130.957 95.3483C131.056 95.5563 130.968 95.7993 130.767 95.8953C130.566 95.9913 130.321 95.9073 130.222 95.7003C130.123 95.4923 130.211 95.2583 130.415 95.1603ZM131.211 96.9373C131.031 97.0233 130.834 96.9543 130.745 96.7673C130.655 96.5803 130.734 96.3583 130.928 96.2663C131.139 96.1653 131.382 96.2453 131.514 96.5213C131.739 96.9913 131.527 97.4143 131.218 97.5993L131.099 97.3513C131.236 97.2523 131.359 97.0473 131.295 96.8693C131.286 96.8943 131.249 96.9203 131.211 96.9383V96.9373Z" fill="white"/>
</g>
<g opacity="0.2">
<path d="M89.8786 81.3951L86.9512 82.7952L87.6307 84.216L90.5582 82.8159L89.8786 81.3951Z" fill="#0082B6"/>
</g>
<g opacity="0.2">
<path d="M98.5035 77.2698L90.8174 80.9458L91.4969 82.3667L99.1831 78.6907L98.5035 77.2698Z" fill="#E9580C"/>
</g>
<g opacity="0.2">
<path d="M118.256 91.8108L110.569 95.4868L111.249 96.9077L118.935 93.2317L118.256 91.8108Z" fill="#E9580C"/>
</g>
<g opacity="0.2">
<path d="M116.162 132.749L111.833 134.82L112.513 136.241L116.842 134.17L116.162 132.749Z" fill="#E400AE"/>
</g>
<g opacity="0.2">
<path d="M140.941 124.479L119.718 134.629L120.398 136.05L141.621 125.9L140.941 124.479Z" fill="#E400AE"/>
</g>
<g opacity="0.2">
<path d="M122.832 129.56L120.191 130.823L120.87 132.244L123.512 130.981L122.832 129.56Z" fill="#0082B6"/>
</g>
<g opacity="0.2">
<path d="M117.704 132.71L117.479 132.24L119.163 131.434L119.388 131.904L117.704 132.71ZM118.06 133.455L117.832 132.979L119.516 132.173L119.744 132.649L118.06 133.455Z" fill="white"/>
</g>
<g opacity="0.2">
<path d="M132.315 123.61L132.817 123.767C132.618 124.322 132.6 124.878 132.901 125.508C133.2 126.134 133.647 126.473 134.203 126.666L134.011 127.155C133.398 126.976 132.784 126.592 132.384 125.755C131.984 124.918 132.07 124.199 132.315 123.609V123.61Z" fill="white"/>
<path d="M135.535 126.427L135.033 126.27C135.232 125.715 135.248 125.155 134.949 124.529C134.648 123.899 134.203 123.564 133.646 123.371L133.838 122.882C134.451 123.061 135.065 123.445 135.465 124.282C135.865 125.119 135.778 125.838 135.534 126.428L135.535 126.427Z" fill="white"/>
<path d="M136.055 123.223C136.256 123.127 136.497 123.204 136.597 123.411C136.696 123.619 136.608 123.862 136.407 123.958C136.203 124.056 135.961 123.97 135.862 123.763C135.763 123.555 135.851 123.321 136.055 123.223ZM136.851 125C136.671 125.086 136.474 125.017 136.385 124.83C136.296 124.643 136.374 124.421 136.568 124.329C136.779 124.228 137.022 124.308 137.154 124.584C137.379 125.054 137.167 125.477 136.858 125.662L136.739 125.414C136.876 125.315 136.999 125.11 136.935 124.931C136.926 124.956 136.889 124.982 136.851 125Z" fill="white"/>
</g>
<g opacity="0.2">
<path d="M131.403 125.46L123.717 129.136L124.396 130.557L132.083 126.881L131.403 125.46Z" fill="#E9580C"/>
</g>
<g opacity="0.2">
<path d="M118.106 113.61L107.643 118.615L108.323 120.035L118.786 115.031L118.106 113.61Z" fill="#E400AE"/>
</g>
<g opacity="0.2">
<path d="M124.948 110.339L122.306 111.603L122.986 113.023L125.627 111.76L124.948 110.339Z" fill="#0082B6"/>
</g>
<g opacity="0.2">
<path d="M138.535 103.839L135.894 105.103L136.574 106.524L139.215 105.26L138.535 103.839Z" fill="#0082B6"/>
</g>
<g opacity="0.2">
<path d="M119.684 113.558L119.459 113.088L121.143 112.282L121.368 112.752L119.684 113.558ZM120.04 114.303L119.812 113.827L121.496 113.021L121.724 113.497L120.04 114.303Z" fill="white"/>
</g>
<g opacity="0.2">
<path d="M134.309 104.449L134.811 104.606C134.612 105.161 134.594 105.717 134.895 106.347C135.194 106.973 135.641 107.312 136.198 107.505L136.006 107.994C135.393 107.815 134.779 107.431 134.379 106.594C133.979 105.757 134.065 105.038 134.31 104.448L134.309 104.449Z" fill="white"/>
</g>
<g opacity="0.2">
<path d="M133.519 106.239L125.833 109.915L126.512 111.336L134.198 107.66L133.519 106.239Z" fill="#E9580C"/>
</g>
<g opacity="0.2">
<path d="M153.109 96.8708L139.653 103.306L140.332 104.727L153.789 98.2917L153.109 96.8708Z" fill="#E9580C"/>
</g>
<g opacity="0.2">
<path d="M113.673 70.016L102.442 75.3872L103.122 76.8081L114.353 71.4369L113.673 70.016Z" fill="#E9580C"/>
</g>
<g opacity="0.2">
<path d="M114.764 69.1054C114.965 69.0094 115.206 69.0864 115.306 69.2934C115.405 69.5014 115.317 69.7444 115.116 69.8404C114.912 69.9384 114.671 69.8524 114.572 69.6454C114.473 69.4374 114.56 69.2034 114.764 69.1054ZM115.56 70.8824C115.38 70.9684 115.184 70.8994 115.095 70.7124C115.005 70.5254 115.084 70.3044 115.278 70.2114C115.489 70.1104 115.731 70.1904 115.863 70.4664C116.088 70.9364 115.877 71.3594 115.568 71.5444L115.449 71.2964C115.586 71.1974 115.709 70.9924 115.645 70.8144C115.636 70.8394 115.598 70.8654 115.56 70.8834V70.8824Z" fill="white"/>
</g>
<g opacity="0.2">
<path d="M99.4053 75.9754L99.9563 75.7114L102.27 77.5694L101.726 77.8294L99.4053 75.9744V75.9754Z" fill="white"/>
</g>
<g opacity="0.2">
<path d="M91.6398 85.0767L88.7124 86.4768L89.3919 87.8977L92.3194 86.4976L91.6398 85.0767Z" fill="#0082B6"/>
</g>
<g opacity="0.2">
<path d="M118.666 135.133L113.227 137.734L113.906 139.155L119.346 136.554L118.666 135.133Z" fill="#0082B6"/>
</g>
<g opacity="0.2">
<path d="M96.7672 82.6247L92.5786 84.6279L93.2582 86.0488L97.4468 84.0455L96.7672 82.6247Z" fill="#E9580C"/>
</g>
<g opacity="0.2">
<path d="M104.204 79.0681L99.7588 81.1938L100.438 82.6147L104.883 80.4889L104.204 79.0681Z" fill="#E9580C"/>
</g>
<g opacity="0.2">
<path d="M123.619 69.7834L107.596 77.4465L108.276 78.8674L124.299 71.2043L123.619 69.7834Z" fill="#E9580C"/>
</g>
<g opacity="0.2">
<path d="M124.62 68.9154C124.821 68.8194 125.062 68.8964 125.162 69.1034C125.261 69.3114 125.173 69.5544 124.972 69.6504C124.768 69.7484 124.526 69.6624 124.427 69.4554C124.328 69.2474 124.416 69.0134 124.62 68.9154ZM125.416 70.6924C125.236 70.7784 125.039 70.7094 124.95 70.5224C124.86 70.3354 124.939 70.1144 125.133 70.0214C125.344 69.9204 125.587 70.0004 125.719 70.2764C125.944 70.7464 125.732 71.1694 125.423 71.3544L125.304 71.1064C125.441 71.0074 125.564 70.8024 125.5 70.6244C125.491 70.6494 125.454 70.6754 125.416 70.6934V70.6924Z" fill="white"/>
</g>
<g opacity="0.2">
<path d="M96.9126 81.6915L97.4636 81.4275L99.7776 83.2855L99.2336 83.5455L96.9126 81.6905V81.6915Z" fill="white"/>
</g>
<g opacity="0.2">
<path d="M104.79 77.9244L105.341 77.6604L107.655 79.5184L107.111 79.7784L104.79 77.9234V77.9244Z" fill="white"/>
</g>
<g opacity="0.2">
<path d="M111.686 80.7493L112.188 80.9063C111.989 81.4613 111.971 82.0173 112.272 82.6473C112.571 83.2733 113.018 83.6123 113.575 83.8053L113.383 84.2943C112.77 84.1153 112.156 83.7313 111.756 82.8943C111.356 82.0573 111.442 81.3383 111.687 80.7483L111.686 80.7493Z" fill="white"/>
</g>
<g opacity="0.2">
<path d="M119.693 81.2774L119.191 81.1204C119.39 80.5654 119.406 80.0054 119.107 79.3794C118.806 78.7494 118.361 78.4144 117.805 78.2214L117.997 77.7324C118.61 77.9114 119.224 78.2954 119.624 79.1324C120.024 79.9694 119.938 80.6884 119.693 81.2784V81.2774Z" fill="white"/>
<path d="M121.901 79.2676C122.002 79.4786 122.15 79.4826 122.276 79.4226L122.375 79.3756L122.593 79.8316L122.453 79.8986C122.048 80.0926 121.644 80.0346 121.411 79.5476L121.167 79.0366C121.063 78.8186 120.889 78.7976 120.699 78.8886L120.465 78.3986C120.656 78.3076 120.749 78.1626 120.645 77.9446L120.403 77.4376C120.17 76.9506 120.379 76.6006 120.784 76.4066L120.924 76.3396L121.142 76.7956L121.043 76.8426C120.917 76.9026 120.826 77.0176 120.927 77.2286L121.207 77.8136C121.306 78.0216 121.274 78.2336 121.087 78.4016C121.332 78.3636 121.521 78.4696 121.622 78.6806L121.902 79.2656L121.901 79.2676Z" fill="white"/>
</g>
<g opacity="0.2">
<path d="M107.119 127.379C107.018 127.168 107.054 126.954 107.237 126.787C106.988 126.827 106.803 126.719 106.704 126.511L106.424 125.926C106.323 125.715 106.176 125.714 106.05 125.774L105.951 125.821L105.733 125.365L105.872 125.298C106.277 125.104 106.681 125.162 106.914 125.649L107.157 126.156C107.261 126.374 107.433 126.392 107.624 126.301L107.858 126.791C107.667 126.882 107.575 127.031 107.68 127.249L107.924 127.759C108.157 128.246 107.948 128.596 107.543 128.79L107.404 128.857L107.186 128.401L107.285 128.354C107.411 128.294 107.501 128.176 107.4 127.965L107.12 127.38L107.119 127.379Z" fill="white"/>
</g>
<g opacity="0.2">
<path d="M105.912 62.5743C106.086 62.4913 106.265 62.5523 106.348 62.7253C106.426 62.8883 106.357 63.0933 106.17 63.1833C105.969 63.2793 105.744 63.2033 105.629 62.9613C105.414 62.5123 105.63 62.1333 105.918 61.9663L106.037 62.2143C105.906 62.2983 105.788 62.4803 105.834 62.6373C105.843 62.6203 105.879 62.5913 105.913 62.5743H105.912Z" fill="#1BB400"/>
</g>
<g opacity="0.2">
<path d="M90.3696 70.0084C90.5436 69.9254 90.7226 69.9864 90.8056 70.1594C90.8836 70.3224 90.8146 70.5274 90.6276 70.6174C90.4266 70.7134 90.2016 70.6374 90.0866 70.3954C89.8716 69.9464 90.0876 69.5674 90.3756 69.4004L90.4946 69.6484C90.3636 69.7324 90.2456 69.9144 90.2916 70.0714C90.3006 70.0544 90.3366 70.0254 90.3706 70.0084H90.3696Z" fill="#1BB400"/>
</g>
<g opacity="0.2">
<path d="M151.578 112.009L119.387 127.405L120.066 128.826L152.258 113.43L151.578 112.009Z" fill="#1BB400"/>
</g>
<g opacity="0.2">
<path d="M152.617 111.306C152.791 111.223 152.97 111.283 153.053 111.457C153.131 111.62 153.062 111.825 152.875 111.915C152.674 112.011 152.449 111.935 152.334 111.693C152.119 111.244 152.335 110.865 152.623 110.698L152.742 110.946C152.611 111.03 152.493 111.212 152.539 111.369C152.548 111.352 152.584 111.323 152.618 111.306H152.617Z" fill="#1BB400"/>
</g>
<g opacity="0.2">
<path d="M118.602 127.574C118.776 127.491 118.955 127.551 119.038 127.725C119.116 127.888 119.047 128.093 118.86 128.183C118.659 128.279 118.434 128.203 118.319 127.961C118.104 127.512 118.32 127.133 118.608 126.966L118.727 127.214C118.596 127.298 118.478 127.48 118.524 127.637C118.533 127.62 118.569 127.591 118.603 127.574H118.602Z" fill="#1BB400"/>
</g>
<g opacity="0.2">
<path d="M154.261 94.9063L154.763 95.0633C154.564 95.6183 154.546 96.1743 154.847 96.8043C155.146 97.4303 155.593 97.7693 156.15 97.9623L155.958 98.4513C155.345 98.2723 154.731 97.8883 154.331 97.0513C153.931 96.2143 154.017 95.4953 154.262 94.9053L154.261 94.9063Z" fill="white"/>
<path d="M157.481 97.7232L156.979 97.5662C157.178 97.0112 157.194 96.4512 156.895 95.8252C156.594 95.1952 156.149 94.8602 155.593 94.6672L155.785 94.1782C156.398 94.3572 157.012 94.7412 157.412 95.5782C157.812 96.4152 157.726 97.1342 157.481 97.7242V97.7232Z" fill="white"/>
<path d="M158.681 97.1495L158.179 96.9925C158.378 96.4375 158.394 95.8775 158.095 95.2515C157.794 94.6215 157.349 94.2865 156.793 94.0935L156.985 93.6045C157.598 93.7835 158.212 94.1675 158.612 95.0045C159.012 95.8415 158.926 96.5605 158.681 97.1505V97.1495Z" fill="white"/>
</g>
<path opacity="0.2" d="M82.6412 68.4944C82.5642 68.3344 82.5362 68.1344 82.6582 67.8924L82.7592 67.6934C82.8062 67.5994 82.8082 67.5154 82.7702 67.4374C82.7162 67.3254 82.5822 67.2634 82.4332 67.3354C82.2902 67.4034 82.2422 67.5644 82.3122 67.7114C82.3412 67.7724 82.3692 67.8134 82.3832 67.8244L81.8212 68.0934C81.7902 68.0544 81.7632 68.0084 81.7372 67.9534C81.5422 67.5454 81.6822 67.0594 82.1892 66.8174C82.7672 66.5404 83.2012 66.7644 83.3652 67.1084C83.4952 67.3804 83.4602 67.6314 83.3262 67.8834L83.2402 68.0454C83.1722 68.1744 83.1412 68.2764 83.2082 68.4164L82.7322 68.6444C82.7012 68.6054 82.6662 68.5504 82.6402 68.4964L82.6412 68.4944ZM83.0592 68.6874C83.2432 68.5994 83.4522 68.6704 83.5422 68.8574C83.6282 69.0374 83.5542 69.2494 83.3702 69.3374C83.1862 69.4254 82.9752 69.3504 82.8892 69.1704C82.7992 68.9834 82.8762 68.7754 83.0592 68.6874Z" fill="white"/>
</g>
<path d="M116.08 49.1983L156.348 88.8943C158.363 90.8813 158.386 94.1253 156.4 96.1403L116.707 136.405L102.068 121.974L104.385 119.624C108.315 115.637 108.512 109.182 104.631 105.144C100.608 100.954 93.9506 100.932 89.8976 105.044L87.4315 107.545L72.7896 93.1113L87.2206 78.4723L84.8706 76.1553C80.8836 72.2253 80.5976 65.7763 84.4146 61.6833C88.3806 57.4333 95.0386 57.3193 99.1476 61.3703L101.649 63.8363L116.08 49.1973V49.1983Z" stroke="#1D1D1B" stroke-width="1.5" stroke-linecap="round" stroke-linejoin="round"/>
<path d="M108.528 138.99L96.6584 159.4L77.6484 148.36L89.5184 127.94L108.528 138.99Z" fill="white"/>
<path d="M96.2682 117.31L101.098 108.99C104.088 103.86 110.658 102.12 115.788 105.1C120.928 108.09 122.668 114.66 119.688 119.79L108.528 138.99L89.5182 127.94L88.2283 117.8C88.2283 117.8 88.1283 116.96 88.0783 116.5C87.8283 114.29 89.4082 112.3 91.6182 112.04C93.8182 111.79 95.8182 113.37 96.0682 115.58C96.1282 116.01 96.2482 117.18 96.2682 117.31Z" fill="#E9580C"/>
<path d="M96.2685 117.32L93.4585 122.15" stroke="black" stroke-width="1.5" stroke-miterlimit="10"/>
<path d="M108.529 138.99L119.689 119.79C122.669 114.66 120.929 108.09 115.789 105.1C110.659 102.12 104.089 103.86 101.099 108.99L96.2686 117.31" stroke="black" stroke-width="1.5" stroke-miterlimit="10"/>
<path d="M96.2682 117.31C96.2482 117.18 96.1282 116.01 96.0682 115.58C95.8182 113.37 93.8182 111.79 91.6182 112.04C89.4082 112.3 87.8283 114.29 88.0783 116.5C88.1283 116.96 88.2283 117.8 88.2283 117.8L89.5182 127.94" stroke="black" stroke-width="1.5" stroke-miterlimit="10"/>
<path d="M96.2686 117.31V117.32" stroke="black" stroke-width="1.5" stroke-miterlimit="10"/>
<path d="M108.528 138.99L96.6584 159.4L77.6484 148.36L89.5184 127.94L108.528 138.99Z" stroke="black" stroke-width="1.5" stroke-miterlimit="10"/>
<path d="M85.2162 16.8441L72.0732 36.4591L53.8032 24.2341L66.9462 4.60913L85.2162 16.8441Z" fill="black"/>
<path d="M53.8035 24.2342L72.0735 36.4592L72.7164 46.6702C72.7164 46.6702 72.7625 47.5152 72.7845 47.9672C72.8935 50.1882 71.1894 52.0842 68.9684 52.1932C66.7564 52.3132 64.8605 50.6092 64.7515 48.3872C64.7205 47.9242 64.6624 46.6382 64.6624 46.6382L59.3135 54.6342C56.0035 59.5642 49.3355 60.8932 44.4065 57.5832C39.4665 54.2832 38.1474 47.6052 41.4474 42.6752L53.8035 24.2332V24.2342Z" fill="#E9580C"/>
<path d="M53.8035 24.2341L41.4474 42.6761C38.1474 47.6061 39.4665 54.2841 44.4065 57.5841C49.3365 60.8941 56.0045 59.5651 59.3135 54.6351L64.6624 46.6391L67.7745 41.9871" stroke="black" stroke-width="1.5" stroke-miterlimit="10"/>
<path d="M64.6626 46.639C64.6626 46.639 64.7206 47.925 64.7516 48.388C64.8606 50.609 66.7566 52.313 68.9686 52.194C71.1896 52.085 72.8936 50.189 72.7846 47.968C72.7636 47.516 72.7166 46.671 72.7166 46.671L72.0736 36.46" stroke="black" stroke-width="1.5" stroke-miterlimit="10"/>
<path d="M53.8032 24.2341L66.9462 4.60913L85.2162 16.8441L72.0732 36.4591L53.8032 24.2341Z" stroke="black" stroke-width="1.5" stroke-miterlimit="10"/>
</svg>
