<svg width="164" height="164" viewBox="0 0 164 164" fill="none" xmlns="http://www.w3.org/2000/svg">
<rect width="164" height="164" fill="white"/>
<path d="M107.03 40.8349C107.92 42.9249 106.8 45.3149 104.61 45.9049C104.3 45.9849 103.98 46.0249 103.67 46.0249C102.21 46.0249 100.86 45.1449 100.26 43.7449C95.91 33.5849 84.44 27.9749 73.47 31.3449C62.04 34.8449 55.69 47.0949 58.76 58.6449L61.71 69.7649H54.09L51.66 60.6249C47.54 45.1349 56.18 28.8049 71.54 24.2349C86.1 19.8949 101.25 27.3649 107.03 40.8349Z" fill="#F2F3F5"/>
<path d="M86.7801 104.225L92.7501 120.295C93.4301 122.125 92.0801 124.075 90.1201 124.075H74.3601C72.4001 124.075 71.0401 122.125 71.7301 120.295L77.7001 104.225C74.6301 102.595 72.5401 99.365 72.5401 95.655C72.5401 90.195 77.0501 85.785 82.5401 85.955C87.6801 86.105 91.9101 90.4449 91.9401 95.5749C91.9701 99.3249 89.8701 102.585 86.7801 104.225Z" fill="#E9580C"/>
<mask id="mask0_2362_6579" style="mask-type:alpha" maskUnits="userSpaceOnUse" x="43" y="69" width="78" height="72">
<path fill-rule="evenodd" clip-rule="evenodd" d="M120.72 136.125V73.9051C120.72 71.6151 118.87 69.7651 116.58 69.7651H54.0901H47.9C45.61 69.7651 43.75 71.6151 43.75 73.9051V136.125C43.75 138.405 45.61 140.265 47.9 140.265H116.58C118.87 140.265 120.72 138.405 120.72 136.125ZM92.75 120.295C93.43 122.125 92.08 124.075 90.12 124.075H74.36C72.4 124.075 71.04 122.125 71.73 120.295L77.7 104.225C74.63 102.595 72.54 99.3651 72.54 95.6551C72.54 90.1951 77.05 85.7851 82.54 85.9551C87.68 86.1051 91.91 90.4451 91.94 95.5751C91.97 99.3251 89.87 102.585 86.78 104.225L92.75 120.295Z" fill="#F2F3F5"/>
</mask>
<g mask="url(#mask0_2362_6579)">
<path fill-rule="evenodd" clip-rule="evenodd" d="M120.72 136.125V73.9051C120.72 71.6151 118.87 69.7651 116.58 69.7651H54.0901H47.9C45.61 69.7651 43.75 71.6151 43.75 73.9051V136.125C43.75 138.405 45.61 140.265 47.9 140.265H116.58C118.87 140.265 120.72 138.405 120.72 136.125ZM92.75 120.295C93.43 122.125 92.08 124.075 90.12 124.075H74.36C72.4 124.075 71.04 122.125 71.73 120.295L77.7 104.225C74.63 102.595 72.54 99.3651 72.54 95.6551C72.54 90.1951 77.05 85.7851 82.54 85.9551C87.68 86.1051 91.91 90.4451 91.94 95.5751C91.97 99.3251 89.87 102.585 86.78 104.225L92.75 120.295Z" fill="#F2F3F5"/>
<path d="M135.9 23.6827L24.0723 31.1729L33.723 175.259L145.55 167.769L135.9 23.6827Z" fill="#F2F3F5"/>
<g opacity="0.2">
<path d="M60.3584 89.9981L60.479 91.7981L66.304 91.4079L66.1834 89.608L60.3584 89.9981Z" fill="white"/>
</g>
<g opacity="0.2">
<path d="M70.7603 89.3009L70.8809 91.1008L83.0256 90.2874L82.9051 88.4874L70.7603 89.3009Z" fill="white"/>
</g>
<g opacity="0.2">
<path d="M90.0743 88.0069L90.1948 89.8069L95.4131 89.4574L95.2926 87.6574L90.0743 88.0069Z" fill="white"/>
</g>
<g opacity="0.2">
<path d="M67.3887 89.5274L67.5093 91.3274L69.6774 91.1822L69.5569 89.3822L67.3887 89.5274Z" fill="white"/>
</g>
<g opacity="0.2">
<path d="M83.7779 88.4285L83.8984 90.2285L86.0666 90.0833L85.946 88.2833L83.7779 88.4285Z" fill="white"/>
</g>
<g opacity="0.2">
<path d="M86.9844 88.214L87.105 90.0139L89.2731 89.8687L89.1526 88.0687L86.9844 88.214Z" fill="white"/>
</g>
<g opacity="0.2">
<path d="M51.0977 83.8377L51.2183 85.6377L59.8878 85.057L59.7673 83.257L51.0977 83.8377Z" fill="#0082B6"/>
</g>
<g opacity="0.2">
<path d="M60.7549 83.1898L60.8755 84.9897L75.1385 84.0344L75.018 82.2345L60.7549 83.1898Z" fill="#E9580C"/>
</g>
<g opacity="0.2">
<path d="M78.9244 81.9723L79.0449 83.7722L84.5286 83.4049L84.4081 81.605L78.9244 81.9723Z" fill="#E400AE"/>
</g>
<g opacity="0.2">
<path d="M92.3624 99.1893L92.4829 100.989L97.5545 100.65L97.434 98.8496L92.3624 99.1893Z" fill="#E400AE"/>
</g>
<g opacity="0.2">
<path d="M55.6675 97.0008L55.7881 98.8008L61.2718 98.4335L61.1512 96.6335L55.6675 97.0008Z" fill="#E400AE"/>
</g>
<g opacity="0.2">
<path d="M65.6207 96.3336L65.7412 98.1335L69.0877 97.9094L68.9672 96.1094L65.6207 96.3336Z" fill="#0082B6"/>
</g>
<g opacity="0.2">
<path d="M91.8323 139.078C92.0866 139.061 92.3116 139.245 92.3283 139.507C92.3462 139.771 92.149 139.992 91.8947 140.008C91.6366 140.026 91.4155 139.833 91.3976 139.57C91.3797 139.307 91.5739 139.094 91.8323 139.078ZM91.9252 141.306C91.6964 141.322 91.5171 141.165 91.5015 140.928C91.4858 140.691 91.6628 140.488 91.9079 140.472C92.1753 140.454 92.4002 140.642 92.4237 140.991C92.4638 141.586 92.0589 141.947 91.652 142.013L91.6307 141.698C91.818 141.651 92.0368 141.485 92.0436 141.268C92.0235 141.292 91.9728 141.303 91.9252 141.306Z" fill="white"/>
</g>
<g opacity="0.2">
<path d="M55.8789 92.9565L55.1891 93.0024L56.4543 89.8475L57.1531 89.8006L55.8799 92.9563L55.8789 92.9565Z" fill="white"/>
<path d="M57.3311 92.8586L56.6413 92.9045L57.9065 89.7496L58.6053 89.7027L57.332 92.8584L57.3311 92.8586Z" fill="white"/>
</g>
<g opacity="0.2">
<path d="M67.3809 112.091L67.5015 113.891L71.275 113.638L71.1545 111.838L67.3809 112.091Z" fill="white"/>
</g>
<g opacity="0.2">
<path d="M61.8731 112.459L61.9937 114.259L65.7672 114.006L65.6466 112.206L61.8731 112.459Z" fill="white"/>
</g>
<g opacity="0.2">
<path d="M72.2745 111.761L72.395 113.561L84.5398 112.748L84.4192 110.948L72.2745 111.761Z" fill="white"/>
</g>
<g opacity="0.2">
<path d="M91.5884 110.467L91.709 112.267L96.9273 111.918L96.8067 110.118L91.5884 110.467Z" fill="white"/>
</g>
<g opacity="0.2">
<path d="M85.2911 110.889L85.4116 112.689L87.5798 112.544L87.4592 110.744L85.2911 110.889Z" fill="white"/>
</g>
<g opacity="0.2">
<path d="M88.4976 110.674L88.6182 112.474L90.7863 112.329L90.6657 110.529L88.4976 110.674Z" fill="white"/>
</g>
<g opacity="0.2">
<path d="M58.0957 115.031L57.4059 115.077L58.6711 111.922L59.3699 111.875L58.0967 115.031L58.0957 115.031Z" fill="white"/>
<path d="M59.5483 114.934L58.8585 114.98L60.1238 111.825L60.8226 111.778L59.5493 114.934L59.5483 114.934Z" fill="white"/>
</g>
<g opacity="0.2">
<path d="M62.3605 97.2704L62.3204 96.6759L64.4544 96.533L64.4944 97.1275L62.3605 97.2704ZM62.424 98.2142L62.3838 97.6106L64.5177 97.4677L64.558 98.0713L62.424 98.2142Z" fill="white"/>
</g>
<g opacity="0.2">
<path d="M55.9781 101.633L56.0986 103.433L61.5823 103.066L61.4618 101.266L55.9781 101.633Z" fill="#E400AE"/>
</g>
<g opacity="0.2">
<path d="M65.9312 100.966L66.0518 102.766L72.0513 102.364L71.9308 100.564L65.9312 100.966Z" fill="#E400AE"/>
</g>
<g opacity="0.2">
<path d="M78.3428 100.133L78.4634 101.933L89.4218 101.199L89.3013 99.3992L78.3428 100.133Z" fill="#E9580C"/>
</g>
<g opacity="0.2">
<path d="M62.671 101.902L62.631 101.307L64.7649 101.164L64.805 101.759L62.671 101.902ZM62.7346 102.846L62.6943 102.242L64.8283 102.099L64.8685 102.703L62.7346 102.846Z" fill="white"/>
</g>
<g opacity="0.2">
<path d="M54.5093 134.733L54.6299 136.533L60.1136 136.166L59.993 134.366L54.5093 134.733Z" fill="#E400AE"/>
</g>
<g opacity="0.2">
<path d="M61.6408 134.969L61.6007 134.375L63.7347 134.232L63.7747 134.826L61.6408 134.969ZM61.7043 135.913L61.6641 135.309L63.798 135.166L63.8382 135.77L61.7043 135.913Z" fill="white"/>
</g>
<g opacity="0.2">
<path d="M73.7547 101.717L73.7089 101.031L75.0407 100.942L75.0865 101.628L73.7547 101.717Z" fill="white"/>
<path d="M76.7818 101.137L75.5256 100.671L75.4798 99.9815L77.4329 100.76L77.4765 101.415L75.6449 102.443L75.5992 101.766L76.7827 101.137L76.7818 101.137Z" fill="white"/>
</g>
<g opacity="0.2">
<path d="M81.5711 93.7954L82.0385 94.1754C81.5918 94.6818 81.337 95.2658 81.3897 96.0641C81.4432 96.857 81.7738 97.4063 82.2843 97.8489L81.8716 98.2882C81.2955 97.8379 80.805 97.1692 80.7336 96.1089C80.6622 95.0486 81.06 94.3205 81.5704 93.7966L81.5711 93.7954Z" fill="white"/>
<path d="M83.8036 98.1576L83.3362 97.7776C83.7829 97.2713 84.0377 96.6831 83.985 95.889C83.9315 95.0919 83.6009 94.5468 83.0904 94.1041L83.503 93.6648C84.0792 94.1151 84.5697 94.7839 84.6411 95.8442C84.7124 96.9045 84.3147 97.6325 83.8043 98.1564L83.8036 98.1576Z" fill="white"/>
<path d="M85.803 94.9615C86.0573 94.9448 86.2823 95.1287 86.299 95.3912C86.3169 95.6545 86.1197 95.8755 85.8654 95.8923C85.6073 95.91 85.3862 95.7169 85.3683 95.4536C85.3504 95.1903 85.5446 94.9782 85.803 94.9615ZM85.8959 97.19C85.6671 97.2057 85.4878 97.0487 85.4722 96.8117C85.4565 96.5746 85.6335 96.3719 85.8786 96.3553C86.146 96.3375 86.3709 96.5255 86.3944 96.8749C86.4345 97.4693 86.0296 97.8306 85.6227 97.8969L85.6015 97.582C85.7885 97.5343 86.0075 97.3687 86.0143 97.1519C85.9942 97.1753 85.9435 97.1866 85.8959 97.19Z" fill="white"/>
</g>
<g opacity="0.2">
<path d="M91.3846 97.7891L91.852 98.1691C91.4053 98.6754 91.1504 99.2595 91.2032 100.058C91.2566 100.851 91.5873 101.4 92.0977 101.843L91.6851 102.282C91.109 101.832 90.6185 101.163 90.5471 100.103C90.4757 99.0422 90.8735 98.3142 91.3838 97.7903L91.3846 97.7891Z" fill="white"/>
<path d="M98.5301 101.822L98.0627 101.442C98.5094 100.936 98.7643 100.348 98.7115 99.5535C98.6581 98.7565 98.3274 98.2113 97.817 97.7687L98.2296 97.3294C98.8057 97.7796 99.2963 98.4484 99.3676 99.5087C99.439 100.569 99.0412 101.297 98.5309 101.821L98.5301 101.822Z" fill="white"/>
<path d="M100.71 98.6141C100.964 98.5974 101.189 98.7813 101.206 99.0438C101.224 99.307 101.026 99.5281 100.772 99.5448C100.514 99.5625 100.293 99.3694 100.275 99.1062C100.257 98.8429 100.451 98.6308 100.71 98.6141ZM100.803 100.843C100.574 100.858 100.395 100.701 100.379 100.464C100.363 100.227 100.54 100.024 100.785 100.008C101.053 99.99 101.278 100.178 101.301 100.527C101.341 101.122 100.936 101.483 100.529 101.55L100.508 101.235C100.695 101.187 100.914 101.021 100.921 100.804C100.901 100.828 100.85 100.839 100.803 100.843Z" fill="white"/>
</g>
<g opacity="0.2">
<path d="M56.3067 106.232L56.4272 108.032L61.911 107.664L61.7904 105.864L56.3067 106.232Z" fill="#E400AE"/>
</g>
<g opacity="0.2">
<path d="M66.2613 105.566L66.3818 107.365L72.3814 106.964L72.2608 105.164L66.2613 105.566Z" fill="#E400AE"/>
</g>
<g opacity="0.2">
<path d="M78.6719 104.732L78.7925 106.532L84.9637 106.118L84.8431 104.318L78.6719 104.732Z" fill="#E9580C"/>
</g>
<g opacity="0.2">
<path d="M63.0016 106.5L62.9616 105.906L65.0955 105.763L65.1355 106.357L63.0016 106.5ZM63.0651 107.444L63.0249 106.841L65.1588 106.698L65.1991 107.301L63.0651 107.444Z" fill="white"/>
</g>
<g opacity="0.2">
<path d="M74.0843 106.315L74.0385 105.63L75.3703 105.54L75.4161 106.226L74.0843 106.315Z" fill="white"/>
<path d="M77.1113 105.736L75.8552 105.27L75.8094 104.581L77.7625 105.359L77.8061 106.014L75.9744 107.042L75.9288 106.365L77.1123 105.736L77.1113 105.736Z" fill="white"/>
</g>
<g opacity="0.2">
<path d="M87.1927 102.922L87.6601 103.302C87.2134 103.808 86.9586 104.393 87.0113 105.191C87.0648 105.984 87.3954 106.533 87.9058 106.976L87.4932 107.415C86.9171 106.965 86.4266 106.296 86.3552 105.236C86.2838 104.175 86.6816 103.447 87.192 102.923L87.1927 102.922Z" fill="white"/>
<path d="M89.4252 107.284L88.9577 106.904C89.4045 106.398 89.6593 105.81 89.6066 105.016C89.5531 104.219 89.2225 103.673 88.712 103.231L89.1246 102.792C89.7008 103.242 90.1913 103.911 90.2626 104.971C90.334 106.031 89.9363 106.759 89.4259 107.283L89.4252 107.284Z" fill="white"/>
<path d="M91.3348 104.095C91.5891 104.078 91.8141 104.262 91.8308 104.524C91.8487 104.788 91.6515 105.009 91.3972 105.026C91.139 105.043 90.9179 104.85 90.9 104.587C90.8821 104.324 91.0764 104.112 91.3348 104.095ZM91.4277 106.323C91.1989 106.339 91.0196 106.182 91.0039 105.945C90.9883 105.708 91.1653 105.505 91.4103 105.489C91.6777 105.471 91.9027 105.659 91.9262 106.008C91.9662 106.603 91.5613 106.964 91.1545 107.03L91.1332 106.715C91.3205 106.669 91.5392 106.502 91.546 106.285C91.526 106.309 91.4752 106.32 91.4277 106.323Z" fill="white"/>
</g>
<g opacity="0.2">
<path d="M50.337 72.5162L50.4575 74.3162L54.1652 74.0678L54.0447 72.2679L50.337 72.5162Z" fill="#0082B6"/>
</g>
<g opacity="0.2">
<path d="M55.2359 72.1876L55.3564 73.9875L65.0926 73.3354L64.9721 71.5355L55.2359 72.1876Z" fill="#E9580C"/>
</g>
<g opacity="0.2">
<path d="M70.0889 96.0345L70.2095 97.8345L79.9457 97.1824L79.8251 95.3824L70.0889 96.0345Z" fill="#E9580C"/>
</g>
<g opacity="0.2">
<path d="M54.7574 138.424L54.8779 140.224L60.3616 139.857L60.2411 138.057L54.7574 138.424Z" fill="#E400AE"/>
</g>
<g opacity="0.2">
<path d="M63.2286 141.563L63.3491 143.363L90.2329 141.563L90.1123 139.763L63.2286 141.563Z" fill="#E400AE"/>
</g>
<g opacity="0.2">
<path d="M65.3448 137.715L65.4653 139.515L68.8118 139.291L68.6913 137.491L65.3448 137.715Z" fill="#0082B6"/>
</g>
<g opacity="0.2">
<path d="M61.8927 138.66L61.8527 138.065L63.9866 137.922L64.0267 138.517L61.8927 138.66ZM61.9563 139.603L61.916 139L64.05 138.857L64.0902 139.46L61.9563 139.603Z" fill="white"/>
</g>
<g opacity="0.2">
<path d="M81.2962 135.172L81.7636 135.552C81.3169 136.058 81.0621 136.642 81.1158 137.44C81.1692 138.233 81.4999 138.782 82.0103 139.225L81.5977 139.664C81.0216 139.214 80.5311 138.545 80.4597 137.485C80.3883 136.425 80.7861 135.697 81.2964 135.173L81.2962 135.172Z" fill="white"/>
<path d="M83.5277 139.534L83.0603 139.154C83.507 138.648 83.7618 138.06 83.7091 137.265C83.6556 136.468 83.325 135.923 82.8145 135.481L83.2272 135.041C83.8033 135.492 84.2938 136.16 84.3652 137.221C84.4366 138.281 84.0388 139.009 83.5284 139.533L83.5277 139.534Z" fill="white"/>
<path d="M85.4383 136.345C85.6926 136.328 85.9176 136.512 85.9353 136.774C85.9532 137.037 85.7559 137.258 85.5007 137.275C85.2425 137.293 85.0215 137.1 85.0036 136.837C84.9856 136.573 85.1799 136.361 85.4383 136.345ZM85.5312 138.573C85.3024 138.589 85.1231 138.432 85.1074 138.195C85.0918 137.958 85.2688 137.755 85.5138 137.738C85.7812 137.721 86.0062 137.909 86.0297 138.258C86.0697 138.852 85.6648 139.214 85.258 139.28L85.2367 138.965C85.4237 138.917 85.6427 138.752 85.6495 138.535C85.6295 138.558 85.5778 138.57 85.5312 138.573Z" fill="white"/>
</g>
<g opacity="0.2">
<path d="M69.813 137.415L69.9336 139.215L79.6698 138.563L79.5492 136.763L69.813 137.415Z" fill="#E9580C"/>
</g>
<g opacity="0.2">
<path d="M57.17 119.404L57.2905 121.204L70.5448 120.316L70.4243 118.516L57.17 119.404Z" fill="#E400AE"/>
</g>
<g opacity="0.2">
<path d="M75.7457 118.159L75.8662 119.959L79.2127 119.735L79.0922 117.935L75.7457 118.159Z" fill="#0082B6"/>
</g>
<g opacity="0.2">
<path d="M92.9595 117.004L93.0801 118.803L96.4266 118.579L96.306 116.779L92.9595 117.004Z" fill="#0082B6"/>
</g>
<g opacity="0.2">
<path d="M72.1183 119.122L72.0783 118.528L74.2122 118.385L74.2522 118.979L72.1183 119.122ZM72.1818 120.066L72.1416 119.462L74.2755 119.319L74.3158 119.923L72.1818 120.066Z" fill="white"/>
</g>
<g opacity="0.2">
<path d="M91.5413 115.627L92.0087 116.007C91.562 116.514 91.3072 117.098 91.3599 117.896C91.4134 118.689 91.744 119.238 92.2545 119.681L91.8419 120.12C91.2657 119.67 90.7752 119.001 90.7038 117.941C90.6325 116.881 91.0302 116.153 91.5406 115.629L91.5413 115.627Z" fill="white"/>
</g>
<g opacity="0.2">
<path d="M80.2129 117.859L80.3335 119.659L90.0697 119.007L89.9491 117.207L80.2129 117.859Z" fill="#E9580C"/>
</g>
<g opacity="0.2">
<path d="M97.7207 116.684L97.8413 118.484L114.887 117.342L114.767 115.542L97.7207 116.684Z" fill="#E9580C"/>
</g>
<g opacity="0.2">
<path d="M69.9629 71.2005L70.0835 73.0005L84.3096 72.0476L84.1891 70.2477L69.9629 71.2005Z" fill="#E9580C"/>
</g>
<g opacity="0.2">
<path d="M85.7279 69.7376C85.9821 69.7209 86.2071 69.9048 86.2238 70.1673C86.2417 70.4306 86.0445 70.6516 85.7902 70.6684C85.5321 70.6861 85.311 70.493 85.2931 70.2297C85.2752 69.9665 85.4695 69.7544 85.7279 69.7376ZM85.8207 71.9661C85.5919 71.9818 85.4126 71.8249 85.397 71.5878C85.3813 71.3508 85.5583 71.148 85.8034 71.1315C86.0708 71.1136 86.2958 71.3016 86.3192 71.651C86.3593 72.2454 85.9544 72.6067 85.5475 72.6731L85.5263 72.3581C85.7135 72.3114 85.9323 72.1448 85.9391 71.928C85.9191 71.9514 85.8683 71.9628 85.8207 71.9661Z" fill="white"/>
</g>
<g opacity="0.2">
<path d="M66.4727 70.5366L67.1714 70.4896L68.8464 73.4479L68.1566 73.4937L66.4727 70.5366Z" fill="white"/>
</g>
<g opacity="0.2">
<path d="M50.6509 77.1803L50.7715 78.9802L54.4792 78.7319L54.3586 76.9319L50.6509 77.1803Z" fill="#0082B6"/>
</g>
<g opacity="0.2">
<path d="M55.5479 76.8521L55.6685 78.6521L60.9746 78.2967L60.854 76.4967L55.5479 76.8521Z" fill="#E9580C"/>
</g>
<g opacity="0.2">
<path d="M64.6436 76.2423L64.7642 78.0422L70.3945 77.6651L70.274 75.8652L64.6436 76.2423Z" fill="#E9580C"/>
</g>
<g opacity="0.2">
<path d="M74.5733 75.5753L74.6938 77.3752L94.9914 76.0157L94.8708 74.2158L74.5733 75.5753Z" fill="#E9580C"/>
</g>
<g opacity="0.2">
<path d="M96.2947 73.7142C96.549 73.6975 96.774 73.8814 96.7907 74.1439C96.8086 74.4071 96.6114 74.6282 96.3571 74.6449C96.099 74.6626 95.8779 74.4695 95.86 74.2063C95.8421 73.943 96.0363 73.7309 96.2947 73.7142ZM96.3876 75.9427C96.1588 75.9584 95.9795 75.8014 95.9639 75.5644C95.9482 75.3273 96.1252 75.1246 96.3703 75.108C96.6377 75.0901 96.8626 75.2782 96.8861 75.6276C96.9262 76.222 96.5213 76.5833 96.1144 76.6496L96.0931 76.3347C96.2804 76.288 96.4992 76.1214 96.506 75.9046C96.4859 75.928 96.4352 75.9393 96.3876 75.9427Z" fill="white"/>
</g>
<g opacity="0.2">
<path d="M61.397 75.562L62.0958 75.515L63.7707 78.4733L63.0809 78.5191L61.397 75.562Z" fill="white"/>
</g>
<g opacity="0.2">
<path d="M71.375 74.8928L72.0738 74.8458L73.7488 77.8041L73.0589 77.8499L71.375 74.8928Z" fill="white"/>
</g>
<g opacity="0.2">
<path d="M77.5164 80.823L77.9838 81.203C77.5371 81.7094 77.2823 82.2934 77.335 83.0917C77.3885 83.8846 77.7191 84.4339 78.2296 84.8765L77.817 85.3158C77.2408 84.8655 76.7503 84.1968 76.6789 83.1365C76.6076 82.0762 77.0053 81.3481 77.5157 80.8242L77.5164 80.823Z" fill="white"/>
</g>
<g opacity="0.2">
<path d="M85.8124 84.7782L85.345 84.3982C85.7917 83.8919 86.0465 83.3037 85.9938 82.5096C85.9403 81.7125 85.6097 81.1674 85.0992 80.7247L85.5118 80.2854C86.088 80.7357 86.5785 81.4045 86.6499 82.4648C86.7212 83.5251 86.3235 84.2531 85.8131 84.777L85.8124 84.7782Z" fill="white"/>
<path d="M89.0138 83.5762C89.0317 83.8436 89.188 83.9104 89.3472 83.9004L89.4716 83.8917L89.5106 84.4689L89.3335 84.4812C88.821 84.5157 88.4154 84.2832 88.374 83.6664L88.3303 83.0193C88.3115 82.7439 88.1365 82.6467 87.8955 82.6633L87.8542 82.0424C88.0951 82.0258 88.2566 81.9112 88.2387 81.6356L88.1953 80.9936C88.1539 80.3768 88.5242 80.093 89.0376 80.0583L89.2147 80.046L89.2537 80.6232L89.1292 80.6319C88.9693 80.6432 88.8238 80.726 88.8417 80.9934L88.8918 81.7346C88.9097 81.9979 88.7853 82.2094 88.5143 82.3095C88.7914 82.3736 88.9475 82.5661 88.9654 82.8335L89.0155 83.5748L89.0138 83.5762Z" fill="white"/>
</g>
<g opacity="0.2">
<path d="M52.8898 128.499C52.8719 128.232 53.0002 128.019 53.2661 127.919C52.9851 127.856 52.833 127.663 52.815 127.4L52.7649 126.658C52.747 126.391 52.5917 126.328 52.4315 126.338L52.3071 126.347L52.2681 125.77L52.4443 125.758C52.9577 125.723 53.3624 125.956 53.4038 126.572L53.4472 127.214C53.466 127.49 53.6408 127.582 53.882 127.566L53.9234 128.187C53.6824 128.204 53.5209 128.323 53.5398 128.598L53.5832 129.244C53.6245 129.861 53.2533 130.145 52.7409 130.179L52.5647 130.192L52.5258 129.614L52.6502 129.606C52.8101 129.594 52.9557 129.507 52.9378 129.24L52.8876 128.499L52.8898 128.499Z" fill="white"/>
</g>
<g opacity="0.2">
<path d="M65.9405 133.734L66.061 135.534L106.841 132.803L106.72 131.003L65.9405 133.734Z" fill="#1BB400"/>
</g>
<g opacity="0.2">
<path d="M108.114 130.685C108.334 130.671 108.499 130.811 108.514 131.03C108.528 131.237 108.368 131.425 108.131 131.441C107.876 131.457 107.67 131.281 107.649 130.975C107.611 130.405 108.002 130.094 108.379 130.038L108.4 130.353C108.225 130.386 108.022 130.529 108.004 130.717C108.021 130.703 108.072 130.686 108.115 130.684L108.114 130.685Z" fill="#1BB400"/>
</g>
<g opacity="0.2">
<path d="M65.0246 133.574C65.2445 133.56 65.4093 133.7 65.4248 133.919C65.4382 134.126 65.2783 134.314 65.0412 134.33C64.7869 134.347 64.5803 134.171 64.56 133.864C64.522 133.294 64.9123 132.983 65.2898 132.927L65.311 133.242C65.136 133.275 64.9331 133.419 64.9151 133.606C64.9312 133.592 64.9827 133.575 65.0254 133.573L65.0246 133.574Z" fill="#1BB400"/>
</g>
<g opacity="0.2">
<path d="M116.814 113.933L117.281 114.313C116.834 114.819 116.58 115.403 116.632 116.201C116.686 116.994 117.016 117.543 117.527 117.986L117.114 118.425C116.538 117.975 116.048 117.306 115.976 116.246C115.905 115.186 116.303 114.458 116.813 113.934L116.814 113.933Z" fill="white"/>
<path d="M119.045 118.295L118.578 117.915C119.025 117.409 119.279 116.821 119.227 116.026C119.173 115.229 118.843 114.684 118.332 114.242L118.745 113.802C119.321 114.253 119.811 114.921 119.883 115.982C119.954 117.042 119.556 117.77 119.046 118.294L119.045 118.295Z" fill="white"/>
<path d="M120.567 118.194L120.099 117.813C120.546 117.307 120.801 116.719 120.748 115.925C120.695 115.128 120.364 114.583 119.854 114.14L120.266 113.701C120.842 114.151 121.333 114.82 121.404 115.88C121.476 116.94 121.078 117.668 120.567 118.192L120.567 118.194Z" fill="white"/>
</g>
</g>
<path d="M54.09 69.7649L51.66 60.6249C47.54 45.1349 56.18 28.8049 71.54 24.2349C86.1 19.8949 101.25 27.3649 107.03 40.8349C107.92 42.9249 106.8 45.3149 104.61 45.9049C104.3 45.9849 103.98 46.0249 103.67 46.0249C102.21 46.0249 100.86 45.1449 100.26 43.7449C95.91 33.5849 84.44 27.9749 73.47 31.3449C62.04 34.8449 55.69 47.0949 58.76 58.6449L61.71 69.7649" stroke="black" stroke-width="1.5" stroke-miterlimit="10"/>
<path d="M61.71 69.7649H116.58C118.87 69.7649 120.72 71.6149 120.72 73.9049V136.125C120.72 138.405 118.87 140.265 116.58 140.265H47.9C45.61 140.265 43.75 138.405 43.75 136.125V73.9049C43.75 71.6149 45.61 69.7649 47.9 69.7649H61.71Z" stroke="black" stroke-width="1.5" stroke-linecap="round" stroke-linejoin="round"/>
</svg>
