<svg viewBox="0 0 303 314" fill="none" xmlns="http://www.w3.org/2000/svg">
<path d="M69.8649 186.37C64.0627 187.516 60.2973 193.151 61.4497 198.939C62.5954 204.735 68.2301 208.5 74.0189 207.355C79.8077 206.209 83.5798 200.574 82.4341 194.785C81.2884 188.99 75.6537 185.224 69.8649 186.37ZM66.7628 170.712C72.5583 169.567 76.3237 163.932 75.178 158.143C74.0323 152.348 68.3976 148.582 62.6021 149.728C56.8066 150.874 53.0412 156.508 54.1869 162.297C55.3326 168.093 60.9673 171.858 66.7628 170.712ZM77.1277 223.012C71.3322 224.158 67.5668 229.793 68.7125 235.582C69.8582 241.377 75.4929 245.143 81.2817 243.997C87.0839 242.851 90.8426 237.216 89.6969 231.428C88.5512 225.639 82.9165 221.867 77.1277 223.012ZM116.102 201.753L132.061 282.274L76.6989 293.249L57.6843 297.027C53.0077 297.952 48.4584 294.91 47.5338 290.234L33.2427 218.175L26.5963 219.502C14.9383 221.806 3.22003 214.215 1.12293 202.504C-0.900465 191.161 6.52983 180.226 17.8863 177.975L25.0017 176.568L12.0774 111.397L94.9229 94.9822L107.834 160.153L101.187 161.466C89.5294 163.778 81.5899 175.268 84.1225 186.893C86.5814 198.149 97.623 205.425 108.973 203.174L116.088 201.767L116.102 201.753Z" fill="#F2F3F5"/>
<path d="M93.2548 86.4934L94.9365 94.9689L12.091 111.384C11.9972 110.928 11.9436 110.479 11.9302 110.03C11.7694 105.863 14.6571 102.064 18.8848 101.233L30.8912 98.8549L29.578 92.2085C27.4608 81.5488 33.6315 70.8355 43.648 67.4788C43.6815 67.4587 43.715 67.4453 43.7485 67.4386C44.0299 67.3448 44.3314 67.2577 44.6262 67.1773C44.8942 67.0969 45.1689 67.0299 45.4436 66.9696C45.5709 66.9294 45.7049 66.9026 45.8389 66.8758C46.0466 66.8222 46.2677 66.782 46.4821 66.7485C46.529 66.7284 46.5826 66.7284 46.6362 66.715C46.864 66.6748 47.0784 66.6413 47.3062 66.6145C47.6412 66.5609 47.9762 66.5207 48.3179 66.4939C48.472 66.4805 48.6194 66.4671 48.7735 66.4604C54.7968 66.0115 60.5588 68.1822 64.7664 72.1017C65.4431 72.7315 66.0729 73.4016 66.6692 74.1252C67.0578 74.6009 67.433 75.09 67.7814 75.5992C69.3693 77.9107 70.5217 80.5706 71.0979 83.4851L72.5183 90.6005L93.2682 86.4867L93.2548 86.4934Z" fill="#E9580C"/>
<path d="M89.6965 231.421C90.8422 237.217 87.0835 242.845 81.2813 243.99C75.4858 245.136 69.8578 241.371 68.7121 235.575C67.5664 229.78 71.3318 224.152 77.1273 223.006C82.9228 221.86 88.5508 225.626 89.6965 231.421Z" fill="black"/>
<path d="M82.434 194.779C83.5797 200.574 79.8143 206.202 74.0188 207.348C68.2233 208.494 62.5953 204.728 61.4496 198.933C60.2972 193.137 64.0626 187.509 69.8648 186.364C75.6603 185.218 81.2883 188.983 82.434 194.779Z" fill="black"/>
<path d="M75.171 158.137C76.3167 163.932 72.5513 169.56 66.7558 170.706C60.9536 171.851 55.3256 168.086 54.1799 162.291C53.0342 156.495 56.7996 150.867 62.5951 149.721C68.3973 148.576 74.0253 152.341 75.171 158.137Z" fill="#E9580C"/>
<path d="M66.7627 170.705L69.8648 186.37" stroke="black" stroke-width="1.5" stroke-miterlimit="10" stroke-linecap="round" stroke-linejoin="round"/>
<path d="M74.0186 207.348L77.1274 223.012" stroke="black" stroke-width="1.5" stroke-miterlimit="10" stroke-linecap="round" stroke-linejoin="round"/>
<path d="M94.9363 94.9685L107.847 160.139L101.201 161.453C89.5428 163.764 81.6033 175.255 84.1359 186.879C86.5948 198.135 97.6364 205.411 108.986 203.16L116.102 201.753L132.061 282.274L76.6989 293.248L57.6843 297.027C53.0077 297.952 48.4584 294.91 47.5338 290.233L33.2427 218.175L26.5963 219.501C14.9383 221.806 3.22003 214.215 1.12293 202.504C-0.900465 191.16 6.52983 180.226 17.8863 177.975L25.0017 176.568L12.0774 111.397" stroke="black" stroke-width="1.5" stroke-miterlimit="10" stroke-linecap="round" stroke-linejoin="round"/>
<path d="M12.091 111.39C11.9972 110.935 11.9436 110.486 11.9302 110.037C11.7694 105.87 14.6571 102.071 18.8848 101.24L30.8912 98.8613" stroke="black" stroke-width="1.5" stroke-miterlimit="10" stroke-linecap="round" stroke-linejoin="round"/>
<path d="M72.5049 90.607L93.2548 86.4932L94.9365 94.9687" stroke="black" stroke-width="1.5" stroke-miterlimit="10" stroke-linecap="round" stroke-linejoin="round"/>
<path d="M64.7529 72.1082C65.4296 72.7313 66.0594 73.4079 66.6557 74.1315C67.0443 74.6072 67.4195 75.0964 67.7679 75.6056" stroke="black" stroke-width="1.5" stroke-miterlimit="10" stroke-linecap="round" stroke-linejoin="round"/>
<path d="M48.3105 66.5003C48.4646 66.4869 48.612 66.4735 48.7661 66.4668" stroke="black" stroke-width="1.5" stroke-miterlimit="10" stroke-linecap="round" stroke-linejoin="round"/>
<path d="M46.6289 66.7282C46.8567 66.688 47.0711 66.6545 47.2989 66.6277" stroke="black" stroke-width="1.5" stroke-miterlimit="10" stroke-linecap="round" stroke-linejoin="round"/>
<path d="M43.7412 67.445C44.0226 67.3512 44.3241 67.2641 44.6189 67.1837C44.8869 67.1033 45.1616 67.0363 45.4363 66.976C45.5636 66.9358 45.6976 66.909 45.8316 66.8822C46.0393 66.8286 46.2604 66.7884 46.4748 66.7549" stroke="black" stroke-width="1.5" stroke-miterlimit="10" stroke-linecap="round" stroke-linejoin="round"/>
<path d="M29.5707 92.2148C27.4535 81.5551 33.6242 70.8418 43.6407 67.4851" stroke="black" stroke-width="1.5" stroke-miterlimit="10" stroke-linecap="round" stroke-linejoin="round"/>
<path d="M30.8839 98.8612L29.5707 92.2148L29.4769 91.7458C27.3731 81.1129 33.6108 70.7748 43.6407 67.4851C43.6742 67.465 43.7077 67.4516 43.7412 67.4449C44.0226 67.3377 44.3174 67.2506 44.6189 67.1836C44.8869 67.1032 45.1616 67.0362 45.4363 66.9759C45.5636 66.9357 45.6976 66.9089 45.8316 66.8821C45.9388 66.8553 46.046 66.8285 46.1599 66.8084C46.2738 66.7883 46.381 66.7682 46.4815 66.7548C46.5284 66.7347 46.582 66.7347 46.6356 66.7213C46.8634 66.6811 47.0912 66.6476 47.3056 66.6208C47.6406 66.5672 47.9756 66.527 48.3173 66.5002C48.4714 66.4868 48.6188 66.4734 48.7729 66.4667C54.7962 66.0178 60.5582 68.1886 64.7658 72.1081C65.4425 72.7379 66.0723 73.4079 66.6686 74.1315C67.0572 74.6072 67.4324 75.0963 67.7808 75.6055C69.3687 77.917 70.5211 80.5769 71.0973 83.4914L72.5177 90.6068" stroke="black" stroke-width="1.5" stroke-miterlimit="10" stroke-linecap="round" stroke-linejoin="round"/>
<path d="M293.759 38.555C298.496 39.1379 301.852 43.4594 301.27 48.1896L132.423 27.2588L133.488 18.6962L199.476 26.8769L200.314 20.1501C201.775 8.3447 212.669 -0.3988 224.434 1.2896C235.844 2.9244 243.897 13.4032 242.47 24.8937L241.579 32.0962L293.759 38.5617V38.555Z" fill="#E9580C"/>
<path d="M301.27 48.1895L278.845 229.123C278.255 233.853 273.947 237.217 269.21 236.634L164.952 223.703L108.94 216.761L119.037 135.289L112.31 134.452C100.504 132.991 91.7609 122.097 93.4493 110.332C95.0841 98.9219 105.563 90.8685 117.053 92.2955L124.256 93.1867L132.43 27.252L301.277 48.1828L301.27 48.1895ZM262.772 121.923L264.701 106.386L203.229 98.7745L201.299 114.305L262.772 121.93V121.923ZM259.649 147.122L261.579 131.584L200.107 123.973L198.177 139.51L259.649 147.122ZM256.527 172.32L258.457 156.783L152.664 143.671L150.734 159.208L256.527 172.32ZM252.802 207.469C253.338 203.181 250.29 199.268 246.002 198.732L198.813 192.889C198.432 192.849 198.063 192.822 197.688 192.829C193.862 192.903 190.572 195.784 190.083 199.69C189.554 203.978 192.603 207.891 196.891 208.42L244.072 214.269C244.454 214.309 244.822 214.336 245.198 214.329C249.03 214.256 252.32 211.375 252.802 207.469ZM225.017 73.7433L226.947 58.206L164.228 50.4273L162.298 65.9646L225.017 73.7433ZM190.988 113.019L192.917 97.4814L158.922 93.2671L156.992 108.804L190.988 113.019ZM187.866 138.217L189.795 122.68L155.793 118.466L153.877 134.003L187.872 138.217H187.866Z" fill="black"/>
<path d="M264.701 106.379L262.771 121.916L201.299 114.298L203.228 98.7676L264.701 106.379Z" fill="white"/>
<path d="M200.089 123.953L198.162 139.492L259.633 147.116L261.56 131.577L200.089 123.953Z" fill="white"/>
<path d="M258.457 156.783L256.527 172.32L150.734 159.208L152.664 143.671L258.457 156.783ZM251.194 164.334L253.68 161.044L249.593 160.542L245.499 160.039L247.107 163.831L248.715 167.624L251.194 164.334Z" fill="white"/>
<path d="M253.68 161.044L251.194 164.334L248.715 167.624L247.107 163.832L245.499 160.033L249.593 160.542L253.68 161.044Z" fill="black"/>
<path d="M246.001 198.732C250.289 199.268 253.338 203.181 252.802 207.469C252.319 211.381 249.03 214.262 245.197 214.329C244.829 214.336 244.454 214.309 244.072 214.269L196.89 208.42C192.602 207.891 189.554 203.985 190.083 199.69C190.572 195.777 193.862 192.896 197.688 192.829C198.056 192.822 198.431 192.849 198.813 192.889L246.001 198.732Z" fill="#E9580C"/>
<path d="M164.213 50.4277L162.286 65.9666L225 73.7446L226.927 58.2058L164.213 50.4277Z" fill="white"/>
<path d="M158.912 93.2595L156.984 108.798L190.981 113.015L192.908 97.4759L158.912 93.2595Z" fill="white"/>
<path d="M189.789 122.687L187.866 138.224L153.87 134.01L155.786 118.472L189.789 122.687Z" fill="white"/>
<path d="M148.737 172.823L255.147 186.015" stroke="#E9580C" stroke-width="1.5" stroke-miterlimit="10" stroke-linecap="round" stroke-linejoin="round"/>
<path d="M160.295 79.5789L266.704 92.7779" stroke="#E9580C" stroke-width="1.5" stroke-miterlimit="10" stroke-linecap="round" stroke-linejoin="round"/>
<path d="M249.593 160.542L253.68 161.044L251.194 164.334L248.715 167.624L247.107 163.831L245.499 160.032L249.593 160.542Z" stroke="black" stroke-width="1.5" stroke-miterlimit="10" stroke-linecap="round" stroke-linejoin="round"/>
<path d="M301.27 48.1895C301.859 43.4593 298.496 39.1378 293.759 38.5549L241.579 32.0894L242.471 24.8869C243.891 13.3964 235.844 2.91756 224.434 1.28276C212.669 -0.405636 201.768 8.33786 200.314 20.1433L199.477 26.8701L133.488 18.6894L132.423 27.252L124.249 93.1867L117.047 92.2956C105.556 90.8752 95.0772 98.9219 93.4424 110.332C91.754 122.097 100.498 132.998 112.303 134.452L119.03 135.289L108.933 216.761L164.945 223.703L269.204 236.634C273.94 237.217 278.255 233.853 278.838 229.123L301.263 48.1895" stroke="black" stroke-width="1.5" stroke-miterlimit="10" stroke-linecap="round" stroke-linejoin="round"/>
<path d="M251.924 238.731L248.655 238.155C246.631 237.8 245.285 235.87 245.64 233.84C245.995 231.81 247.924 230.463 249.941 230.818L253.211 231.394C255.234 231.75 256.581 233.686 256.226 235.709C256.045 236.728 255.475 237.572 254.698 238.115C253.921 238.657 252.936 238.912 251.924 238.731Z" fill="#E9580C"/>
<path d="M245.64 233.847C245.995 231.823 247.924 230.47 249.941 230.825L253.211 231.401C255.234 231.756 256.581 233.693 256.226 235.716C256.045 236.735 255.475 237.579 254.698 238.121C253.921 238.664 252.936 238.919 251.924 238.738L248.655 238.162C246.631 237.807 245.285 235.877 245.64 233.847Z" stroke="black" stroke-width="1.5" stroke-miterlimit="10" stroke-linecap="round" stroke-linejoin="round"/>
<path d="M275.273 311.828L302.482 303.989C294.884 286.636 287.581 259.883 290.831 249.786L272.232 243.796C267.481 258.549 265.893 290.401 275.273 311.828Z" fill="black"/>
<path d="M296.747 233.371L292.204 254.147L269.451 249.176L273.994 228.399C275.367 222.115 281.571 218.128 287.856 219.502C294.141 220.875 298.127 227.086 296.754 233.371H296.747Z" fill="white"/>
<path d="M287.856 219.508C281.571 218.135 275.367 222.121 273.994 228.406L269.451 249.183L292.204 254.154L296.747 233.377C298.12 227.093 294.134 220.882 287.849 219.508H287.856Z" stroke="black" stroke-width="1.5" stroke-miterlimit="10" stroke-linecap="round" stroke-linejoin="round"/>
<path d="M250.001 239.374L252.507 229.887C259.354 231.689 276.111 230.972 283.983 228.547L286.884 237.927C277.216 240.915 258.597 241.645 250.001 239.374Z" fill="white"/>
<path d="M283.977 228.547C276.104 230.979 259.347 231.696 252.5 229.887L249.994 239.374C258.59 241.645 277.21 240.915 286.878 237.927" stroke="black" stroke-width="1.5" stroke-miterlimit="10" stroke-linecap="round" stroke-linejoin="round"/>
<path d="M301.986 238.368C302.315 240.687 300.566 242.784 298.214 242.877L284.379 243.447C281.88 243.547 279.91 241.35 280.292 238.878L283.233 219.97C283.481 220.104 283.762 220.225 284.03 220.332C289.303 222.422 295.273 219.843 297.363 214.577C297.852 213.344 298.087 212.064 298.087 210.811L301.98 238.368H301.986Z" fill="black"/>
<path d="M298.094 210.811C298.094 212.064 297.86 213.344 297.371 214.577C295.28 219.85 289.304 222.429 284.038 220.332C283.77 220.225 283.488 220.104 283.24 219.97L286.242 200.661C287.997 200.379 289.84 200.547 291.609 201.25C295.635 202.852 298.094 206.711 298.094 210.791C298.094 210.791 298.094 210.798 298.094 210.811Z" fill="black"/>
<path d="M286.235 200.668L283.233 219.977C278.51 217.625 276.299 212.004 278.282 207.012C279.669 203.515 282.764 201.204 286.235 200.661V200.668Z" fill="#E9580C"/>
<path d="M298.094 210.812C298.094 212.064 297.86 213.344 297.37 214.577C295.28 219.85 289.304 222.429 284.037 220.332C283.769 220.225 283.488 220.104 283.24 219.97C278.517 217.619 276.306 211.997 278.289 207.006C279.676 203.509 282.771 201.197 286.242 200.654C287.997 200.38 289.84 200.554 291.608 201.251C295.635 202.852 298.094 206.711 298.094 210.791" stroke="black" stroke-width="1.5" stroke-miterlimit="10" stroke-linecap="round" stroke-linejoin="round"/>
<path d="M286.235 200.667L283.233 219.977L280.292 238.884C279.91 241.357 281.88 243.561 284.379 243.454L298.214 242.884C300.566 242.79 302.308 240.693 301.986 238.375L298.094 210.818C298.094 210.818 298.094 210.811 298.094 210.798" stroke="black" stroke-width="1.5" stroke-miterlimit="10" stroke-linecap="round" stroke-linejoin="round"/>
<path d="M288.05 305.342L290.194 313.195L275.313 313.04L269.927 312.987C267.206 312.96 266.228 309.382 268.56 307.975L273.169 305.188L285.906 297.49L288.05 305.342Z" fill="black"/>
</svg>
