<svg width="326" height="240" viewBox="0 0 326 240" fill="none" xmlns="http://www.w3.org/2000/svg">
<path d="M18.2828 31.7261C19.0853 33.271 19.0853 33.7915 18.9447 34.2169C18.5991 34.8327 18.0016 35.2861 17.2987 35.4764C16.3088 35.7898 15.5356 35.4764 15.4653 35.6835C15.395 35.8906 16.01 36.0641 17.9606 37.1892L18.8334 37.5474H18.8451C19.6769 37.9168 20.3622 38.5214 20.825 39.2714L22.3303 41.6559C23.9646 43.7941 26.7001 44.9136 29.4531 44.561L38.8077 43.3687H38.796C39.1708 43.3295 39.4989 43.2064 39.7976 42.9881C42.1641 41.3201 43.3531 38.5102 42.8787 35.7338C42.5799 33.9819 42.0645 32.2579 41.3323 30.629C41.1741 30.2708 40.8578 29.9965 40.4712 29.8734C40.0846 29.7614 39.657 29.8174 39.3114 30.0245C38.2219 30.7801 36.7458 30.7801 35.6446 30.0245L34.7718 29.4647C33.7116 28.7091 32.4229 28.3173 31.105 28.3173C30.0038 28.3173 28.926 28.5244 27.9126 28.905C27.4674 29.0673 26.952 29.0281 26.5537 28.7819C26.1378 28.5244 25.88 28.1102 25.8683 27.6456V24.1416C25.8683 23.6211 25.5813 23.1397 25.1068 22.871C24.6499 22.6135 24.0583 22.5967 23.5897 22.843L19.3371 24.3879C19.0501 24.4719 18.8334 24.7181 18.7807 25.0036C18.7397 25.2891 18.8685 25.5801 19.1263 25.7593C22.7931 27.5113 23.455 28.3453 23.3378 28.8099C23.2207 29.2632 21.317 29.4424 20.989 29.4424C18.3121 29.4424 16.5899 28.071 16.2912 28.4292C16.0042 28.7707 17.2226 29.5767 18.3121 31.7429L18.2828 31.7261Z" fill="#E66F00"/>
<path d="M22.6939 128.153L22.3659 127.274C21.8797 125.88 22.5944 124.346 24.0119 123.77C25.8336 123.059 26.9465 121.29 26.7649 119.432L26.5072 117.075C26.3491 115.626 26.6244 114.17 27.3097 112.872C27.7549 112.077 28.7682 111.747 29.6176 112.133L30.3908 112.491C31.7966 113.051 33.4133 112.463 34.0576 111.148L34.5028 110.163V110.174C35.2057 108.64 36.7931 107.655 38.5269 107.638C39.2591 107.638 39.9035 108.103 40.1143 108.763C40.2842 109.418 40.8758 109.888 41.5729 109.928H42.3051C42.8791 109.939 43.4063 110.174 43.7929 110.582C44.1678 110.98 44.3669 111.512 44.3201 112.06V113.851C44.1912 115.357 43.2306 116.7 41.7837 117.355C41.0691 117.697 40.5654 118.368 40.4658 119.135L39.88 123.764C39.7805 124.845 39.4056 125.875 38.7788 126.776C38.0173 127.968 36.5002 128.5 35.112 128.074C33.6769 127.733 32.1598 127.94 30.9004 128.662C29.2368 129.563 27.3448 130.045 25.4411 130.033C24.1935 130.005 23.104 129.255 22.6881 128.141L22.6939 128.153Z" fill="#E66F00"/>
<path d="M67.58 137.791C67.908 137.545 71.2468 134.64 70.6201 132.177C70.4795 131.589 70.0929 131.052 69.5598 130.711C68.4996 130.313 67.3515 130.19 66.221 130.33H65.934C65.5474 130.369 65.1725 130.235 64.9148 129.961C64.6688 129.686 64.5868 129.317 64.6863 128.959C65.2721 127 65.3483 124.945 64.9031 122.964L64.3583 120.266C64.1885 119.51 63.7433 118.844 63.1107 118.374C62.2086 117.73 61.6638 116.717 61.6346 115.637L61.4471 112.34C61.2597 110.437 60.2287 108.696 58.5945 107.577C57.9326 106.894 57.8623 105.864 58.407 105.097C59.0397 104.045 59.9534 103.77 61.0839 102.673C61.9743 101.794 62.6011 100.731 62.9174 99.5499C63.1634 98.9622 63.1048 98.3017 62.7592 97.7587C62.4312 97.227 61.8396 96.8575 61.1952 96.7848L57.5284 96.2922C56.7259 96.2922 56.2807 96.0851 56.2105 95.7996C56.1402 95.5253 56.6556 94.501 59.8773 92.9673L60.8379 92.5419H60.8262C61.084 91.9822 61.084 91.3497 60.8262 90.7899C60.6271 90.5157 60.3693 90.2862 60.053 90.1183C59.766 89.9839 59.438 89.9 59.11 89.9112H56.3159C55.0682 89.9112 53.8791 90.4317 53.0474 91.3049L52.4148 92.0046L52.4265 92.0158C51.1671 93.3983 50.2767 95.0552 49.8199 96.8463L49.3044 98.8446C49.0467 99.6674 48.6015 100.434 48.0274 101.089C47.1254 102.091 47.1254 103.58 48.0274 104.593L49.2282 105.987C49.7437 106.563 49.9897 107.313 49.8901 108.052C49.773 109.368 49.2165 110.599 48.2735 111.556C47.6291 112.239 47.6291 113.297 48.2735 113.98C48.9061 114.596 49.8609 114.786 50.6926 114.473C53.3285 113.487 54.1427 113.555 54.3595 113.801C54.5762 114.047 53.6976 114.881 53.4398 116.605C53.3695 117.249 53.3695 117.904 53.4398 118.564C53.4398 119.482 53.6976 120.77 53.9553 122.275V122.835C53.6976 124.095 52.4675 124.945 51.1319 124.766C50.1889 124.559 49.2107 124.559 48.2676 124.766C46.9496 125.958 47.8693 126.339 47.7228 128.27C47.6233 129.72 46.7915 131.024 45.4853 131.774L43.277 133.073C42.9606 133.291 42.9606 133.756 43.277 133.991L45.5848 135.384H45.5966C46.9731 136.218 48.5488 136.711 50.183 136.851C51.501 136.851 51.829 137.209 51.8759 137.411C51.9169 137.618 51.2901 138.245 50.7453 138.709L50.3002 138.956H50.2885C50.1186 138.984 49.9429 138.984 49.773 138.956H48.2266H48.2383C46.3756 139.163 44.5715 139.599 42.8494 140.282C40.3833 141.267 37.9349 142.773 38.1516 143.294C38.3683 143.814 39.2528 143.568 41.2327 143.607V143.618C41.6896 143.579 42.164 143.579 42.6209 143.618C43.0778 143.713 43.523 143.865 43.9389 144.072L45.1397 144.592H45.1514C45.4677 144.676 45.8133 144.676 46.1413 144.592C46.9145 144.279 47.0141 143.579 47.6877 143.087H47.676C48.291 142.661 49.0642 142.51 49.8081 142.661L63.1868 143.741V143.753C64.6043 143.887 66.0394 143.629 67.2988 143.014C68.4 142.454 69.39 141.301 69.2494 140.876C69.1088 140.45 65.8403 140.876 65.5826 139.958C65.3248 139.056 66.3148 138.698 67.5624 137.752L67.58 137.791Z" fill="#E66F00"/>
<path d="M235.265 168.975L237.731 169.428V169.439C241.843 170.15 245.668 171.969 248.731 174.695C250.049 175.887 251.783 176.57 253.605 176.609H257.014C259.292 176.705 261.184 178.294 261.571 180.444C261.659 180.964 261.999 181.418 262.491 181.675C262.977 181.921 263.551 181.949 264.066 181.731C266.714 180.567 269.795 180.69 272.349 182.044C273.409 182.593 274.141 183.578 274.341 184.714L274.786 187.384L274.774 187.373C274.815 187.647 274.991 187.866 275.231 187.989C275.489 188.112 275.776 188.123 276.022 188C277.439 187.289 279.132 187.289 280.532 188L291.093 194.023L291.105 194.034C292.177 194.667 293.583 194.348 294.256 193.334L297.296 188.75V188.739C298.058 187.591 299.259 186.769 300.635 186.466C301.063 186.371 301.525 186.478 301.865 186.769C302.193 187.043 302.381 187.44 302.369 187.866V189.439C302.328 190.177 302.627 190.888 303.201 191.381C303.775 191.873 304.53 192.081 305.292 191.969L306.581 191.762V191.75C307.383 191.627 307.939 190.956 307.898 190.177L307.196 182.224C307.008 179.789 305.661 177.583 303.529 176.229L294.988 171.286C293.114 170.122 291.691 168.398 290.947 166.383V166.025C290.285 164.284 288.756 162.985 286.876 162.521C285.47 162.179 284.527 160.903 284.638 159.509L284.896 156.744C285.142 154.13 286.272 151.679 288.117 149.736L288.961 148.857C290.121 147.665 290.121 145.818 288.961 144.615L285.692 141.29C284.79 140.389 283.66 139.717 282.395 139.359L280.673 138.838C277.949 138.032 276.074 135.636 276.045 132.91V127.542C276.045 127.145 276.244 126.776 276.59 126.541C276.935 126.305 277.381 126.255 277.767 126.389L279.489 126.949H279.501C279.788 127.044 280.104 126.988 280.345 126.815C280.591 126.652 280.719 126.361 280.702 126.076C280.303 121.447 282.319 116.947 286.091 114.014C288.34 112.29 291.146 111.372 294.016 111.428L302.31 111.635C304.946 111.702 307.483 110.633 309.199 108.73L310.23 107.605C312.133 105.494 314.916 104.308 317.821 104.308C319.485 104.308 321.06 103.569 322.074 102.309L324.868 98.8054H324.856C325.383 98.1617 325.459 97.2885 325.044 96.5608C324.698 95.9731 324.042 95.5869 323.321 95.5477L313.639 95.1895V95.2007C311.876 95.2119 310.288 94.1763 309.644 92.5979L306.264 82.9983C306.036 82.4498 305.233 82.4498 304.987 82.9983L303.154 85.9426C302.568 86.8605 301.537 87.4371 300.401 87.4762H297.677C297.044 87.5322 296.476 87.1348 296.33 86.5303V86.3232C296.201 85.8194 296.318 85.2821 296.629 84.8735C296.945 84.4481 297.431 84.1738 297.976 84.1178H298.778C300.067 84.0059 301.057 82.9703 301.057 81.7333V79.2425C301.057 78.7219 300.787 78.2293 300.313 77.9551C299.856 77.6696 299.282 77.6416 298.778 77.8711L296.658 78.7891C295.428 79.2705 294.022 79.0745 292.991 78.2965C291.814 77.3226 291.158 75.912 291.158 74.4343V72.0778V72.089C291.158 68.4731 290.156 64.9299 288.264 61.8065L270.885 32.8903H270.873C269.338 30.3827 269.256 27.2929 270.656 24.6901L271.716 22.6639C272.378 21.5836 272.378 20.2402 271.716 19.1599C270.855 17.8725 270.855 16.2325 271.716 14.9563V14.71C272.935 12.846 273.28 10.5903 272.677 8.46886C272.261 7.04712 271.131 5.89405 269.666 5.41827L264.236 3.66629C262.918 3.4312 261.975 2.3509 261.958 1.08028C261.958 0.738843 261.788 0.408596 261.501 0.201492C261.214 -0.0168072 260.839 -0.0727813 260.499 0.0223746L258.853 0.542933L258.841 0.554128C257.195 1.03551 256.018 2.41806 255.831 4.0581C255.731 5.28953 254.741 6.27468 253.452 6.4426L250.442 6.868V6.85681C248.421 7.15907 246.658 8.32333 245.644 10.0193L244.613 11.7713C244.086 12.7005 242.891 13.1147 241.86 12.7173L237.063 10.8981C236.647 10.7358 236.173 10.831 235.874 11.1444C235.558 11.4579 235.499 11.9113 235.704 12.2919L237.725 16.4676C237.865 16.8258 237.795 17.2344 237.508 17.5087C237.239 17.7829 236.823 17.8893 236.436 17.7662C235.704 17.4639 234.872 17.4807 234.128 17.7662C233.396 18.0684 232.81 18.6282 232.512 19.339L230.532 23.9009C230.303 24.4495 229.8 24.8581 229.202 24.998C228.599 25.1491 227.972 25.0092 227.498 24.6286L227.123 24.3823C226.595 23.9009 225.875 23.6826 225.16 23.7946C224.446 23.8897 223.813 24.3151 223.456 24.9196C222.196 26.7948 219.988 27.8751 217.669 27.7967H215.349C214.002 27.7687 212.783 28.5747 212.338 29.795C211.981 30.7521 212.209 31.8324 212.924 32.5881C213.211 32.9015 213.34 33.3158 213.281 33.7132C213.24 34.1218 213.012 34.4912 212.666 34.7375L211.489 35.5043C210.417 36.3104 208.912 36.3104 207.822 35.5043L206.949 34.3793C206.363 33.9706 206.147 33.243 206.404 32.5881C206.75 31.7373 206.334 30.7801 205.444 30.4275C203.751 29.795 201.947 29.4703 200.131 29.4815C197.782 29.4703 195.691 30.8753 194.889 32.9855L193.383 36.8029C192.809 38.1015 193.354 39.596 194.631 40.3069H194.847C195.878 40.8834 196.253 42.1261 195.691 43.1392C195.404 43.6989 194.76 44.018 194.115 43.906L187.11 42.7138C186.682 42.6466 186.249 42.7698 185.95 43.0552C185.634 43.3407 185.475 43.7381 185.534 44.1523C185.692 45.3446 186.594 46.3297 187.813 46.6432L189.792 47.1637C190.894 47.466 191.556 48.5351 191.298 49.5874C191.128 50.2311 190.484 50.6565 189.792 50.5726L185.165 50.1471C183.531 49.968 182.055 49.162 181.065 47.9026C179.817 46.3689 179.073 44.5218 178.933 42.5795C178.815 41.1017 177.673 39.8983 176.15 39.6352H175.406C174.504 39.5121 173.684 39.0755 173.098 38.4038L170.978 36.1312C170.732 35.8962 170.679 35.5435 170.837 35.2413C170.995 34.9558 171.324 34.7879 171.669 34.8326L182.412 36.0641C185.118 36.3775 187.854 35.7618 190.12 34.3121C191.479 33.4501 192.381 32.0675 192.616 30.517C192.961 28.7651 192.428 26.9459 191.181 25.6137C190.179 24.5614 188.92 23.7666 187.514 23.302L182.154 21.4381C177.597 19.8484 172.811 18.9584 167.973 18.8073L161.91 18.6002C161.454 18.589 161.008 18.3651 160.733 17.9956C160.475 17.6262 160.405 17.1616 160.563 16.7362C160.95 15.6112 160.335 14.4077 159.157 14.0103L157.136 13.2714H157.148C155.198 12.6165 153.048 12.7677 151.232 13.6968L135.932 21.7627L135.944 21.7515C131.82 23.9569 128.452 27.2538 126.261 31.2503L114.529 52.2798C110.616 59.3325 104.858 65.2881 97.8345 69.5981L97.1726 69.9788C93.4179 72.2793 91.1686 76.2367 91.1979 80.4907V90.8011C91.1979 93.4319 92.2874 95.9507 94.238 97.8091L94.8706 98.4136V98.4024C95.6614 99.1692 96.7216 99.6226 97.8345 99.6618C99.0236 99.701 100.154 99.1972 100.875 98.2904L104.541 93.7733C105.444 92.8162 106.802 92.402 108.109 92.6762C109.415 92.9617 110.458 93.9077 110.815 95.1391V95.6597C111.26 97.7811 112.004 99.8353 113.023 101.766L115.7 106.888C116.719 108.886 115.958 111.31 113.937 112.418C112.847 112.995 112.033 113.924 111.629 115.049L110.194 118.939C109.766 120.048 110.106 121.296 111.067 122.035C111.811 122.622 112.842 122.734 113.703 122.309L120.591 118.805H120.603C121.991 118.105 122.952 116.79 123.169 115.301C123.368 113.974 124.486 112.933 125.875 112.782C128.124 112.497 129.87 110.767 130.104 108.606L130.836 100.473C131.006 98.1337 132.382 96.0403 134.503 94.876C135.979 94.0252 137.022 92.6315 137.367 91.0138C137.766 88.7972 136.822 86.5527 134.948 85.1925C133.255 84.0842 132.283 82.2091 132.382 80.25L132.71 74.0481C132.81 71.5852 133.771 69.2175 135.417 67.3144L141.134 60.6591C142.223 59.4109 142.826 57.838 142.826 56.2091C142.838 54.1549 143.857 52.2406 145.58 51.0203L146.569 50.3207C147.343 49.7721 148.344 49.5818 149.276 49.8001C150.219 50.0184 150.998 50.6341 151.408 51.4681C152.07 52.6604 152.07 54.0709 151.408 55.2632L145.861 64.6276L145.872 64.6164C144.338 67.1633 143.869 70.1747 144.543 73.0349L146.189 80.0429H146.2C146.388 80.8937 146.944 81.6326 147.735 82.0692L151.947 84.4537H151.958C153.464 85.2597 155.297 85.2597 156.785 84.4537L165.226 80.2108C167.821 79.0074 170.855 79.0074 173.45 80.2108C173.995 80.4851 174.323 81.0448 174.264 81.6326C174.205 82.2203 173.778 82.7129 173.192 82.8808L172.091 83.1271C170.89 83.4125 170.029 84.4537 170.041 85.6459C170.041 86.3176 169.484 86.8773 168.793 86.9053L160.657 87.4651H160.645C159.228 87.577 157.839 87.9968 156.621 88.6965L151.636 91.5008C150.605 92.0493 150.002 93.1184 150.09 94.2267V96.1578C150.102 96.5832 150.348 96.9527 150.734 97.1598C151.121 97.3669 151.578 97.3501 151.964 97.1486C153.312 96.2306 154.916 95.7268 156.58 95.71C157.769 95.7492 158.73 96.6672 158.741 97.8203V102.309V102.298C158.741 102.724 158.513 103.121 158.126 103.35C157.74 103.569 157.265 103.586 156.879 103.39L153.212 101.526C152.579 101.195 151.835 101.145 151.179 101.375C150.506 101.61 149.979 102.113 149.721 102.757C148.702 105.22 148.432 107.918 148.959 110.532C149.733 114.327 148.842 118.251 146.493 121.391C145.492 122.801 143.828 123.624 142.053 123.608C140.893 123.608 139.845 122.925 139.417 121.884C139.33 121.665 139.148 121.475 138.914 121.38C138.668 121.285 138.41 121.268 138.17 121.369L127.169 125.365C125.98 125.774 125.06 126.68 124.633 127.817C124.504 128.175 124.205 128.46 123.819 128.572C123.444 128.696 123.028 128.628 122.7 128.41L118.113 125.259C117.112 124.559 115.747 124.643 114.845 125.438C113.24 126.809 110.85 126.944 109.087 125.751C106.592 124.055 104.975 121.413 104.688 118.497C104.588 117.607 104.905 116.717 105.561 116.073C106.035 115.62 106.375 115.071 106.592 114.473L107.107 112.995C107.98 110.56 108.425 107.996 108.425 105.422C108.413 104.89 108.109 104.408 107.634 104.134C107.148 103.877 106.562 103.86 106.07 104.123L102.403 106.082V106.093C100.816 106.972 99.8847 108.612 99.9843 110.364L100.828 123.753C100.957 126.138 99.1232 128.214 96.6455 128.488L92.7912 128.914V128.903C88.9955 129.328 85.6274 131.449 83.7354 134.623L83.1906 135.569C80.7422 139.706 76.5833 142.689 71.7449 143.769H71.4462C69.9701 144.1 68.781 145.124 68.2948 146.495C67.6798 148.342 65.9167 149.619 63.8958 149.686C62.449 149.725 61.1428 150.576 60.598 151.863C60.4106 152.244 60.0708 152.546 59.6549 152.669C59.2273 152.792 58.7646 152.753 58.3956 152.535L54.9455 150.604C54.5003 150.358 53.9438 150.358 53.4986 150.632C53.071 150.889 52.8133 151.371 52.8543 151.863V152.468C52.9129 153.425 52.5556 154.36 51.8527 155.054C51.1673 155.753 50.2067 156.151 49.1875 156.134C48.3733 156.218 47.5532 155.899 47.026 155.3C46.5516 154.494 45.6495 154.013 44.6889 154.041H40.6471C39.8329 154.052 39.0597 154.399 38.5267 154.987C37.982 155.574 37.7242 156.341 37.8238 157.125C37.9409 157.976 38.4857 158.714 39.2823 159.084L41.0455 159.89C44.4428 161.491 47.2779 163.982 49.2285 167.077C50.5874 169.198 51.3489 171.611 51.4368 174.085C51.5071 175.949 51.1673 177.796 50.4351 179.52L47.1373 187.34C46.2177 189.545 43.6872 190.692 41.309 189.998L20.0754 183.908C19.3608 183.701 18.8277 183.114 18.7164 182.403C18.5758 181.401 17.6855 180.651 16.6253 180.651H15.6353C15.1902 180.651 14.7626 180.813 14.458 181.132C14.1417 181.434 13.9718 181.843 13.9835 182.268C13.9132 183.091 13.2982 183.774 12.4371 183.953L10.9317 184.334C10.2581 184.468 9.68406 184.882 9.35604 185.459C9.02801 186.047 8.96944 186.729 9.21546 187.351C9.81879 188.817 9.81879 190.446 9.21546 191.913L1.16131 209.992C0.716132 211.089 1.03244 212.332 1.93451 213.144C2.63741 213.776 2.89515 214.744 2.59641 215.634L0.803996 220.577H0.792281C0.575551 221.193 0.675129 221.864 1.05001 222.396C1.43661 222.945 2.06923 223.275 2.74285 223.297H7.44062C8.78786 223.337 10.0941 223.829 11.1074 224.708C12.1677 225.777 12.6948 227.227 12.566 228.704V229.622V229.611C12.5953 230.871 13.3099 232.018 14.4697 232.623C15.6295 233.143 16.9767 233.143 18.1365 232.623C20.9892 231.402 24.1522 231.022 27.2333 231.542L33.0616 232.348C34.8072 232.567 36.5586 231.968 37.7594 230.731L38.5619 229.897C39.335 229.141 40.3953 228.704 41.4965 228.704C42.8437 228.648 44.15 228.156 45.1633 227.294L49.6326 223.432V223.443C49.949 223.185 50.1364 222.81 50.1364 222.419C50.1364 222.027 49.949 221.663 49.6326 221.405C48.8594 220.874 48.4026 220.012 48.385 219.094C48.3733 217.577 48.8887 216.093 49.8611 214.89L54.635 209.494H54.6233C55.7421 208.246 57.3471 207.507 59.0633 207.457C61.1135 207.345 63.1343 206.869 65.0088 206.063C67.1585 205.039 68.5643 202.968 68.6756 200.667L68.9333 197.163C68.9626 196.066 69.7065 195.109 70.796 194.779C72.5299 194.247 74.3926 194.247 76.1088 194.779L81.6091 196.531C83.4308 197.09 85.4048 196.805 86.9688 195.753L98.3734 189.343C100.277 188.263 102.04 189.097 102.04 191.235C103.458 191.879 104.518 193.083 104.905 194.532C105.608 197.23 107.125 199.665 109.274 201.54L123.098 213.244C123.959 213.899 125.049 214.218 126.138 214.123C127.286 214.056 128.259 214.862 128.376 215.942C128.446 217.011 129.319 217.873 130.438 217.969C131.381 218.008 132.213 218.545 132.599 219.379C134.034 222.609 134.204 226.225 133.074 229.578L132.787 230.456C132.558 230.815 132.529 231.234 132.687 231.621C132.845 232.001 133.173 232.304 133.589 232.416C134.274 232.595 135.007 232.264 135.311 231.649L137.262 227.54C137.748 226.622 138.697 226.023 139.757 225.923C140.114 225.895 140.442 225.715 140.659 225.441C140.888 225.184 140.987 224.825 140.929 224.484V223.129C140.811 222.228 140.038 221.512 139.095 221.445C138.591 221.389 138.135 221.142 137.836 220.745C137.549 220.336 137.461 219.844 137.59 219.374L138.176 217.554C138.345 217.023 138.761 216.58 139.294 216.379C139.839 216.161 140.454 216.2 140.97 216.463L145.111 218.668C145.457 218.859 145.855 218.859 146.2 218.679C146.546 218.5 146.774 218.176 146.804 217.789C146.903 216.72 146.329 215.679 145.328 215.159L134.655 209.836C133.841 209.399 133.296 208.604 133.197 207.697C133.197 207.149 132.91 206.645 132.453 206.326C131.978 206.013 131.393 205.945 130.848 206.119C129.442 206.488 127.954 206.108 126.923 205.134C124.586 203.119 122.928 200.493 122.149 197.56C122.009 196.984 121.675 196.48 121.206 196.094L117.065 192.864H117.053C116.35 192.332 115.794 191.633 115.448 190.838C114.933 189.663 114.657 188.403 114.634 187.116V185.856C114.622 184.541 115.366 183.326 116.585 182.705C117.674 182.184 118.951 182.224 120.011 182.789C121.071 183.365 121.774 184.39 121.874 185.543C122.061 186.556 122.618 187.457 123.45 188.101L131.299 194.37C132.488 195.355 134.005 195.904 135.581 195.915C137.156 195.954 138.673 196.463 139.909 197.393L147.243 202.76V202.749C149.533 204.473 151.01 206.992 151.314 209.757C151.513 213.356 153.048 216.765 155.614 219.396C156.803 220.493 157.822 221.764 158.624 223.146C160.241 226.488 162.18 229.662 164.412 232.645L167.493 236.574C168.611 237.946 170.345 238.735 172.161 238.668C172.764 238.629 173.309 238.354 173.678 237.89C174.053 237.436 174.205 236.865 174.094 236.289L173.579 233.305V233.317C173.438 232.466 173.696 231.604 174.311 230.977C174.926 230.35 175.816 230.031 176.701 230.126C178.317 230.238 179.764 229.152 180.04 227.635C180.18 226.801 179.87 225.967 179.196 225.43L169.18 217.023V217.011C168.518 216.452 168.336 215.534 168.705 214.767C168.875 214.425 169.191 214.179 169.596 214.095C169.982 214.011 170.386 214.106 170.685 214.353L171.745 215.159V215.148C172.272 215.556 172.923 215.802 173.579 215.886C174.598 216.01 175.582 215.573 176.156 214.761C176.742 213.938 176.531 212.819 175.67 212.242C175.313 211.985 175.084 211.56 175.084 211.117C175.084 210.675 175.313 210.255 175.67 209.992C176.572 209.281 177.702 208.884 178.862 208.867H188.621C190.226 208.878 191.673 207.977 192.288 206.555C192.475 206.102 192.891 205.761 193.389 205.654L197.929 204.574V204.563C198.485 204.44 198.901 203.986 199.001 203.455C199.088 202.906 198.831 202.374 198.327 202.083C194.701 199.934 192.627 196.044 192.938 191.98L193.571 183.041V183.052C193.711 181.462 194.801 180.108 196.353 179.548C197.314 179.218 198.028 178.451 198.257 177.511L200.793 167.491C201.08 166.366 201.865 165.409 202.954 164.888C203.657 164.547 204.471 164.491 205.215 164.737C205.977 164.984 206.574 165.504 206.908 166.187C207.236 166.887 208.056 167.256 208.829 167.066L212.051 166.859C212.625 166.803 213.152 167.094 213.428 167.57C213.697 168.051 213.656 168.639 213.299 169.064L211.864 170.777V170.788C211.676 171.006 211.635 171.309 211.747 171.583C211.858 171.857 212.121 172.036 212.408 172.075L214.201 172.322H214.213C215.56 172.54 216.591 173.581 216.749 174.88V175.305C216.837 176.061 217.481 176.632 218.284 176.677C219.73 176.76 221.119 176.128 221.95 174.992L224.586 171.488C225.201 170.665 226.062 170.066 227.052 169.736C229.677 168.807 232.512 168.532 235.265 168.958V168.975Z" fill="#EE5A24"/>
<path d="M236.295 150.822L221.224 162.325C220.638 162.761 220.263 163.422 220.193 164.133C220.134 164.844 220.38 165.543 220.896 166.075L221.599 166.775H221.587C222.589 167.827 224.264 167.978 225.441 167.133C226.847 166.243 228.493 165.79 230.168 165.834C232.289 165.795 234.052 164.317 234.398 162.33L234.843 160.019C234.942 159.403 234.843 158.787 234.544 158.227C234.116 157.421 234.257 156.436 234.919 155.776L238.187 153.598V153.61C238.949 153.128 239.236 152.188 238.849 151.393C238.592 150.996 238.176 150.721 237.701 150.615C237.227 150.509 236.729 150.587 236.313 150.833L236.295 150.822Z" fill="#E66F00"/>
<path d="M129.155 230.876L116.532 231.509H116.544C115.671 231.565 114.98 232.248 114.968 233.098V233.731C114.956 234.375 115.366 234.951 115.987 235.197C117.95 235.332 119.871 235.729 121.716 236.362C123.954 237.184 126.015 238.36 127.831 239.866C128.317 240.056 128.88 240.056 129.378 239.866C129.905 239.306 129.905 238.455 129.378 237.895C128.546 236.625 128.774 234.968 129.922 233.938C130.584 232.707 130.555 231.554 129.922 231.106C129.723 230.915 129.436 230.848 129.149 230.887L129.155 230.876Z" fill="#E66F00"/>
<path d="M97.9109 205.861L96.5226 201.3C96.4055 201.053 96.6515 200.796 96.9209 200.874H99.8556C100.072 200.863 100.23 201.064 100.143 201.255L98.5669 205.817C98.5962 206.242 97.9343 206.27 97.905 205.856L97.9109 205.861Z" fill="#E66F00"/>
<path d="M94.689 218.4V211.392C94.6772 210.927 94.9467 210.502 95.3743 210.311L98.1976 208.873H98.2094C98.8127 208.559 99.5683 208.778 99.8846 209.365L100.687 210.692H100.699C100.769 210.927 100.769 211.185 100.699 211.431L100.037 217.745V217.733C99.9491 218.254 99.5625 218.679 99.0353 218.831L96.1006 219.435L96.1123 219.424C95.427 219.508 94.7944 219.066 94.6772 218.411L94.689 218.4Z" fill="#E66F00"/>
<path d="M29.3245 37.6538C34.2156 45.4118 41.0396 51.86 48.7833 57.0264C57.0718 62.5511 66.3853 66.5084 75.9683 69.4918C86.383 72.7271 97.1317 74.8206 107.869 76.7965C118.91 78.8283 130.004 80.7426 140.829 83.6869C145.96 85.0806 151.209 86.5695 155.912 89.0212C160.106 91.2042 163.703 94.3051 166.286 98.1562C166.925 99.1077 167.499 100.098 168.014 101.117C168.36 101.794 169.373 101.979 170.017 101.621C170.744 101.212 170.89 100.39 170.544 99.7066C168.43 95.5422 165.284 91.9151 161.442 89.1052C157.242 86.0322 152.245 84.185 147.255 82.629C136.553 79.2929 125.494 77.1827 114.452 75.1564C103.645 73.1749 92.8029 71.2718 82.2124 68.378C72.3542 65.6912 62.7243 62.1257 53.9907 56.948C46.1474 52.2966 39.0012 46.3522 33.747 39.0531C33.0851 38.1352 32.4524 37.1948 31.8491 36.2376C30.8768 34.6984 28.3463 36.1033 29.3186 37.6482L29.3245 37.6538Z" fill="#4C1FDB"/>
<path d="M33.7179 36.4616C41.28 30.5283 50.2948 26.4646 59.6493 23.845C70.0465 20.9344 80.8713 19.8037 91.6668 19.4287C97.1553 19.2384 102.661 19.1992 108.156 19.3391C113.65 19.4791 118.67 19.8429 123.819 20.884C128.798 21.8915 133.548 23.5596 137.983 25.9497C142.241 28.2502 146.154 31.0937 149.703 34.3066C156.258 40.2342 162.198 48.4289 161.84 57.4183C161.799 58.465 161.665 59.4893 161.436 60.5137C161.272 61.2525 161.665 62.025 162.461 62.2377C163.188 62.428 164.101 62.0026 164.265 61.2581C166.368 51.6698 161.43 42.4004 154.905 35.4037C148.157 28.1718 139.271 22.3225 129.571 19.4231C118.91 16.2326 107.406 16.3333 96.3528 16.5124C84.995 16.6972 73.5552 17.548 62.5078 20.1955C52.6144 22.5688 42.967 26.4198 34.7137 32.2076C33.671 32.9408 32.6518 33.6965 31.6502 34.4801C31.041 34.9615 31.1288 35.9634 31.6502 36.4616C32.2535 37.0381 33.1087 36.943 33.7237 36.4616H33.7179Z" fill="#4C1FDB"/>
<path d="M164.265 66.3461C171.47 66.514 178.61 69.8445 181.891 76.1919C183.361 79.041 183.941 82.4275 183.156 85.534C182.429 88.4167 180.625 90.9187 178.241 92.7939C175.564 94.9041 172.103 96.0459 168.641 95.8612C166.755 95.7605 166.761 98.5592 168.641 98.6599C176.074 99.0462 183.203 94.154 185.604 87.4987C188.322 79.959 184.163 71.6245 177.509 67.3648C173.62 64.874 168.916 63.6538 164.259 63.5474C162.373 63.5026 162.373 66.3013 164.259 66.3461H164.265Z" fill="#4C1FDB"/>
<path d="M168.243 103.882C172.713 103.882 176.338 100.419 176.338 96.1468C176.338 91.8745 172.713 88.4111 168.243 88.4111C163.772 88.4111 160.147 91.8745 160.147 96.1468C160.147 100.419 163.772 103.882 168.243 103.882Z" fill="#8302CE"/>
<path d="M30.2734 45.0367C34.7442 45.0367 38.3685 41.5733 38.3685 37.301C38.3685 33.0288 34.7442 29.5654 30.2734 29.5654C25.8025 29.5654 22.1782 33.0288 22.1782 37.301C22.1782 41.5733 25.8025 45.0367 30.2734 45.0367Z" fill="#8302CE"/>
<path d="M161.231 72.5984C165.702 72.5984 169.326 69.1351 169.326 64.8628C169.326 60.5906 165.702 57.1272 161.231 57.1272C156.76 57.1272 153.136 60.5906 153.136 64.8628C153.136 69.1351 156.76 72.5984 161.231 72.5984Z" fill="#8302CE"/>
</svg>
