<svg width="164" height="164" viewBox="0 0 164 164" fill="none" xmlns="http://www.w3.org/2000/svg">
<rect width="164" height="164" fill="white"/>
<path d="M144.067 119.29L152.447 146.53L143.367 149.33L142.887 147.77C142.117 145.27 139.457 143.86 136.947 144.63C134.447 145.4 133.037 148.06 133.807 150.57L134.287 152.12L125.207 154.91L122.407 145.83L120.857 146.31C118.347 147.08 115.687 145.67 114.917 143.17C114.147 140.66 115.557 138 118.067 137.23L119.617 136.75L116.817 127.67L144.067 119.29Z" fill="#E9580C"/>
<mask id="mask0_2362_7001" style="mask-type:alpha" maskUnits="userSpaceOnUse" x="34" y="49" width="95" height="66">
<path d="M128.687 72.7297V114.65H96.9168V108.91C96.9168 100.44 90.0468 93.5697 81.5768 93.5697C73.1068 93.5697 66.2368 100.44 66.2368 108.91V114.65H34.4668V72.7297H61.5668V49.3497H101.587V72.7297H128.687Z" fill="#F2F3F5"/>
</mask>
<g mask="url(#mask0_2362_7001)">
<path d="M128.687 72.7297V114.65H96.9168V108.91C96.9168 100.44 90.0468 93.5697 81.5768 93.5697C73.1068 93.5697 66.2368 100.44 66.2368 108.91V114.65H34.4668V72.7297H61.5668V49.3497H101.587V72.7297H128.687Z" fill="#F2F3F5"/>
<path d="M132.685 7.96058L20.8574 15.4507L30.5082 159.537L142.336 152.047L132.685 7.96058Z" fill="#F2F3F5"/>
<g opacity="0.2">
<path d="M57.1436 74.2761L57.2642 76.076L63.0891 75.6859L62.9685 73.8859L57.1436 74.2761Z" fill="white"/>
</g>
<g opacity="0.2">
<path d="M67.5455 73.5786L67.666 75.3785L79.8108 74.5651L79.6902 72.7651L67.5455 73.5786Z" fill="white"/>
</g>
<g opacity="0.2">
<path d="M86.8594 72.2846L86.98 74.0846L92.1983 73.7351L92.0777 71.9351L86.8594 72.2846Z" fill="white"/>
</g>
<g opacity="0.2">
<path d="M64.1739 73.8053L64.2944 75.6052L66.4626 75.46L66.342 73.66L64.1739 73.8053Z" fill="white"/>
</g>
<g opacity="0.2">
<path d="M80.563 72.7064L80.6836 74.5063L82.8517 74.3611L82.7312 72.5612L80.563 72.7064Z" fill="white"/>
</g>
<g opacity="0.2">
<path d="M83.7696 72.4917L83.8901 74.2916L86.0583 74.1464L85.9377 72.3464L83.7696 72.4917Z" fill="white"/>
</g>
<g opacity="0.2">
<path d="M47.8829 68.1157L48.0034 69.9156L56.673 69.335L56.5524 67.535L47.8829 68.1157Z" fill="#0082B6"/>
</g>
<g opacity="0.2">
<path d="M57.5401 67.4676L57.6606 69.2676L71.9237 68.3123L71.8031 66.5123L57.5401 67.4676Z" fill="#E9580C"/>
</g>
<g opacity="0.2">
<path d="M75.7095 66.2501L75.8301 68.05L81.3138 67.6828L81.1932 65.8828L75.7095 66.2501Z" fill="#E400AE"/>
</g>
<g opacity="0.2">
<path d="M89.1475 83.4671L89.2681 85.2671L94.3397 84.9274L94.2191 83.1274L89.1475 83.4671Z" fill="#E400AE"/>
</g>
<g opacity="0.2">
<path d="M52.4527 81.2788L52.5732 83.0787L58.057 82.7114L57.9364 80.9115L52.4527 81.2788Z" fill="#E400AE"/>
</g>
<g opacity="0.2">
<path d="M46.8096 52.1301L46.9302 53.9301L50.6379 53.6817L50.5173 51.8818L46.8096 52.1301Z" fill="#0082B6"/>
</g>
<g opacity="0.2">
<path d="M67.9175 50.7147L68.0381 52.5146L70.0586 52.3793L69.938 50.5794L67.9175 50.7147Z" fill="#0082B6"/>
</g>
<g opacity="0.2">
<path d="M62.4058 80.6113L62.5264 82.4113L65.8729 82.1871L65.7523 80.3871L62.4058 80.6113Z" fill="#0082B6"/>
</g>
<g opacity="0.2">
<path d="M51.7076 51.8006L51.8281 53.6006L57.1342 53.2452L57.0137 51.4452L51.7076 51.8006Z" fill="#E9580C"/>
</g>
<g opacity="0.2">
<path d="M61.1275 51.1695L61.248 52.9695L66.5542 52.6141L66.4336 50.8141L61.1275 51.1695Z" fill="#E9580C"/>
</g>
<g opacity="0.2">
<path d="M71.3975 50.4807L71.5181 52.2806L76.8242 51.9252L76.7036 50.1253L71.3975 50.4807Z" fill="#E9580C"/>
</g>
<g opacity="0.2">
<path d="M78.2366 49.6176C78.4909 49.6009 78.7159 49.7848 78.7326 50.0473C78.7505 50.3106 78.5533 50.5316 78.299 50.5484C78.0448 50.5651 77.8198 50.373 77.8019 50.1097C77.784 49.8465 77.9782 49.6344 78.2366 49.6176ZM78.3295 51.8461C78.1007 51.8618 77.9214 51.7049 77.9058 51.4678C77.8901 51.2308 78.0671 51.028 78.3122 51.0115C78.5796 50.9936 78.8045 51.1816 78.828 51.531C78.8681 52.1254 78.4632 52.4867 78.0563 52.5531L78.035 52.2381C78.2223 52.1914 78.4411 52.0248 78.4479 51.808C78.4278 51.8314 78.3771 51.8428 78.3295 51.8461Z" fill="white"/>
</g>
<g opacity="0.2">
<path d="M57.8936 50.4886L58.5923 50.4417L60.2673 53.3999L59.5775 53.4458L57.8936 50.4886Z" fill="white"/>
</g>
<g opacity="0.2">
<path d="M52.6641 77.2345L51.9743 77.2803L53.2395 74.1255L53.9383 74.0785L52.665 77.2343L52.6641 77.2345Z" fill="white"/>
<path d="M54.1162 77.1365L53.4264 77.1823L54.6917 74.0275L55.3904 73.9805L54.1172 77.1362L54.1162 77.1365Z" fill="white"/>
</g>
<g opacity="0.2">
<path d="M64.1661 96.3685L64.2866 98.1685L68.0602 97.9157L67.9396 96.1157L64.1661 96.3685Z" fill="white"/>
</g>
<g opacity="0.2">
<path d="M58.6582 96.7367L58.7788 98.5366L62.5524 98.2839L62.4318 96.4839L58.6582 96.7367Z" fill="white"/>
</g>
<g opacity="0.2">
<path d="M69.0596 96.0391L69.1802 97.8391L81.325 97.0257L81.2044 95.2257L69.0596 96.0391Z" fill="white"/>
</g>
<g opacity="0.2">
<path d="M88.3736 94.7451L88.4941 96.545L93.7124 96.1955L93.5919 94.3956L88.3736 94.7451Z" fill="white"/>
</g>
<g opacity="0.2">
<path d="M82.0762 95.167L82.1968 96.9669L84.3649 96.8217L84.2444 95.0217L82.0762 95.167Z" fill="white"/>
</g>
<g opacity="0.2">
<path d="M85.2828 94.9522L85.4033 96.7522L87.5715 96.607L87.4509 94.807L85.2828 94.9522Z" fill="white"/>
</g>
<g opacity="0.2">
<path d="M54.8809 99.3092L54.1911 99.355L55.4563 96.2002L56.1551 96.1532L54.8818 99.309L54.8809 99.3092Z" fill="white"/>
<path d="M56.3335 99.2122L55.6437 99.258L56.9089 96.1031L57.6077 96.0562L56.3345 99.2119L56.3335 99.2122Z" fill="white"/>
</g>
<g opacity="0.2">
<path d="M59.1456 81.5481L59.1056 80.9537L61.2395 80.8108L61.2796 81.4052L59.1456 81.5481ZM59.2092 82.4919L59.1689 81.8883L61.3029 81.7454L61.3431 82.349L59.2092 82.4919Z" fill="white"/>
</g>
<g opacity="0.2">
<path d="M52.7632 85.9111L52.8838 87.7111L58.3675 87.3438L58.2469 85.5438L52.7632 85.9111Z" fill="#E400AE"/>
</g>
<g opacity="0.2">
<path d="M62.7164 85.244L62.8369 87.0439L68.8365 86.6421L68.7159 84.8421L62.7164 85.244Z" fill="#E400AE"/>
</g>
<g opacity="0.2">
<path d="M75.128 84.411L75.2485 86.2109L86.207 85.477L86.0864 83.677L75.128 84.411Z" fill="#E9580C"/>
</g>
<g opacity="0.2">
<path d="M59.4562 86.1795L59.4161 85.585L61.5501 85.4421L61.5901 86.0365L59.4562 86.1795ZM59.5197 87.1233L59.4795 86.5196L61.6134 86.3767L61.6537 86.9804L59.5197 87.1233Z" fill="white"/>
</g>
<g opacity="0.2">
<path d="M70.5399 85.9949L70.494 85.3092L71.8258 85.22L71.8717 85.9056L70.5399 85.9949Z" fill="white"/>
<path d="M73.5669 85.4149L72.3108 84.9494L72.265 84.2596L74.2181 85.0378L74.2617 85.6931L72.43 86.7206L72.3844 86.0441L73.5679 85.4147L73.5669 85.4149Z" fill="white"/>
</g>
<g opacity="0.2">
<path d="M78.3563 78.0734L78.8237 78.4534C78.377 78.9597 78.1221 79.5438 78.1748 80.342C78.2283 81.1349 78.559 81.6842 79.0694 82.1268L78.6568 82.5662C78.0806 82.1159 77.5901 81.4471 77.5188 80.3868C77.4474 79.3265 77.8452 78.5985 78.3555 78.0746L78.3563 78.0734Z" fill="white"/>
<path d="M80.5887 82.4354L80.1213 82.0554C80.568 81.5491 80.8229 80.9609 80.7701 80.1668C80.7167 79.3697 80.386 78.8246 79.8756 78.382L80.2882 77.9426C80.8643 78.3929 81.3548 79.0617 81.4262 80.122C81.4976 81.1823 81.0998 81.9103 80.5895 82.4342L80.5887 82.4354Z" fill="white"/>
<path d="M82.5882 79.2395C82.8425 79.2227 83.0675 79.4066 83.0842 79.6692C83.1021 79.9324 82.9049 80.1535 82.6506 80.1702C82.3924 80.1879 82.1714 79.9948 82.1535 79.7316C82.1355 79.4683 82.3298 79.2562 82.5882 79.2395ZM82.6811 81.468C82.4523 81.4837 82.273 81.3267 82.2573 81.0896C82.2417 80.8526 82.4187 80.6499 82.6637 80.6333C82.9311 80.6154 83.1561 80.8034 83.1796 81.1528C83.2196 81.7473 82.8147 82.1085 82.4079 82.1749L82.3866 81.8599C82.5736 81.8123 82.7926 81.6466 82.7994 81.4298C82.7794 81.4532 82.7286 81.4646 82.6811 81.468Z" fill="white"/>
</g>
<g opacity="0.2">
<path d="M88.1697 82.067L88.6371 82.4471C88.1904 82.9534 87.9356 83.5374 87.9883 84.3357C88.0418 85.1286 88.3724 85.6779 88.8829 86.1205L88.4703 86.5598C87.8941 86.1096 87.4036 85.4408 87.3322 84.3805C87.2609 83.3202 87.6586 82.5921 88.169 82.0682L88.1697 82.067Z" fill="white"/>
<path d="M95.3153 86.1001L94.8479 85.7201C95.2946 85.2138 95.5494 84.6256 95.4967 83.8315C95.4432 83.0344 95.1126 82.4893 94.6021 82.0466L95.0147 81.6073C95.5909 82.0576 96.0814 82.7264 96.1528 83.7867C96.2241 84.847 95.8264 85.575 95.316 86.0989L95.3153 86.1001Z" fill="white"/>
<path d="M97.4949 82.8921C97.7492 82.8753 97.9742 83.0592 97.9909 83.3217C98.0088 83.585 97.8116 83.806 97.5573 83.8228C97.2992 83.8405 97.0781 83.6474 97.0602 83.3841C97.0423 83.1209 97.2365 82.9088 97.4949 82.8921ZM97.5878 85.1206C97.359 85.1362 97.1797 84.9793 97.1641 84.7422C97.1484 84.5052 97.3254 84.3024 97.5705 84.2859C97.8379 84.268 98.0628 84.456 98.0863 84.8054C98.1264 85.3999 97.7215 85.7611 97.3146 85.8275L97.2933 85.5125C97.4804 85.4648 97.6994 85.2992 97.7062 85.0824C97.6861 85.1058 97.6354 85.1172 97.5878 85.1206Z" fill="white"/>
</g>
<g opacity="0.2">
<path d="M53.0918 90.5096L53.2124 92.3096L58.6961 91.9423L58.5756 90.1423L53.0918 90.5096Z" fill="#E400AE"/>
</g>
<g opacity="0.2">
<path d="M63.0464 89.8433L63.167 91.6433L69.1666 91.2415L69.046 89.4415L63.0464 89.8433Z" fill="#E400AE"/>
</g>
<g opacity="0.2">
<path d="M75.4571 89.0096L75.5776 90.8096L81.7488 90.3962L81.6283 88.5963L75.4571 89.0096Z" fill="#E9580C"/>
</g>
<g opacity="0.2">
<path d="M59.7868 90.7782L59.7467 90.1838L61.8807 90.0409L61.9207 90.6353L59.7868 90.7782ZM59.8503 91.722L59.8101 91.1184L61.944 90.9755L61.9842 91.5791L59.8503 91.722Z" fill="white"/>
</g>
<g opacity="0.2">
<path d="M70.8695 90.5928L70.8236 89.9071L72.1554 89.8179L72.2013 90.5035L70.8695 90.5928Z" fill="white"/>
<path d="M73.8965 90.0138L72.6404 89.5483L72.5945 88.8585L74.5477 89.6367L74.5913 90.292L72.7596 91.3195L72.714 90.643L73.8975 90.0135L73.8965 90.0138Z" fill="white"/>
</g>
<g opacity="0.2">
<path d="M83.9778 87.1999L84.4452 87.58C83.9985 88.0863 83.7437 88.6704 83.7964 89.4686C83.8499 90.2615 84.1805 90.8108 84.691 91.2534L84.2784 91.6928C83.7022 91.2425 83.2117 90.5737 83.1404 89.5134C83.069 88.4531 83.4668 87.7251 83.9771 87.2012L83.9778 87.1999Z" fill="white"/>
<path d="M86.2103 91.562L85.7429 91.182C86.1896 90.6757 86.4445 90.0875 86.3917 89.2934C86.3383 88.4963 86.0076 87.9512 85.4972 87.5086L85.9098 87.0692C86.4859 87.5195 86.9764 88.1883 87.0478 89.2486C87.1192 90.3089 86.7214 91.0369 86.211 91.5608L86.2103 91.562Z" fill="white"/>
<path d="M88.1199 88.3725C88.3742 88.3558 88.5992 88.5397 88.6159 88.8022C88.6338 89.0655 88.4366 89.2865 88.1823 89.3033C87.9242 89.321 87.7031 89.1279 87.6852 88.8646C87.6673 88.6014 87.8615 88.3893 88.1199 88.3725ZM88.2128 90.601C87.984 90.6167 87.8047 90.4597 87.7891 90.2227C87.7734 89.9856 87.9504 89.7829 88.1955 89.7663C88.4629 89.7485 88.6878 89.9365 88.7113 90.2859C88.7514 90.8803 88.3465 91.2416 87.9396 91.3079L87.9184 90.993C88.1056 90.9463 88.3244 90.7797 88.3312 90.5629C88.3111 90.5863 88.2604 90.5977 88.2128 90.601Z" fill="white"/>
</g>
<g opacity="0.2">
<path d="M47.1221 56.7942L47.2427 58.5941L50.9504 58.3458L50.8298 56.5458L47.1221 56.7942Z" fill="#0082B6"/>
</g>
<g opacity="0.2">
<path d="M52.021 56.4654L52.1416 58.2654L61.8778 57.6133L61.7572 55.8133L52.021 56.4654Z" fill="#E9580C"/>
</g>
<g opacity="0.2">
<path d="M66.8741 80.3123L66.9946 82.1123L76.7308 81.4602L76.6103 79.6602L66.8741 80.3123Z" fill="#E9580C"/>
</g>
<g opacity="0.2">
<path d="M53.9551 103.681L54.0757 105.481L67.33 104.594L67.2094 102.794L53.9551 103.681Z" fill="#E400AE"/>
</g>
<g opacity="0.2">
<path d="M72.5308 102.437L72.6514 104.237L75.9979 104.013L75.8773 102.213L72.5308 102.437Z" fill="#0082B6"/>
</g>
<g opacity="0.2">
<path d="M89.7447 101.281L89.8652 103.081L93.2117 102.857L93.0912 101.057L89.7447 101.281Z" fill="#0082B6"/>
</g>
<g opacity="0.2">
<path d="M68.9035 103.4L68.8634 102.805L70.9974 102.663L71.0374 103.257L68.9035 103.4ZM68.967 104.344L68.9268 103.74L71.0607 103.597L71.1009 104.201L68.967 104.344Z" fill="white"/>
</g>
<g opacity="0.2">
<path d="M88.3265 99.9053L88.7939 100.285C88.3472 100.792 88.0923 101.376 88.1451 102.174C88.1985 102.967 88.5292 103.516 89.0396 103.959L88.627 104.398C88.0509 103.948 87.5604 103.279 87.489 102.219C87.4176 101.158 87.8154 100.43 88.3257 99.9065L88.3265 99.9053Z" fill="white"/>
</g>
<g opacity="0.2">
<path d="M76.9981 102.137L77.1187 103.937L86.8548 103.285L86.7343 101.485L76.9981 102.137Z" fill="#E9580C"/>
</g>
<g opacity="0.2">
<path d="M94.5059 100.962L94.6265 102.762L111.672 101.62L111.552 99.8203L94.5059 100.962Z" fill="#E9580C"/>
</g>
<g opacity="0.2">
<path d="M66.7481 55.4784L66.8687 57.2783L81.0948 56.3255L80.9742 54.5255L66.7481 55.4784Z" fill="#E9580C"/>
</g>
<g opacity="0.2">
<path d="M82.513 54.0154C82.7673 53.9986 82.9923 54.1825 83.009 54.445C83.0269 54.7083 82.8297 54.9293 82.5754 54.9461C82.3172 54.9638 82.0962 54.7707 82.0783 54.5074C82.0603 54.2442 82.2546 54.0321 82.513 54.0154ZM82.6059 56.2438C82.3771 56.2595 82.1978 56.1026 82.1821 55.8655C82.1665 55.6285 82.3435 55.4257 82.5886 55.4092C82.8559 55.3913 83.0809 55.5793 83.1044 55.9287C83.1444 56.5231 82.7395 56.8844 82.3327 56.9508L82.3114 56.6358C82.4987 56.5891 82.7174 56.4225 82.7242 56.2057C82.7042 56.2291 82.6535 56.2405 82.6059 56.2438Z" fill="white"/>
</g>
<g opacity="0.2">
<path d="M63.2578 54.8145L63.9566 54.7675L65.6316 57.7258L64.9418 57.7716L63.2578 54.8145Z" fill="white"/>
</g>
<g opacity="0.2">
<path d="M47.4361 61.4582L47.5566 63.2582L51.2643 63.0098L51.1438 61.2099L47.4361 61.4582Z" fill="#0082B6"/>
</g>
<g opacity="0.2">
<path d="M52.3331 61.13L52.4536 62.9299L57.7597 62.5745L57.6392 60.7746L52.3331 61.13Z" fill="#E9580C"/>
</g>
<g opacity="0.2">
<path d="M61.4288 60.5201L61.5493 62.3201L67.1797 61.943L67.0591 60.143L61.4288 60.5201Z" fill="#E9580C"/>
</g>
<g opacity="0.2">
<path d="M71.3584 59.8531L71.479 61.6531L91.7765 60.2936L91.656 58.4936L71.3584 59.8531Z" fill="#E9580C"/>
</g>
<g opacity="0.2">
<path d="M93.0799 57.9919C93.3342 57.9752 93.5592 58.1591 93.5759 58.4216C93.5938 58.6849 93.3966 58.9059 93.1423 58.9227C92.8841 58.9404 92.6631 58.7473 92.6451 58.484C92.6272 58.2207 92.8215 58.0086 93.0799 57.9919ZM93.1728 60.2204C92.944 60.2361 92.7647 60.0791 92.749 59.8421C92.7334 59.605 92.9104 59.4023 93.1554 59.3857C93.4228 59.3678 93.6478 59.5559 93.6713 59.9053C93.7113 60.4997 93.3064 60.861 92.8996 60.9273L92.8783 60.6124C93.0656 60.5657 93.2843 60.3991 93.2911 60.1823C93.2711 60.2057 93.2203 60.217 93.1728 60.2204Z" fill="white"/>
</g>
<g opacity="0.2">
<path d="M58.1821 59.8397L58.8809 59.7927L60.5559 62.751L59.8661 62.7968L58.1821 59.8397Z" fill="white"/>
</g>
<g opacity="0.2">
<path d="M68.1602 59.1705L68.8589 59.1236L70.5339 62.0818L69.8441 62.1277L68.1602 59.1705Z" fill="white"/>
</g>
<g opacity="0.2">
<path d="M74.3016 65.1007L74.769 65.4807C74.3223 65.9871 74.0674 66.5711 74.1202 67.3694C74.1736 68.1623 74.5043 68.7116 75.0147 69.1542L74.6021 69.5935C74.026 69.1433 73.5355 68.4745 73.4641 67.4142C73.3927 66.3539 73.7905 65.6258 74.3008 65.1019L74.3016 65.1007Z" fill="white"/>
</g>
<g opacity="0.2">
<path d="M82.5975 69.0559L82.1301 68.6759C82.5768 68.1696 82.8317 67.5814 82.7789 66.7873C82.7255 65.9902 82.3948 65.4451 81.8844 65.0025L82.297 64.5631C82.8731 65.0134 83.3636 65.6822 83.435 66.7425C83.5064 67.8028 83.1086 68.5308 82.5983 69.0547L82.5975 69.0559Z" fill="white"/>
<path d="M85.799 67.8538C85.8169 68.1212 85.9732 68.188 86.1323 68.178L86.2568 68.1693L86.2957 68.7465L86.1186 68.7588C85.6062 68.7933 85.2005 68.5608 85.1591 67.944L85.1155 67.2969C85.0967 67.0215 84.9216 66.9243 84.6807 66.9408L84.6394 66.3199C84.8803 66.3034 85.0417 66.1888 85.0239 65.9132L84.9805 65.2712C84.9391 64.6544 85.3094 64.3706 85.8228 64.3359L85.9999 64.3235L86.0388 64.9008L85.9144 64.9095C85.7545 64.9207 85.609 65.0036 85.6268 65.271L85.677 66.0122C85.6949 66.2755 85.5705 66.487 85.2995 66.5871C85.5766 66.6512 85.7327 66.8437 85.7506 67.1111L85.8007 67.8523L85.799 67.8538Z" fill="white"/>
</g>
<g opacity="0.2">
<path d="M49.675 112.777C49.6571 112.51 49.7854 112.297 50.0513 112.197C49.7703 112.134 49.6181 111.941 49.6002 111.677L49.5501 110.936C49.5322 110.669 49.3768 110.606 49.2167 110.616L49.0922 110.625L49.0533 110.048L49.2294 110.036C49.7428 110.001 50.1475 110.234 50.1889 110.85L50.2323 111.492C50.2511 111.768 50.426 111.86 50.6672 111.844L50.7085 112.465C50.4676 112.482 50.3061 112.6 50.3249 112.876L50.3683 113.522C50.4097 114.139 50.0384 114.423 49.526 114.457L49.3499 114.469L49.3109 113.892L49.4354 113.883C49.5953 113.872 49.7408 113.785 49.7229 113.518L49.6728 112.777L49.675 112.777Z" fill="white"/>
</g>
<g opacity="0.2">
<path d="M104.899 114.963C105.119 114.948 105.284 115.088 105.299 115.308C105.313 115.515 105.153 115.703 104.916 115.719C104.661 115.735 104.455 115.559 104.434 115.252C104.396 114.683 104.787 114.372 105.164 114.316L105.186 114.631C105.01 114.664 104.808 114.807 104.79 114.995C104.806 114.981 104.857 114.964 104.9 114.962L104.899 114.963Z" fill="#1BB400"/>
</g>
<g opacity="0.2">
<path d="M113.599 98.2103L114.066 98.5904C113.62 99.0967 113.365 99.6807 113.418 100.479C113.471 101.272 113.802 101.821 114.312 102.264L113.899 102.703C113.323 102.253 112.833 101.584 112.761 100.524C112.69 99.4635 113.088 98.7354 113.598 98.2115L113.599 98.2103Z" fill="white"/>
<path d="M115.83 102.573L115.363 102.193C115.81 101.686 116.065 101.098 116.012 100.304C115.958 99.507 115.628 98.9618 115.117 98.5192L115.53 98.0799C116.106 98.5301 116.597 99.1989 116.668 100.259C116.739 101.32 116.342 102.048 115.831 102.571L115.83 102.573Z" fill="white"/>
<path d="M117.352 102.471L116.885 102.091C117.331 101.585 117.586 100.997 117.533 100.203C117.48 99.4055 117.149 98.8604 116.639 98.4177L117.051 97.9784C117.628 98.4287 118.118 99.0975 118.189 100.158C118.261 101.218 117.863 101.946 117.353 102.47L117.352 102.471Z" fill="white"/>
<path d="M119.262 99.2815C119.516 99.2647 119.741 99.4486 119.758 99.7111C119.776 99.9744 119.579 100.195 119.324 100.212C119.07 100.229 118.845 100.037 118.827 99.7735C118.809 99.5103 119.004 99.2982 119.262 99.2815ZM119.355 101.51C119.126 101.526 118.947 101.369 118.931 101.132C118.916 100.895 119.093 100.692 119.338 100.675C119.605 100.657 119.83 100.845 119.853 101.195C119.893 101.789 119.489 102.151 119.082 102.217L119.06 101.902C119.248 101.855 119.466 101.689 119.473 101.472C119.453 101.495 119.402 101.507 119.355 101.51Z" fill="white"/>
</g>
</g>
<path d="M96.9168 114.16V114.65H66.2368V108.91C66.2368 100.44 73.1068 93.5697 81.5768 93.5697C90.0468 93.5697 96.9168 100.44 96.9168 108.91V114.16Z" fill="black"/>
<path d="M90.4971 37.7896L81.5771 37.4796V28.8696L90.4971 37.7896Z" fill="#E9580C"/>
<path d="M53.887 26.7698L50.287 35.5598L48.787 34.9398C46.357 33.9498 43.577 35.1098 42.587 37.5298C41.587 39.9598 42.747 42.7298 45.177 43.7298L46.677 44.3498L43.077 53.1398L34.287 49.5298L33.667 51.0298C32.667 53.4598 29.897 54.6198 27.467 53.6298C25.047 52.6298 23.887 49.8598 24.877 47.4298L25.497 45.9298L16.707 42.3198L20.307 33.5298L21.817 34.1398C24.237 35.1398 27.017 33.9798 28.007 31.5498C29.007 29.1298 27.847 26.3498 25.417 25.3598L23.917 24.7398L27.517 15.9498L36.317 19.5598L36.927 18.0498C37.927 15.6298 40.697 14.4698 43.127 15.4598C45.557 16.4598 46.717 19.2298 45.717 21.6598L45.097 23.1598L53.887 26.7698Z" fill="#E9580C"/>
<path d="M25.497 45.9298L24.877 47.4298C23.887 49.8598 25.047 52.6298 27.467 53.6298C29.897 54.6198 32.667 53.4598 33.667 51.0298L34.287 49.5298L43.077 53.1398L46.677 44.3498L45.177 43.7298C42.747 42.7298 41.587 39.9598 42.587 37.5298C43.577 35.1098 46.357 33.9498 48.787 34.9398L50.287 35.5598L53.887 26.7698L45.097 23.1598L45.717 21.6598C46.717 19.2298 45.557 16.4598 43.127 15.4598C40.697 14.4698 37.927 15.6298 36.927 18.0498L36.317 19.5598L27.517 15.9498L23.917 24.7398L25.417 25.3598C27.847 26.3498 29.007 29.1298 28.007 31.5498C27.017 33.9798 24.237 35.1398 21.817 34.1398L20.307 33.5298L16.707 42.3198L25.497 45.9298Z" stroke="black" stroke-width="1.5" stroke-linecap="round" stroke-linejoin="round"/>
<path d="M134.287 152.12L125.207 154.91L122.407 145.83L120.857 146.31C118.347 147.08 115.687 145.67 114.917 143.17C114.147 140.66 115.557 138 118.067 137.23L119.617 136.75L116.817 127.67L144.067 119.29L152.447 146.53L143.367 149.33L142.887 147.77C142.117 145.27 139.457 143.86 136.947 144.63C134.447 145.4 133.037 148.06 133.807 150.57L134.287 152.12Z" stroke="black" stroke-width="1.5" stroke-linecap="round" stroke-linejoin="round"/>
<path d="M96.9168 114.65H128.687V72.7299H101.587V49.3499H81.5768H61.5668V72.7299H34.4668V114.65H66.2368H96.9168Z" stroke="black" stroke-width="1.5" stroke-linecap="round" stroke-linejoin="round"/>
<path d="M96.9168 114.16V108.91C96.9168 100.44 90.0468 93.5697 81.5768 93.5697C73.1068 93.5697 66.2368 100.44 66.2368 108.91V114.16" stroke="black" stroke-width="1.5" stroke-miterlimit="10"/>
<path d="M81.5771 37.4799V28.8699L90.4971 37.7899L81.5771 37.4799Z" stroke="black" stroke-width="1.5" stroke-linecap="round" stroke-linejoin="round"/>
<path d="M81.5771 49.3497V37.4797" stroke="black" stroke-width="1.5" stroke-linecap="round" stroke-linejoin="round"/>
</svg>
