<svg viewBox="0 0 756 529" fill="none" xmlns="http://www.w3.org/2000/svg">
<rect width="756" height="529" fill="white"/>
<path d="M267.947 421.787C325.57 421.787 372.283 375.092 372.283 317.491C372.283 259.89 325.57 213.195 267.947 213.195C210.324 213.195 163.612 259.89 163.612 317.491C163.612 375.092 210.324 421.787 267.947 421.787Z" fill="#E5E5E5"/>
<path d="M253.258 311.702L270.457 296.482C271.667 295.416 270.91 293.421 269.293 293.421H239.605C238.637 293.421 237.851 292.635 237.851 291.668V281.564C237.851 280.596 238.637 279.811 239.605 279.811H292.237C293.205 279.811 293.991 280.596 293.991 281.564V291.932C293.991 292.439 293.772 292.922 293.386 293.255L275.628 308.565C274.517 309.525 275.008 311.346 276.46 311.611C278.123 311.913 279.748 312.382 281.351 313.024C284.186 314.158 286.718 315.767 288.949 317.846C291.179 319.924 292.955 322.456 294.278 325.441C295.601 328.426 296.259 331.811 296.259 335.582C296.259 339.059 295.579 342.384 294.218 345.558C292.857 348.732 290.892 351.528 288.321 353.946C285.751 356.364 282.591 358.291 278.856 359.727C275.114 361.163 270.82 361.881 265.981 361.881C261.143 361.881 257.114 361.178 253.454 359.78C249.788 358.382 246.65 356.516 244.042 354.173C241.434 351.83 239.37 349.132 237.866 346.072C236.603 343.517 235.787 340.872 235.424 338.129C235.303 337.215 235.915 336.361 236.822 336.179L248.518 333.821C249.501 333.625 250.476 334.275 250.619 335.265C250.824 336.761 251.232 338.167 251.822 339.489C252.653 341.341 253.749 342.928 255.11 344.25C256.471 345.573 258.059 346.593 259.873 347.311C261.687 348.029 263.691 348.392 265.883 348.392C268.227 348.392 270.283 348.052 272.067 347.371C273.844 346.691 275.356 345.769 276.603 344.598C277.851 343.427 278.796 342.044 279.438 340.464C280.081 338.877 280.398 337.215 280.398 335.476C280.398 333.209 279.983 331.244 279.151 329.582C278.319 327.919 277.238 326.559 275.915 325.501C274.592 324.443 273.095 323.672 271.44 323.181C269.776 322.69 268.075 322.44 266.337 322.44C265.051 322.44 263.804 322.592 262.595 322.894C261.899 323.068 261.234 323.272 260.614 323.491C259.835 323.77 258.966 323.491 258.527 322.788L252.956 313.954C252.494 313.228 252.63 312.276 253.273 311.709L253.258 311.702Z" fill="#FCFCFC"/>
<path d="M387.539 221.16C445.162 221.16 491.874 174.465 491.874 116.864C491.874 59.2623 445.162 12.5674 387.539 12.5674C329.916 12.5674 283.203 59.2623 283.203 116.864C283.203 174.465 329.916 221.16 387.539 221.16Z" fill="#E5E5E5"/>
<path d="M380.969 155.45V104.311C380.969 103.344 380.183 102.558 379.215 102.558H363.438C362.47 102.558 361.684 101.772 361.684 100.805V93.5574C361.684 92.643 362.387 91.8873 363.294 91.8193C365.554 91.6455 367.664 91.2374 369.622 90.595C372.041 89.8015 374.173 88.7284 376.025 87.3606C377.877 86.0003 379.389 84.436 380.561 82.66C381.491 81.2544 382.164 79.743 382.595 78.1258C382.799 77.3625 383.487 76.8259 384.28 76.8259H394.736C395.704 76.8259 396.49 77.6119 396.49 78.5792V155.45C396.49 156.418 395.704 157.204 394.736 157.204H382.7C381.733 157.204 380.947 156.418 380.947 155.45H380.969Z" fill="#FCFCFC"/>
<path d="M607.134 486.362C664.757 486.362 711.47 439.667 711.47 382.066C711.47 324.465 664.757 277.77 607.134 277.77C549.511 277.77 502.799 324.465 502.799 382.066C502.799 439.667 549.511 486.362 607.134 486.362Z" fill="#E5E5E5"/>
<path d="M651.609 150.206C704.877 172.174 730.241 233.153 708.264 286.4" stroke="#D2D2D2" stroke-width="5" stroke-linecap="round" stroke-linejoin="round"/>
<path d="M581.203 367.625C580.356 367.579 579.661 366.945 579.555 366.106C579.525 365.849 579.495 365.569 579.472 365.282C579.396 364.375 579.358 363.468 579.358 362.561C579.358 359.085 580.001 355.745 581.286 352.526C582.572 349.314 584.439 346.503 586.903 344.084C589.36 341.666 592.362 339.724 595.915 338.25C599.468 336.776 603.55 336.043 608.162 336.043C612.774 336.043 616.607 336.724 620.122 338.084C623.637 339.444 626.624 341.281 629.081 343.585C631.538 345.89 633.405 348.596 634.698 351.687C635.983 354.785 636.625 358.035 636.625 361.435C636.625 366.725 635.265 371.471 632.543 375.666C629.821 379.86 626.041 383.427 621.203 386.374L605.554 396.009C603.815 397.143 602.265 398.352 600.904 399.637C600.247 400.264 599.672 400.952 599.188 401.723C598.455 402.886 599.309 404.398 600.685 404.398H635.325C636.293 404.398 637.079 405.184 637.079 406.151V416.368C637.079 417.336 636.293 418.122 635.325 418.122H580.462C579.464 418.122 578.671 417.29 578.708 416.293C578.807 413.481 579.139 410.784 579.699 408.199C580.379 405.063 581.453 402.116 582.927 399.357C584.401 396.599 586.344 393.992 588.771 391.536C591.19 389.079 594.176 386.759 597.729 384.56L610.884 376.399C614.361 374.207 616.871 371.94 618.421 369.597C619.971 367.254 620.749 364.647 620.749 361.776C620.749 360.189 620.485 358.677 619.956 357.241C619.426 355.805 618.633 354.543 617.574 353.44C616.516 352.344 615.17 351.475 613.552 350.833C611.927 350.19 610.014 349.873 607.822 349.873C603.286 349.873 599.922 351.233 597.729 353.954C595.537 356.674 594.441 360.037 594.441 364.043C594.441 364.798 594.478 365.539 594.554 366.249C594.554 366.249 594.554 366.264 594.554 366.272C594.667 367.353 593.813 368.29 592.725 368.237L581.203 367.632V367.625Z" fill="#FCFCFC"/>
<path d="M441.419 161.035C436.709 161.964 433.647 166.536 434.585 171.245C435.515 175.945 440.088 179.006 444.798 178.076C449.501 177.147 452.562 172.575 451.633 167.867C450.703 163.166 446.129 160.105 441.419 161.035ZM438.894 148.316C443.596 147.387 446.658 142.815 445.728 138.106C444.798 133.398 440.224 130.345 435.507 131.275C430.805 132.204 427.743 136.776 428.673 141.485C429.603 146.185 434.176 149.246 438.894 148.316ZM447.316 190.787C442.613 191.717 439.552 196.289 440.482 200.997C441.411 205.698 445.985 208.758 450.695 207.829C455.405 206.899 458.459 202.327 457.529 197.619C456.599 192.918 452.026 189.858 447.316 190.787ZM478.977 173.527L491.942 238.919L446.968 247.829L431.523 250.897C427.72 251.653 424.031 249.181 423.275 245.38L411.663 186.858L406.265 187.931C396.792 189.805 387.274 183.638 385.566 174.124C383.925 164.912 389.958 156.032 399.189 154.203L404.972 153.054L394.471 100.132L461.778 86.801L472.271 139.724L466.873 140.789C457.401 142.671 450.952 151.996 453.008 161.443C455.004 170.587 463.97 176.489 473.194 174.66L478.977 173.512V173.527Z" fill="#F2F3F5"/>
<path d="M460.417 79.9315L461.785 86.816L394.479 100.147C394.403 99.7765 394.358 99.4138 394.35 99.0511C394.214 95.6655 396.565 92.5821 399.998 91.9095L409.75 89.9749L408.684 84.5791C406.968 75.9186 411.98 67.2204 420.115 64.4998C420.145 64.4847 420.168 64.4696 420.198 64.4696C420.425 64.394 420.674 64.3184 420.909 64.258C421.128 64.1975 421.347 64.137 421.574 64.0841C421.672 64.0539 421.786 64.0312 421.891 64.0086C422.058 63.9708 422.239 63.933 422.413 63.9028C422.451 63.8877 422.496 63.8877 422.534 63.8801C422.715 63.8423 422.897 63.8196 423.078 63.797C423.35 63.7516 423.623 63.7214 423.895 63.6987C424.016 63.6836 424.144 63.6761 424.265 63.6685C429.157 63.3058 433.836 65.0666 437.261 68.2481C437.813 68.762 438.327 69.3061 438.811 69.888C439.128 70.2734 439.431 70.674 439.718 71.0896C441.003 72.9638 441.94 75.1251 442.409 77.4981L443.558 83.2793L460.417 79.939V79.9315Z" fill="#E9580C"/>
<path d="M457.529 197.626C458.459 202.327 455.405 206.899 450.695 207.836C445.993 208.765 441.419 205.705 440.481 201.004C439.551 196.304 442.613 191.732 447.316 190.794C452.018 189.865 456.592 192.926 457.529 197.626Z" fill="black"/>
<path d="M451.625 167.866C452.555 172.567 449.493 177.139 444.791 178.076C440.088 179.005 435.514 175.945 434.577 171.244C433.64 166.544 436.701 161.972 441.411 161.034C446.114 160.105 450.687 163.166 451.625 167.866Z" fill="black"/>
<path d="M445.728 138.114C446.658 142.814 443.596 147.386 438.894 148.323C434.184 149.253 429.61 146.192 428.673 141.492C427.743 136.791 430.805 132.219 435.507 131.282C440.217 130.353 444.791 133.413 445.728 138.114Z" fill="#E9580C"/>
<path d="M438.894 148.324L441.419 161.035" stroke="black" stroke-width="1.5" stroke-miterlimit="10"/>
<path d="M444.791 178.076L447.316 190.795" stroke="black" stroke-width="1.5" stroke-miterlimit="10"/>
<path d="M461.786 86.8162L472.279 139.739L466.881 140.804C457.409 142.686 450.96 152.012 453.016 161.458C455.012 170.602 463.978 176.504 473.201 174.676L478.985 173.527L491.95 238.919L446.976 247.829L431.531 250.897C427.728 251.653 424.039 249.181 423.283 245.38L411.671 186.858L406.273 187.931C396.8 189.805 387.282 183.638 385.573 174.124C383.933 164.912 389.966 156.032 399.197 154.203L404.98 153.055L394.479 100.132" stroke="black" stroke-width="1.5" stroke-miterlimit="10"/>
<path d="M394.479 100.147C394.403 99.7765 394.358 99.4137 394.35 99.051C394.214 95.6654 396.565 92.5821 399.998 91.9095L409.75 89.9749" stroke="black" stroke-width="1.5" stroke-miterlimit="10"/>
<path d="M443.566 83.2717L460.417 79.9314L461.785 86.816" stroke="black" stroke-width="1.5" stroke-miterlimit="10"/>
<path d="M437.269 68.2483C437.82 68.7546 438.334 69.3063 438.818 69.8882C439.136 70.2736 439.438 70.6741 439.726 71.0898" stroke="black" stroke-width="1.5" stroke-miterlimit="10"/>
<path d="M423.902 63.6916C424.023 63.6765 424.152 63.6689 424.273 63.6614" stroke="black" stroke-width="1.5" stroke-miterlimit="10"/>
<path d="M422.542 63.8729C422.723 63.8351 422.904 63.8125 423.086 63.7898" stroke="black" stroke-width="1.5" stroke-miterlimit="10"/>
<path d="M420.19 64.4623C420.417 64.3867 420.667 64.3111 420.901 64.2507C421.12 64.1902 421.34 64.1298 421.566 64.0769C421.665 64.0466 421.778 64.024 421.884 64.0013C422.05 63.9635 422.232 63.9257 422.406 63.8955" stroke="black" stroke-width="1.5" stroke-miterlimit="10"/>
<path d="M408.684 84.5718C406.968 75.9113 411.98 67.213 420.115 64.4924" stroke="black" stroke-width="1.5" stroke-miterlimit="10"/>
<path d="M409.75 89.9676L408.684 84.5718L408.609 84.1939C406.9 75.5637 411.965 67.1677 420.115 64.4925C420.145 64.4773 420.168 64.4622 420.198 64.4622C420.425 64.3791 420.667 64.3035 420.909 64.2506C421.128 64.1902 421.347 64.1297 421.574 64.0768C421.673 64.0466 421.786 64.0239 421.892 64.0013C421.982 63.9786 422.066 63.9635 422.156 63.9408C422.247 63.9181 422.33 63.903 422.413 63.8955C422.451 63.8803 422.497 63.8803 422.534 63.8728C422.716 63.835 422.905 63.8123 423.079 63.7897C423.351 63.7443 423.623 63.7141 423.895 63.6914C424.016 63.6763 424.145 63.6687 424.266 63.6612C429.157 63.2984 433.837 65.0593 437.261 68.2408C437.813 68.7547 438.327 69.2988 438.811 69.8807C439.129 70.2661 439.431 70.6666 439.718 71.0823C441.003 72.9565 441.941 75.1178 442.41 77.4908L443.559 83.272" stroke="black" stroke-width="1.5" stroke-miterlimit="10"/>
<path d="M623.313 40.9972C627.161 41.4733 629.89 44.9798 629.413 48.8188L492.237 31.8153L493.099 24.8627L546.715 31.5054L547.395 26.0416C548.582 16.4516 557.435 9.35544 566.991 10.7233C576.259 12.0533 582.799 20.5627 581.649 29.8958L580.924 35.745L623.313 40.9972Z" fill="#E9580C"/>
<path d="M629.414 48.8188L611.194 195.752C610.718 199.591 607.218 202.327 603.37 201.851L518.667 191.354L473.164 185.716L481.366 119.554L475.901 118.873C466.307 117.687 459.208 108.838 460.576 99.2854C461.907 90.0203 470.419 83.4834 479.756 84.6321L485.608 85.3575L492.245 31.8152L629.421 48.8188H629.414ZM598.138 108.694L599.703 96.0736L549.762 89.8918L548.197 102.505L598.138 108.694ZM595.598 129.159L597.163 116.538L547.222 110.357L545.657 122.977L595.598 129.159ZM593.058 149.623L594.623 137.003L508.673 126.355L507.108 138.975L593.058 149.623ZM590.026 178.167C590.465 174.683 587.985 171.509 584.5 171.071L546.163 166.325C545.853 166.287 545.551 166.264 545.248 166.272C542.141 166.332 539.472 168.667 539.072 171.849C538.641 175.333 541.121 178.507 544.606 178.938L582.935 183.691C583.245 183.729 583.547 183.752 583.85 183.744C586.964 183.684 589.633 181.348 590.026 178.167ZM567.452 69.5631L569.017 56.9427L518.063 50.6249L516.498 63.2453L567.452 69.5631ZM539.805 101.462L541.37 88.8414L513.753 85.418L512.189 98.0384L539.805 101.462ZM537.265 121.927L538.83 109.306L511.206 105.883L509.648 118.503L537.265 121.927Z" fill="black"/>
<path d="M599.703 96.0809L598.138 108.694L548.197 102.504L549.762 89.8916L599.703 96.0809Z" fill="white"/>
<path d="M547.155 110.347L545.59 122.961L595.527 129.152L597.092 116.538L547.155 110.347Z" fill="white"/>
<path d="M594.63 137.011L593.065 149.631L507.116 138.983L508.681 126.363L594.63 137.011ZM588.733 143.14L590.752 140.472L587.433 140.064L584.107 139.656L585.415 142.739L586.722 145.823L588.733 143.155V143.14Z" fill="white"/>
<path d="M590.752 140.471L588.733 143.139L586.715 145.814L585.414 142.731L584.106 139.648L587.433 140.063L590.752 140.471Z" fill="black"/>
<path d="M584.515 171.078C588 171.516 590.472 174.69 590.041 178.174C589.648 181.348 586.979 183.691 583.865 183.751C583.562 183.751 583.26 183.736 582.95 183.699L544.621 178.945C541.136 178.514 538.663 175.34 539.087 171.856C539.487 168.682 542.156 166.34 545.263 166.279C545.566 166.279 545.868 166.294 546.178 166.332L584.515 171.078Z" fill="#E9580C"/>
<path d="M518.005 50.6331L516.439 63.2476L567.389 69.5642L568.954 56.9498L518.005 50.6331Z" fill="white"/>
<path d="M513.691 85.421L512.126 98.0354L539.743 101.459L541.308 88.8448L513.691 85.421Z" fill="white"/>
<path d="M538.845 109.322L537.28 121.934L509.664 118.511L511.221 105.898L538.845 109.322Z" fill="white"/>
<path d="M505.498 150.039L591.946 160.755" stroke="#E9580C" stroke-width="1.5" stroke-miterlimit="10"/>
<path d="M514.887 74.3169L601.336 85.0329" stroke="#E9580C" stroke-width="1.5" stroke-miterlimit="10"/>
<path d="M587.433 140.063L590.752 140.471L588.733 143.139L586.715 145.814L585.414 142.731L584.106 139.648L587.433 140.063Z" stroke="black" stroke-width="1.5" stroke-miterlimit="10"/>
<path d="M629.414 48.8188C629.89 44.9798 627.161 41.4733 623.313 40.9972L580.924 35.745L581.65 29.8958C582.806 20.5627 576.267 12.0533 566.991 10.7233C557.427 9.35544 548.582 16.4516 547.395 26.0416L546.715 31.5054L493.099 24.8627L492.237 31.8153L485.6 85.3576L479.748 84.6321C470.412 83.4759 461.899 90.0128 460.569 99.2854C459.2 108.845 466.299 117.687 475.893 118.874L481.359 119.554L473.156 185.716L518.66 191.354L603.362 201.851C607.21 202.327 610.71 199.591 611.186 195.752L629.406 48.8188" stroke="black" stroke-width="1.5" stroke-miterlimit="10"/>
<path d="M589.323 203.559L586.677 203.091C585.029 202.803 583.933 201.232 584.22 199.592C584.507 197.952 586.072 196.848 587.72 197.136L590.366 197.604C592.007 197.891 593.111 199.463 592.823 201.103C592.68 201.927 592.219 202.607 591.583 203.06C590.941 203.499 590.14 203.703 589.323 203.559Z" fill="#E9580C"/>
<path d="M584.22 199.592C584.507 197.952 586.072 196.848 587.72 197.136L590.366 197.604C592.007 197.891 593.111 199.463 592.823 201.103C592.68 201.927 592.219 202.607 591.583 203.06C590.941 203.499 590.14 203.703 589.323 203.559L586.677 203.091C585.029 202.803 583.933 201.232 584.22 199.592Z" stroke="black" stroke-width="1.5" stroke-miterlimit="10"/>
<path d="M608.298 262.928L630.404 256.565C624.235 242.471 618.3 220.744 620.938 212.544L605.826 207.677C601.963 219.656 600.678 245.524 608.298 262.928Z" fill="black"/>
<path d="M625.739 199.206L622.05 216.089L603.566 212.053L607.255 195.17C608.374 190.069 613.409 186.835 618.512 187.953C623.615 189.072 626.858 194.105 625.739 199.206Z" fill="white"/>
<path d="M618.512 187.953C613.409 186.835 608.367 190.069 607.255 195.17L603.566 212.053L622.05 216.089L625.739 199.206C626.858 194.105 623.615 189.064 618.512 187.953Z" stroke="black" stroke-width="1.5" stroke-miterlimit="10"/>
<path d="M587.758 204.088L589.792 196.387C595.356 197.853 608.971 197.271 615.367 195.299L617.726 202.917C609.871 205.343 594.743 205.94 587.765 204.096L587.758 204.088Z" fill="white"/>
<path d="M615.367 195.292C608.971 197.264 595.356 197.846 589.792 196.38L587.758 204.08C594.743 205.924 609.863 205.335 617.718 202.902" stroke="black" stroke-width="1.5" stroke-miterlimit="10"/>
<path d="M626.836 180.903L629.996 203.265C630.26 205.146 628.839 206.854 626.934 206.93L615.692 207.398C613.666 207.482 612.064 205.69 612.373 203.68L614.762 188.324C614.966 188.438 615.193 188.536 615.413 188.619C619.692 190.319 624.545 188.226 626.246 183.949C626.647 182.943 626.836 181.916 626.836 180.896V180.903Z" fill="black"/>
<path d="M626.836 180.903C626.836 181.923 626.639 182.951 626.246 183.956C624.552 188.233 619.699 190.327 615.412 188.626C615.193 188.536 614.966 188.445 614.762 188.332L617.197 172.651C618.625 172.424 620.122 172.56 621.559 173.127C624.832 174.427 626.828 177.563 626.82 180.88C626.82 180.888 626.82 180.896 626.82 180.903H626.836Z" fill="black"/>
<path d="M610.74 177.805C611.867 174.963 614.384 173.081 617.204 172.643L614.77 188.332C610.937 186.427 609.138 181.863 610.74 177.805Z" fill="#E9580C"/>
<path d="M626.835 180.903C626.835 181.923 626.639 182.951 626.246 183.956C624.552 188.233 619.699 190.326 615.412 188.626C615.193 188.535 614.966 188.445 614.762 188.331C610.929 186.427 609.13 181.862 610.733 177.804C611.859 174.963 614.377 173.081 617.196 172.643C618.625 172.424 620.122 172.56 621.558 173.126C624.832 174.426 626.828 177.562 626.82 180.88" stroke="black" stroke-width="1.5" stroke-miterlimit="10"/>
<path d="M617.204 172.65L614.77 188.331L612.381 203.688C612.071 205.698 613.673 207.489 615.7 207.406L626.941 206.937C628.846 206.869 630.268 205.161 630.003 203.272L626.843 180.91C626.843 180.91 626.843 180.895 626.843 180.888" stroke="black" stroke-width="1.5" stroke-miterlimit="10"/>
<path d="M618.67 257.66L620.417 264.039L608.328 263.918L603.951 263.872C601.744 263.85 600.95 260.948 602.84 259.799L606.582 257.54L616.932 251.29L618.678 257.668L618.67 257.66Z" fill="black"/>
<path d="M231.44 286.241L240.225 372.121C240.641 376.164 237.692 379.776 233.648 380.192L185.453 385.119L157.896 387.938L153.799 347.87L150.488 348.21C144.682 348.807 139.299 344.552 138.815 338.733C138.346 333.096 142.482 328.1 148.129 327.519L151.675 327.156L148.356 294.728L231.44 286.234V286.241ZM223.638 350.515L222.86 342.875L170.809 348.195L171.588 355.835L223.638 350.515ZM222.368 338.114L221.589 330.473L191.342 333.564L192.121 341.205L222.368 338.114ZM221.098 325.72L220.319 318.08L190.072 321.171L190.85 328.811L221.098 325.72ZM225.702 367.73C225.483 365.622 223.6 364.088 221.491 364.299L198.274 366.672C197.216 366.778 196.309 367.307 195.681 368.063C195.061 368.826 194.729 369.823 194.835 370.881C195.054 372.99 196.936 374.524 199.053 374.312L222.27 371.939C223.328 371.834 224.235 371.305 224.855 370.549C225.475 369.786 225.808 368.788 225.702 367.73ZM197.745 306.812L196.967 299.172L166.107 302.323L166.885 309.963L197.745 306.812ZM187.04 341.726L186.262 334.086L169.531 335.794L170.31 343.434L187.04 341.726ZM185.77 329.332L184.991 321.692L168.261 323.4L169.04 331.04L185.77 329.332Z" fill="black"/>
<path d="M231.009 282.033L231.44 286.25L148.356 294.744L147.925 290.527L180.395 287.209L180.032 283.665C179.45 277.944 183.608 272.836 189.331 272.254C195.054 271.672 200.164 275.828 200.747 281.549L201.109 285.093L230.858 282.055L231.002 282.04L231.009 282.033Z" fill="#E9580C"/>
<path d="M222.859 342.875L223.638 350.515L171.587 355.835L170.809 348.195L222.859 342.875ZM220.213 347.281L221.037 345.437L219.026 345.641L217.008 345.845L218.195 347.485L219.382 349.125L220.206 347.281H220.213Z" fill="white"/>
<path d="M221.595 330.451L191.347 333.544L192.128 341.182L222.377 338.089L221.595 330.451Z" fill="white"/>
<path d="M220.324 318.055L190.076 321.147L190.858 328.793L221.106 325.7L220.324 318.055Z" fill="white"/>
<path d="M221.499 364.307C223.608 364.088 225.498 365.63 225.709 367.738C225.815 368.796 225.49 369.794 224.863 370.557C224.243 371.313 223.336 371.842 222.277 371.948L199.06 374.321C196.951 374.54 195.061 372.998 194.842 370.89C194.736 369.832 195.061 368.834 195.689 368.071C196.309 367.315 197.223 366.786 198.282 366.68L221.499 364.307Z" fill="#E9580C"/>
<path d="M221.045 345.437L220.214 347.28L219.389 349.124L218.203 347.485L217.016 345.845L219.034 345.641L221.045 345.437Z" fill="black"/>
<path d="M196.978 299.148L166.121 302.302L166.902 309.941L197.76 306.786L196.978 299.148Z" fill="white"/>
<path d="M186.271 334.062L169.545 335.772L170.326 343.411L187.053 341.701L186.271 334.062Z" fill="white"/>
<path d="M185.001 321.666L168.275 323.376L169.057 331.022L185.783 329.312L185.001 321.666Z" fill="white"/>
<mask id="mask0_2379_4941" style="mask-type:luminance" maskUnits="userSpaceOnUse" x="60" y="280" width="98" height="116">
<path d="M153.791 347.878L157.889 387.946L109.717 392.873L86.8778 395.208C82.8332 395.624 79.212 392.684 78.8038 388.633L75.4547 355.888L72.1434 356.228C66.3373 356.825 60.9622 352.571 60.4708 346.752C60.0021 341.114 64.1373 336.119 69.7922 335.537L73.3303 335.174L69.5806 298.529L96.2598 295.801L95.9196 292.491C95.3224 286.687 99.5786 281.307 105.4 280.823C111.04 280.355 116.037 284.488 116.619 290.133L116.982 293.678L147.857 290.519H147.925L148.356 294.728L151.675 327.156L148.129 327.519C142.474 328.093 138.346 333.096 138.815 338.733C139.299 344.552 144.674 348.8 150.488 348.21L153.799 347.87L153.791 347.878Z" fill="white"/>
</mask>
<g mask="url(#mask0_2379_4941)">
<path d="M212.658 273.493L61.667 247.206L27.7819 441.686L178.773 467.973L212.658 273.493Z" fill="#F2F3F5"/>
<g opacity="0.2">
<path d="M94.0743 287.605L93.6514 290.032L101.516 291.402L101.939 288.975L94.0743 287.605Z" fill="white"/>
</g>
<g opacity="0.2">
<path d="M90.9068 337.057L90.4839 339.484L98.3488 340.853L98.7717 338.426L90.9068 337.057Z" fill="white"/>
</g>
<g opacity="0.2">
<path d="M104.952 339.505L104.529 341.932L120.93 344.788L121.352 342.361L104.952 339.505Z" fill="white"/>
</g>
<g opacity="0.2">
<path d="M131.034 344.05L130.611 346.477L137.657 347.704L138.079 345.277L131.034 344.05Z" fill="white"/>
</g>
<g opacity="0.2">
<path d="M100.401 338.716L99.9785 341.143L102.906 341.652L103.328 339.225L100.401 338.716Z" fill="white"/>
</g>
<g opacity="0.2">
<path d="M122.527 342.568L122.104 344.995L125.032 345.505L125.454 343.078L122.527 342.568Z" fill="white"/>
</g>
<g opacity="0.2">
<path d="M126.858 343.321L126.435 345.748L129.362 346.258L129.785 343.831L126.858 343.321Z" fill="white"/>
</g>
<g opacity="0.2">
<path d="M85.9185 295.362L85.4956 297.79L97.2037 299.828L97.6265 297.401L85.9185 295.362Z" fill="#0082B6"/>
</g>
<g opacity="0.2">
<path d="M80.6001 325.88L80.1772 328.307L91.8853 330.346L92.3082 327.919L80.6001 325.88Z" fill="#0082B6"/>
</g>
<g opacity="0.2">
<path d="M93.6377 328.143L93.2148 330.57L112.475 333.924L112.898 331.496L93.6377 328.143Z" fill="#E9580C"/>
</g>
<g opacity="0.2">
<path d="M118.178 332.418L117.755 334.845L125.159 336.134L125.581 333.707L118.178 332.418Z" fill="#E400AE"/>
</g>
<g opacity="0.2">
<path d="M130.442 359.637L130.02 362.064L136.864 363.255L137.287 360.828L130.442 359.637Z" fill="#E400AE"/>
</g>
<g opacity="0.2">
<path d="M82.4019 344.847L81.979 347.274L89.3822 348.563L89.8051 346.136L82.4019 344.847Z" fill="#E400AE"/>
</g>
<g opacity="0.2">
<path d="M84.3579 304.304L83.9351 306.731L88.94 307.603L89.3629 305.175L84.3579 304.304Z" fill="#0082B6"/>
</g>
<g opacity="0.2">
<path d="M112.862 309.261L112.439 311.688L115.165 312.163L115.588 309.736L112.862 309.261Z" fill="#0082B6"/>
</g>
<g opacity="0.2">
<path d="M95.8384 347.183L95.4155 349.611L99.9364 350.398L100.359 347.971L95.8384 347.183Z" fill="#0082B6"/>
</g>
<g opacity="0.2">
<path d="M90.9654 305.457L90.5425 307.884L97.7073 309.131L98.1302 306.704L90.9654 305.457Z" fill="#E9580C"/>
</g>
<g opacity="0.2">
<path d="M103.692 307.665L103.27 310.092L110.434 311.339L110.857 308.912L103.692 307.665Z" fill="#E9580C"/>
</g>
<g opacity="0.2">
<path d="M117.557 310.075L117.134 312.502L124.299 313.75L124.722 311.323L117.557 310.075Z" fill="#E9580C"/>
</g>
<g opacity="0.2">
<path d="M100.395 297.878L99.9717 300.305L124.006 304.49L124.429 302.063L100.395 297.878Z" fill="#1BB400"/>
</g>
<path opacity="0.2" d="M88.8281 288.675L88.6694 289.597L86.3257 287.934L86.4769 287.05L89.2438 286.272L89.0851 287.194L87.3085 287.647L88.8281 288.675Z" fill="white"/>
<g opacity="0.2">
<path d="M127.792 302.625C128.133 302.686 128.375 303.003 128.314 303.359C128.254 303.714 127.921 303.94 127.573 303.88C127.225 303.819 126.991 303.495 127.051 303.139C127.112 302.784 127.437 302.565 127.785 302.625H127.792ZM127.195 305.618C126.885 305.565 126.696 305.301 126.757 304.976C126.817 304.651 127.112 304.447 127.445 304.5C127.807 304.56 128.042 304.885 127.959 305.354C127.823 306.155 127.165 306.502 126.605 306.457L126.681 306.034C126.946 306.034 127.286 305.883 127.369 305.595C127.331 305.618 127.263 305.618 127.203 305.611L127.195 305.618Z" fill="white"/>
</g>
<g opacity="0.2">
<path d="M126.855 311.112C127.195 311.172 127.437 311.49 127.377 311.845C127.316 312.2 126.983 312.427 126.636 312.366C126.288 312.306 126.054 311.981 126.114 311.626C126.174 311.27 126.5 311.051 126.847 311.112H126.855ZM126.258 314.104C125.948 314.052 125.759 313.787 125.819 313.462C125.88 313.137 126.174 312.933 126.507 312.986C126.87 313.046 127.104 313.371 127.021 313.84C126.885 314.641 126.227 314.989 125.668 314.943L125.744 314.52C126.008 314.52 126.348 314.369 126.432 314.082C126.394 314.104 126.326 314.104 126.265 314.097L126.258 314.104Z" fill="white"/>
</g>
<g opacity="0.2">
<path d="M99.5483 305.678L100.493 305.844L101.763 310.318L100.834 310.16L99.5559 305.686L99.5483 305.678Z" fill="white"/>
</g>
<g opacity="0.2">
<path d="M83.9294 339.505L82.9995 339.346L85.706 335.567L86.651 335.734L83.9369 339.512L83.9294 339.505Z" fill="white"/>
<path d="M85.8952 339.845L84.9653 339.686L87.6718 335.907L88.6168 336.074L85.9028 339.852L85.8952 339.845Z" fill="white"/>
</g>
<g opacity="0.2">
<path d="M93.0718 368.673L92.6489 371.101L97.7433 371.988L98.1662 369.56L93.0718 368.673Z" fill="white"/>
</g>
<g opacity="0.2">
<path d="M85.6377 367.382L85.2148 369.809L90.3092 370.696L90.7321 368.269L85.6377 367.382Z" fill="white"/>
</g>
<g opacity="0.2">
<path d="M99.6817 369.826L99.2588 372.253L115.659 375.108L116.082 372.681L99.6817 369.826Z" fill="white"/>
</g>
<g opacity="0.2">
<path d="M125.756 374.368L125.333 376.795L132.379 378.022L132.802 375.594L125.756 374.368Z" fill="white"/>
</g>
<g opacity="0.2">
<path d="M117.257 372.887L116.834 375.314L119.761 375.824L120.184 373.397L117.257 372.887Z" fill="white"/>
</g>
<g opacity="0.2">
<path d="M121.588 373.64L121.165 376.067L124.092 376.576L124.515 374.149L121.588 373.64Z" fill="white"/>
</g>
<g opacity="0.2">
<path d="M79.7184 369.536L78.7886 369.377L81.495 365.599L82.44 365.765L79.726 369.544L79.7184 369.536Z" fill="white"/>
<path d="M81.6843 369.884L80.7544 369.725L83.4609 365.947L84.4059 366.113L81.6918 369.891L81.6843 369.884Z" fill="white"/>
</g>
<g opacity="0.2">
<path d="M91.1415 347.334L91.2777 346.532L94.158 347.031L94.0219 347.832L91.1415 347.334ZM90.9224 348.611L91.066 347.795L93.9464 348.293L93.8027 349.109L90.9224 348.611Z" fill="white"/>
</g>
<g opacity="0.2">
<path d="M81.3135 351.096L80.8906 353.523L88.2938 354.812L88.7167 352.385L81.3135 351.096Z" fill="#E400AE"/>
</g>
<g opacity="0.2">
<path d="M94.7549 353.434L94.332 355.862L102.435 357.272L102.858 354.845L94.7549 353.434Z" fill="#E400AE"/>
</g>
<g opacity="0.2">
<path d="M111.516 356.35L111.093 358.777L125.892 361.354L126.315 358.927L111.516 356.35Z" fill="#E9580C"/>
</g>
<g opacity="0.2">
<path d="M90.0528 353.583L90.1888 352.782L93.0692 353.281L92.9331 354.082L90.0528 353.583ZM89.8335 354.86L89.9772 354.044L92.8575 354.543L92.7139 355.359L89.8335 354.86Z" fill="white"/>
</g>
<g opacity="0.2">
<path d="M68.6348 394.582L68.2119 397.01L75.6151 398.298L76.038 395.871L68.6348 394.582Z" fill="#E400AE"/>
</g>
<g opacity="0.2">
<path d="M104.84 356.931L104.999 356.009L106.798 356.319L106.64 357.241L104.84 356.931Z" fill="white"/>
<path d="M109.051 357.143L107.532 356.115L107.69 355.186L110.034 356.856L109.883 357.74L107.116 358.511L107.275 357.596L109.051 357.143Z" fill="white"/>
</g>
<g opacity="0.2">
<path d="M117.79 348.943L118.289 349.6C117.533 350.129 117.004 350.825 116.815 351.898C116.626 352.971 116.891 353.802 117.427 354.558L116.74 355.004C116.12 354.218 115.689 353.175 115.938 351.739C116.188 350.311 116.951 349.472 117.798 348.943H117.79Z" fill="white"/>
<path d="M119.348 355.457L118.849 354.799C119.605 354.27 120.134 353.575 120.323 352.502C120.512 351.429 120.247 350.598 119.71 349.842L120.398 349.396C121.018 350.182 121.449 351.225 121.2 352.661C120.95 354.097 120.187 354.928 119.34 355.457H119.348Z" fill="white"/>
<path d="M123.037 351.867C123.377 351.928 123.619 352.245 123.559 352.6C123.498 352.955 123.166 353.182 122.818 353.122C122.47 353.061 122.236 352.736 122.296 352.381C122.357 352.026 122.682 351.807 123.03 351.867H123.037ZM122.44 354.86C122.13 354.807 121.941 354.542 122.001 354.217C122.062 353.892 122.357 353.688 122.689 353.741C123.052 353.802 123.287 354.127 123.203 354.595C123.067 355.396 122.41 355.744 121.85 355.699L121.926 355.275C122.19 355.275 122.531 355.124 122.614 354.837C122.576 354.86 122.508 354.86 122.447 354.852L122.44 354.86Z" fill="white"/>
</g>
<g opacity="0.2">
<path d="M129.531 357.43L130.03 358.087C129.274 358.616 128.745 359.312 128.556 360.385C128.367 361.458 128.631 362.289 129.168 363.045L128.48 363.491C127.86 362.705 127.429 361.662 127.679 360.226C127.928 358.79 128.692 357.959 129.539 357.43H129.531Z" fill="white"/>
<path d="M137.719 365.1L137.22 364.443C137.976 363.914 138.505 363.219 138.694 362.146C138.883 361.072 138.618 360.241 138.082 359.485L138.769 359.04C139.389 359.825 139.82 360.868 139.571 362.304C139.321 363.733 138.558 364.571 137.711 365.1H137.719Z" fill="white"/>
<path d="M141.657 361.548C141.997 361.609 142.239 361.926 142.179 362.281C142.118 362.637 141.786 362.863 141.438 362.803C141.09 362.742 140.856 362.417 140.916 362.062C140.977 361.707 141.302 361.488 141.65 361.548H141.657ZM141.06 364.541C140.75 364.488 140.561 364.224 140.621 363.899C140.682 363.574 140.977 363.37 141.309 363.422C141.672 363.483 141.907 363.808 141.823 364.276C141.687 365.077 141.03 365.425 140.47 365.38L140.546 364.957C140.81 364.957 141.151 364.805 141.234 364.518C141.196 364.541 141.128 364.541 141.067 364.533L141.06 364.541Z" fill="white"/>
</g>
<g opacity="0.2">
<path d="M80.2622 357.308L79.8394 359.735L87.2425 361.024L87.6654 358.597L80.2622 357.308Z" fill="#E400AE"/>
</g>
<g opacity="0.2">
<path d="M93.6958 359.646L93.2729 362.073L101.376 363.484L101.799 361.057L93.6958 359.646Z" fill="#E400AE"/>
</g>
<g opacity="0.2">
<path d="M110.46 362.557L110.037 364.984L118.371 366.435L118.794 364.008L110.46 362.557Z" fill="#E9580C"/>
</g>
<g opacity="0.2">
<path d="M89.002 359.795L89.1381 358.994L92.0184 359.493L91.8824 360.294L89.002 359.795ZM88.7827 361.073L88.9264 360.256L91.8067 360.755L91.6631 361.571L88.7827 361.073Z" fill="white"/>
</g>
<g opacity="0.2">
<path d="M103.79 363.143L103.948 362.221L105.748 362.531L105.589 363.453L103.79 363.143Z" fill="white"/>
<path d="M108 363.355L106.481 362.327L106.64 361.397L108.983 363.068L108.832 363.952L106.065 364.723L106.224 363.808L108 363.355Z" fill="white"/>
</g>
<g opacity="0.2">
<path d="M122.304 362.886L122.803 363.543C122.047 364.072 121.517 364.768 121.328 365.841C121.139 366.914 121.404 367.745 121.941 368.501L121.253 368.947C120.633 368.161 120.202 367.118 120.451 365.682C120.701 364.254 121.464 363.415 122.311 362.886H122.304Z" fill="white"/>
<path d="M123.853 369.4L123.354 368.742C124.11 368.213 124.64 367.518 124.829 366.445C125.018 365.372 124.753 364.541 124.216 363.785L124.904 363.339C125.524 364.125 125.955 365.168 125.706 366.604C125.456 368.04 124.693 368.871 123.846 369.4H123.853Z" fill="white"/>
<path d="M127.422 365.788C127.762 365.849 128.004 366.166 127.943 366.521C127.883 366.877 127.55 367.103 127.203 367.043C126.855 366.982 126.62 366.657 126.681 366.302C126.741 365.947 127.067 365.728 127.414 365.788H127.422ZM126.825 368.781C126.515 368.728 126.326 368.464 126.386 368.139C126.447 367.814 126.741 367.61 127.074 367.662C127.437 367.723 127.671 368.048 127.588 368.516C127.452 369.318 126.794 369.665 126.235 369.62L126.31 369.197C126.575 369.197 126.915 369.045 126.998 368.758C126.961 368.781 126.893 368.781 126.832 368.773L126.825 368.781Z" fill="white"/>
</g>
<g opacity="0.2">
<path d="M83.2598 310.597L82.8369 313.024L87.8419 313.896L88.2648 311.468L83.2598 310.597Z" fill="#0082B6"/>
</g>
<g opacity="0.2">
<path d="M89.8741 311.748L89.4512 314.176L102.597 316.464L103.02 314.037L89.8741 311.748Z" fill="#E9580C"/>
</g>
<g opacity="0.2">
<path d="M101.871 348.225L101.448 350.652L114.594 352.941L115.017 350.514L101.871 348.225Z" fill="#E9580C"/>
</g>
<g opacity="0.2">
<path d="M77.1397 375.079L76.7168 377.506L94.6141 380.622L95.0369 378.195L77.1397 375.079Z" fill="#E400AE"/>
</g>
<g opacity="0.2">
<path d="M102.215 379.445L101.792 381.872L106.313 382.659L106.736 380.232L102.215 379.445Z" fill="#0082B6"/>
</g>
<g opacity="0.2">
<path d="M125.459 383.491L125.036 385.918L129.556 386.705L129.979 384.278L125.459 383.491Z" fill="#0082B6"/>
</g>
<g opacity="0.2">
<path d="M97.023 379.512L97.1591 378.711L100.039 379.209L99.9034 380.011L97.023 379.512ZM96.8037 380.789L96.9474 379.973L99.8277 380.471L99.6841 381.288L96.8037 380.789Z" fill="white"/>
</g>
<g opacity="0.2">
<path d="M123.959 381.167L124.458 381.824C123.702 382.353 123.173 383.048 122.984 384.122C122.795 385.195 123.06 386.026 123.596 386.782L122.908 387.228C122.289 386.442 121.858 385.399 122.107 383.963C122.357 382.527 123.12 381.696 123.967 381.167H123.959Z" fill="white"/>
</g>
<g opacity="0.2">
<path d="M108.247 380.494L107.824 382.921L120.969 385.21L121.392 382.783L108.247 380.494Z" fill="#E9580C"/>
</g>
<g opacity="0.2">
<path d="M131.892 384.608L131.469 387.035L154.483 391.042L154.906 388.615L131.892 384.608Z" fill="#E9580C"/>
</g>
<g opacity="0.2">
<path d="M109.759 315.207L109.336 317.635L128.545 320.979L128.967 318.552L109.759 315.207Z" fill="#E9580C"/>
</g>
<g opacity="0.2">
<path d="M131.111 318.344C131.451 318.405 131.693 318.722 131.633 319.077C131.572 319.432 131.24 319.659 130.892 319.599C130.544 319.538 130.31 319.213 130.37 318.858C130.431 318.503 130.756 318.284 131.104 318.344H131.111ZM130.514 321.337C130.204 321.284 130.015 321.019 130.075 320.694C130.136 320.37 130.431 320.166 130.763 320.218C131.126 320.279 131.361 320.604 131.278 321.072C131.142 321.873 130.484 322.221 129.924 322.176L130 321.753C130.264 321.753 130.605 321.601 130.688 321.314C130.65 321.337 130.582 321.337 130.522 321.329L130.514 321.337Z" fill="white"/>
</g>
<g opacity="0.2">
<path d="M105.271 313.16L106.216 313.326L107.486 317.8L106.556 317.642L105.279 313.168L105.271 313.16Z" fill="white"/>
</g>
<g opacity="0.2">
<path d="M82.1617 316.891L81.7388 319.318L86.7437 320.189L87.1666 317.762L82.1617 316.891Z" fill="#0082B6"/>
</g>
<g opacity="0.2">
<path d="M88.7769 318.052L88.354 320.479L95.5189 321.726L95.9417 319.299L88.7769 318.052Z" fill="#E9580C"/>
</g>
<g opacity="0.2">
<path d="M101.054 320.181L100.631 322.608L108.236 323.932L108.659 321.505L101.054 320.181Z" fill="#E9580C"/>
</g>
<g opacity="0.2">
<path d="M114.471 322.515L114.048 324.942L141.457 329.714L141.879 327.287L114.471 322.515Z" fill="#E9580C"/>
</g>
<g opacity="0.2">
<path d="M143.865 327.042C144.205 327.103 144.447 327.42 144.387 327.775C144.326 328.13 143.994 328.357 143.646 328.297C143.298 328.236 143.064 327.911 143.124 327.556C143.185 327.201 143.51 326.982 143.858 327.042H143.865ZM143.268 330.035C142.958 329.982 142.769 329.717 142.829 329.392C142.89 329.068 143.185 328.863 143.517 328.916C143.88 328.977 144.115 329.302 144.031 329.77C143.895 330.571 143.238 330.919 142.678 330.874L142.754 330.45C143.018 330.45 143.359 330.299 143.442 330.012C143.404 330.035 143.336 330.035 143.275 330.027L143.268 330.035Z" fill="white"/>
</g>
<g opacity="0.2">
<path d="M96.9023 318.193L97.8473 318.359L99.1175 322.833L98.1876 322.675L96.9099 318.201L96.9023 318.193Z" fill="white"/>
</g>
<g opacity="0.2">
<path d="M110.374 320.536L111.319 320.702L112.589 325.176L111.659 325.017L110.382 320.543L110.374 320.536Z" fill="white"/>
</g>
<g opacity="0.2">
<path d="M116.611 330.398L117.11 331.055C116.354 331.584 115.825 332.279 115.636 333.353C115.447 334.426 115.712 335.257 116.248 336.013L115.56 336.459C114.94 335.673 114.51 334.63 114.759 333.194C115.008 331.758 115.772 330.927 116.619 330.398H116.611Z" fill="white"/>
</g>
<g opacity="0.2">
<path d="M126.349 338.34L125.85 337.683C126.606 337.154 127.135 336.459 127.324 335.386C127.513 334.312 127.248 333.481 126.711 332.725L127.399 332.28C128.019 333.065 128.45 334.108 128.201 335.544C127.951 336.98 127.188 337.811 126.341 338.34H126.349Z" fill="white"/>
<path d="M130.99 337.781C130.93 338.144 131.111 338.28 131.331 338.317L131.497 338.348L131.361 339.126L131.119 339.088C130.423 338.967 129.962 338.529 130.106 337.698L130.257 336.821C130.325 336.451 130.121 336.262 129.796 336.209L129.94 335.37C130.265 335.431 130.514 335.325 130.582 334.955L130.733 334.085C130.877 333.254 131.467 332.997 132.155 333.118L132.397 333.156L132.26 333.934L132.094 333.904C131.882 333.866 131.656 333.927 131.595 334.289L131.421 335.287C131.361 335.642 131.126 335.884 130.733 335.929C131.081 336.103 131.225 336.413 131.164 336.768L130.99 337.766V337.781Z" fill="white"/>
</g>
<g opacity="0.2">
<path d="M68.4386 385.739C68.4991 385.376 68.741 385.135 69.1265 385.089C68.7712 384.915 68.6352 384.606 68.6957 384.25L68.8695 383.253C68.93 382.89 68.7486 382.754 68.5294 382.724L68.363 382.694L68.4991 381.915L68.741 381.953C69.4365 382.074 69.8977 382.512 69.7541 383.344L69.6028 384.213C69.5348 384.583 69.7389 384.764 70.064 384.817L69.9204 385.656C69.5953 385.596 69.3458 385.709 69.2778 386.079L69.1265 386.948C68.9829 387.78 68.3932 388.037 67.7053 387.916L67.4634 387.878L67.5994 387.099L67.7658 387.13C67.9775 387.168 68.2042 387.099 68.2647 386.737L68.4386 385.739Z" fill="white"/>
</g>
<g opacity="0.2">
<path d="M125.744 301.975C126.039 302.028 126.212 302.27 126.16 302.565C126.114 302.844 125.834 303.041 125.517 302.988C125.177 302.927 124.958 302.625 125.026 302.217C125.162 301.446 125.782 301.159 126.296 301.212L126.22 301.635C125.978 301.62 125.661 301.748 125.577 301.99C125.6 301.975 125.676 301.975 125.736 301.983L125.744 301.975Z" fill="#1BB400"/>
</g>
<g opacity="0.2">
<path d="M99.1627 297.35C99.4575 297.403 99.6314 297.645 99.5785 297.94C99.5331 298.219 99.2534 298.416 98.9359 298.363C98.5957 298.302 98.3765 298 98.4445 297.592C98.5806 296.821 99.2005 296.534 99.7146 296.587L99.639 297.01C99.397 296.995 99.0795 297.123 98.9964 297.365C99.0191 297.35 99.0947 297.35 99.1552 297.358L99.1627 297.35Z" fill="#1BB400"/>
</g>
<g opacity="0.2">
<path d="M158.085 387.106L158.584 387.764C157.828 388.293 157.299 388.988 157.11 390.061C156.921 391.134 157.186 391.966 157.722 392.721L157.034 393.167C156.415 392.381 155.984 391.338 156.233 389.903C156.483 388.474 157.246 387.635 158.093 387.106H158.085Z" fill="white"/>
</g>
<path opacity="0.2" d="M90.6728 288.403C90.7181 288.131 90.8618 287.852 91.2398 287.648L91.5497 287.489C91.6934 287.413 91.7765 287.307 91.7992 287.171C91.8294 286.983 91.7161 286.779 91.459 286.733C91.202 286.688 91.0054 286.854 90.96 287.103C90.9449 287.209 90.9373 287.285 90.9449 287.307L89.9849 287.141C89.9849 287.066 89.9848 286.983 90.0075 286.884C90.1284 286.189 90.7484 285.698 91.6178 285.849C92.6081 286.023 92.9559 286.703 92.8576 287.285C92.7744 287.753 92.5023 288.041 92.1016 288.237L91.8446 288.365C91.6405 288.471 91.512 288.57 91.4666 288.811L90.6501 288.668C90.6501 288.592 90.6501 288.486 90.6652 288.396L90.6728 288.403ZM91.0281 289.031C91.3457 289.083 91.5422 289.363 91.4893 289.688C91.4364 290.013 91.1491 290.202 90.8316 290.141C90.5141 290.081 90.3175 289.801 90.3704 289.492C90.4234 289.182 90.7106 288.978 91.0281 289.031Z" fill="white"/>
</g>
<path d="M64.2128 246.605L61.0301 215.469L87.9815 212.711L87.9436 212.341L87.5808 208.796C86.9986 203.075 91.1567 197.967 96.8796 197.385C102.603 196.803 107.713 200.959 108.295 206.68L108.658 210.224L108.696 210.595L139.367 207.459L142.618 238.586L139.072 238.949C133.357 239.531 129.191 244.64 129.773 250.36C130.355 256.081 135.466 260.238 141.189 259.656L144.734 259.293L147.849 290.428V290.519L116.982 293.678L116.619 290.134C116.044 284.481 111.039 280.355 105.4 280.823C99.5784 281.307 95.3298 286.68 95.9195 292.492L96.2596 295.802L69.5805 298.53L69.5048 298.447L66.3221 267.319L62.8445 267.674C57.1215 268.256 52.011 264.099 51.4289 258.379C50.8468 252.658 55.0047 247.549 60.7276 246.967L64.2052 246.612L64.2128 246.605Z" fill="#A5A19D"/>
<path d="M230.858 281.949V282.04L201.117 285.086L200.754 281.541C200.172 275.821 195.054 271.657 189.338 272.246C183.615 272.828 179.45 277.937 180.04 283.657L180.402 287.202L147.925 290.519H147.857L147.849 290.436L144.734 259.301L141.189 259.663C135.473 260.245 130.363 256.081 129.773 250.368C129.191 244.647 133.349 239.539 139.072 238.949L142.618 238.586L139.367 207.466H139.427L171.905 204.133L171.867 203.771L171.504 200.226C170.915 194.506 175.08 189.397 180.803 188.815C186.526 188.226 191.637 192.39 192.219 198.11L192.582 201.655L192.619 202.017L222.368 198.979L228.023 254.29L230.858 281.949Z" fill="white"/>
<path d="M197.753 306.82L166.901 309.971L166.114 302.331L196.974 299.179L197.753 306.82Z" stroke="black" stroke-width="1.5" stroke-miterlimit="10"/>
<path d="M222.278 371.939L199.068 374.312C196.951 374.532 195.061 372.997 194.85 370.889C194.744 369.831 195.069 368.833 195.697 368.07C196.316 367.307 197.231 366.785 198.282 366.68L221.499 364.307C223.608 364.088 225.498 365.622 225.71 367.73C225.816 368.788 225.49 369.786 224.863 370.549C224.251 371.312 223.336 371.834 222.278 371.939Z" stroke="black" stroke-width="1.5" stroke-miterlimit="10"/>
<path d="M185.778 329.332L169.055 331.04L168.269 323.4L184.999 321.692L185.778 329.332Z" stroke="black" stroke-width="1.5" stroke-miterlimit="10"/>
<path d="M221.106 325.721L190.85 328.819L190.072 321.171L220.319 318.08L221.106 325.721Z" stroke="black" stroke-width="1.5" stroke-miterlimit="10"/>
<path d="M186.284 334.024L169.551 335.741L170.335 343.379L187.069 341.662L186.284 334.024Z" stroke="black" stroke-width="1.5" stroke-miterlimit="10"/>
<path d="M222.376 338.114L192.12 341.212L191.342 333.572L221.589 330.481L222.376 338.114Z" stroke="black" stroke-width="1.5" stroke-miterlimit="10"/>
<path d="M222.873 342.851L170.822 348.173L171.603 355.811L223.654 350.489L222.873 342.851Z" stroke="black" stroke-width="1.5" stroke-miterlimit="10"/>
<path d="M231.44 286.241L240.225 372.121C240.64 376.171 237.692 379.784 233.647 380.192L185.452 385.119L157.889 387.938" stroke="black" stroke-width="1.5" stroke-miterlimit="10"/>
<path d="M153.791 347.87L150.48 348.21C144.674 348.8 139.299 344.553 138.815 338.734C138.346 333.104 142.482 328.101 148.129 327.527L151.675 327.164" stroke="black" stroke-width="1.5" stroke-miterlimit="10"/>
<path d="M148.355 294.736L151.674 327.164" stroke="black" stroke-width="1.5" stroke-miterlimit="10"/>
<path d="M153.791 347.87L157.889 387.938L109.724 392.865L86.8852 395.193C82.833 395.609 79.2194 392.669 78.8036 388.626L75.4545 355.881L72.1432 356.213C66.3371 356.81 60.962 352.555 60.4782 346.744C60.0094 341.106 64.1372 336.111 69.792 335.529L73.3377 335.166L69.5879 298.529L96.2672 295.801L95.9346 292.491C95.3373 286.687 99.586 281.307 105.407 280.823C111.047 280.355 116.044 284.488 116.626 290.141L116.989 293.678L147.857 290.526H147.925" stroke="black" stroke-width="1.5" stroke-miterlimit="10"/>
<path d="M201.117 285.085L230.866 282.04L231.009 282.025L231.44 286.242L148.356 294.736L147.925 290.519L180.403 287.201" stroke="black" stroke-width="1.5" stroke-miterlimit="10"/>
<path d="M180.402 287.202L180.04 283.658C179.45 277.937 183.615 272.828 189.338 272.246C195.054 271.657 200.172 275.821 200.754 281.542L201.117 285.086" stroke="black" stroke-width="1.5" stroke-miterlimit="10"/>
<path d="M139.367 207.466L142.618 238.587L139.072 238.949C133.349 239.539 129.191 244.647 129.773 250.368C130.363 256.081 135.473 260.245 141.189 259.664L144.734 259.301L147.849 290.436" stroke="black" stroke-width="1.5" stroke-miterlimit="10"/>
<path d="M230.858 281.949L228.023 254.29L222.368 198.979L192.619 202.017L192.582 201.655L192.219 198.11C191.637 192.39 186.526 188.226 180.803 188.815C175.08 189.397 170.915 194.506 171.504 200.226L171.867 203.771L171.905 204.133L139.427 207.459" stroke="black" stroke-width="1.5" stroke-miterlimit="10"/>
<path d="M66.3976 267.304L66.3296 267.311L69.5123 298.439" stroke="black" stroke-width="1.5" stroke-miterlimit="10"/>
<path d="M64.2736 246.597H64.213L60.7354 246.959C55.0125 247.541 50.8546 252.65 51.4367 258.371C52.0188 264.091 57.1294 268.255 62.8523 267.666L66.3299 267.311" stroke="black" stroke-width="1.5" stroke-miterlimit="10"/>
<path d="M139.427 207.458H139.367L108.688 210.595L108.658 210.232L108.295 206.688C107.705 200.967 102.595 196.803 96.872 197.392C91.1567 197.974 86.9911 203.083 87.5732 208.804L87.936 212.348L87.9739 212.718L61.0225 215.469L64.2128 246.604" stroke="black" stroke-width="1.5" stroke-miterlimit="10"/>
<path d="M81.1017 389.797L83.7477 389.329C85.3882 389.041 86.4919 387.477 86.2047 385.83C85.9174 384.182 84.3449 383.086 82.7044 383.374L80.0584 383.842C78.4103 384.129 77.3141 385.701 77.6014 387.341C77.745 388.172 78.2138 388.853 78.8412 389.298C79.4687 389.744 80.2852 389.941 81.1017 389.797Z" fill="#E9580C"/>
<path d="M86.2047 385.829C85.9174 384.19 84.3449 383.086 82.7044 383.373L80.0584 383.842C78.4103 384.129 77.3141 385.701 77.6014 387.341C77.745 388.172 78.2138 388.852 78.8412 389.298C79.4687 389.744 80.2852 389.941 81.1017 389.797L83.7477 389.328C85.3882 389.041 86.4919 387.477 86.2047 385.829Z" stroke="black" stroke-width="1.5" stroke-miterlimit="10"/>
<path d="M61.3398 435.541L59.7295 441.949L71.8179 441.579L76.1876 441.443C78.3951 441.375 79.1285 438.458 77.2158 437.354L73.4282 435.17L62.9576 429.132L61.3473 435.541H61.3398Z" fill="black"/>
<path d="M57.0154 435.677C57.0305 436.879 58.104 437.801 59.2985 437.642L72.0976 435.881C73.1862 435.73 73.9574 434.717 73.8062 433.621L68.6125 395.866L56.5693 397.521L57.0154 435.677Z" fill="#E9580C"/>
<path d="M59.2985 437.634L72.0976 435.873C73.1862 435.722 73.9574 434.71 73.8062 433.614L68.6125 395.858L56.5693 397.513L57.0154 435.669C57.0305 436.871 58.104 437.793 59.2985 437.634Z" stroke="black" stroke-width="1.5" stroke-miterlimit="10"/>
<path d="M52.1321 438.216L50.3857 444.595L62.4742 444.474L66.8514 444.428C69.0589 444.406 69.8527 441.504 67.9627 440.355L64.2205 438.095L53.8709 431.846L52.1245 438.224L52.1321 438.216Z" fill="black"/>
<path d="M48.178 436.72C48.0192 437.914 48.9415 438.979 50.1511 438.987L63.0711 439.07C64.1749 439.07 65.0821 438.186 65.0821 437.075L65.3316 398.964L53.1751 398.889L48.1855 436.72H48.178Z" fill="#E9580C"/>
<path d="M50.1514 438.987L63.0714 439.07C64.1751 439.07 65.0824 438.186 65.0824 437.075L65.3318 398.964L53.1754 398.889L48.1858 436.72C48.027 437.914 48.9493 438.979 50.1589 438.987H50.1514Z" stroke="black" stroke-width="1.5" stroke-miterlimit="10"/>
<path d="M248.011 433.07L249.622 440.702L237.533 440.257L233.164 440.098C230.956 440.015 230.223 436.538 232.135 435.223L235.923 432.624L246.394 425.437L248.004 433.07H248.011Z" fill="black"/>
<path d="M252.336 433.228C252.321 434.664 251.255 435.767 250.06 435.571L237.261 433.477C236.165 433.304 235.402 432.094 235.553 430.787L240.746 385.845L252.79 387.817L252.336 433.236V433.228Z" fill="#E9580C"/>
<path d="M250.06 435.563L237.261 433.47C236.165 433.296 235.402 432.087 235.553 430.78L240.746 385.837L252.79 387.81L252.336 433.228C252.321 434.664 251.255 435.767 250.06 435.571V435.563Z" stroke="black" stroke-width="1.5" stroke-miterlimit="10"/>
<path d="M260.917 436.251L262.663 443.838L250.575 443.687L246.197 443.634C243.99 443.604 243.196 440.15 245.086 438.79L248.828 436.1L259.178 428.656L260.924 436.243L260.917 436.251Z" fill="black"/>
<path d="M264.878 434.468C265.037 435.889 264.115 437.166 262.905 437.173L249.985 437.272C248.873 437.272 247.974 436.221 247.966 434.899L247.717 389.533L259.881 389.442L264.87 434.468H264.878Z" fill="#E9580C"/>
<path d="M262.897 437.173L249.977 437.272C248.866 437.272 247.966 436.221 247.958 434.899L247.709 389.533L259.873 389.442L264.863 434.468C265.021 435.889 264.099 437.166 262.889 437.173H262.897Z" stroke="black" stroke-width="1.5" stroke-miterlimit="10"/>
<path d="M49.0322 385.444L52.7215 402.327L71.1981 398.292L67.5088 381.409C66.39 376.308 61.3551 373.073 56.2521 374.192C51.1491 375.31 47.9134 380.343 49.0322 385.444Z" fill="white"/>
<path d="M56.2521 374.192C61.3551 373.073 66.3975 376.308 67.5088 381.409L71.1981 398.292L52.7215 402.327L49.0322 385.444C47.9134 380.343 51.1491 375.303 56.2521 374.192Z" stroke="black" stroke-width="1.5" stroke-miterlimit="10"/>
<path d="M31.2209 372.363C28.8773 373.746 28.4616 376.965 30.3818 378.892L39.6958 388.301C41.8504 390.478 45.5396 389.669 46.5905 386.797L51.3306 373.829C50.1135 372.937 49.123 371.706 48.5258 370.194C47.1574 366.748 48.2461 362.939 50.9602 360.695L31.2209 372.363Z" fill="black"/>
<path d="M48.5258 370.187C49.123 371.698 50.1059 372.93 51.3306 373.822L54.9745 363.839L64.0314 364.043C62.3304 359.765 57.4845 357.672 53.1979 359.372L50.9526 360.695C48.2386 362.939 47.1574 366.748 48.5182 370.194L48.5258 370.187Z" fill="black"/>
<path d="M54.9744 363.839L51.3306 373.822C53.5608 375.469 56.5696 375.961 59.3517 374.857C63.6307 373.157 65.7323 368.313 64.0313 364.035L54.9744 363.831V363.839Z" fill="#E9580C"/>
<path d="M64.0314 364.035L54.9745 363.831L51.3306 373.814L46.5905 386.782C45.5396 389.654 41.8504 390.462 39.6958 388.286L30.3818 378.877C28.4616 376.95 28.8773 373.731 31.2209 372.348L50.9602 360.679L53.2055 359.357" stroke="black" stroke-width="1.5" stroke-miterlimit="10"/>
<path d="M50.96 360.695C48.2459 362.939 47.1648 366.748 48.5256 370.194C49.1228 371.706 50.1057 372.937 51.3304 373.829C53.5606 375.477 56.5695 375.968 59.3515 374.865C63.6305 373.164 65.7321 368.32 64.0311 364.043C62.3301 359.765 57.4842 357.672 53.1977 359.372C52.3661 359.705 51.6101 360.158 50.9524 360.695H50.96Z" stroke="black" stroke-width="1.5" stroke-miterlimit="10"/>
<path d="M57.8623 370.028C58.1874 370.844 59.1097 371.245 59.9262 370.92C60.7426 370.595 61.1433 369.673 60.8182 368.856" stroke="white" stroke-width="1.5" stroke-miterlimit="10"/>
<path d="M82.6593 390.327L80.6257 382.626C75.0615 384.092 61.4459 383.51 55.0501 381.538L52.6914 389.155C60.5462 391.581 75.6738 392.178 82.6517 390.334L82.6593 390.327Z" fill="white"/>
<path d="M55.0577 381.53C61.4535 383.503 75.0691 384.085 80.6332 382.619L82.6668 390.319C75.6814 392.163 60.5614 391.574 52.7065 389.14" stroke="black" stroke-width="1.5" stroke-miterlimit="10"/>
<path d="M239.386 372.93L238.411 392.828L260.214 393.893L261.189 373.995C261.484 367.98 256.85 362.856 250.832 362.561C244.814 362.267 239.688 366.907 239.393 372.93H239.386Z" fill="#E9580C"/>
<path d="M250.824 362.569C256.842 362.864 261.484 367.987 261.181 374.003L260.206 393.901L238.403 392.835L239.378 372.937C239.673 366.922 244.799 362.274 250.816 362.569H250.824Z" stroke="black" stroke-width="1.5" stroke-linecap="round" stroke-linejoin="round"/>
<path d="M251.398 348.014C247.074 347.243 242.931 350.115 242.16 354.445C241.381 358.768 244.254 362.902 248.586 363.68C252.918 364.451 257.053 361.579 257.832 357.257C258.603 352.926 255.73 348.793 251.406 348.014H251.398Z" fill="#C1410C"/>
<path d="M242.16 354.445C241.381 358.768 244.254 362.902 248.586 363.68C252.918 364.451 257.053 361.579 257.832 357.257C258.603 352.926 255.73 348.793 251.406 348.014C247.082 347.243 242.939 350.115 242.168 354.445H242.16Z" stroke="black" stroke-width="1.5" stroke-linecap="round" stroke-linejoin="round"/>
<path d="M262.119 359.388L256.865 351.959C257.9 353.576 258.346 355.572 257.983 357.612C257.613 359.683 256.471 361.413 254.914 362.585L260.932 361.98C262.194 361.852 262.86 360.416 262.119 359.388Z" fill="black"/>
<path d="M247.301 348.77V348.785L249.818 361.579C249.985 362.418 250.756 362.992 251.61 362.909L254.914 362.576C256.471 361.405 257.613 359.675 257.983 357.604C258.354 355.563 257.907 353.568 256.864 351.951L256.395 351.279C255.231 349.797 253.545 348.732 251.549 348.369C250.068 348.105 248.609 348.263 247.301 348.77Z" fill="black"/>
<path d="M256.396 351.286L256.864 351.959C256.721 351.724 256.569 351.498 256.396 351.286Z" fill="#C1410C"/>
<path d="M247.309 348.785L249.818 361.579C249.985 362.418 250.756 362.993 251.61 362.909L254.914 362.577L260.932 361.972C262.194 361.844 262.859 360.408 262.119 359.38L256.864 351.952L256.396 351.279L256.343 351.203" stroke="black" stroke-width="1.5" stroke-linecap="round" stroke-linejoin="round"/>
<path d="M224.311 363.355L222.141 361.768C220.795 360.778 220.5 358.889 221.491 357.544C222.481 356.198 224.379 355.911 225.717 356.894L227.887 358.481C229.24 359.471 229.52 361.367 228.537 362.705C228.045 363.378 227.32 363.793 226.556 363.907C225.792 364.02 224.984 363.846 224.303 363.355H224.311Z" fill="#E9580C"/>
<path d="M221.498 357.536C222.489 356.191 224.386 355.904 225.724 356.886L227.894 358.473C229.247 359.463 229.527 361.36 228.544 362.697C228.053 363.37 227.327 363.786 226.564 363.899C225.8 364.012 224.991 363.839 224.311 363.347L222.141 361.76C220.795 360.77 220.5 358.881 221.491 357.536H221.498Z" stroke="black" stroke-width="1.5" stroke-miterlimit="10"/>
<path d="M224.969 365.411L230.208 359.403C234.547 363.181 247.006 368.69 253.614 369.756L252.351 377.63C244.232 376.323 230.412 370.156 224.969 365.411Z" fill="#E9580C"/>
<path d="M253.621 369.756C247.014 368.69 234.548 363.181 230.216 359.403L224.977 365.411C230.42 370.156 244.239 376.323 252.359 377.63" stroke="black" stroke-width="1.5" stroke-miterlimit="10"/>
<path d="M178.664 247.134L178.921 249.311C178.974 249.734 178.565 250.059 178.165 249.923L169.312 246.938C169.1 246.87 168.949 246.681 168.926 246.462L168.616 243.885C168.594 243.666 168.692 243.447 168.881 243.333L176.781 238.323C177.137 238.096 177.613 238.323 177.658 238.738L177.915 240.885C177.945 241.111 177.832 241.331 177.643 241.444L173.251 244.081C172.827 244.338 172.903 244.973 173.379 245.124L178.271 246.651C178.49 246.719 178.641 246.908 178.671 247.134H178.664Z" fill="#E9580C"/>
<path d="M198.471 241.066L193.579 239.539C193.36 239.471 193.209 239.282 193.179 239.055L192.922 236.909C192.869 236.486 193.277 236.161 193.678 236.297L202.538 239.297C202.75 239.365 202.901 239.554 202.924 239.773L203.233 242.35C203.256 242.569 203.158 242.789 202.969 242.902L195.069 247.89C194.713 248.116 194.237 247.89 194.192 247.474L193.935 245.298C193.905 245.071 194.018 244.852 194.207 244.738L198.599 242.101C199.023 241.844 198.947 241.209 198.471 241.058V241.066Z" fill="#E9580C"/>
<path d="M184.523 249.862L182.323 250.127C181.9 250.18 181.575 249.772 181.711 249.371L186.851 234.325C186.919 234.113 187.108 233.97 187.328 233.939L189.573 233.667C189.996 233.614 190.321 234.022 190.185 234.423L185.007 249.477C184.939 249.688 184.75 249.832 184.53 249.862H184.523Z" fill="#E9580C"/>
<path d="M563.876 467.568L565.229 469.91L566.582 467.568L567.936 465.232H562.523L563.876 467.568ZM570.703 462.073V472.351H500.689V462.073H570.703Z" fill="white"/>
<path d="M570.695 445.395H530.015V455.672H570.695V445.395Z" fill="white"/>
<path d="M570.695 428.724H530.015V439.002H570.695V428.724Z" fill="white"/>
<path d="M571.111 495.544C571.111 496.965 570.536 498.25 569.606 499.179C568.684 500.109 567.391 500.683 565.977 500.683H534.755C531.92 500.683 529.614 498.378 529.614 495.537C529.614 494.116 530.188 492.831 531.118 491.909C532.041 490.98 533.333 490.405 534.747 490.405H565.97C568.805 490.405 571.111 492.703 571.111 495.544Z" fill="#E9580C"/>
<path d="M565.229 469.918L563.876 467.567L562.522 465.232H565.229H567.935L566.582 467.567L565.229 469.918Z" fill="black"/>
<path d="M542.194 400.385H500.689V410.662H542.194V400.385Z" fill="white"/>
<path d="M523.195 445.395H500.689V455.672H523.195V445.395Z" fill="white"/>
<path d="M523.195 428.724H500.689V439.002H523.195V428.724Z" fill="white"/>
<path d="M535.692 363.498C543.388 363.498 549.625 369.732 549.625 377.426V382.187H589.829V387.854H478.085V382.187H521.759V377.426C521.759 369.732 527.996 363.498 535.692 363.498Z" fill="#E9580C"/>
<path d="M523.195 428.724H500.689V439.001H523.195V428.724ZM589.837 503.366C589.837 508.807 585.422 513.22 579.979 513.22H478.093V459.323H473.64C465.83 459.323 459.245 452.929 459.397 445.13C459.54 437.558 465.724 431.467 473.33 431.467H478.093V387.855H589.837V503.366ZM570.703 439.001V428.724H530.022V439.001H570.703ZM542.194 410.662V400.384H500.689V410.662H542.194ZM569.606 499.179C570.536 498.249 571.111 496.965 571.111 495.544C571.111 492.71 568.813 490.405 565.97 490.405H534.747C533.326 490.405 532.041 490.98 531.118 491.909C530.189 492.831 529.614 494.123 529.614 495.536C529.614 498.37 531.912 500.683 534.755 500.683H565.978C567.399 500.683 568.684 500.109 569.606 499.179ZM570.703 472.344V462.066H500.689V472.344H570.703ZM530.022 445.395V455.673H570.703V445.395H530.022ZM523.195 455.673V445.395H500.689V455.673H523.195Z" fill="black"/>
<path d="M408.616 382.187V377.736C408.616 369.929 415.004 363.347 422.814 363.498C430.381 363.642 436.475 369.823 436.475 377.426V382.187H478.085V431.475H473.322C465.717 431.475 459.533 437.566 459.389 445.138C459.238 452.945 465.823 459.33 473.632 459.33H478.085V513.228H382.579C377.136 513.228 372.721 508.814 372.721 503.373V459.33H368.268C360.459 459.33 353.882 452.937 354.025 445.138C354.169 437.566 360.353 431.475 367.958 431.475H372.721V382.187H408.616Z" fill="#F2F3F5"/>
<path d="M542.194 400.385H500.689V410.662H542.194V400.385Z" stroke="black" stroke-miterlimit="10"/>
<path d="M565.97 500.691H534.747C531.912 500.691 529.606 498.386 529.606 495.544C529.606 494.123 530.181 492.839 531.111 491.917C532.033 490.987 533.326 490.413 534.74 490.413H565.962C568.797 490.413 571.103 492.71 571.103 495.552C571.103 496.972 570.529 498.257 569.599 499.187C568.676 500.116 567.384 500.691 565.97 500.691Z" stroke="black" stroke-miterlimit="10"/>
<path d="M523.195 428.724H500.689V439.002H523.195V428.724Z" stroke="black" stroke-miterlimit="10"/>
<path d="M570.695 428.724H530.015V439.002H570.695V428.724Z" stroke="black" stroke-miterlimit="10"/>
<path d="M523.195 445.396H500.689V455.673H523.195V445.396Z" stroke="black" stroke-miterlimit="10"/>
<path d="M570.695 445.396H530.015V455.673H570.695V445.396Z" stroke="black" stroke-miterlimit="10"/>
<path d="M570.703 462.074H500.689V472.351H570.703V462.074Z" stroke="black" stroke-miterlimit="10"/>
<path d="M589.837 387.855V503.366C589.837 508.807 585.422 513.22 579.978 513.22H478.092" stroke="black" stroke-miterlimit="10"/>
<path d="M478.085 513.22V459.323H473.632C465.822 459.323 459.238 452.93 459.389 445.131C459.532 437.558 465.716 431.467 473.322 431.467H478.085V387.855" stroke="black" stroke-miterlimit="10"/>
<path d="M478.092 382.187V387.855V431.467" stroke="black" stroke-miterlimit="10"/>
<path d="M478.092 459.323V513.221H382.579C377.136 513.221 372.721 508.807 372.721 503.366V459.323H368.268C360.459 459.323 353.882 452.93 354.025 445.131C354.169 437.558 360.353 431.467 367.958 431.467H372.721V382.18H408.616V377.728C408.616 369.922 415.004 363.34 422.814 363.491C430.381 363.634 436.475 369.816 436.475 377.419V382.18H478.085" stroke="black" stroke-miterlimit="10"/>
<path d="M549.625 382.187H589.64H589.837V387.855H478.093H478.085V382.187H478.093H521.767" stroke="black" stroke-miterlimit="10"/>
<path d="M521.767 382.188V377.427C521.767 369.733 528.004 363.499 535.7 363.499C543.396 363.499 549.633 369.733 549.633 377.427V382.188" stroke="black" stroke-miterlimit="10"/>
<path d="M478.085 340.193H478.001V382.067" stroke="black" stroke-width="1.5" stroke-linecap="round" stroke-linejoin="round"/>
<path d="M478.085 312.337H473.322C465.626 312.337 459.389 318.579 459.389 326.265C459.389 333.95 465.626 340.192 473.322 340.192H477.994" stroke="black" stroke-width="1.5" stroke-linecap="round" stroke-linejoin="round"/>
<path d="M589.64 382.066V270.47H549.625V265.21C549.625 257.517 543.388 251.282 535.692 251.282C527.996 251.282 521.759 257.517 521.759 265.21V270.47H477.994V312.337" stroke="black" stroke-width="1.5" stroke-linecap="round" stroke-linejoin="round"/>
<path d="M500.485 481.383H570.907" stroke="#E9580C" stroke-width="1.5" stroke-miterlimit="10"/>
<path d="M500.485 419.694H570.907" stroke="#E9580C" stroke-width="1.5" stroke-miterlimit="10"/>
<path d="M381.649 416.089L385.513 421.455L374.142 425.558L370.03 427.039C367.951 427.787 366.197 425.346 367.565 423.616L370.287 420.193L377.801 410.723L381.665 416.089H381.649Z" fill="black"/>
<path d="M398.909 424.19L405.207 426.201L398.516 436.267L396.097 439.909C394.872 441.746 392.007 440.831 392.075 438.624L392.219 434.256L392.612 422.18L398.909 424.19Z" fill="black"/>
<path d="M398.161 346.593C404.534 347.621 408.866 353.614 407.838 359.984L405.214 380.646L381.355 377.336L384.757 356.259C385.785 349.888 391.788 345.558 398.168 346.585L398.161 346.593Z" fill="white"/>
<path d="M392.218 336.24L391.772 336.995C391.909 336.731 392.045 336.482 392.218 336.24Z" fill="#C1410C"/>
<path d="M398.161 346.593C391.788 345.565 385.777 349.895 384.749 356.266L381.347 377.343L405.207 380.653L407.83 359.992C408.858 353.621 404.526 347.628 398.153 346.6L398.161 346.593Z" stroke="black" stroke-width="1.5" stroke-linecap="round" stroke-linejoin="round"/>
<path d="M390.676 359.591C392.604 363.589 396.187 367.261 402.213 370.035L399.499 375.944C394.63 373.7 390.767 370.775 387.939 367.284" stroke="black" stroke-width="1.5" stroke-linecap="round" stroke-linejoin="round"/>
<path d="M391.523 343.714L402.999 332.832C402.561 332.62 402.092 332.446 401.601 332.325C397.05 331.131 392.385 333.86 391.191 338.416C390.707 340.253 390.866 342.097 391.523 343.722V343.714Z" fill="black"/>
<path d="M407.694 342.732C408.76 338.666 406.704 334.517 403.007 332.824L391.531 343.714C392.498 346.147 394.562 348.105 397.284 348.808C401.843 350.002 406.5 347.273 407.694 342.732Z" fill="#E9580C"/>
<path d="M403.007 332.824C402.569 332.62 402.1 332.446 401.609 332.325C397.057 331.131 392.393 333.86 391.198 338.416C390.715 340.253 390.873 342.097 391.531 343.722C392.499 346.155 394.563 348.112 397.284 348.815C401.843 350.009 406.5 347.281 407.694 342.739C408.76 338.673 406.704 334.525 403.007 332.832V332.824Z" stroke="black" stroke-width="1.5" stroke-linecap="round" stroke-linejoin="round"/>
<path d="M402.999 332.832L391.523 343.714" stroke="black" stroke-width="1.5" stroke-linecap="round" stroke-linejoin="round"/>
<path d="M387.766 389.563C387.244 389.435 383.267 388.505 381.733 390.183C379.608 392.526 379.094 399.871 384.023 413.489L369.803 418.636C363.286 400.619 363.558 387.598 370.627 379.928C377.053 372.96 386.405 373.179 390.911 374.404L404.859 378.673C404.904 379.006 408.911 413.315 407.603 431.339L389.504 430.017C390.268 419.497 388.839 400.801 387.766 389.563Z" fill="#E9580C"/>
<path d="M387.766 389.563C387.372 385.392 387.025 382.248 386.858 380.933" stroke="black" stroke-width="1.5" stroke-linecap="round" stroke-linejoin="round"/>
<path d="M387.766 389.563C387.244 389.435 383.267 388.505 381.733 390.183C379.608 392.526 379.094 399.871 384.023 413.489L369.803 418.636C363.286 400.619 363.558 387.598 370.627 379.928C377.053 372.96 386.405 373.179 390.911 374.404L404.859 378.673C404.904 379.006 408.911 413.315 407.603 431.339L389.504 430.017C390.268 419.497 388.839 400.801 387.766 389.563Z" stroke="black" stroke-width="1.5" stroke-linecap="round" stroke-linejoin="round"/>
<path d="M410.377 369.355C410.226 371.426 411.784 373.225 413.863 373.376C415.934 373.527 417.733 371.97 417.885 369.892C418.036 367.814 416.478 366.023 414.399 365.872C412.32 365.72 410.529 367.277 410.377 369.355ZM428.695 361.118L427.244 381.114L397.616 378.968L397.972 373.996L399.06 358.972L428.695 361.118Z" fill="#A5A19D"/>
<path d="M413.855 373.375C411.776 373.224 410.219 371.418 410.37 369.355C410.521 367.277 412.321 365.72 414.392 365.871C416.463 366.022 418.028 367.821 417.877 369.892C417.726 371.962 415.919 373.527 413.855 373.375Z" fill="white"/>
<path d="M397.972 373.988L397.616 378.96L385.989 374.585C385.188 374.275 385.445 373.073 386.314 373.141L397.972 373.988Z" fill="#A5A19D"/>
<path d="M397.616 378.96L385.989 374.585C385.188 374.275 385.445 373.073 386.314 373.141L397.972 373.988" stroke="black" stroke-width="1.5" stroke-linecap="round" stroke-linejoin="round"/>
<path d="M397.972 373.988L399.06 358.964L428.695 361.111L427.244 381.107L397.616 378.961L397.972 373.988Z" stroke="black" stroke-width="1.5" stroke-linecap="round" stroke-linejoin="round"/>
<path d="M400.149 344.311C399.333 343.986 398.932 343.064 399.257 342.248" stroke="white" stroke-width="1.5" stroke-miterlimit="10"/>
<path d="M402.213 343.419C401.888 344.235 400.965 344.636 400.149 344.311" stroke="white" stroke-width="1.5" stroke-miterlimit="10"/>
<path d="M452.578 310.447C469.081 310.447 482.477 320.468 482.477 332.832C482.477 345.195 469.081 355.208 452.578 355.208C444.609 355.208 437.367 352.873 432.022 349.072L422.247 354.649C420.811 355.473 419.344 353.644 420.448 352.42L427.327 344.81C424.386 341.341 422.678 337.237 422.678 332.832C422.678 320.468 436.059 310.447 452.578 310.447Z" fill="white"/>
<path d="M452.578 310.447C436.059 310.447 422.678 320.468 422.678 332.832C422.678 337.237 424.387 341.341 427.328 344.81L420.448 352.42C419.352 353.644 420.811 355.48 422.247 354.649L432.022 349.072C437.375 352.873 444.61 355.208 452.578 355.208C469.081 355.208 482.478 345.187 482.478 332.832C482.478 320.476 469.081 310.447 452.578 310.447Z" stroke="black" stroke-width="1.5" stroke-miterlimit="10"/>
<path d="M444.496 337.169V339.36C444.496 339.784 444.057 340.063 443.672 339.882L435.235 335.869C435.031 335.771 434.91 335.574 434.91 335.348V332.756C434.91 332.536 435.038 332.332 435.235 332.234L443.672 328.199C444.057 328.017 444.496 328.297 444.496 328.72V330.881C444.496 331.108 444.36 331.312 444.156 331.403L439.483 333.496C439.03 333.7 439.03 334.343 439.483 334.547L444.156 336.64C444.36 336.731 444.496 336.935 444.496 337.161V337.169Z" fill="#E9580C"/>
<path d="M464.885 333.496L460.213 331.403C460.009 331.312 459.873 331.108 459.873 330.881V328.72C459.873 328.297 460.311 328.017 460.697 328.199L469.134 332.234C469.33 332.332 469.459 332.529 469.459 332.756V335.348C469.459 335.567 469.33 335.771 469.134 335.869L460.697 339.882C460.311 340.063 459.873 339.784 459.873 339.36V337.169C459.873 336.942 460.009 336.738 460.213 336.647L464.885 334.554C465.338 334.35 465.338 333.708 464.885 333.504V333.496Z" fill="#E9580C"/>
<path d="M449.992 340.57H447.769C447.346 340.57 447.066 340.124 447.248 339.746L454.142 325.418C454.241 325.221 454.437 325.093 454.664 325.093H456.924C457.348 325.093 457.628 325.539 457.446 325.917L450.514 340.245C450.415 340.442 450.219 340.57 449.992 340.57Z" fill="#E9580C"/>
<path d="M726.597 282.259L707.674 290.118L706.866 289.786L698.996 270.87" stroke="#D2D2D2" stroke-width="5" stroke-linecap="round" stroke-linejoin="round"/>
<path d="M310.503 485.955C258.361 510.47 196.203 488.094 171.678 435.972" stroke="#D2D2D2" stroke-width="5" stroke-linecap="round" stroke-linejoin="round"/>
<path d="M162.379 452.302L169.327 433.024L170.113 432.654L189.399 439.599" stroke="#D2D2D2" stroke-width="5" stroke-linecap="round" stroke-linejoin="round"/>
<path d="M124.73 155.36C133.152 98.3788 186.193 59.0061 243.203 67.4248" stroke="#D2D2D2" stroke-width="5" stroke-linecap="round" stroke-linejoin="round"/>
<path d="M234.736 50.6477L246.953 67.092L246.824 67.9611L230.366 80.1735" stroke="#D2D2D2" stroke-width="5" stroke-linecap="round" stroke-linejoin="round"/>
</svg>
