<svg viewBox="0 0 293 317" fill="none" xmlns="http://www.w3.org/2000/svg">
<path d="M250.393 121.498L261.207 227.251C261.716 232.236 258.092 236.678 253.107 237.187L193.785 243.251L159.863 246.721L154.818 197.382L150.744 197.798C143.595 198.528 136.976 193.295 136.379 186.133C135.803 179.192 140.889 173.041 147.843 172.331L152.205 171.882L148.124 131.95L250.393 121.491V121.498ZM240.792 200.645L239.827 191.232L175.755 197.784L176.72 207.198L240.792 200.645ZM239.231 185.376L238.266 175.969L201.028 179.775L201.993 189.182L239.231 185.376ZM237.67 170.113L236.705 160.7L199.467 164.505L200.431 173.919L237.67 170.113ZM243.338 221.844C243.07 219.244 240.752 217.355 238.152 217.623L209.577 220.544C208.277 220.678 207.158 221.328 206.388 222.259C205.624 223.197 205.215 224.43 205.349 225.73C205.617 228.33 207.942 230.219 210.542 229.951L239.117 227.03C240.417 226.896 241.536 226.246 242.3 225.315C243.064 224.383 243.472 223.144 243.338 221.844ZM208.927 146.838L207.962 137.431L169.98 141.317L170.945 150.724L208.927 146.838ZM195.748 189.825L194.783 180.418L174.194 182.522L175.159 191.929L195.748 189.825ZM194.187 174.562L193.222 165.149L172.633 167.252L173.598 176.666L194.187 174.562Z" fill="black"/>
<path d="M249.858 116.312L250.387 121.505L148.118 131.963L147.589 126.771L187.561 122.684L187.112 118.322C186.395 111.28 191.514 104.989 198.556 104.265C205.597 103.542 211.889 108.667 212.612 115.709L213.061 120.071L249.677 116.325L249.858 116.305V116.312Z" fill="#E9580C"/>
<path d="M239.828 191.232L240.793 200.645L176.721 207.198L175.756 197.784L239.828 191.232ZM236.572 196.659L237.59 194.387L235.111 194.642L232.632 194.896L234.093 196.913L235.553 198.93L236.572 196.659Z" fill="white"/>
<path d="M238.275 175.937L201.036 179.746L201.998 189.15L239.237 185.342L238.275 175.937Z" fill="white"/>
<path d="M236.709 160.671L199.471 164.48L200.433 173.891L237.672 170.082L236.709 160.671Z" fill="white"/>
<path d="M238.153 217.623C240.752 217.355 243.07 219.244 243.338 221.844C243.472 223.144 243.064 224.376 242.3 225.314C241.536 226.252 240.417 226.896 239.117 227.03L210.542 229.951C207.942 230.219 205.617 228.329 205.349 225.73C205.215 224.43 205.624 223.197 206.388 222.259C207.152 221.328 208.277 220.678 209.577 220.544L238.153 217.623Z" fill="#E9580C"/>
<path d="M237.59 194.387L236.572 196.658L235.553 198.93L234.093 196.913L232.639 194.89L235.118 194.635L237.59 194.387Z" fill="black"/>
<path d="M207.962 137.4L169.983 141.284L170.945 150.689L208.924 146.804L207.962 137.4Z" fill="white"/>
<path d="M194.787 180.388L174.198 182.493L175.16 191.898L195.749 189.792L194.787 180.388Z" fill="white"/>
<path d="M193.228 165.122L172.64 167.228L173.602 176.639L194.191 174.533L193.228 165.122Z" fill="white"/>
<mask id="mask0_2322_3490" style="mask-type:luminance" maskUnits="userSpaceOnUse" x="39" y="114" width="121" height="142">
<path d="M154.819 197.389L159.864 246.728L100.575 252.791L72.4622 255.666C67.4774 256.175 63.0286 252.557 62.5194 247.572L58.3989 207.251L54.3253 207.667C47.1764 208.397 40.5635 203.164 39.9605 196.002C39.3843 189.061 44.4696 182.91 51.4309 182.193L55.7859 181.745L51.1696 136.627L84.013 133.27L83.5976 129.196C82.8673 122.048 88.1 115.428 95.2623 114.832C102.204 114.255 108.354 119.341 109.064 126.295L109.513 130.657L147.516 126.771H147.596L148.125 131.95L152.206 171.882L147.844 172.331C140.889 173.041 135.804 179.199 136.38 186.133C136.977 193.295 143.596 198.528 150.745 197.798L154.819 197.382V197.389Z" fill="white"/>
</mask>
<g mask="url(#mask0_2322_3490)">
<path d="M227.302 105.805L41.4414 73.4336L-0.266843 312.905L185.594 345.276L227.302 105.805Z" fill="#F2F3F5"/>
<g opacity="0.2">
<path d="M81.3098 123.149L80.7891 126.139L90.4722 127.825L90.993 124.835L81.3098 123.149Z" fill="white"/>
</g>
<g opacity="0.2">
<path d="M77.4046 184.058L76.8838 187.048L86.5669 188.734L87.0877 185.744L77.4046 184.058Z" fill="white"/>
</g>
<g opacity="0.2">
<path d="M94.6927 187.065L94.1719 190.055L114.357 193.57L114.877 190.58L94.6927 187.065Z" fill="white"/>
</g>
<g opacity="0.2">
<path d="M126.789 192.648L126.269 195.638L134.942 197.149L135.463 194.159L126.789 192.648Z" fill="white"/>
</g>
<g opacity="0.2">
<path d="M89.0843 186.092L88.5635 189.082L92.1674 189.71L92.6882 186.72L89.0843 186.092Z" fill="white"/>
</g>
<g opacity="0.2">
<path d="M116.321 190.827L115.8 193.817L119.404 194.444L119.925 191.454L116.321 190.827Z" fill="white"/>
</g>
<g opacity="0.2">
<path d="M121.657 191.755L121.136 194.745L124.74 195.373L125.26 192.383L121.657 191.755Z" fill="white"/>
</g>
<g opacity="0.2">
<path d="M71.2561 132.708L70.7354 135.698L85.1445 138.207L85.6653 135.217L71.2561 132.708Z" fill="#0082B6"/>
</g>
<g opacity="0.2">
<path d="M64.7112 170.286L64.1904 173.276L78.5996 175.786L79.1204 172.796L64.7112 170.286Z" fill="#0082B6"/>
</g>
<g opacity="0.2">
<path d="M80.762 173.075L80.2412 176.065L103.944 180.193L104.465 177.203L80.762 173.075Z" fill="#E9580C"/>
</g>
<g opacity="0.2">
<path d="M110.967 178.338L110.446 181.328L119.562 182.916L120.083 179.925L110.967 178.338Z" fill="#E400AE"/>
</g>
<g opacity="0.2">
<path d="M126.071 211.853L125.55 214.844L133.979 216.312L134.5 213.322L126.071 211.853Z" fill="#E400AE"/>
</g>
<g opacity="0.2">
<path d="M66.9329 193.636L66.4121 196.626L75.5276 198.214L76.0484 195.224L66.9329 193.636Z" fill="#E400AE"/>
</g>
<g opacity="0.2">
<path d="M69.3411 143.717L68.8203 146.708L74.9853 147.781L75.5061 144.791L69.3411 143.717Z" fill="#0082B6"/>
</g>
<g opacity="0.2">
<path d="M104.418 149.821L103.897 152.811L107.257 153.397L107.778 150.406L104.418 149.821Z" fill="#0082B6"/>
</g>
<g opacity="0.2">
<path d="M83.4788 196.515L82.958 199.505L88.5223 200.474L89.0431 197.484L83.4788 196.515Z" fill="#0082B6"/>
</g>
<g opacity="0.2">
<path d="M77.4798 145.136L76.959 148.126L85.7774 149.662L86.2982 146.672L77.4798 145.136Z" fill="#E9580C"/>
</g>
<g opacity="0.2">
<path d="M93.138 147.859L92.6172 150.849L101.436 152.385L101.956 149.395L93.138 147.859Z" fill="#E9580C"/>
</g>
<g opacity="0.2">
<path d="M110.205 150.833L109.685 153.823L118.503 155.359L119.024 152.368L110.205 150.833Z" fill="#E9580C"/>
</g>
<g opacity="0.2">
<path d="M89.0774 135.812L88.5566 138.802L118.141 143.955L118.661 140.965L89.0774 135.812Z" fill="#1BB400"/>
</g>
<path opacity="0.2" d="M74.8543 124.493L74.6534 125.632L71.7656 123.589L71.9532 122.497L75.3635 121.539L75.1692 122.671L72.9851 123.227L74.8543 124.487V124.493Z" fill="white"/>
<g opacity="0.2">
<path d="M122.813 141.672C123.235 141.746 123.53 142.134 123.456 142.577C123.383 143.019 122.967 143.293 122.545 143.22C122.123 143.146 121.828 142.744 121.908 142.302C121.989 141.86 122.384 141.598 122.813 141.672ZM122.076 145.35C121.694 145.283 121.466 144.955 121.533 144.56C121.6 144.164 121.969 143.903 122.378 143.977C122.82 144.057 123.114 144.453 123.014 145.035C122.84 146.027 122.036 146.449 121.346 146.396L121.44 145.873C121.768 145.873 122.19 145.685 122.284 145.337C122.244 145.364 122.156 145.364 122.076 145.35Z" fill="white"/>
</g>
<g opacity="0.2">
<path d="M121.661 152.124C122.083 152.198 122.378 152.586 122.304 153.029C122.23 153.471 121.815 153.746 121.393 153.672C120.971 153.598 120.676 153.196 120.756 152.754C120.837 152.312 121.232 152.05 121.661 152.124ZM120.924 155.802C120.542 155.735 120.314 155.407 120.381 155.012C120.448 154.617 120.816 154.355 121.225 154.429C121.667 154.509 121.962 154.905 121.862 155.488C121.687 156.479 120.883 156.901 120.193 156.848L120.287 156.325C120.615 156.325 121.038 156.137 121.131 155.789C121.091 155.816 121.004 155.816 120.924 155.802Z" fill="white"/>
</g>
<g opacity="0.2">
<path d="M88.0469 145.431L89.206 145.632L90.767 151.139L89.6214 150.938L88.0469 145.431Z" fill="white"/>
</g>
<g opacity="0.2">
<path d="M68.8244 187.085L67.6787 186.884L71.0086 182.227L72.1677 182.428L68.8244 187.078V187.085Z" fill="white"/>
<path d="M71.2365 187.507L70.0908 187.306L73.4207 182.65L74.5798 182.851L71.2365 187.5V187.507Z" fill="white"/>
</g>
<g opacity="0.2">
<path d="M80.0667 222.982L79.5459 225.972L85.8165 227.064L86.3373 224.074L80.0667 222.982Z" fill="white"/>
</g>
<g opacity="0.2">
<path d="M70.9153 221.386L70.3945 224.377L76.6651 225.469L77.1859 222.479L70.9153 221.386Z" fill="white"/>
</g>
<g opacity="0.2">
<path d="M88.2024 224.401L87.6816 227.391L107.866 230.907L108.387 227.917L88.2024 224.401Z" fill="white"/>
</g>
<g opacity="0.2">
<path d="M120.306 229.985L119.785 232.975L128.458 234.486L128.979 231.496L120.306 229.985Z" fill="white"/>
</g>
<g opacity="0.2">
<path d="M109.835 228.17L109.314 231.16L112.918 231.788L113.439 228.798L109.835 228.17Z" fill="white"/>
</g>
<g opacity="0.2">
<path d="M115.166 229.091L114.646 232.081L118.249 232.709L118.77 229.719L115.166 229.091Z" fill="white"/>
</g>
<g opacity="0.2">
<path d="M63.6388 224.069L62.4932 223.868L65.823 219.211L66.9821 219.412L63.6388 224.062V224.069Z" fill="white"/>
<path d="M66.0578 224.491L64.9121 224.29L68.242 219.633L69.4011 219.834L66.0578 224.484V224.491Z" fill="white"/>
</g>
<g opacity="0.2">
<path d="M77.7015 196.726L77.8757 195.734L81.42 196.351L81.2458 197.342L77.7015 196.726ZM77.4268 198.294L77.601 197.289L81.1453 197.905L80.9711 198.91L77.4268 198.294Z" fill="white"/>
</g>
<g opacity="0.2">
<path d="M65.5969 201.328L65.0762 204.318L74.1916 205.906L74.7124 202.916L65.5969 201.328Z" fill="#E400AE"/>
</g>
<g opacity="0.2">
<path d="M82.1399 204.21L81.6191 207.2L91.5927 208.937L92.1135 205.947L82.1399 204.21Z" fill="#E400AE"/>
</g>
<g opacity="0.2">
<path d="M102.765 207.801L102.244 210.791L120.455 213.963L120.976 210.972L102.765 207.801Z" fill="#E9580C"/>
</g>
<g opacity="0.2">
<path d="M76.3616 204.424L76.5358 203.433L80.0802 204.049L79.906 205.041L76.3616 204.424ZM76.0869 205.992L76.2611 204.987L79.8054 205.604L79.6312 206.609L76.0869 205.992Z" fill="white"/>
</g>
<g opacity="0.2">
<path d="M49.9856 254.871L49.4648 257.861L58.5803 259.449L59.1011 256.459L49.9856 254.871Z" fill="#E400AE"/>
</g>
<g opacity="0.2">
<path d="M94.5586 208.545L94.7596 207.406L96.9706 207.794L96.7696 208.933L94.5586 208.545Z" fill="white"/>
<path d="M99.7379 208.799L97.8686 207.54L98.0696 206.394L100.951 208.444L100.763 209.536L97.3594 210.488L97.5537 209.362L99.7379 208.806V208.799Z" fill="white"/>
</g>
<g opacity="0.2">
<path d="M110.505 198.709L111.115 199.52C110.183 200.17 109.533 201.021 109.299 202.347C109.064 203.674 109.393 204.699 110.049 205.624L109.198 206.18C108.435 205.215 107.899 203.922 108.207 202.16C108.515 200.398 109.453 199.366 110.498 198.709H110.505Z" fill="white"/>
<path d="M112.414 206.729L111.805 205.918C112.736 205.268 113.386 204.411 113.62 203.091C113.855 201.771 113.527 200.739 112.87 199.814L113.721 199.258C114.485 200.223 115.021 201.516 114.712 203.278C114.404 205.04 113.466 206.072 112.421 206.729H112.414Z" fill="white"/>
<path d="M116.957 202.3C117.379 202.374 117.673 202.762 117.6 203.205C117.526 203.647 117.111 203.921 116.689 203.848C116.266 203.774 115.972 203.372 116.052 202.93C116.132 202.488 116.528 202.226 116.957 202.3ZM116.22 205.978C115.838 205.911 115.61 205.583 115.677 205.188C115.744 204.792 116.112 204.531 116.521 204.605C116.963 204.685 117.258 205.081 117.158 205.663C116.983 206.655 116.179 207.077 115.489 207.024L115.583 206.501C115.911 206.501 116.333 206.313 116.427 205.965C116.387 205.992 116.3 205.992 116.22 205.978Z" fill="white"/>
</g>
<g opacity="0.2">
<path d="M124.957 209.155L125.567 209.965C124.635 210.615 123.985 211.466 123.751 212.793C123.516 214.119 123.845 215.144 124.501 216.069L123.651 216.625C122.887 215.66 122.351 214.367 122.659 212.605C122.967 210.843 123.905 209.811 124.95 209.155H124.957Z" fill="white"/>
<path d="M135.034 218.602L134.424 217.791C135.355 217.141 136.005 216.284 136.24 214.964C136.474 213.644 136.146 212.612 135.489 211.688L136.34 211.131C137.104 212.096 137.64 213.389 137.332 215.151C137.023 216.914 136.085 217.945 135.04 218.602H135.034Z" fill="white"/>
<path d="M139.877 214.227C140.3 214.301 140.594 214.689 140.521 215.131C140.447 215.574 140.032 215.848 139.609 215.775C139.187 215.701 138.893 215.299 138.973 214.857C139.053 214.414 139.449 214.153 139.877 214.227ZM139.141 217.905C138.759 217.838 138.531 217.51 138.598 217.115C138.665 216.719 139.033 216.458 139.442 216.532C139.884 216.612 140.179 217.007 140.078 217.59C139.904 218.582 139.1 219.004 138.41 218.95L138.504 218.428C138.832 218.428 139.254 218.24 139.348 217.892C139.308 217.919 139.221 217.919 139.141 217.905Z" fill="white"/>
</g>
<g opacity="0.2">
<path d="M64.304 208.98L63.7832 211.971L72.8987 213.558L73.4195 210.568L64.304 208.98Z" fill="#E400AE"/>
</g>
<g opacity="0.2">
<path d="M80.845 211.869L80.3242 214.859L90.2978 216.596L90.8186 213.606L80.845 211.869Z" fill="#E400AE"/>
</g>
<g opacity="0.2">
<path d="M101.469 215.452L100.948 218.442L111.206 220.229L111.726 217.239L101.469 215.452Z" fill="#E9580C"/>
</g>
<g opacity="0.2">
<path d="M75.0687 212.076L75.2429 211.084L78.7871 211.701L78.6129 212.692L75.0687 212.076ZM74.7939 213.644L74.9682 212.639L78.5125 213.255L78.3383 214.26L74.7939 213.644Z" fill="white"/>
</g>
<g opacity="0.2">
<path d="M93.2656 216.189L93.4667 215.05L95.6777 215.439L95.4767 216.578L93.2656 216.189Z" fill="white"/>
<path d="M98.4449 216.451L96.5756 215.191L96.7766 214.045L99.6576 216.096L99.47 217.188L96.0664 218.139L96.2607 217.014L98.4449 216.457V216.451Z" fill="white"/>
</g>
<g opacity="0.2">
<path d="M116.053 215.875L116.662 216.685C115.731 217.335 115.081 218.186 114.847 219.513C114.612 220.839 114.94 221.864 115.597 222.789L114.746 223.345C113.982 222.38 113.446 221.087 113.755 219.325C114.063 217.563 115.001 216.531 116.046 215.875H116.053Z" fill="white"/>
<path d="M117.962 223.901L117.353 223.09C118.284 222.441 118.934 221.583 119.168 220.263C119.403 218.943 119.074 217.911 118.418 216.987L119.269 216.431C120.033 217.395 120.569 218.689 120.26 220.451C119.952 222.213 119.014 223.245 117.969 223.901H117.962Z" fill="white"/>
<path d="M122.357 219.446C122.779 219.519 123.074 219.908 123 220.35C122.926 220.792 122.511 221.067 122.089 220.993C121.667 220.92 121.372 220.518 121.452 220.075C121.533 219.633 121.928 219.372 122.357 219.446ZM121.62 223.124C121.238 223.057 121.01 222.729 121.077 222.333C121.144 221.938 121.513 221.677 121.921 221.75C122.364 221.831 122.658 222.226 122.558 222.809C122.384 223.801 121.58 224.223 120.89 224.169L120.983 223.646C121.312 223.646 121.734 223.459 121.828 223.111C121.787 223.137 121.7 223.137 121.62 223.124Z" fill="white"/>
</g>
<g opacity="0.2">
<path d="M67.9895 151.467L67.4688 154.457L73.6337 155.53L74.1545 152.54L67.9895 151.467Z" fill="#0082B6"/>
</g>
<g opacity="0.2">
<path d="M76.1292 152.884L75.6084 155.874L91.7931 158.693L92.3139 155.703L76.1292 152.884Z" fill="#E9580C"/>
</g>
<g opacity="0.2">
<path d="M90.9026 197.807L90.3818 200.797L106.567 203.616L107.087 200.626L90.9026 197.807Z" fill="#E9580C"/>
</g>
<g opacity="0.2">
<path d="M60.4534 230.87L59.9326 233.86L81.9589 237.696L82.4797 234.706L60.4534 230.87Z" fill="#E400AE"/>
</g>
<g opacity="0.2">
<path d="M91.3303 236.244L90.8096 239.234L96.3739 240.203L96.8947 237.213L91.3303 236.244Z" fill="#0082B6"/>
</g>
<g opacity="0.2">
<path d="M119.938 241.221L119.417 244.211L124.981 245.18L125.502 242.19L119.938 241.221Z" fill="#0082B6"/>
</g>
<g opacity="0.2">
<path d="M84.9378 236.35L85.112 235.358L88.6563 235.975L88.4821 236.966L84.9378 236.35ZM84.6631 237.918L84.8373 236.913L88.3816 237.529L88.2074 238.534L84.6631 237.918Z" fill="white"/>
</g>
<g opacity="0.2">
<path d="M118.096 238.387L118.705 239.197C117.774 239.847 117.124 240.698 116.89 242.025C116.655 243.351 116.983 244.377 117.64 245.301L116.789 245.857C116.025 244.892 115.489 243.599 115.798 241.837C116.106 240.075 117.044 239.043 118.089 238.387H118.096Z" fill="white"/>
</g>
<g opacity="0.2">
<path d="M98.7493 237.53L98.2285 240.52L114.413 243.339L114.934 240.348L98.7493 237.53Z" fill="#E9580C"/>
</g>
<g opacity="0.2">
<path d="M127.852 242.6L127.331 245.59L155.661 250.525L156.182 247.534L127.852 242.6Z" fill="#E9580C"/>
</g>
<g opacity="0.2">
<path d="M100.604 157.145L100.083 160.135L123.726 164.253L124.247 161.263L100.604 157.145Z" fill="#E9580C"/>
</g>
<g opacity="0.2">
<path d="M126.9 161.022C127.322 161.096 127.617 161.484 127.543 161.926C127.469 162.369 127.054 162.643 126.632 162.57C126.21 162.496 125.915 162.094 125.995 161.652C126.076 161.209 126.471 160.948 126.9 161.022ZM126.163 164.7C125.781 164.633 125.553 164.305 125.62 163.91C125.687 163.514 126.056 163.253 126.464 163.327C126.907 163.407 127.201 163.802 127.101 164.385C126.927 165.377 126.123 165.799 125.433 165.745L125.526 165.223C125.855 165.223 126.277 165.035 126.371 164.687C126.33 164.714 126.243 164.714 126.163 164.7Z" fill="white"/>
</g>
<g opacity="0.2">
<path d="M95.0947 154.65L96.2538 154.851L97.8149 160.359L96.6692 160.158L95.0947 154.65Z" fill="white"/>
</g>
<g opacity="0.2">
<path d="M66.638 159.222L66.1172 162.212L72.2822 163.286L72.8029 160.296L66.638 159.222Z" fill="#0082B6"/>
</g>
<g opacity="0.2">
<path d="M74.7835 160.64L74.2627 163.63L83.0811 165.166L83.6019 162.176L74.7835 160.64Z" fill="#E9580C"/>
</g>
<g opacity="0.2">
<path d="M89.8977 163.271L89.377 166.261L98.7366 167.891L99.2574 164.901L89.8977 163.271Z" fill="#E9580C"/>
</g>
<g opacity="0.2">
<path d="M106.407 166.142L105.886 169.132L139.622 175.008L140.142 172.018L106.407 166.142Z" fill="#E9580C"/>
</g>
<g opacity="0.2">
<path d="M142.591 171.742C143.013 171.816 143.308 172.204 143.235 172.646C143.161 173.089 142.745 173.363 142.323 173.29C141.901 173.216 141.606 172.814 141.687 172.372C141.767 171.929 142.162 171.668 142.591 171.742ZM141.854 175.42C141.472 175.353 141.245 175.025 141.312 174.63C141.379 174.234 141.747 173.973 142.156 174.047C142.598 174.127 142.893 174.522 142.792 175.105C142.618 176.097 141.814 176.519 141.124 176.465L141.218 175.943C141.546 175.943 141.968 175.755 142.062 175.407C142.022 175.434 141.935 175.434 141.854 175.42Z" fill="white"/>
</g>
<g opacity="0.2">
<path d="M84.79 160.841L85.9491 161.042L87.5102 166.549L86.3645 166.348L84.79 160.841Z" fill="white"/>
</g>
<g opacity="0.2">
<path d="M101.373 163.729L102.532 163.93L104.093 169.437L102.948 169.236L101.373 163.729Z" fill="white"/>
</g>
<g opacity="0.2">
<path d="M109.051 175.876L109.66 176.687C108.729 177.336 108.079 178.187 107.845 179.514C107.61 180.841 107.939 181.866 108.595 182.79L107.744 183.346C106.98 182.382 106.444 181.088 106.753 179.326C107.061 177.564 107.999 176.532 109.044 175.876H109.051Z" fill="white"/>
</g>
<g opacity="0.2">
<path d="M121.037 185.651L120.428 184.84C121.359 184.19 122.009 183.333 122.243 182.013C122.478 180.693 122.15 179.661 121.493 178.737L122.344 178.181C123.108 179.145 123.644 180.438 123.336 182.201C123.027 183.963 122.089 184.994 121.044 185.651H121.037Z" fill="white"/>
<path d="M126.752 184.968C126.672 185.41 126.907 185.584 127.168 185.631L127.376 185.665L127.208 186.623L126.913 186.569C126.062 186.422 125.493 185.879 125.667 184.854L125.855 183.782C125.935 183.326 125.687 183.099 125.285 183.025L125.466 181.993C125.868 182.06 126.176 181.939 126.257 181.484L126.444 180.419C126.625 179.393 127.342 179.079 128.193 179.226L128.488 179.28L128.32 180.238L128.113 180.204C127.845 180.157 127.577 180.238 127.496 180.68L127.282 181.913C127.208 182.348 126.92 182.65 126.438 182.703C126.866 182.918 127.041 183.293 126.967 183.742L126.752 184.975V184.968Z" fill="white"/>
</g>
<g opacity="0.2">
<path d="M49.7558 244.015C49.8362 243.573 50.131 243.278 50.6 243.218C50.1645 243.003 49.997 242.628 50.0707 242.186L50.2852 240.953C50.3656 240.511 50.1311 240.343 49.8698 240.296L49.662 240.263L49.8295 239.305L50.1243 239.358C50.9752 239.506 51.5448 240.048 51.3706 241.073L51.1829 242.139C51.1025 242.594 51.3504 242.815 51.7524 242.889L51.5715 243.921C51.1695 243.854 50.8614 243.981 50.781 244.437L50.5933 245.509C50.4124 246.534 49.6955 246.849 48.8446 246.701L48.5498 246.648L48.7173 245.69L48.925 245.723C49.193 245.77 49.461 245.683 49.5414 245.241L49.7558 244.008V244.015Z" fill="white"/>
</g>
<g opacity="0.2">
<path d="M120.294 140.868C120.662 140.929 120.876 141.23 120.809 141.592C120.749 141.934 120.414 142.181 120.019 142.108C119.597 142.034 119.329 141.666 119.416 141.156C119.583 140.212 120.34 139.857 120.984 139.917L120.89 140.439C120.588 140.426 120.2 140.58 120.099 140.875C120.133 140.862 120.22 140.855 120.294 140.862V140.868Z" fill="#1BB400"/>
</g>
<g opacity="0.2">
<path d="M87.5708 135.173C87.9393 135.234 88.1537 135.535 88.0867 135.897C88.0264 136.239 87.6915 136.487 87.2962 136.413C86.8741 136.339 86.6061 135.971 86.6932 135.461C86.8607 134.517 87.6177 134.162 88.2609 134.222L88.1671 134.745C87.8656 134.731 87.4771 134.885 87.3766 135.18C87.4101 135.167 87.4971 135.16 87.5708 135.167V135.173Z" fill="#1BB400"/>
</g>
<g opacity="0.2">
<path d="M160.099 245.697L160.708 246.507C159.777 247.157 159.127 248.008 158.893 249.335C158.658 250.661 158.986 251.686 159.643 252.611L158.792 253.167C158.028 252.202 157.492 250.909 157.8 249.147C158.109 247.385 159.047 246.353 160.092 245.697H160.099Z" fill="white"/>
</g>
<path opacity="0.2" d="M77.1257 124.158C77.186 123.823 77.3602 123.475 77.8292 123.234L78.2111 123.033C78.392 122.939 78.4859 122.805 78.5127 122.644C78.5529 122.41 78.4121 122.162 78.0972 122.108C77.7823 122.054 77.5411 122.255 77.4875 122.564C77.4674 122.691 77.4607 122.791 77.4741 122.818L76.2949 122.611C76.2949 122.517 76.2949 122.41 76.3217 122.296C76.4691 121.438 77.2329 120.828 78.2982 121.016C79.5176 121.23 79.9464 122.061 79.8191 122.785C79.7186 123.361 79.3836 123.716 78.8945 123.957L78.5796 124.118C78.3317 124.245 78.1642 124.373 78.1173 124.667L77.1123 124.493C77.1123 124.399 77.1123 124.272 77.1324 124.158H77.1257ZM77.5679 124.929C77.9565 124.996 78.2044 125.344 78.1374 125.739C78.0704 126.135 77.7154 126.369 77.3335 126.302C76.9516 126.235 76.6969 125.88 76.7639 125.505C76.8309 125.13 77.186 124.868 77.5746 124.935L77.5679 124.929Z" fill="white"/>
</g>
<path d="M44.5497 72.695L40.6302 34.3576L73.8019 30.9674L73.755 30.5185L73.3061 26.1568C72.5892 19.1151 77.708 12.8238 84.7497 12.1002C91.7914 11.3833 98.0827 16.5021 98.8063 23.5438L99.2552 27.9055L99.3021 28.3544L137.057 24.4952L141.057 62.8259L136.695 63.2748C129.66 63.9917 124.534 70.283 125.251 77.3314C125.968 84.3798 132.266 89.4986 139.301 88.7817L143.663 88.3328L147.502 126.67L147.515 126.784L109.513 130.67L109.064 126.308C108.354 119.354 102.197 114.268 95.262 114.845C88.0997 115.441 82.867 122.061 83.5973 129.209L84.0127 133.283L51.1693 136.64L51.0755 136.539L47.156 98.2086L42.8814 98.6441C35.8397 99.361 29.5484 94.2422 28.8248 87.2005C28.1079 80.1588 33.2267 73.8675 40.2684 73.1439L44.543 72.7084L44.5497 72.695Z" fill="#A5A19D"/>
<path d="M207.963 137.4L169.984 141.284L170.946 150.689L208.925 146.804L207.963 137.4Z" stroke="black" stroke-width="1.5" stroke-miterlimit="10" stroke-linecap="round" stroke-linejoin="round"/>
<path d="M239.118 227.03L210.543 229.951C207.943 230.219 205.618 228.33 205.35 225.73C205.216 224.43 205.625 223.198 206.389 222.26C207.153 221.328 208.278 220.678 209.578 220.544L238.154 217.623C240.753 217.355 243.071 219.244 243.339 221.844C243.473 223.144 243.065 224.377 242.301 225.315C241.537 226.253 240.418 226.896 239.118 227.03Z" stroke="black" stroke-width="1.5" stroke-miterlimit="10" stroke-linecap="round" stroke-linejoin="round"/>
<path d="M193.228 165.122L172.64 167.228L173.602 176.639L194.191 174.533L193.228 165.122Z" stroke="black" stroke-width="1.5" stroke-miterlimit="10" stroke-linecap="round" stroke-linejoin="round"/>
<path d="M236.709 160.672L199.471 164.48L200.433 173.892L237.672 170.083L236.709 160.672Z" stroke="black" stroke-width="1.5" stroke-miterlimit="10" stroke-linecap="round" stroke-linejoin="round"/>
<path d="M194.788 180.388L174.199 182.494L175.161 191.898L195.75 189.793L194.788 180.388Z" stroke="black" stroke-width="1.5" stroke-miterlimit="10" stroke-linecap="round" stroke-linejoin="round"/>
<path d="M238.275 175.937L201.036 179.746L201.998 189.151L239.237 185.342L238.275 175.937Z" stroke="black" stroke-width="1.5" stroke-miterlimit="10" stroke-linecap="round" stroke-linejoin="round"/>
<path d="M239.833 191.202L175.76 197.756L176.722 207.167L240.795 200.614L239.833 191.202Z" stroke="black" stroke-width="1.5" stroke-miterlimit="10" stroke-linecap="round" stroke-linejoin="round"/>
<path d="M250.394 121.498L261.207 227.251C261.717 232.236 258.092 236.678 253.107 237.187L193.785 243.251L159.863 246.721" stroke="black" stroke-width="1.5" stroke-miterlimit="10" stroke-linecap="round" stroke-linejoin="round"/>
<path d="M154.819 197.389L150.745 197.805C143.596 198.535 136.977 193.302 136.38 186.14C135.804 179.199 140.89 173.048 147.844 172.338L152.206 171.889" stroke="black" stroke-width="1.5" stroke-miterlimit="10" stroke-linecap="round" stroke-linejoin="round"/>
<path d="M148.125 131.957L152.205 171.889" stroke="black" stroke-width="1.5" stroke-miterlimit="10" stroke-linecap="round" stroke-linejoin="round"/>
<path d="M154.819 197.389L159.864 246.728L100.575 252.791L72.4622 255.666C67.4774 256.175 63.0286 252.557 62.5194 247.572L58.3989 207.251L54.3253 207.667C47.1764 208.397 40.5635 203.164 39.9605 196.002C39.3843 189.061 44.4696 182.91 51.4309 182.193L55.7859 181.745L51.1696 136.627L84.013 133.27L83.5976 129.196C82.8673 122.048 88.1 115.428 95.2623 114.832C102.204 114.255 108.354 119.341 109.064 126.295L109.513 130.657L147.516 126.771H147.596" stroke="black" stroke-width="1.5" stroke-miterlimit="10" stroke-linecap="round" stroke-linejoin="round"/>
<path d="M213.068 120.071L249.684 116.332L249.858 116.312L250.394 121.498L148.125 131.957L147.596 126.771L187.568 122.684" stroke="black" stroke-width="1.5" stroke-miterlimit="10" stroke-linecap="round" stroke-linejoin="round"/>
<path d="M187.569 122.684L187.12 118.322C186.403 111.281 191.522 104.989 198.563 104.266C205.605 103.542 211.896 108.668 212.62 115.709L213.069 120.071" stroke="black" stroke-width="1.5" stroke-miterlimit="10" stroke-linecap="round" stroke-linejoin="round"/>
<path d="M137.057 24.4955L141.057 62.8262L136.695 63.2751C129.66 63.992 124.535 70.2833 125.251 77.3317C125.968 84.3801 132.266 89.4989 139.301 88.782L143.663 88.3331L147.502 126.67" stroke="black" stroke-width="1.5" stroke-miterlimit="10" stroke-linecap="round" stroke-linejoin="round"/>
<path d="M249.671 116.219L246.187 82.1558L239.226 14.0436L202.61 17.7889L202.563 17.34L202.114 12.9783C201.397 5.93655 195.099 0.811052 188.058 1.53465C181.016 2.25825 175.89 8.54955 176.614 15.5913L177.063 19.953L177.11 20.4019L137.138 24.4889" stroke="black" stroke-width="1.5" stroke-miterlimit="10" stroke-linecap="round" stroke-linejoin="round"/>
<path d="M47.2366 98.1821L47.1562 98.1955L51.0757 136.526" stroke="black" stroke-width="1.5" stroke-miterlimit="10" stroke-linecap="round" stroke-linejoin="round"/>
<path d="M44.6303 72.6819H44.5499L40.2753 73.1308C33.2336 73.8477 28.1082 80.1457 28.8318 87.1874C29.5487 94.2291 35.8467 99.3546 42.8884 98.631L47.163 98.1955" stroke="black" stroke-width="1.5" stroke-miterlimit="10" stroke-linecap="round" stroke-linejoin="round"/>
<path d="M137.138 24.4889H137.057L99.3027 28.3548L99.2559 27.9059L98.8069 23.5442C98.09 16.5025 91.792 11.377 84.7503 12.1006C77.7086 12.8175 72.5832 19.1155 73.3068 26.1572L73.7556 30.5189L73.8026 30.9678L40.6309 34.358L44.5503 72.6954" stroke="black" stroke-width="1.5" stroke-miterlimit="10" stroke-linecap="round" stroke-linejoin="round"/>
<path d="M65.3338 249.012L68.6034 248.436C70.6268 248.081 71.9735 246.151 71.6184 244.121C71.2633 242.091 69.3337 240.744 67.317 241.099L64.0474 241.675C62.024 242.031 60.6773 243.967 61.0324 245.99C61.2133 247.009 61.7828 247.853 62.56 248.396C63.3372 248.938 64.3221 249.193 65.3338 249.012Z" fill="#E9580C"/>
<path d="M71.6184 244.128C71.2633 242.104 69.3337 240.751 67.317 241.106L64.0474 241.682C62.024 242.037 60.6773 243.974 61.0324 245.997C61.2133 247.015 61.7828 247.86 62.56 248.402C63.3372 248.945 64.3221 249.199 65.3338 249.019L68.6034 248.442C70.6268 248.087 71.9735 246.158 71.6184 244.128Z" stroke="black" stroke-width="1.5" stroke-miterlimit="10" stroke-linecap="round" stroke-linejoin="round"/>
<path d="M41.0193 305.339L39.0361 313.231L53.9101 312.769L59.2902 312.602C62.0104 312.515 62.9149 308.923 60.5565 307.563L55.8934 304.877L43.0026 297.44L41.0193 305.332V305.339Z" fill="black"/>
<path d="M35.6925 305.506C35.7126 306.987 37.0191 308.126 38.4931 307.918L54.2448 305.754C55.5982 305.573 56.5362 304.321 56.3553 302.974L49.9635 256.483L35.123 258.519L35.6858 305.506H35.6925Z" fill="#E9580C"/>
<path d="M38.4931 307.918L54.2448 305.754C55.5982 305.573 56.5362 304.321 56.3553 302.974L49.9635 256.483L35.123 258.519L35.6858 305.506C35.7059 306.987 37.0124 308.126 38.4864 307.918H38.4931Z" stroke="black" stroke-width="1.5" stroke-miterlimit="10" stroke-linecap="round" stroke-linejoin="round"/>
<path d="M29.6831 308.629L27.5391 316.481L42.4197 316.327L47.8066 316.273C50.5268 316.246 51.505 312.669 49.1734 311.262L44.5638 308.474L31.8271 300.776L29.6831 308.629Z" fill="black"/>
<path d="M24.8117 306.793C24.6174 308.267 25.7564 309.574 27.2371 309.58L43.1362 309.681C44.503 309.694 45.6084 308.589 45.6218 307.235L45.9234 260.309L30.9488 260.208L24.805 306.793H24.8117Z" fill="#E9580C"/>
<path d="M27.2369 309.58L43.136 309.681C44.5028 309.694 45.6083 308.588 45.6217 307.235L45.9233 260.308L30.9487 260.208L24.8048 306.793C24.6105 308.267 25.7495 309.573 27.2302 309.58H27.2369Z" stroke="black" stroke-width="1.5" stroke-miterlimit="10" stroke-linecap="round" stroke-linejoin="round"/>
<path d="M270.789 302.297L272.773 311.697L257.899 311.148L252.518 310.947C249.798 310.846 248.894 306.565 251.252 304.95L255.915 301.748L268.806 292.897L270.789 302.297Z" fill="black"/>
<path d="M276.109 302.491C276.089 304.26 274.782 305.607 273.308 305.366L257.557 302.786C256.203 302.565 255.265 301.084 255.446 299.476L261.838 244.134L276.678 246.56L276.116 302.491H276.109Z" fill="#E9580C"/>
<path d="M273.308 305.366L257.557 302.786C256.203 302.565 255.265 301.084 255.446 299.476L261.838 244.134L276.678 246.56L276.116 302.491C276.096 304.26 274.789 305.607 273.315 305.366H273.308Z" stroke="black" stroke-width="1.5" stroke-miterlimit="10" stroke-linecap="round" stroke-linejoin="round"/>
<path d="M286.674 306.21L288.818 315.556L273.937 315.376L268.551 315.309C265.83 315.275 264.852 311.021 267.184 309.346L271.793 306.029L284.53 296.863L286.674 306.21Z" fill="black"/>
<path d="M291.545 304.026C291.74 305.774 290.601 307.335 289.12 307.342L273.221 307.463C271.854 307.476 270.748 306.163 270.735 304.548L270.434 248.69L285.408 248.57L291.552 304.026H291.545Z" fill="#E9580C"/>
<path d="M289.113 307.342L273.214 307.463C271.847 307.476 270.742 306.163 270.728 304.548L270.427 248.69L285.401 248.57L291.545 304.026C291.739 305.774 290.6 307.336 289.12 307.342H289.113Z" stroke="black" stroke-width="1.5" stroke-miterlimit="10" stroke-linecap="round" stroke-linejoin="round"/>
<path d="M25.8634 243.659L30.4061 264.435L53.1592 259.464L48.6166 238.687C47.2431 232.403 41.0389 228.416 34.7543 229.79C28.4697 231.163 24.4832 237.374 25.8567 243.659H25.8634Z" fill="white"/>
<path d="M34.7613 229.79C41.0459 228.416 47.2501 232.403 48.6236 238.687L53.1662 259.464L30.413 264.435L25.8704 243.659C24.4969 237.374 28.4834 231.163 34.768 229.79H34.7613Z" stroke="black" stroke-width="1.5" stroke-miterlimit="10" stroke-linecap="round" stroke-linejoin="round"/>
<path d="M3.94797 227.539C1.06697 229.247 0.551038 233.207 2.90944 235.592L14.3798 247.163C17.033 249.85 21.569 248.858 22.8688 245.307L28.6977 229.348C27.2036 228.249 25.9843 226.721 25.2473 224.865C23.5656 220.631 24.9056 215.928 28.2489 213.167L3.95468 227.539H3.94797Z" fill="black"/>
<path d="M25.2409 224.865C25.9779 226.721 27.2039 228.249 28.6913 229.348L33.1803 217.04L44.3224 217.294C42.232 212.035 36.2623 209.455 30.9961 211.539L28.2357 213.167C24.8991 215.928 23.5525 220.631 25.2342 224.865H25.2409Z" fill="black"/>
<path d="M33.1863 217.04L28.6973 229.348C31.4644 231.371 35.1628 231.974 38.5798 230.621C43.8393 228.53 46.4188 222.561 44.3284 217.288L33.1863 217.033V217.04Z" fill="#E9580C"/>
<path d="M44.3289 217.288L33.1868 217.033L28.6977 229.341L22.8688 245.301C21.5757 248.852 17.0397 249.843 14.3798 247.156L2.90944 235.586C0.551038 233.2 1.06697 229.234 3.94797 227.532L28.2422 213.161L31.0026 211.533" stroke="black" stroke-width="1.5" stroke-miterlimit="10" stroke-linecap="round" stroke-linejoin="round"/>
<path d="M28.2426 213.167C24.906 215.928 23.5593 220.631 25.241 224.865C25.978 226.721 27.204 228.249 28.6914 229.348C31.4585 231.371 35.1569 231.974 38.5739 230.621C43.8334 228.53 46.413 222.561 44.3226 217.288C42.2322 212.015 36.2625 209.449 30.9963 211.532C29.9712 211.941 29.0466 212.497 28.2359 213.161L28.2426 213.167Z" stroke="black" stroke-width="1.5" stroke-miterlimit="10" stroke-linecap="round" stroke-linejoin="round"/>
<path d="M36.7314 224.664C37.1334 225.669 38.2658 226.158 39.2708 225.763C40.2758 225.368 40.7649 224.229 40.3696 223.224" stroke="white" stroke-width="1.5" stroke-miterlimit="10" stroke-linecap="round" stroke-linejoin="round"/>
<path d="M67.2566 249.662L64.7508 240.175C57.9034 241.977 41.1467 241.26 33.2742 238.835L30.373 248.215C40.0411 251.203 58.6605 251.933 67.2566 249.662Z" fill="white"/>
<path d="M33.281 238.828C41.1535 241.26 57.9102 241.977 64.7576 240.168L67.2634 249.655C58.6673 251.926 40.048 251.196 30.3799 248.208" stroke="black" stroke-width="1.5" stroke-miterlimit="10" stroke-linecap="round" stroke-linejoin="round"/>
<path d="M260.176 228.249L258.977 252.751L285.797 254.064L286.996 229.562C287.358 222.152 281.649 215.847 274.246 215.485C266.842 215.123 260.538 220.839 260.176 228.249Z" fill="#E9580C"/>
<path d="M274.246 215.485C281.656 215.847 287.364 222.158 286.996 229.562L285.797 254.064L258.977 252.751L260.176 228.249C260.538 220.839 266.836 215.123 274.246 215.485Z" stroke="black" stroke-width="1.5" stroke-linecap="round" stroke-linejoin="round"/>
<path d="M274.949 197.563C269.629 196.605 264.531 200.149 263.579 205.476C262.621 210.802 266.165 215.894 271.485 216.852C276.812 217.81 281.904 214.266 282.862 208.939C283.82 203.62 280.276 198.521 274.942 197.57L274.949 197.563Z" fill="#C1410C"/>
<path d="M263.586 205.469C262.628 210.795 266.172 215.887 271.492 216.846C276.819 217.804 281.91 214.259 282.869 208.933C283.827 203.613 280.282 198.514 274.949 197.563C269.629 196.605 264.531 200.149 263.579 205.476L263.586 205.469Z" stroke="black" stroke-width="1.5" stroke-linecap="round" stroke-linejoin="round"/>
<path d="M288.155 211.559L281.69 202.413C282.969 204.41 283.519 206.869 283.063 209.375C282.607 211.921 281.2 214.051 279.284 215.499L286.688 214.755C288.242 214.601 289.059 212.825 288.155 211.559Z" fill="black"/>
<path d="M269.911 198.494V198.507L273.013 214.266C273.221 215.298 274.166 216.008 275.218 215.901L279.284 215.492C281.201 214.051 282.608 211.921 283.063 209.368C283.519 206.856 282.969 204.397 281.69 202.407L281.107 201.583C279.673 199.76 277.603 198.44 275.144 197.998C273.321 197.67 271.526 197.871 269.911 198.487V198.494Z" fill="black"/>
<path d="M281.113 201.589L281.696 202.413C281.515 202.125 281.328 201.851 281.113 201.589Z" fill="#C1410C"/>
<path d="M269.925 198.508L273.013 214.266C273.221 215.298 274.166 216.008 275.218 215.901L279.285 215.492L286.688 214.748C288.243 214.594 289.06 212.819 288.155 211.553L281.69 202.407L281.107 201.583L281.04 201.496" stroke="black" stroke-width="1.5" stroke-linecap="round" stroke-linejoin="round"/>
<path d="M241.624 216.457L238.95 214.494C237.295 213.281 236.94 210.956 238.16 209.295C239.379 207.633 241.704 207.278 243.359 208.491L246.032 210.454C247.687 211.666 248.036 213.998 246.823 215.653C246.213 216.49 245.329 216.993 244.384 217.134C243.439 217.274 242.448 217.06 241.624 216.457Z" fill="#E9580C"/>
<path d="M238.153 209.295C239.366 207.64 241.697 207.278 243.352 208.491L246.025 210.454C247.68 211.666 248.029 213.998 246.816 215.653C246.206 216.49 245.322 216.993 244.377 217.134C243.432 217.274 242.441 217.06 241.617 216.457L238.943 214.494C237.289 213.281 236.933 210.956 238.153 209.295Z" stroke="black" stroke-width="1.5" stroke-miterlimit="10" stroke-linecap="round" stroke-linejoin="round"/>
<path d="M242.428 218.983L248.873 211.586C254.213 216.236 269.556 223.023 277.683 224.329L276.129 234.024C266.139 232.416 249.121 224.825 242.428 218.976V218.983Z" fill="#E9580C"/>
<path d="M277.69 224.336C269.556 223.029 254.213 216.242 248.88 211.593L242.435 218.989C249.128 224.838 266.146 232.43 276.136 234.038" stroke="black" stroke-width="1.5" stroke-miterlimit="10" stroke-linecap="round" stroke-linejoin="round"/>
<path d="M185.424 73.3379L185.746 76.0112C185.806 76.5271 185.31 76.9358 184.815 76.7683L173.914 73.0967C173.652 73.0096 173.471 72.7818 173.438 72.5071L173.056 69.338C173.023 69.07 173.15 68.802 173.378 68.6546L183.099 62.4839C183.542 62.2025 184.118 62.4839 184.185 62.9998L184.5 65.6463C184.533 65.921 184.399 66.1957 184.158 66.3364L178.758 69.5859C178.235 69.9008 178.329 70.6847 178.912 70.8723L184.928 72.7483C185.196 72.8287 185.391 73.0632 185.418 73.3379H185.424Z" fill="#E9580C"/>
<path d="M209.805 65.8607L203.789 63.9847C203.521 63.9043 203.326 63.6698 203.299 63.3951L202.984 60.7486C202.924 60.2327 203.42 59.824 203.916 59.9915L214.817 63.6899C215.078 63.777 215.259 64.0048 215.292 64.2795L215.674 67.4486C215.708 67.7166 215.581 67.9846 215.353 68.132L205.631 74.2759C205.189 74.5573 204.613 74.2759 204.552 73.76L204.231 71.0867C204.197 70.812 204.331 70.5373 204.572 70.3966L209.973 67.1471C210.495 66.8322 210.401 66.0483 209.819 65.8607H209.805Z" fill="#E9580C"/>
<path d="M192.641 76.6946L189.927 77.0229C189.411 77.0832 189.002 76.5874 189.17 76.0916L195.495 57.5594C195.582 57.3048 195.81 57.1172 196.078 57.0837L198.838 56.7554C199.354 56.6951 199.763 57.1976 199.595 57.6867L193.217 76.2256C193.13 76.4802 192.902 76.6678 192.634 76.7013L192.641 76.6946Z" fill="#E9580C"/>
</svg>
