<svg width="164" height="164" viewBox="0 0 164 164" fill="none" xmlns="http://www.w3.org/2000/svg">
<rect width="164" height="164" fill="white"/>
<path d="M115.732 82.1721V141.672H94.4022V138.382C94.4022 132.502 89.8122 127.472 83.9422 127.362C77.9622 127.252 73.0822 132.072 73.0822 138.022V141.672H51.7422V120.342H48.4522C42.5822 120.342 37.5422 115.742 37.4322 109.872C37.3322 103.892 42.1422 99.0121 48.1022 99.0121H51.7422V77.6821H111.242C113.722 77.6821 115.732 79.6921 115.732 82.1721Z" fill="#A5A19D"/>
<path d="M73.0822 141.672H51.7422V120.342H48.4522C42.5822 120.342 37.5422 115.742 37.4322 109.872C37.3322 103.892 42.1422 99.0121 48.1022 99.0121H51.7422V77.6821H111.242C113.722 77.6821 115.732 79.6921 115.732 82.1721V141.672H94.4022V138.382C94.4022 132.502 89.8122 127.472 83.9422 127.362C77.9622 127.252 73.0822 132.072 73.0822 138.022V141.672Z" stroke="black" stroke-width="1.5" stroke-miterlimit="10" stroke-linecap="round"/>
<path d="M83.3188 77.6802V45.9912" stroke="black" stroke-width="1.5" stroke-miterlimit="10" stroke-linecap="round"/>
<path d="M83.3189 47.0528C83.3189 47.0528 70.8639 51.8448 60.1399 47.1518C49.4149 42.4598 44.481 30.0608 44.481 30.0608C44.481 30.0608 56.936 25.2688 67.66 29.9618C78.385 34.6538 83.3189 47.0528 83.3189 47.0528Z" fill="#E9580C" stroke="black" stroke-width="1.5" stroke-miterlimit="10" stroke-linecap="round"/>
<path d="M83.3188 47.0528C83.3188 47.0528 95.7739 51.8448 106.498 47.1518C117.223 42.4598 122.157 30.0608 122.157 30.0608C122.157 30.0608 109.702 25.2688 98.9778 29.9618C88.2528 34.6538 83.3188 47.0528 83.3188 47.0528Z" fill="#E9580C" stroke="black" stroke-width="1.5" stroke-miterlimit="10" stroke-linecap="round"/>
</svg>
