<svg width="164" height="164" viewBox="0 0 164 164" fill="none" xmlns="http://www.w3.org/2000/svg">
<rect width="164" height="164" fill="white"/>
<path d="M152.952 54.07C156.902 54.07 160.092 57.26 160.092 61.2C160.092 65.14 156.902 68.34 152.952 68.34H150.512V82.62H136.242V85.06C136.242 89 133.042 92.19 129.102 92.19C125.162 92.19 121.972 89 121.972 85.06V82.62H107.692V68.34H105.252C101.312 68.34 98.1118 65.15 98.1118 61.2C98.1118 57.25 101.312 54.07 105.252 54.07H107.692V39.79H121.972V42.23C121.972 46.17 125.162 49.37 129.102 49.37C133.042 49.37 136.242 46.17 136.242 42.23V39.79H150.512V54.07H152.952Z" fill="black"/>
<path d="M125.122 104.97L136.612 142.3L122.512 146.64L121.862 144.52C120.682 140.66 116.672 138.22 112.782 139.29C108.752 140.39 106.462 144.6 107.682 148.56L108.422 150.97L94.3318 155.31L89.9918 141.21L87.8818 141.86C84.0218 143.05 79.7418 141.11 78.4418 137.29C77.0918 133.34 79.2918 129.09 83.2518 127.87L85.6618 127.12L81.3218 113.03L118.652 101.54C121.382 100.7 124.282 102.24 125.122 104.97Z" fill="#A5A19D"/>
<path d="M94.6119 26.0101L89.3119 38.9301L87.1019 38.0201C83.5419 36.5601 79.4619 38.2601 78.0019 41.8301C76.5419 45.3901 78.2419 49.4701 81.8119 50.9301L84.0119 51.8401L78.7219 64.7501L65.8019 59.4501L64.9019 61.6601C63.4319 65.2301 59.3619 66.9301 55.7919 65.4701C52.2319 64.0101 50.5219 59.9301 51.9919 56.3701L52.8919 54.1601L39.9819 48.8601L45.2719 35.9501L47.4819 36.8501C51.0519 38.3101 55.1219 36.6101 56.5919 33.0401C58.0519 29.4801 56.3419 25.4001 52.7819 23.9401L50.5719 23.0401L55.8719 10.1201L68.7819 15.4201L69.6919 13.2101C71.1519 9.65014 75.2319 7.94014 78.7919 9.40014C82.3619 10.8701 84.0619 14.9401 82.6019 18.5101L81.6919 20.7201L94.6119 26.0101Z" fill="#F2F3F5"/>
<path d="M55.3519 91.54L63.6319 103.17L52.0119 111.45L53.4219 113.44C55.7118 116.65 54.9619 121.11 51.7619 123.39C48.5519 125.68 44.0919 124.93 41.8019 121.73L40.3919 119.74L28.7619 128.02L20.4719 116.4L22.4619 114.98C25.6719 112.69 26.4219 108.24 24.1319 105.03C21.8419 101.82 17.3919 101.07 14.1819 103.36L12.1919 104.78L3.90186 93.15L15.5319 84.86L16.9519 86.85C19.2319 90.06 23.6919 90.81 26.9019 88.52C30.1119 86.23 30.8619 81.78 28.5719 78.57L27.1519 76.58L38.7819 68.29L47.0619 79.92L49.0519 78.5C52.2619 76.22 56.7219 76.96 59.0019 80.17C61.2919 83.38 60.5419 87.84 57.3319 90.13L55.3519 91.54Z" fill="#E9580C"/>
<path d="M52.8919 54.1601L51.9919 56.3701C50.5219 59.9301 52.2319 64.0101 55.7919 65.4701C59.3619 66.9301 63.4319 65.2301 64.9019 61.6601L65.8019 59.4501L78.7219 64.7501L84.0119 51.8401L81.8119 50.9301C78.2419 49.4701 76.5419 45.3901 78.0019 41.8301C79.4619 38.2601 83.5419 36.5601 87.1019 38.0201L89.3119 38.9301L94.6119 26.0101L81.6919 20.7201L82.6019 18.5101C84.0619 14.9401 82.3619 10.8701 78.7919 9.40014C75.2319 7.94014 71.1519 9.65014 69.6919 13.2101L68.7819 15.4201L55.8719 10.1201L50.5719 23.0401L52.7819 23.9401C56.3419 25.4001 58.0519 29.4801 56.5919 33.0401C55.1219 36.6101 51.0519 38.3101 47.4819 36.8501L45.2719 35.9501L39.9819 48.8601L52.8919 54.1601Z" stroke="black" stroke-width="1.5" stroke-linecap="round" stroke-linejoin="round"/>
<path d="M108.422 150.97L94.3318 155.31L89.9918 141.21L87.8818 141.86C84.0218 143.05 79.7418 141.11 78.4418 137.29C77.0918 133.34 79.2918 129.09 83.2518 127.87L85.6618 127.12L81.3218 113.03L118.652 101.54C121.382 100.7 124.282 102.24 125.122 104.97L136.612 142.3L122.512 146.64L121.862 144.52C120.682 140.66 116.672 138.22 112.782 139.29C108.752 140.39 106.462 144.6 107.682 148.56L108.422 150.97Z" stroke="black" stroke-width="1.5" stroke-linecap="round" stroke-linejoin="round"/>
<path d="M107.692 82.62H121.972V85.06C121.972 89 125.162 92.19 129.102 92.19C133.042 92.19 136.242 89 136.242 85.06V82.62H150.512V68.34H152.952C156.902 68.34 160.092 65.15 160.092 61.2C160.092 57.25 156.902 54.07 152.952 54.07H150.512V39.79H136.242V42.23C136.242 46.17 133.042 49.37 129.102 49.37C125.162 49.37 121.972 46.17 121.972 42.23V39.79H107.692V54.07H105.252C101.312 54.07 98.1118 57.26 98.1118 61.2C98.1118 65.14 101.312 68.34 105.252 68.34H107.692V82.62Z" stroke="black" stroke-width="1.5" stroke-linecap="round" stroke-linejoin="round"/>
<path d="M28.7619 128.02L40.3919 119.74L41.8019 121.73C44.0919 124.93 48.5519 125.68 51.7619 123.39C54.9619 121.11 55.7119 116.65 53.4219 113.44L52.0119 111.45L63.6319 103.17L55.3519 91.54L57.3319 90.13C60.5419 87.84 61.2919 83.38 59.0019 80.17C56.7219 76.96 52.2619 76.22 49.0519 78.5L47.0619 79.92L38.7819 68.29L27.1519 76.58L28.5719 78.57C30.8619 81.78 30.1119 86.23 26.9019 88.52C23.6919 90.81 19.2319 90.06 16.9519 86.85L15.5319 84.86L3.90186 93.15L12.1919 104.78L14.1819 103.36C17.3919 101.07 21.8419 101.82 24.1319 105.03C26.4219 108.24 25.6719 112.69 22.4619 114.98L20.4719 116.4L28.7619 128.02Z" stroke="black" stroke-width="1.5" stroke-linecap="round" stroke-linejoin="round"/>
</svg>
