<svg width="164" height="164" viewBox="0 0 164 164" fill="none" xmlns="http://www.w3.org/2000/svg">
<rect width="164" height="164" fill="white"/>
<path d="M125.684 50.7342L138.878 130.491C139.545 134.525 136.816 138.336 132.782 139.003L56.2421 151.665C52.2081 152.332 48.3971 149.603 47.7301 145.569L28.7761 30.9912C28.1091 26.9572 30.8381 23.1462 34.8721 22.4792L70.0511 16.6602L125.685 50.7352L125.684 50.7342Z" stroke="black" stroke-width="1.5" stroke-linecap="round" stroke-linejoin="round"/>
<path d="M48.6499 45.503C51.5529 45.023 54.2899 46.982 54.7699 49.886C55.2489 52.779 53.2889 55.515 50.3859 55.996C47.4929 56.475 44.7569 54.515 44.2779 51.622C43.7979 48.719 45.7569 45.982 48.6499 45.504V45.503Z" fill="#E9580C"/>
<path d="M51.9339 65.3551C54.8369 64.8751 57.5738 66.8341 58.0538 69.7381C58.5328 72.6311 56.5728 75.3671 53.6698 75.8481C50.7768 76.3271 48.0409 74.3671 47.5619 71.4741C47.0819 68.5711 49.0409 65.8341 51.9339 65.3561V65.3551Z" fill="#E9580C"/>
<path d="M55.218 85.2081C58.121 84.7281 60.8581 86.6871 61.3361 89.5801C61.8161 92.4831 59.8571 95.2201 56.9531 95.7001C54.0601 96.1791 51.324 94.2191 50.843 91.3161C50.364 88.4231 52.324 85.6871 55.217 85.2081H55.218Z" fill="#E9580C"/>
<path d="M58.502 105.06C61.405 104.58 64.142 106.539 64.62 109.432C65.1 112.335 63.141 115.072 60.237 115.552C57.344 116.031 54.608 114.071 54.127 111.168C53.648 108.275 55.608 105.539 58.501 105.06H58.502Z" fill="#E9580C"/>
<path d="M61.7859 124.913C64.6889 124.433 67.4259 126.392 67.9039 129.285C68.3839 132.188 66.4249 134.925 63.5209 135.405C60.6279 135.884 57.8919 133.924 57.4109 131.021C56.9319 128.128 58.8919 125.392 61.7849 124.913H61.7859Z" fill="#E9580C"/>
<path d="M74.0152 44.241L58.7485 46.7656L59.5439 51.5753L74.8106 49.0507L74.0152 44.241Z" fill="#A5A19D"/>
<path d="M113.849 58.048L62.0308 66.6172L62.8261 71.4269L114.644 62.8577L113.849 58.048Z" fill="#A5A19D"/>
<path d="M117.133 77.9001L65.3145 86.4692L66.1098 91.2789L117.928 82.7098L117.133 77.9001Z" fill="#A5A19D"/>
<path d="M120.415 97.7512L68.5972 106.32L69.3925 111.13L121.211 102.561L120.415 97.7512Z" fill="#A5A19D"/>
<path d="M123.698 117.603L71.8799 126.172L72.6753 130.982L124.493 122.413L123.698 117.603Z" fill="#A5A19D"/>
<path d="M47.395 50.5129L49.825 52.2529L55.105 44.8799" stroke="black" stroke-width="1.5" stroke-linecap="round" stroke-linejoin="round"/>
<path d="M50.6069 69.9319L53.0369 71.6719L58.3179 64.2979" stroke="black" stroke-width="1.5" stroke-linecap="round" stroke-linejoin="round"/>
<path d="M53.9038 89.8571L56.3338 91.5981L61.6138 84.2241" stroke="black" stroke-width="1.5" stroke-linecap="round" stroke-linejoin="round"/>
<path d="M57.2002 109.783L59.6302 111.523L64.9102 104.149" stroke="black" stroke-width="1.5" stroke-linecap="round" stroke-linejoin="round"/>
<path d="M60.4961 129.708L62.9261 131.448L68.2061 124.075" stroke="black" stroke-width="1.5" stroke-linecap="round" stroke-linejoin="round"/>
<path d="M125.684 50.7339L83.7442 57.6719C79.7102 58.3389 75.8992 55.6099 75.2322 51.5759L69.4722 16.7549" stroke="black" stroke-width="1.5" stroke-linecap="round" stroke-linejoin="round"/>
</svg>
