<svg viewBox="0 0 640 500" fill="none" xmlns="http://www.w3.org/2000/svg">
<path d="M602.781 344.92C616.602 344.92 627.798 360.446 627.798 379.595C627.798 398.744 616.602 414.27 602.781 414.27L599.461 414.369L458.934 419.742C474.318 418.653 486.504 402.88 486.504 383.573C486.504 364.266 473.399 347.335 457.229 347.335L599.452 344.98L602.782 344.921L602.781 344.92Z" fill="white"/>
<path d="M599.461 414.37V479.326L447.228 489.162L447.217 488.984L447.207 419.813H457.228C457.8 419.813 458.372 419.793 458.935 419.744L599.462 414.371L599.461 414.37Z" fill="white"/>
<path d="M599.461 74.9455L599.441 144.591L447.197 134.853V64.0105H447.208L562.524 72.2925L599.461 74.9455Z" fill="white"/>
<path d="M599.451 344.92V344.98L457.228 347.335H457.218H447.207V276.501L599.451 277.6V344.92Z" fill="white"/>
<path d="M599.451 210.13V277.6L447.207 276.501V205.667L573.127 209.359L599.451 210.13Z" fill="white"/>
<path d="M599.441 144.592L590.064 145.502C574.915 146.957 562.647 163.621 562.647 182.71C562.647 193.744 566.743 203.362 573.127 209.359L447.207 205.668L437.83 206.143C422.682 206.915 410.403 192.061 410.403 172.972C410.403 153.883 422.672 137.209 437.82 135.754L447.197 134.853L599.441 144.59V144.592Z" fill="white"/>
<path d="M562.525 72.2924L447.208 64.0094H447.198L387.818 71.7774V60.0904C387.808 43.9014 378.767 31.8974 366.632 30.4624L539.204 45.7014C551.798 45.6024 561.381 56.6164 562.525 72.2914V72.2924Z" fill="white"/>
<path d="M457.228 347.336C473.399 347.336 486.504 363.565 486.504 383.574C486.504 403.583 474.317 418.654 458.934 419.743L457.227 419.812H447.206L447.217 488.982L387.868 481.857V470.171C387.858 451.3 375.589 434.784 360.451 433.28C345.312 431.766 333.034 445.293 333.045 463.472V474.732L282.716 467.607L282.695 404.216L273.318 403.424C258.179 402.138 245.901 387.294 245.901 370.253C245.891 353.213 258.159 339.883 273.298 340.477L282.675 340.853L282.664 277.461L333.003 277.134V288.395C333.014 306.583 345.292 321.625 360.43 322.001C375.57 322.367 387.847 307.375 387.837 288.504V276.817L447.206 276.5V347.334H457.227L457.228 347.336Z" fill="#F3F4F6"/>
<path d="M282.654 238.987L282.644 214.069L292.021 213.584C307.16 212.812 319.437 197.632 319.437 179.671C319.427 161.71 307.148 148.331 292 149.796L282.623 150.697L282.605 97.5275C282.603 91.6395 287.021 86.6235 293.024 85.6995L332.962 79.5465V68.2855C332.952 50.0975 345.23 33.2445 360.379 30.6425C362.146 30.3355 363.872 30.2465 365.547 30.3655L366.63 30.4645C378.765 31.8995 387.806 43.9025 387.816 60.0925V71.7795L447.196 64.0115V134.856L437.819 135.757C422.671 137.212 410.402 153.876 410.402 172.975C410.402 192.074 422.681 206.917 437.829 206.146L447.206 205.671V276.505L387.837 276.822V288.509C387.847 307.38 375.569 322.372 360.43 322.006C345.291 321.63 333.014 306.588 333.003 288.4V277.139L282.664 277.466L282.654 238.991V238.987Z" fill="#F3F4F6"/>
<path d="M387.869 470.171V471.596L333.046 474.743V463.472C333.036 445.294 345.314 431.766 360.452 433.28C375.591 434.784 387.859 451.3 387.869 470.171Z" fill="#9CA3AF"/>
<path d="M282.695 404.216L282.716 467.608L227.883 460.483L227.872 450.726V450.073C227.872 433.26 215.594 418.407 200.445 416.893C185.306 415.389 173.039 427.244 173.049 443.374L173.059 453.359L126.373 447.294C121.701 446.687 118.213 442.826 118.211 438.26L118.186 390.293L127.563 391.085C142.702 392.362 154.969 380.516 154.959 364.604C154.948 348.702 142.67 335.332 127.521 334.729L118.144 334.363L118.113 278.422L172.967 278.095V268.11C172.957 251.98 185.226 238.462 200.374 237.908C200.466 237.908 200.568 237.898 200.66 237.898L202.56 237.928H202.642C208.454 238.245 213.756 240.6 217.984 244.38C223.981 249.753 227.801 257.997 227.801 267.368V277.778L282.666 277.461L282.676 340.853L273.299 340.477C258.16 339.883 245.892 353.213 245.903 370.253C245.903 387.293 258.181 402.137 273.319 403.424L282.697 404.216H282.695Z" fill="#F3F4F6"/>
<path d="M282.654 238.986L282.664 277.461L227.8 277.778V267.368C227.8 257.997 223.979 249.754 217.983 244.38C213.754 240.6 208.452 238.245 202.641 237.928L282.654 238.987V238.986Z" fill="#F3F4F6"/>
<path d="M227.871 450.074V450.727L173.057 453.359L173.047 443.374C173.037 427.244 185.305 415.389 200.443 416.893C215.591 418.407 227.87 433.261 227.87 450.073L227.871 450.074Z" fill="#9CA3AF"/>
<path d="M457.228 347.42H447.206V205.752L437.829 206.227C422.681 206.999 410.402 192.145 410.402 173.056C410.402 153.967 422.671 137.293 437.819 135.838L447.196 134.937V64.0931L387.817 71.8611V60.1741C387.806 43.9851 378.766 31.9811 366.63 30.5461L365.548 30.4471C363.872 30.3281 362.146 30.4171 360.379 30.7241C345.231 33.3271 332.952 50.1791 332.962 68.3671V79.6281L293.024 85.7811C287.022 86.7061 282.604 91.7211 282.606 97.6091L282.623 150.778L292 149.877C307.149 148.412 319.427 161.792 319.438 179.752C319.438 197.713 307.159 212.893 292.021 213.665L282.644 214.15L282.654 239.067L282.665 277.542L227.8 277.859V267.449C227.8 258.078 223.98 249.834 217.983 244.461C213.754 240.681 208.452 238.326 202.641 238.009H202.559L200.659 237.979C200.567 237.979 200.465 237.989 200.373 237.989C185.225 238.543 172.956 252.061 172.966 268.191V278.176L118.112 278.503L118.143 334.444L127.52 334.81C142.669 335.414 154.947 348.783 154.958 364.685C154.968 380.597 142.7 392.443 127.562 391.166L118.185 390.374L118.21 438.341C118.212 442.907 121.701 446.768 126.372 447.375L173.058 453.44L173.048 443.455C173.038 427.325 185.306 415.47 200.444 416.974C215.593 418.488 227.871 433.342 227.871 450.155V450.808L227.882 460.565L282.715 467.69L333.044 474.815V463.554C333.034 445.376 345.312 431.848 360.45 433.362C375.589 434.866 387.857 451.382 387.867 470.253V481.94L447.216 489.065L447.205 419.894H457.227L458.933 419.825C474.317 418.736 486.504 402.963 486.504 383.656C486.504 364.349 473.398 347.418 457.228 347.418V347.42Z" fill="#F3F4F6"/>
<mask id="mask0_2361_3257" style="mask-type:luminance" maskUnits="userSpaceOnUse" x="118" y="30" width="369" height="460">
<path d="M457.228 347.42H447.206V205.752L437.829 206.227C422.681 206.999 410.402 192.145 410.402 173.056C410.402 153.967 422.671 137.293 437.819 135.838L447.196 134.937V64.0931L387.817 71.8611V60.1741C387.806 43.9851 378.766 31.9811 366.63 30.5461L365.548 30.4471C363.872 30.3281 362.146 30.4171 360.379 30.7241C345.231 33.3271 332.952 50.1791 332.962 68.3671V79.6281L293.024 85.7811C287.022 86.7061 282.604 91.7211 282.606 97.6091L282.623 150.778L292 149.877C307.149 148.412 319.427 161.792 319.438 179.752C319.438 197.713 307.159 212.893 292.021 213.665L282.644 214.15L282.654 239.067L282.665 277.542L227.8 277.859V267.449C227.8 258.078 223.98 249.834 217.983 244.461C213.754 240.681 208.452 238.326 202.641 238.009H202.559L200.659 237.979C200.567 237.979 200.465 237.989 200.373 237.989C185.225 238.543 172.956 252.061 172.966 268.191V278.176L118.112 278.503L118.143 334.444L127.52 334.81C142.669 335.414 154.947 348.783 154.958 364.685C154.968 380.597 142.7 392.443 127.562 391.166L118.185 390.374L118.21 438.341C118.212 442.907 121.701 446.768 126.372 447.375L173.058 453.44L173.048 443.455C173.038 427.325 185.306 415.47 200.444 416.974C215.593 418.488 227.871 433.342 227.871 450.155V450.808L227.882 460.565L282.715 467.69L333.044 474.815V463.554C333.034 445.376 345.312 431.848 360.45 433.362C375.589 434.866 387.857 451.382 387.867 470.253V481.94L447.216 489.065L447.205 419.894H457.227L458.933 419.825C474.317 418.736 486.504 402.963 486.504 383.656C486.504 364.349 473.398 347.418 457.228 347.418V347.42Z" fill="white"/>
</mask>
<g mask="url(#mask0_2361_3257)">
<g style="mix-blend-mode:multiply" opacity="0.2">
<g style="mix-blend-mode:multiply" opacity="0.3">
<path d="M542.506 629.593L109.45 535.407V37.1957L542.506 -59.1423V629.593Z" fill="#F3F4F6"/>
</g>
<path d="M184.485 56.9306L214.307 51.1956V60.1836L184.485 65.7016V56.9306Z" fill="#9CA3AF"/>
<path d="M204.512 231.257L234.334 229.852V238.986L204.512 240.175V231.257Z" fill="#9CA3AF"/>
<path d="M257.764 228.747L319.942 225.817V235.572L257.764 238.052V228.747Z" fill="#9CA3AF"/>
<path d="M356.635 224.087L383.353 222.828V233.044L356.635 234.109V224.087Z" fill="#9CA3AF"/>
<path d="M240.499 229.561L251.599 229.038V238.297L240.499 238.74V229.561Z" fill="#9CA3AF"/>
<path d="M324.4 225.606L335.5 225.083V234.952L324.4 235.395V225.606Z" fill="#9CA3AF"/>
<path d="M340.815 224.833L351.915 224.309V234.298L340.815 234.74V224.833Z" fill="#9CA3AF"/>
<path d="M159.412 93.2627L203.799 85.9097V94.8217L159.412 101.852V93.2627Z" fill="#0082B6"/>
<path d="M159.412 201.162L203.799 197.861V206.773L159.412 209.752V201.162Z" fill="#0082B6"/>
<path d="M208.857 197.484L281.882 192.052V201.532L208.857 206.433V197.484Z" fill="#EA580C"/>
<path d="M301.874 190.565L329.95 188.477V198.305L301.874 200.19V190.565Z" fill="#E400AE"/>
<path d="M364.479 286.923L390.443 286.882V297.15L364.479 297.002V286.923Z" fill="#E400AE"/>
<path d="M178.207 264.781L206.283 264.212V273.142L178.207 273.507V264.781Z" fill="#E400AE"/>
<path d="M159.412 124.863L178.395 122.226V130.954L159.412 133.453V124.863Z" fill="#0082B6"/>
<path d="M267.469 109.853L277.814 108.415V117.865L267.469 119.227V109.853Z" fill="#0082B6"/>
<path d="M229.161 263.748L246.295 263.401V272.622L229.161 272.845V263.748Z" fill="#0082B6"/>
<path d="M184.485 121.38L211.65 117.607V126.576L184.485 130.152V121.38Z" fill="#EA580C"/>
<path d="M232.712 114.68L259.877 110.906V120.226L232.712 123.802V114.68Z" fill="#EA580C"/>
<path d="M285.282 107.378L312.448 103.604V113.306L285.282 116.882V107.378Z" fill="#EA580C"/>
<path d="M214.308 84.1695L305.449 69.0725V78.7225L214.308 93.1575V84.1695Z" fill="#1BB400"/>
<path d="M166.153 67.3925V70.6825L156.464 68.1725V65.0525L166.153 58.8665V62.1365L159.906 65.9425L166.153 67.3925Z" fill="#9CA3AF"/>
<path d="M318.478 66.9136C319.78 66.6976 320.862 67.5946 320.862 69.0206C320.862 70.4466 319.78 71.7446 318.478 71.9556C317.154 72.1696 316.095 71.2226 316.095 69.8016C316.095 68.3806 317.155 67.1326 318.478 66.9136ZM318.191 79.0036C317.022 79.1866 316.161 78.4126 316.161 77.1316C316.161 75.8506 317.131 74.6696 318.389 74.4676C319.758 74.2486 320.84 75.1746 320.84 77.0686C320.84 80.2956 318.655 82.4326 316.558 82.9656V81.2636C317.53 80.9266 318.699 79.9276 318.81 78.7426C318.699 78.8766 318.435 78.9646 318.191 79.0026V79.0036Z" fill="#9CA3AF"/>
<path d="M320.481 100.325C321.783 100.142 322.865 101.067 322.865 102.496C322.865 103.925 321.783 105.197 320.481 105.375C319.157 105.556 318.098 104.581 318.098 103.157C318.098 101.733 319.158 100.511 320.481 100.325ZM320.194 112.426C319.025 112.58 318.164 111.783 318.164 110.499C318.164 109.215 319.134 108.057 320.392 107.888C321.761 107.703 322.843 108.658 322.843 110.555C322.843 113.787 320.658 115.872 318.561 116.353V114.649C319.532 114.336 320.702 113.365 320.812 112.181C320.702 112.312 320.438 112.394 320.194 112.426Z" fill="#9CA3AF"/>
<path d="M216.492 112.485L220.068 111.975L227.594 126.332L224.063 126.792L216.493 112.485H216.492Z" fill="#9CA3AF"/>
<path d="M180.695 245.262L177.164 245.391L184.69 230.216L188.266 230.042L180.695 245.262Z" fill="#9CA3AF"/>
<path d="M188.133 244.991L184.602 245.12L192.128 229.854L195.704 229.68L188.133 244.992V244.991Z" fill="#9CA3AF"/>
<path d="M232.751 343.775L252.07 344.616V353.879L232.751 352.897V343.775Z" fill="#9CA3AF"/>
<path d="M204.551 342.547L223.869 343.388V352.446L204.551 351.465V342.547Z" fill="#9CA3AF"/>
<path d="M257.801 344.865L319.98 347.572V357.328L257.801 354.17V344.865Z" fill="#9CA3AF"/>
<path d="M356.673 349.169L383.391 350.332V360.549L356.673 359.192V349.169Z" fill="#9CA3AF"/>
<path d="M324.438 347.766L335.538 348.249V358.118L324.438 357.554V347.766Z" fill="#9CA3AF"/>
<path d="M340.854 348.479L351.953 348.964V358.951L340.854 358.387V348.479Z" fill="#9CA3AF"/>
<path d="M184.452 352.964L180.921 352.777L188.447 338.228L192.023 338.373L184.452 352.964Z" fill="#9CA3AF"/>
<path d="M191.89 353.358L188.358 353.171L195.885 338.53L199.46 338.675L191.89 353.357V353.358Z" fill="#9CA3AF"/>
<path d="M212.261 267.685V264.719L223.185 264.503V267.495L212.261 267.685ZM212.261 272.392V269.383L223.185 269.208V272.244L212.261 272.392Z" fill="#9CA3AF"/>
<path d="M178.207 287.239L206.283 287.195V296.125L178.207 295.965V287.239Z" fill="#E400AE"/>
<path d="M229.161 287.159L259.877 287.111V296.43L229.161 296.255V287.159Z" fill="#E400AE"/>
<path d="M292.698 287.06L348.801 286.972V296.937L292.698 296.618V287.06Z" fill="#EA580C"/>
<path d="M212.261 290.779V287.813L223.185 287.801V290.793L212.261 290.778V290.779ZM212.261 295.486V292.477L223.185 292.507V295.543L212.261 295.487V295.486Z" fill="#9CA3AF"/>
<path d="M159.412 444.066L187.488 447.745V456.539L159.412 452.655V444.066Z" fill="#E400AE"/>
<path d="M195.703 452.368V449.441L206.628 450.878V453.831L195.703 452.368ZM195.703 457.012V454.043L206.628 455.522V458.518L195.703 457.013V457.012Z" fill="#9CA3AF"/>
<path d="M268.815 293.755V290.181L275.636 290.187V293.78L268.815 293.756V293.755Z" fill="#9CA3AF"/>
<path d="M284.441 291.832L278.194 288.943V285.32L287.883 290.082V293.549L278.194 298.249V294.694L284.441 291.831V291.832Z" fill="#9CA3AF"/>
<path d="M311.363 254.239L313.614 256.39C311.163 259.004 309.663 262.076 309.663 266.366C309.663 270.656 311.164 273.677 313.614 276.207L311.363 278.435C308.582 275.839 306.309 272.114 306.309 266.424C306.309 260.734 308.582 256.931 311.363 254.24V254.239Z" fill="#9CA3AF"/>
<path d="M321.248 278.354L318.997 276.153C321.448 273.556 322.948 270.448 322.948 266.137C322.948 261.828 321.447 258.769 318.997 256.256L321.248 253.979C324.029 256.555 326.302 260.304 326.302 266.08C326.302 271.856 324.029 275.682 321.248 278.354Z" fill="#9CA3AF"/>
<path d="M332.533 261.587C333.835 261.561 334.916 262.625 334.916 264.067C334.916 265.509 333.835 266.661 332.533 266.682C331.208 266.704 330.149 265.591 330.149 264.155C330.149 262.719 331.21 261.614 332.533 261.587ZM332.246 273.762C331.076 273.775 330.215 272.867 330.215 271.572C330.215 270.277 331.186 269.226 332.444 269.208C333.813 269.188 334.895 270.282 334.895 272.197C334.895 275.458 332.709 277.297 330.613 277.527V275.808C331.584 275.61 332.754 274.772 332.864 273.591C332.754 273.71 332.49 273.76 332.246 273.763V273.762Z" fill="#9CA3AF"/>
<path d="M360.012 278.825L362.263 281.098C359.813 283.759 358.313 286.914 358.313 291.361C358.313 295.808 359.814 298.967 362.263 301.636L360.012 303.902C357.231 301.158 354.958 297.254 354.958 291.355C354.958 285.456 357.231 281.559 360.012 278.824V278.825Z" fill="#9CA3AF"/>
<path d="M395.057 304.277L392.806 301.912C395.256 299.219 396.756 295.969 396.756 291.423C396.756 286.877 395.255 283.621 392.806 280.921L395.057 278.564C397.838 281.337 400.111 285.337 400.111 291.429C400.111 297.521 397.838 301.513 395.057 304.277Z" fill="#9CA3AF"/>
<path d="M407.26 286.811C408.562 286.809 409.644 287.954 409.644 289.474C409.644 290.994 408.562 292.189 407.26 292.186C405.936 292.183 404.877 290.988 404.877 289.472C404.877 287.956 405.937 286.812 407.26 286.81V286.811ZM406.973 299.651C405.804 299.642 404.943 298.667 404.943 297.301C404.943 295.935 405.913 294.845 407.172 294.85C408.54 294.855 409.622 296.031 409.622 298.051C409.622 301.492 407.437 303.389 405.34 303.592V301.778C406.312 301.587 407.481 300.726 407.592 299.482C407.481 299.606 407.217 299.653 406.973 299.652V299.651Z" fill="#9CA3AF"/>
<path d="M178.315 309.544L206.392 310.022V318.953L178.315 318.271V309.544Z" fill="#E400AE"/>
<path d="M229.27 310.411L259.985 310.933V320.253L229.27 319.508V310.411Z" fill="#E400AE"/>
<path d="M292.807 311.491L324.401 312.029V321.817L292.807 321.05V311.491Z" fill="#EA580C"/>
<path d="M212.369 313.717V310.751L223.294 310.942V313.935L212.369 313.717ZM212.369 318.425V315.415L223.294 315.648V318.684L212.369 318.425Z" fill="#9CA3AF"/>
<path d="M268.925 317.744V314.169L275.745 314.301V317.895L268.925 317.744Z" fill="#9CA3AF"/>
<path d="M284.55 316.111L278.304 313.106V309.483L287.992 314.426V317.893L278.304 322.413V318.858L284.55 316.111Z" fill="#9CA3AF"/>
<path d="M336.897 305.511L339.148 307.79C336.697 310.359 335.198 313.432 335.198 317.804C335.198 322.176 336.699 325.312 339.148 327.985L336.897 330.169C334.116 327.417 331.843 323.533 331.843 317.733C331.843 311.933 334.116 308.145 336.897 305.511Z" fill="#9CA3AF"/>
<path d="M346.783 330.469L344.531 328.14C346.982 325.588 348.482 322.477 348.482 318.086C348.482 313.695 346.981 310.521 344.531 307.865L346.783 305.631C349.564 308.363 351.837 312.271 351.837 318.156C351.837 324.041 349.564 327.853 346.783 330.468V330.469Z" fill="#9CA3AF"/>
<path d="M357.608 313.809C358.91 313.832 359.992 314.959 359.992 316.426C359.992 317.893 358.91 319.026 357.608 318.998C356.284 318.969 355.225 317.795 355.225 316.332C355.225 314.869 356.285 313.785 357.608 313.809ZM357.321 326.198C356.152 326.167 355.291 325.208 355.291 323.889C355.291 322.57 356.261 321.537 357.519 321.567C358.888 321.599 359.97 322.756 359.97 324.705C359.97 328.026 357.785 329.815 355.688 329.969V328.217C356.659 328.053 357.829 327.244 357.939 326.046C357.829 326.163 357.565 326.204 357.321 326.198Z" fill="#9CA3AF"/>
<path d="M159.412 147.124L178.395 144.845V153.572L159.412 155.714V147.124Z" fill="#0082B6"/>
<path d="M184.485 144.114L234.334 138.128V147.262L184.485 152.886V144.114Z" fill="#EA580C"/>
<path d="M252.031 263.285L301.88 262.275V271.9L252.031 272.547V263.285Z" fill="#EA580C"/>
<path d="M159.412 461.683L187.488 465.781V474.575L159.412 470.273V461.683Z" fill="#E400AE"/>
<path d="M201.508 486.072L339.147 508.211V518.107L201.508 494.968V486.072Z" fill="#E400AE"/>
<path d="M213.614 469.594L230.748 472.095V481.203L213.614 478.578V469.594Z" fill="#0082B6"/>
<path d="M195.729 470.53V467.604L206.653 469.204V472.157L195.729 470.531V470.53ZM195.729 475.174V472.205L206.653 473.846V476.842L195.729 475.174Z" fill="#9CA3AF"/>
<path d="M295.817 473.839L298.068 476.338C295.618 478.515 294.118 481.302 294.118 485.542C294.118 489.782 295.618 493.017 298.068 495.924L295.817 497.752C293.036 494.724 290.763 490.665 290.763 485.042C290.763 479.419 293.036 476.037 295.817 473.839Z" fill="#9CA3AF"/>
<path d="M305.703 499.317L303.451 496.768C305.902 494.608 307.403 491.784 307.403 487.524C307.403 483.264 305.902 479.992 303.451 477.101L305.703 475.223C308.483 478.231 310.757 482.314 310.757 488.024C310.757 493.734 308.483 497.138 305.703 499.316V499.317Z" fill="#9CA3AF"/>
<path d="M316.528 484.549C317.83 484.739 318.913 485.971 318.913 487.395C318.913 488.819 317.831 489.778 316.528 489.584C315.205 489.386 314.145 488.111 314.145 486.691C314.145 485.271 315.205 484.356 316.528 484.549ZM316.241 496.532C315.07 496.351 314.211 495.31 314.211 494.03C314.211 492.75 315.181 491.873 316.439 492.064C317.808 492.271 318.889 493.533 318.889 495.424C318.889 498.647 316.703 500.101 314.607 499.98V498.281C315.577 498.246 316.748 497.613 316.858 496.464C316.748 496.564 316.483 496.569 316.24 496.531L316.241 496.532Z" fill="#9CA3AF"/>
<path d="M236.484 472.932L286.333 480.207V489.719L236.484 482.082V472.932Z" fill="#EA580C"/>
<path d="M178.207 373.4L246.067 378.162V387.381L178.207 382.126V373.4Z" fill="#E400AE"/>
<path d="M273.303 380.073L290.436 381.275V390.817L273.303 389.49V380.073Z" fill="#0082B6"/>
<path d="M361.428 386.256L378.561 387.459V397.64L361.428 396.314V386.256Z" fill="#0082B6"/>
<path d="M254.524 382.495V379.427L265.449 380.199V383.293L254.524 382.494V382.495ZM254.524 387.364V384.252L265.449 385.066V388.205L254.524 387.365V387.364Z" fill="#9CA3AF"/>
<path d="M354.716 377.687L356.967 380.112C354.517 382.588 353.017 385.623 353.017 390.053C353.017 394.483 354.518 397.738 356.967 400.573L354.716 402.669C351.935 399.736 349.662 395.684 349.662 389.807C349.662 383.93 351.935 380.212 354.716 377.687Z" fill="#9CA3AF"/>
<path d="M296.173 381.678L346.022 385.175V395.121L296.173 391.261V381.678Z" fill="#EA580C"/>
<path d="M385.802 387.967L473.075 394.091V404.959L385.802 398.201V387.967Z" fill="#EA580C"/>
<path d="M259.877 135.059L332.713 126.313V136.161L259.877 144.379V135.059Z" fill="#EA580C"/>
<path d="M340.771 123.15C342.073 122.992 343.155 123.953 343.155 125.404C343.155 126.855 342.073 128.123 340.771 128.276C339.447 128.432 338.388 127.42 338.388 125.975C338.388 124.53 339.448 123.311 340.771 123.15ZM340.484 135.428C339.315 135.56 338.454 134.733 338.454 133.43C338.454 132.127 339.424 130.972 340.682 130.826C342.051 130.667 343.133 131.659 343.133 133.585C343.133 136.866 340.948 138.937 338.851 139.381V137.651C339.823 137.353 340.992 136.392 341.103 135.193C340.992 135.324 340.728 135.401 340.484 135.429V135.428Z" fill="#9CA3AF"/>
<path d="M242.356 132.621L245.932 132.179L253.458 146.997L249.927 147.39L242.356 132.621Z" fill="#9CA3AF"/>
<path d="M159.412 169.387L178.395 167.465V176.192L159.412 177.977V169.387Z" fill="#0082B6"/>
<path d="M159.412 479.301L194.691 484.975V493.821L159.412 487.891V479.301Z" fill="#0082B6"/>
<path d="M184.485 166.847L211.65 164.096V173.065L184.485 175.619V166.847Z" fill="#EA580C"/>
<path d="M231.051 162.133L259.878 159.214V168.533L231.051 171.243V162.133Z" fill="#EA580C"/>
<path d="M281.882 156.986L385.801 146.463V156.697L281.882 166.465V156.986Z" fill="#EA580C"/>
<path d="M393.271 143.426C394.573 143.292 395.655 144.316 395.655 145.822C395.655 147.328 394.573 148.62 393.271 148.749C391.947 148.88 390.888 147.804 390.888 146.303C390.888 144.802 391.948 143.561 393.271 143.425V143.426ZM392.984 156.17C391.815 156.28 390.954 155.401 390.954 154.048C390.954 152.695 391.924 151.518 393.182 151.395C394.551 151.262 395.633 152.317 395.633 154.317C395.633 157.724 393.448 159.824 391.351 160.237V158.44C392.323 158.153 393.492 157.182 393.603 155.939C393.492 156.072 393.228 156.147 392.984 156.17Z" fill="#9CA3AF"/>
<path d="M214.771 159.338L218.346 158.963L225.872 173.582L222.341 173.909L214.771 159.338Z" fill="#9CA3AF"/>
<path d="M265.855 153.982L269.431 153.607L276.957 168.857L273.426 169.184L265.855 153.983V153.982Z" fill="#9CA3AF"/>
<path d="M295.131 184.505L297.382 186.509C294.932 189.222 293.432 192.337 293.432 196.575C293.432 200.813 294.933 203.717 297.382 206.086L295.131 208.407C292.35 205.991 290.077 202.433 290.077 196.811C290.077 191.189 292.35 187.312 295.131 184.505Z" fill="#9CA3AF"/>
<path d="M336.061 205.9L333.81 203.795C336.26 201.039 337.76 197.816 337.76 193.459C337.76 189.102 336.259 186.09 333.81 183.679L336.061 181.257C338.842 183.714 341.115 187.384 341.115 193.223C341.115 199.062 338.842 203.052 336.061 205.9Z" fill="#9CA3AF"/>
<path d="M352.789 199.417C352.789 200.902 353.561 201.283 354.377 201.231L355.017 201.19V204.403L354.112 204.459C351.486 204.62 349.5 203.31 349.5 199.894V196.311C349.5 194.782 348.639 194.245 347.403 194.33V190.896C348.639 190.807 349.5 190.172 349.5 188.644V185.085C349.5 181.67 351.486 180.079 354.112 179.871L355.017 179.799V183.012L354.377 183.061C353.561 183.124 352.789 183.591 352.789 185.075V189.193C352.789 190.654 352.083 191.829 350.669 192.383C352.06 192.74 352.789 193.814 352.789 195.298V199.416V199.417Z" fill="#9CA3AF"/>
<path d="M153.314 413.329C153.314 412.06 154.042 411.173 155.433 410.928C154.021 410.393 153.314 409.358 153.314 408.109V404.588C153.314 403.319 152.54 402.896 151.724 402.817L151.084 402.755V400.018L151.988 400.103C154.615 400.351 156.601 401.77 156.601 404.705V407.764C156.601 409.078 157.462 409.658 158.698 409.784V412.745C157.462 412.616 156.601 413.039 156.601 414.353V417.432C156.601 420.367 154.615 421.376 151.988 421.081L151.084 420.979V418.241L151.724 418.311C152.54 418.401 153.314 418.117 153.314 416.848V413.328V413.329Z" fill="#9CA3AF"/>
<path d="M310.529 67.0895C311.654 66.9025 312.449 67.5835 312.449 68.7685C312.449 69.8835 311.566 70.9815 310.352 71.1795C309.051 71.3925 308.057 70.5355 308.057 68.8905C308.057 65.8325 310.153 63.9505 312.096 63.4595V65.1555C311.191 65.4235 310.11 66.3005 309.955 67.3245C310.043 67.2405 310.308 67.1265 310.529 67.0895Z" fill="#1BB400"/>
<path d="M209.731 83.8726C210.856 83.6856 211.651 84.3046 211.651 85.4006C211.651 86.4316 210.768 87.4566 209.555 87.6556C208.253 87.8686 207.259 87.0886 207.259 85.5686C207.259 82.7426 209.355 80.9756 211.298 80.4976V82.0656C210.393 82.3246 209.312 83.1496 209.157 84.0976C209.245 84.0186 209.51 83.9106 209.731 83.8736V83.8726Z" fill="#1BB400"/>
<path d="M218.003 450.596L426.786 477.763V488.295L218.003 459.611V450.596Z" fill="#1BB400"/>
<path d="M434.038 477.46C435.163 477.606 435.958 478.597 435.958 479.891C435.958 481.11 435.075 482.034 433.861 481.873C432.56 481.701 431.565 480.456 431.565 478.658C431.565 475.317 433.662 473.912 435.605 473.981V475.834C434.699 475.845 433.619 476.467 433.464 477.537C433.552 477.472 433.817 477.431 434.038 477.459V477.46Z" fill="#1BB400"/>
<path d="M213.426 448.942C214.552 449.088 215.346 449.944 215.346 451.043C215.346 452.078 214.464 452.844 213.25 452.684C211.948 452.512 210.954 451.435 210.954 449.911C210.954 447.076 213.051 445.925 214.993 446.021V447.593C214.088 447.585 213.007 448.092 212.852 448.997C212.94 448.944 213.205 448.914 213.426 448.942Z" fill="#1BB400"/>
<path d="M484.106 386.006L486.357 388.646C483.906 391.369 482.407 394.699 482.407 399.545C482.407 404.391 483.908 407.942 486.357 411.024L484.106 413.334C481.325 410.146 479.052 405.729 479.052 399.299C479.052 392.869 481.325 388.786 484.106 386.006Z" fill="#9CA3AF"/>
<path d="M172.761 64.1005C172.761 63.1225 173.114 61.9945 174.372 60.8385L175.409 59.8895C175.895 59.4415 176.115 58.9825 176.115 58.5025C176.115 57.8135 175.563 57.2945 174.593 57.4825C173.666 57.6615 173.004 58.4765 173.004 59.3715C173.004 59.7455 173.048 60.0085 173.093 60.0835L169.451 60.7805C169.385 60.5235 169.362 60.2375 169.362 59.9055C169.362 57.4155 171.327 54.9555 174.615 54.3105C178.368 53.5745 180.089 55.3935 180.089 57.5085C180.089 59.1835 179.272 60.5115 177.926 61.7075L177.065 62.4765C176.381 63.0855 175.962 63.6035 175.962 64.4585L172.872 65.0375C172.806 64.7795 172.762 64.4345 172.762 64.1015L172.761 64.1005ZM174.482 65.7355C175.674 65.5135 176.602 66.1965 176.602 67.3445C176.602 68.4925 175.675 69.4975 174.482 69.7155C173.29 69.9335 172.363 69.2305 172.363 68.1275C172.363 67.0245 173.29 65.9575 174.482 65.7355Z" fill="#9CA3AF"/>
</g>
</g>
<path d="M599.461 414.37V472.271C599.461 476.241 596.284 479.531 592.195 479.795L447.228 489.162H447.207" stroke="black" stroke-width="1.5" stroke-linecap="round" stroke-linejoin="round"/>
<path d="M447.207 64.0107L562.524 72.2937L592.25 74.4277C596.316 74.7197 599.46 78.0007 599.459 81.9507L599.44 144.592L590.063 145.502C574.915 146.957 562.647 163.621 562.647 182.71C562.647 193.744 566.743 203.362 573.127 209.359" stroke="black" stroke-width="1.5" stroke-linecap="round" stroke-linejoin="round"/>
<path d="M447.207 276.502L599.451 277.601" stroke="black" stroke-width="1.5" stroke-linecap="round" stroke-linejoin="round"/>
<path d="M366.631 30.4639C378.766 31.8989 387.807 43.9019 387.817 60.0919V71.7789" stroke="black" stroke-width="1.5" stroke-linecap="round" stroke-linejoin="round"/>
<path d="M332.963 79.5468V68.2858C332.953 50.0978 345.231 33.2448 360.38 30.6428C362.147 30.3358 363.873 30.2468 365.548 30.3658" stroke="black" stroke-width="1.5" stroke-linecap="round" stroke-linejoin="round"/>
<path d="M387.868 471.597L333.044 474.744V474.734L282.715 467.609" stroke="black" stroke-width="1.5" stroke-linecap="round" stroke-linejoin="round"/>
<path d="M282.715 467.609L282.694 404.217L273.317 403.425C258.178 402.139 245.9 387.295 245.9 370.254C245.89 353.214 258.158 339.884 273.297 340.478L282.674 340.854L282.663 277.462" stroke="#9CA3AF" stroke-width="1.5" stroke-linecap="round" stroke-linejoin="round"/>
<path d="M202.64 237.929C208.452 238.246 213.754 240.601 217.982 244.381C223.978 249.754 227.799 257.998 227.799 267.369V277.779L282.663 277.462" stroke="#9CA3AF" stroke-width="1.5" stroke-linecap="round" stroke-linejoin="round"/>
<path d="M227.87 450.727L173.056 453.359L126.37 447.294C121.698 446.687 118.21 442.826 118.208 438.26L118.183 390.293L127.56 391.085C142.699 392.362 154.966 380.516 154.956 364.604C154.945 348.702 142.667 335.332 127.518 334.729L118.141 334.363L118.11 278.422L172.965 278.095V268.11C172.954 251.98 185.223 238.462 200.371 237.908C200.463 237.908 200.565 237.898 200.657 237.898C201.3 237.888 201.934 237.888 202.557 237.928" stroke="black" stroke-width="1.5" stroke-linecap="round" stroke-linejoin="round"/>
<path d="M282.715 467.609L227.881 460.484L227.871 450.727V450.074C227.871 433.261 215.592 418.408 200.444 416.894C185.305 415.39 173.038 427.245 173.048 443.375L173.058 453.36" stroke="black" stroke-width="1.5" stroke-linecap="round" stroke-linejoin="round"/>
<path d="M365.548 30.3647L366.631 30.4637L539.203 45.7027C551.797 45.6037 561.38 56.6177 562.523 72.2927" stroke="black" stroke-width="1.5" stroke-linecap="round" stroke-linejoin="round"/>
<path d="M447.196 134.854L599.44 144.592" stroke="black" stroke-width="1.5" stroke-linecap="round" stroke-linejoin="round"/>
<path d="M447.207 205.668L573.127 209.359L595.411 210.012C597.662 210.078 599.451 211.864 599.451 214.046V344.921" stroke="black" stroke-width="1.5" stroke-linecap="round" stroke-linejoin="round"/>
<path d="M457.217 419.812H447.206L447.217 488.983L387.868 481.858V470.171C387.858 451.3 375.589 434.784 360.451 433.28C345.312 431.766 333.035 445.293 333.045 463.472V474.733" stroke="black" stroke-width="1.5" stroke-linecap="round" stroke-linejoin="round"/>
<path d="M457.228 347.336C473.398 347.336 486.503 363.565 486.503 383.574C486.503 403.583 474.317 418.654 458.933 419.743C458.371 419.792 457.799 419.812 457.227 419.812" stroke="black" stroke-width="1.5" stroke-linecap="round" stroke-linejoin="round"/>
<path d="M457.218 347.336H457.228L599.452 344.981L602.782 344.922C616.603 344.922 627.798 360.448 627.798 379.597C627.798 398.746 616.603 414.272 602.782 414.272L599.462 414.371L458.934 419.744L457.228 419.813H457.218" stroke="black" stroke-width="1.5" stroke-linecap="round" stroke-linejoin="round"/>
<path d="M447.207 276.502L387.837 276.819V288.506C387.848 307.377 375.569 322.369 360.431 322.003C345.292 321.627 333.014 306.585 333.004 288.397V277.136L282.665 277.463L282.654 238.988" stroke="#9CA3AF" stroke-width="1.5" stroke-linecap="round" stroke-linejoin="round"/>
<path d="M282.654 238.987L282.644 214.069L292.021 213.584C307.16 212.812 319.437 197.632 319.437 179.671C319.427 161.71 307.148 148.331 292 149.796L282.623 150.697L282.605 97.5281C282.603 91.6401 287.021 86.6241 293.024 85.7001L332.962 79.5471" stroke="black" stroke-width="1.5" stroke-linecap="round" stroke-linejoin="round"/>
<path d="M200.383 237.899H200.658L202.559 237.929H202.64L282.654 238.987H282.664" stroke="black" stroke-width="1.5" stroke-linecap="round" stroke-linejoin="round"/>
<path d="M387.817 71.779L447.197 64.011V134.855L437.82 135.756C422.672 137.211 410.403 153.875 410.403 172.974C410.403 192.073 422.682 206.916 437.83 206.145L447.207 205.67V276.504" stroke="black" stroke-width="1.5" stroke-linecap="round" stroke-linejoin="round"/>
<path d="M447.207 276.502V347.336H457.218" stroke="black" stroke-width="1.5" stroke-linecap="round" stroke-linejoin="round"/>
<path d="M53.4981 453.748L52.0818 462.388L37.1068 455.655L31.6885 453.219C28.952 451.989 29.5972 448.054 32.5928 447.705L38.5231 447.015L54.9143 445.109L53.4981 453.749V453.748Z" fill="black"/>
<path d="M95.9521 412.418L89.1557 436.242C89.1506 436.26 68.7005 437.818 60.5353 451.629C59.819 452.818 58.3253 453.345 57.0277 452.791L38.6246 444.925C37.1898 444.314 36.5725 442.66 37.2858 441.302C50.8383 415.243 81.8009 408.63 95.9511 412.418H95.9521Z" fill="#C2410C"/>
<path d="M57.0277 452.791L38.6246 444.925C37.1898 444.314 36.5725 442.66 37.2858 441.302C50.8383 415.243 81.8009 408.63 95.9511 412.418L89.1547 436.242C89.1495 436.26 68.6995 437.818 60.5343 451.629C59.8179 452.818 58.3243 453.345 57.0267 452.791H57.0277Z" stroke="black" stroke-width="1.5" stroke-miterlimit="10" stroke-linecap="round" stroke-linejoin="round"/>
<path d="M106.001 462.434L109.737 470.398L93.4118 472.78L87.5052 473.642C84.522 474.077 82.8208 470.45 85.1207 468.559L89.675 464.816L102.264 454.47L106 462.434H106.001Z" fill="black"/>
<path d="M115.653 454.891C116.281 456.364 115.437 458.038 113.848 458.456L96.832 462.962C95.3796 463.352 93.8684 462.515 93.4761 461.108L79.7471 412.463L95.7626 408.214L115.654 454.891H115.653Z" fill="#EA580C"/>
<path d="M113.847 458.455L96.831 462.961C95.3786 463.351 93.8674 462.514 93.4751 461.107L79.7461 412.462L95.7616 408.213L115.653 454.89C116.281 456.363 115.437 458.037 113.848 458.455H113.847Z" stroke="black" stroke-width="1.5" stroke-miterlimit="10" stroke-linecap="round" stroke-linejoin="round"/>
<path d="M85.5409 341.254L97.5327 345.475C94.3822 353.85 93.3324 374.945 95.5508 385.088L83.0687 387.655C80.3404 375.192 81.5874 351.768 85.542 341.254H85.5409Z" fill="#F3F4F6"/>
<path d="M83.0673 387.655L95.5494 385.088C93.3321 374.945 94.3819 353.85 97.5313 345.475L85.5396 341.254C81.585 351.768 80.3391 375.192 83.0663 387.655H83.0673Z" stroke="black" stroke-width="1.5" stroke-miterlimit="10" stroke-linecap="round" stroke-linejoin="round"/>
<path d="M262.276 229.409L288.436 272.34C289.42 273.956 288.509 276.035 286.624 276.47L197.259 297.109L169.108 250.924L175.246 247.42C185.157 241.753 186.893 226.826 179.121 214.08C171.35 201.325 157.026 195.588 147.114 201.245L140.975 204.759L112.834 158.574L200.574 138.303C203.801 137.557 207.152 138.937 208.839 141.704L234.144 183.233L240.272 179.729C250.183 174.062 264.518 179.809 272.28 192.554C280.052 205.299 278.315 220.227 268.415 225.894L262.276 229.409Z" fill="#EA580C"/>
<path d="M287.248 276.326L255.434 297.11L212.565 306.461L161.366 317.634L197.259 297.11L287.248 276.326Z" fill="#C2410C"/>
<path d="M213.836 308.733L218.653 316.632L125.484 338.158L120.678 330.259C112.906 317.504 114.642 302.576 124.543 296.919C134.453 291.252 148.788 296.989 156.55 309.744L161.366 317.633L212.565 306.46V306.47C212.958 307.231 213.382 307.982 213.836 308.733Z" fill="black"/>
<path d="M218.652 316.633L182.759 337.157L89.6006 358.673L125.484 338.158L218.652 316.633Z" fill="#C2410C"/>
<path d="M169.107 250.925L197.259 297.11L161.366 317.634L156.55 309.745C148.788 296.99 134.454 291.253 124.543 296.92C114.642 302.577 112.906 317.504 120.678 330.26L125.484 338.159L91.7095 357.468C90.5452 358.134 89.0453 357.759 88.3578 356.631L61.4603 312.498L55.3214 316.002C45.4107 321.669 31.0861 315.922 23.3142 303.177C15.5423 290.422 17.2786 275.494 27.1893 269.837L33.3178 266.323L9.01948 226.446C6.89716 222.962 8.09148 218.471 11.6868 216.415L41.068 199.614L45.8845 207.513C53.6461 220.258 67.98 226.005 77.8814 220.338C84.7955 216.383 87.7302 207.913 86.2324 198.832C85.581 194.897 84.1039 190.843 81.7575 186.998L76.9513 179.099L112.834 158.575L140.975 204.76L147.114 201.246C157.025 195.589 171.349 201.326 179.121 214.081C186.893 226.826 185.157 241.754 175.246 247.421L169.107 250.925Z" fill="#C2410C"/>
<path d="M86.2327 198.833C87.7316 207.914 84.7958 216.384 77.8818 220.339C67.9814 226.006 53.6464 220.259 45.8849 207.514L41.0684 199.615L86.2317 198.834L86.2327 198.833Z" fill="black"/>
<path d="M197.258 297.11L169.107 250.925L175.245 247.421C185.156 241.754 186.892 226.827 179.12 214.081C171.349 201.326 157.025 195.589 147.113 201.246L140.974 204.76L112.833 158.575" stroke="white" stroke-width="1.5" stroke-miterlimit="10" stroke-linecap="round" stroke-linejoin="round"/>
<path d="M90.9238 357.916L125.483 338.158L120.677 330.259C112.905 317.504 114.641 302.576 124.541 296.919C134.452 291.252 148.787 296.989 156.549 309.744L161.365 317.633" stroke="black" stroke-width="1.5" stroke-miterlimit="10" stroke-linecap="round" stroke-linejoin="round"/>
<path d="M105.066 396.111L100.03 418.438L74.7979 413.097L79.8332 390.77C81.3558 384.018 88.2389 379.734 95.2087 381.209C102.179 382.684 106.589 389.359 105.067 396.111H105.066Z" fill="white"/>
<path d="M95.2077 381.209C88.2379 379.734 81.3558 384.018 79.8322 390.77L74.7969 413.097L100.029 418.438L105.065 396.111C106.587 389.359 102.176 382.684 95.2067 381.209H95.2077Z" stroke="black" stroke-width="1.5" stroke-miterlimit="10" stroke-linecap="round" stroke-linejoin="round"/>
<path d="M129.388 378.789C132.586 380.622 133.153 384.88 130.532 387.441L117.815 399.878C114.869 402.765 109.837 401.7 108.401 397.885L101.929 380.72C103.595 379.54 104.939 377.909 105.756 375.912C107.621 371.361 106.137 366.322 102.443 363.357L129.389 378.788L129.388 378.789Z" fill="black"/>
<path d="M105.757 375.913C104.939 377.91 103.595 379.541 101.929 380.721L96.9539 367.507L84.5957 367.778C86.9121 362.123 93.5278 359.348 99.3745 361.595L102.437 363.345C102.437 363.345 102.433 363.354 102.442 363.357C106.137 366.322 107.62 371.361 105.756 375.912L105.757 375.913Z" fill="black"/>
<path d="M96.9526 367.507L101.928 380.721C98.8798 382.904 94.7673 383.563 90.9727 382.104C85.126 379.856 82.2739 373.442 84.5944 367.778L96.9526 367.507Z" fill="#EA580C"/>
<path d="M102.437 363.346L99.374 361.596" stroke="black" stroke-width="1.5" stroke-miterlimit="10" stroke-linecap="round" stroke-linejoin="round"/>
<path d="M84.5957 367.779L96.9539 367.508L101.929 380.722L108.402 397.887C109.838 401.702 114.87 402.767 117.816 399.88L130.532 387.443C133.154 384.882 132.586 380.623 129.388 378.791L102.442 363.36" stroke="black" stroke-width="1.5" stroke-miterlimit="10" stroke-linecap="round" stroke-linejoin="round"/>
<path d="M102.442 363.358C106.137 366.323 107.62 371.362 105.756 375.913C104.938 377.91 103.594 379.541 101.928 380.721C98.8798 382.904 94.7673 383.563 90.9727 382.104C85.126 379.856 82.2739 373.442 84.5944 367.778C86.9108 362.123 93.5265 359.348 99.3732 361.595C100.514 362.033 101.536 362.631 102.436 363.345C102.436 363.345 102.432 363.354 102.441 363.357L102.442 363.358Z" stroke="black" stroke-width="1.5" stroke-miterlimit="10" stroke-linecap="round" stroke-linejoin="round"/>
<path d="M93.0187 375.706C92.5759 376.786 91.3134 377.314 90.1986 376.886C89.0838 376.457 88.5387 375.234 88.9805 374.154" stroke="white" stroke-width="1.5" stroke-miterlimit="10" stroke-linecap="round" stroke-linejoin="round"/>
<path d="M41.0674 199.614L86.2307 198.833" stroke="black" stroke-width="1.5" stroke-linecap="round" stroke-linejoin="round"/>
<path d="M218.651 316.633L125.482 338.158" stroke="black" stroke-width="1.5" stroke-linecap="round" stroke-linejoin="round"/>
<path d="M161.365 317.634L212.564 306.461L255.433 297.11L288.204 275.868" stroke="black" stroke-width="1.5" stroke-linecap="round" stroke-linejoin="round"/>
<path d="M112.832 158.575L76.9501 179.099L81.7563 186.998C84.1026 190.843 85.5798 194.897 86.2311 198.832C87.73 207.913 84.7942 216.383 77.8802 220.338C67.9798 226.005 53.6448 220.258 45.8832 207.513L41.0667 199.614L11.6856 216.415C8.08918 218.471 6.89486 222.962 9.01822 226.446L33.3165 266.323L27.188 269.837C17.2773 275.494 15.5411 290.421 23.3129 303.177C31.0848 315.922 45.4084 321.669 55.3202 316.002L61.459 312.498L88.3669 356.648C89.1008 357.852 90.5584 358.452 91.9622 358.128L182.759 337.158L218.651 316.634L213.835 308.735C213.38 307.984 212.956 307.233 212.564 306.472" stroke="black" stroke-width="1.5" stroke-linecap="round" stroke-linejoin="round"/>
<path d="M161.366 317.634L197.258 297.11L287.247 276.326C288.822 275.962 289.583 274.226 288.761 272.876L262.275 229.409L268.414 225.895C278.314 220.228 280.051 205.301 272.279 192.555C264.517 179.81 250.183 174.063 240.271 179.73L234.143 183.234L208.838 141.705C207.151 138.937 203.8 137.558 200.573 138.304L112.833 158.575" stroke="black" stroke-width="1.5" stroke-linecap="round" stroke-linejoin="round"/>
<path d="M114.121 347.412L113.789 350.962C113.583 353.158 111.58 354.777 109.312 354.578C107.035 354.378 105.364 352.437 105.57 350.24L105.902 346.69C106.108 344.494 108.112 342.865 110.39 343.065C111.523 343.165 112.508 343.7 113.182 344.494C113.857 345.279 114.223 346.313 114.121 347.411V347.412Z" fill="#EA580C"/>
<path d="M109.313 354.578C107.036 354.378 105.365 352.437 105.571 350.24L105.903 346.69C106.109 344.494 108.113 342.865 110.391 343.065C111.524 343.165 112.509 343.7 113.183 344.494C113.858 345.279 114.224 346.313 114.122 347.411L113.79 350.961C113.584 353.157 111.581 354.776 109.313 354.577V354.578Z" stroke="black" stroke-width="1.5" stroke-miterlimit="10" stroke-linecap="round" stroke-linejoin="round"/>
<path d="M114.325 349.759C114.816 360.942 108.703 383.629 102.216 394.714L91.1113 388.613C96.3882 379.598 101.964 359.173 101.585 350.282L114.325 349.759Z" fill="white"/>
<path d="M91.1113 388.613C96.3882 379.598 101.964 359.173 101.585 350.282L114.325 349.759C114.816 360.942 108.703 383.629 102.216 394.714" stroke="black" stroke-width="1.5" stroke-linecap="round" stroke-linejoin="round"/>
<path d="M542.201 101.932L546.823 100.12L547.751 108.782L548.043 111.512C548.227 113.23 545.978 114.111 544.877 112.753L543.129 110.594L537.578 103.743L542.201 101.931V101.932Z" fill="black"/>
<path d="M549.693 106.349L536.345 105.042C538.021 89.0061 535.953 77.2391 530.353 71.0071C526.616 66.8621 521.817 65.8581 518.449 65.7381L518.929 52.7451C527.437 53.0371 535.089 56.4931 540.462 62.4671C548.683 71.5961 551.792 86.3631 549.693 106.349Z" fill="#F3F4F6"/>
<path d="M549.693 106.349L536.345 105.042C538.021 89.0061 535.953 77.2391 530.353 71.0071C526.616 66.8621 521.817 65.8581 518.449 65.7381L518.929 52.7451C527.437 53.0371 535.089 56.4931 540.462 62.4671C548.683 71.5961 551.792 86.3631 549.693 106.349Z" stroke="black" stroke-width="1.5" stroke-linecap="round" stroke-linejoin="round"/>
<path d="M530.831 103.79L535.454 101.978L536.382 110.64L536.674 113.37C536.858 115.088 534.608 115.969 533.508 114.611L531.759 112.452L526.209 105.601L530.831 103.789V103.79Z" fill="black"/>
<path d="M534.035 33.3687L531.633 57.3057L504.582 54.7588L506.984 30.8218C507.71 23.5858 514.35 18.2938 521.819 18.9968C529.288 19.6998 534.761 26.1327 534.035 33.3687Z" fill="#C2410C"/>
<path d="M521.819 18.9958C514.349 18.2928 507.71 23.5848 506.984 30.8208L504.582 54.7578L531.633 57.3048L534.035 33.3678C534.761 26.1318 529.288 19.6988 521.819 18.9958Z" stroke="black" stroke-width="1.5" stroke-linecap="round" stroke-linejoin="round"/>
<path d="M534.392 11.3565C535.822 13.6525 536.162 16.5385 535.064 19.2175C533.2 23.7715 527.874 26.0065 523.164 24.1925C518.455 22.3865 516.156 17.2195 518.02 12.6645L534.392 11.3555V11.3565Z" fill="#EA580C"/>
<path d="M534.392 11.3565L518.021 12.6655C519.893 8.10352 525.218 5.87652 529.928 7.68252C531.871 8.43252 533.404 9.74952 534.392 11.3565Z" fill="black"/>
<path d="M534.392 11.3561C535.822 13.6521 536.162 16.5381 535.064 19.2171C533.2 23.7711 527.874 26.0061 523.164 24.1921C518.455 22.3861 516.156 17.2191 518.02 12.6641C519.893 8.10206 525.218 5.87506 529.927 7.68106C531.871 8.43106 533.404 9.74806 534.392 11.3551V11.3561Z" stroke="black" stroke-width="1.5" stroke-linecap="round" stroke-linejoin="round"/>
<path d="M518.021 12.6652L534.392 11.3562" stroke="black" stroke-width="1.5" stroke-linecap="round" stroke-linejoin="round"/>
<path d="M526.456 63.2293C535.003 72.0793 538.657 86.7193 537.305 106.769L523.906 105.919C525 89.8393 522.492 78.1493 516.659 72.1193C514.678 70.0693 512.458 68.8493 510.301 68.1393C506.915 67.0393 504.582 64.0493 504.582 60.5893V54.2593C513.098 54.2593 520.861 57.4493 526.456 63.2293Z" fill="#F3F4F6"/>
<path d="M537.305 106.769L523.906 105.919C525 89.8393 522.492 78.1493 516.659 72.1193C514.678 70.0693 512.458 68.8493 510.301 68.1393C506.915 67.0393 504.582 64.0493 504.582 60.5893V54.2593C513.098 54.2593 520.861 57.4493 526.456 63.2293C535.003 72.0793 538.657 86.7193 537.305 106.769Z" stroke="black" stroke-width="1.5" stroke-linecap="round" stroke-linejoin="round"/>
<path d="M523.805 57.2961V62.6541L510.591 58.8681C509.678 58.6001 509.87 57.2961 510.832 57.2961H523.805Z" fill="#9CA3AF"/>
<path d="M523.805 62.6541L510.591 58.8681C509.678 58.6001 509.87 57.2961 510.832 57.2961H523.805" stroke="black" stroke-width="1.5" stroke-linecap="round" stroke-linejoin="round"/>
<path d="M519.628 42.1863C522.895 48.1306 528.912 52.9426 539.971 52.1551L540.43 58.1366C523.03 59.3844 511.611 48.8652 509.889 29.9923" stroke="black" stroke-width="1.5" stroke-linecap="round" stroke-linejoin="round"/>
<path d="M556.775 41.094V62.654H523.806V57.296V41.094H556.775Z" fill="#F3F4F6"/>
<path d="M523.806 57.296V41.094H556.775V62.654H523.806V57.296Z" stroke="black" stroke-width="1.5" stroke-linecap="round" stroke-linejoin="round"/>
<path d="M528.913 19.521C528.435 20.689 527.07 21.26 525.864 20.797C524.658 20.334 524.069 19.011 524.547 17.843" stroke="white" stroke-width="1.5" stroke-miterlimit="10" stroke-linecap="round" stroke-linejoin="round"/>
<path d="M541.337 55.4041C543.644 55.4041 545.514 53.5922 545.514 51.3571C545.514 49.122 543.644 47.3101 541.337 47.3101C539.03 47.3101 537.159 49.122 537.159 51.3571C537.159 53.5922 539.03 55.4041 541.337 55.4041Z" fill="white"/>
<path d="M328.547 390.43L328.283 393.257C328.118 395.018 326.511 396.31 324.7 396.151C322.89 395.992 321.549 394.442 321.713 392.68L321.977 389.853C322.141 388.099 323.749 386.8 325.56 386.959C326.465 387.038 327.251 387.466 327.791 388.092C328.337 388.727 328.63 389.553 328.547 390.429V390.43Z" fill="#EA580C"/>
<path d="M324.7 396.151C322.89 395.992 321.549 394.442 321.713 392.68L321.977 389.853C322.141 388.099 323.749 386.8 325.56 386.959C326.465 387.038 327.251 387.466 327.791 388.092C328.337 388.727 328.63 389.553 328.547 390.429L328.283 393.256C328.118 395.017 326.511 396.309 324.7 396.15V396.151Z" stroke="black" stroke-width="1.5" stroke-linecap="round" stroke-linejoin="round"/>
<path d="M318.181 389.333L329.606 384.698" stroke="black" stroke-width="1.5" stroke-linecap="round" stroke-linejoin="round"/>
<path d="M291.759 487.16L292.376 479.92L305.837 484.642L310.313 486.212C312.8 487.084 312.501 490.579 309.901 491.044L305.22 491.881L296.019 493.527C293.561 493.967 291.344 492.024 291.55 489.611L291.76 487.16H291.759Z" fill="black"/>
<path d="M269.641 484.24L270.258 477L283.719 481.722L288.195 483.292C290.681 484.164 290.383 487.659 287.783 488.124L283.101 488.961L273.901 490.607C271.443 491.047 269.226 489.104 269.432 486.691L269.642 484.24H269.641Z" fill="black"/>
<path d="M300.747 365.252C306.717 367.546 309.648 374.107 307.269 379.89C304.901 385.683 298.129 388.512 292.159 386.218C286.179 383.924 283.259 377.363 285.627 371.57C287.995 365.787 294.768 362.948 300.747 365.252Z" fill="#C2410C"/>
<path d="M307.269 379.89C304.901 385.683 298.129 388.512 292.159 386.218C286.179 383.924 283.259 377.363 285.627 371.57C287.995 365.787 294.768 362.948 300.747 365.252C306.717 367.546 309.648 374.107 307.269 379.89Z" stroke="black" stroke-width="1.5" stroke-linecap="round" stroke-linejoin="round"/>
<path d="M304.593 397.908L299.952 425.788L268.443 420.865L273.084 392.985C274.488 384.554 282.678 378.813 291.381 380.173C300.084 381.533 305.997 389.477 304.593 397.908Z" fill="#EA580C"/>
<path d="M291.381 380.173C282.678 378.813 274.487 384.554 273.084 392.985L268.443 420.865L299.952 425.788L304.593 397.908C305.997 389.477 300.084 381.533 291.381 380.173Z" stroke="black" stroke-width="1.5" stroke-linecap="round" stroke-linejoin="round"/>
<path d="M283.638 468.367L284.863 482L266.758 485.154C264.406 484.954 262.672 482.934 262.878 480.655L268.395 421.073L299.911 423.458L304.81 487.257L289.676 488.338C287.336 488.514 285.286 486.823 285.093 484.567L283.638 468.367Z" fill="#F3F4F6"/>
<path d="M283.638 468.367L280.558 434.288" stroke="black" stroke-width="1.5" stroke-linecap="round" stroke-linejoin="round"/>
<path d="M283.638 468.367L284.908 482.5L266.758 485.154C264.406 484.954 262.672 482.934 262.878 480.655L268.395 421.073L299.911 423.458L304.81 487.257L289.676 488.338C287.336 488.514 285.286 486.823 285.093 484.567L283.638 468.367Z" stroke="black" stroke-width="1.5" stroke-linecap="round" stroke-linejoin="round"/>
<path d="M283.649 468.191L283.638 468.367" stroke="black" stroke-width="1.5" stroke-linecap="round" stroke-linejoin="round"/>
<path d="M319.299 393.96L329 394.066C328.867 405.061 322.816 408.174 319.227 409.056C318.111 409.326 316.948 409.455 315.758 409.455C306.228 409.455 295.022 401.302 291.203 394.618L299.704 390.072C302.408 394.83 312.254 401.044 316.851 399.94C318.815 399.458 319.264 396.416 319.3 393.961L319.299 393.96Z" fill="#EA580C"/>
<path d="M299.704 390.071C302.408 394.829 312.254 401.043 316.851 399.939C318.815 399.457 319.264 396.415 319.3 393.96L329.001 394.066C328.868 405.061 322.817 408.174 319.228 409.056C318.112 409.326 316.949 409.455 315.759 409.455C306.229 409.455 295.023 401.302 291.204 394.618" stroke="black" stroke-width="1.5" stroke-linecap="round" stroke-linejoin="round"/>
<path d="M278.642 370.934L290.903 365.909C288.364 367.085 286.267 369.155 285.153 371.887C284.02 374.657 284.099 377.593 285.133 380.168L278.12 374.948C276.645 373.85 276.936 371.624 278.642 370.934Z" fill="black"/>
<path d="M305.25 369.224L305.23 369.234L292.237 382.774C291.384 383.659 289.979 383.775 288.986 383.036L285.134 380.169C284.101 377.593 284.02 374.658 285.154 371.888C286.267 369.157 288.364 367.086 290.903 365.91L292.007 365.453C294.596 364.539 297.515 364.51 300.274 365.57C302.321 366.357 304.007 367.64 305.251 369.225L305.25 369.224Z" fill="black"/>
<path d="M292.006 365.452L290.902 365.909C291.264 365.734 291.625 365.579 292.006 365.452Z" fill="#C2410C"/>
<path d="M305.23 369.233L292.237 382.773C291.385 383.658 289.98 383.774 288.987 383.035L285.134 380.168L278.121 374.948C276.646 373.85 276.937 371.624 278.643 370.934L290.904 365.909L292.007 365.452L292.128 365.403" stroke="black" stroke-width="1.5" stroke-linecap="round" stroke-linejoin="round"/>
</svg>
