<svg viewBox="0 0 612 477" fill="none" xmlns="http://www.w3.org/2000/svg">
<path d="M329.956 22.8851C333.536 22.8851 336.426 25.7751 336.426 29.3451C336.426 32.9151 333.536 35.8151 329.956 35.8151H327.776C327.776 35.8151 327.746 35.8251 327.746 35.8451V46.5451C327.746 47.7651 326.756 48.7551 325.536 48.7551H314.846C314.846 48.7551 314.816 48.7651 314.816 48.7851V50.7251C314.816 54.2951 312.016 57.3751 308.446 57.4351C304.876 57.4951 301.876 54.5751 301.876 50.9751V48.7951C301.876 48.7951 301.866 48.7651 301.846 48.7651H291.146C289.926 48.7651 288.936 47.7751 288.936 46.5551V35.8551C288.936 35.8551 288.926 35.8251 288.906 35.8251H286.726C283.156 35.8251 280.256 32.9351 280.256 29.3551C280.256 25.7751 283.156 22.8951 286.726 22.8951H288.906C288.906 22.8951 288.936 22.8851 288.936 22.8651V12.1651C288.936 10.9451 289.926 9.95508 291.146 9.95508H299.796C300.946 9.95508 301.886 10.8851 301.886 12.0451C301.886 15.0451 303.876 17.7851 306.796 18.4651C311.036 19.4551 314.816 16.2551 314.816 12.1751C314.816 10.9551 315.806 9.96508 317.026 9.96508H325.536C326.756 9.96508 327.746 10.9551 327.746 12.1751V22.8751C327.746 22.8751 327.756 22.9051 327.776 22.9051H329.956V22.8851Z" fill="#E2E2E2"/>
<path d="M223.816 155.145C226.836 157.075 227.706 161.075 225.776 164.085C223.846 167.095 219.846 167.975 216.836 166.045L214.996 164.865C214.996 164.865 214.966 164.865 214.956 164.865L209.176 173.875C208.516 174.905 207.146 175.205 206.116 174.545L197.116 168.775C197.116 168.775 197.086 168.775 197.076 168.775L196.026 170.405C194.096 173.415 190.086 174.495 187.046 172.615C184.006 170.735 183.056 166.665 185.006 163.625L186.186 161.785C186.186 161.785 186.186 161.755 186.186 161.745L177.176 155.965C176.146 155.305 175.846 153.935 176.506 152.905L182.286 143.895C182.286 143.895 182.286 143.865 182.286 143.855L180.446 142.675C177.436 140.745 176.556 136.745 178.486 133.735C180.416 130.725 184.416 129.855 187.426 131.785L189.266 132.965C189.266 132.965 189.296 132.965 189.306 132.965L195.086 123.955C195.746 122.925 197.116 122.625 198.146 123.285L205.426 127.955C206.396 128.575 206.676 129.865 206.056 130.835C204.436 133.365 204.636 136.735 206.726 138.885C209.766 142.005 214.676 141.355 216.876 137.915C217.536 136.885 218.906 136.585 219.936 137.245L227.106 141.835C228.136 142.495 228.436 143.865 227.776 144.895L221.996 153.905C221.996 153.905 221.996 153.935 221.996 153.945L223.836 155.125L223.816 155.145Z" fill="#E2E2E2"/>
<path d="M155.116 42.5551L164.946 74.4851C165.276 75.5451 164.676 76.6651 163.616 76.9951L154.676 79.7451C153.616 80.0751 152.486 79.4751 152.166 78.4151C151.096 74.9151 147.456 72.7051 143.936 73.6751C140.286 74.6751 138.206 78.4851 139.316 82.0751L139.396 82.3451C139.726 83.4051 139.126 84.5251 138.066 84.8551L129.126 87.6051C128.066 87.9351 126.946 87.3351 126.616 86.2751L123.286 75.4451C123.286 75.4451 123.266 75.4151 123.246 75.4251L121.366 76.0051C117.866 77.0851 113.986 75.3251 112.806 71.8651C111.586 68.2851 113.576 64.4351 117.166 63.3251L119.326 62.6551C119.326 62.6551 119.356 62.6351 119.346 62.6151L116.016 51.7851C115.686 50.7251 116.286 49.6051 117.346 49.2751L149.276 39.4451C151.756 38.6851 154.376 40.0751 155.146 42.5551H155.116Z" fill="#E2E2E2"/>
<path d="M42.6697 304.318L52.4997 336.248C52.8297 337.308 52.2297 338.428 51.1697 338.758L42.2297 341.508C41.1697 341.838 40.0397 341.238 39.7197 340.178C38.6497 336.678 35.0097 334.468 31.4897 335.438C27.8397 336.438 25.7597 340.248 26.8697 343.838L26.9497 344.108C27.2797 345.168 26.6797 346.288 25.6197 346.618L16.6797 349.368C15.6197 349.698 14.4997 349.098 14.1697 348.038L10.8397 337.208C10.8397 337.208 10.8197 337.178 10.7997 337.188L8.91968 337.768C5.41968 338.848 1.53968 337.088 0.35968 333.628C-0.86032 330.048 1.12968 326.198 4.71968 325.088L6.87968 324.418C6.87968 324.418 6.90968 324.398 6.89968 324.378L3.56968 313.548C3.23968 312.488 3.83968 311.368 4.89968 311.038L36.8297 301.208C39.3097 300.448 41.9297 301.838 42.6997 304.318H42.6697Z" fill="#E2E2E2"/>
<path d="M329.946 160.595L326.776 168.315C326.326 169.415 325.056 169.945 323.956 169.495C320.726 168.165 317.026 169.715 315.706 172.945C314.386 176.175 315.926 179.875 319.156 181.195C320.256 181.655 320.776 182.915 320.326 184.015L317.166 191.735C316.716 192.835 315.456 193.365 314.346 192.915L304.656 188.945C304.656 188.945 304.626 188.945 304.616 188.965L303.816 190.935C302.486 194.175 298.796 195.715 295.556 194.385C292.326 193.065 290.776 189.365 292.106 186.135L292.906 184.165C292.906 184.165 292.906 184.135 292.886 184.125L283.206 180.155C282.106 179.705 281.576 178.445 282.026 177.345L285.186 169.625C285.636 168.525 286.896 167.995 287.996 168.445C291.236 169.775 294.926 168.235 296.256 164.995C297.576 161.765 296.026 158.065 292.806 156.745C291.696 156.295 291.166 155.035 291.626 153.925L294.786 146.205C295.236 145.105 296.496 144.575 297.606 145.025L307.286 148.995C307.286 148.995 307.316 148.995 307.326 148.975L308.136 147.005C309.456 143.775 313.156 142.225 316.386 143.555C319.626 144.885 321.166 148.575 319.836 151.815L319.026 153.785C319.026 153.785 319.026 153.815 319.046 153.825L328.736 157.795C329.836 158.245 330.366 159.505 329.916 160.615L329.946 160.595Z" fill="#E2E2E2"/>
<path d="M604.976 172.085L611.266 180.915C611.926 181.845 611.716 183.145 610.776 183.805L601.956 190.095C601.956 190.095 601.936 190.125 601.956 190.135L603.216 191.915C605.296 194.825 604.616 198.865 601.706 200.935C598.796 203.015 594.756 202.335 592.676 199.425L591.416 197.645C591.416 197.645 591.386 197.625 591.376 197.645L582.546 203.935C581.616 204.595 580.316 204.385 579.656 203.445L574.506 196.215C573.866 195.315 574.076 194.075 574.966 193.435C577.876 191.365 578.746 187.305 576.716 184.365C574.686 181.425 570.576 180.675 567.636 182.775L567.526 182.855C566.596 183.525 565.296 183.305 564.636 182.375L559.526 175.215C558.856 174.285 559.076 172.985 560.016 172.325L567.186 167.215C568.116 166.555 569.416 166.765 570.076 167.695L570.156 167.815C572.516 171.135 577.446 171.555 580.336 168.285C582.326 166.025 582.356 162.645 580.616 160.195C579.946 159.265 580.166 157.965 581.096 157.305L588.256 152.195C589.186 151.525 590.486 151.745 591.146 152.685L597.426 161.515C597.426 161.515 597.456 161.535 597.466 161.515L599.246 160.245C602.156 158.175 606.196 158.845 608.266 161.755C610.346 164.665 609.666 168.705 606.756 170.785L604.986 172.045C604.986 172.045 604.966 172.075 604.986 172.085H604.976Z" fill="#E2E2E2"/>
<path d="M548.426 54.6159L436.706 46.3359H436.695L379.176 54.1059V42.4159C379.176 26.2259 370.406 14.2259 358.646 12.7859L525.825 28.0259C538.025 27.9259 547.316 38.9459 548.426 54.6159Z" fill="#FFA416"/>
<path d="M357.595 12.696L358.645 12.786C370.405 14.226 379.165 26.226 379.175 42.416V54.106L436.695 46.336V117.176L427.615 118.086C412.935 119.536 401.055 136.206 401.055 155.296C401.055 174.386 412.945 189.246 427.625 188.476L436.705 187.996V258.826L383.995 259.116C381.335 259.136 379.195 261.286 379.195 263.946V270.836C379.205 289.706 367.305 304.696 352.645 304.326C337.975 303.956 326.085 288.906 326.075 270.726V264.326C326.075 261.646 323.895 259.476 321.215 259.496L277.305 259.786V221.316L277.285 204.236C277.285 199.846 280.725 196.216 285.115 195.976L286.365 195.906C301.035 195.136 312.925 179.956 312.925 161.996C312.925 144.036 301.025 130.656 286.355 132.126H286.345C281.485 132.606 277.265 128.786 277.265 123.896L277.245 79.856C277.245 73.966 281.525 68.946 287.345 68.026L326.035 61.876V50.616C326.025 32.426 337.915 15.566 352.595 12.966C354.305 12.666 355.975 12.576 357.595 12.696Z" fill="#F4901E"/>
<path d="M224.225 432.396V433.056L171.125 435.686V425.706C171.105 409.566 182.985 397.716 197.655 399.216C212.335 400.736 224.225 415.586 224.225 432.396Z" fill="#1A1A1A"/>
<path d="M436.726 471.486H436.716V471.306L437.556 403.486L446.406 402.136L446.386 403.556C446.936 403.556 447.496 403.536 448.036 403.486L584.206 396.696V454.596C584.206 458.566 581.126 461.856 577.166 462.126L436.726 471.486Z" fill="#8302CE"/>
<path d="M582.165 326.036C595.545 326.036 611.655 342.776 611.655 361.926C611.655 381.076 600.805 396.596 587.425 396.596L584.205 396.696L446.385 403.556C461.285 402.466 474.775 385.906 474.775 365.896C474.775 345.886 456.825 328.206 441.155 328.206L578.935 326.096L582.165 326.036Z" fill="#D045FF"/>
<path d="M268.236 322.806C253.566 322.206 241.686 335.536 241.696 352.576C241.696 369.626 253.586 384.466 268.256 385.746L273.696 386.226C275.756 386.406 277.336 388.126 277.336 390.196L277.356 449.936L229.416 443.506C226.446 443.106 224.236 440.576 224.236 437.586V433.056L224.226 432.396C224.226 415.586 212.336 400.736 197.656 399.216C182.986 397.716 171.106 409.566 171.116 425.706V435.686L125.896 429.616C121.376 429.016 117.996 425.156 117.986 420.586L117.966 381.646C117.966 376.796 122.126 372.986 126.956 373.406H127.046C141.716 374.686 153.596 362.846 153.586 346.926C153.576 331.026 141.686 317.656 127.006 317.056L125.856 317.006C121.426 316.826 117.926 313.186 117.926 308.746L117.896 266.556C117.896 263.346 120.486 260.736 123.696 260.716L171.036 260.426V250.436C171.026 234.306 182.906 220.786 197.586 220.236C197.676 220.236 197.776 220.226 197.866 220.226L199.706 220.256H199.786C205.416 220.576 210.546 222.926 214.646 226.706C220.456 232.076 224.156 240.326 224.156 249.696V260.106L277.306 259.786V319.016C277.316 321.286 275.426 323.106 273.166 323.006L268.236 322.806Z" fill="#6526FF"/>
<path d="M584.195 327.246V326.156L446.095 328.156L444.985 328.226L436.705 328.176V258.826L584.195 259.926V327.246Z" fill="#8302CE"/>
<path d="M379.225 452.496V453.926L326.115 457.066V445.796C326.105 427.616 337.995 414.096 352.665 415.606C367.325 417.106 379.215 433.626 379.225 452.496Z" fill="#1A1A1A"/>
<path d="M277.295 221.316V259.786L224.155 260.106V249.696C224.155 240.326 220.455 232.076 214.645 226.706C210.545 222.926 205.415 220.576 199.785 220.256L277.295 221.316Z" fill="#1A1A1A"/>
<path d="M277.305 259.786L321.215 259.496C323.895 259.476 326.075 261.646 326.075 264.326V270.726C326.085 288.906 337.975 303.956 352.645 304.326C367.305 304.696 379.205 289.706 379.195 270.836V263.946C379.195 261.286 381.335 259.136 383.995 259.116L436.705 258.826V329.666H446.415C462.085 329.666 474.775 345.896 474.775 365.896C474.775 385.896 462.965 400.976 448.065 402.066L446.415 402.136H436.705V471.306L384.465 464.836C381.475 464.466 379.225 461.916 379.225 458.896V452.496C379.215 433.626 367.325 417.106 352.665 415.606C337.995 414.096 326.105 427.616 326.115 445.796V457.056L277.355 449.936L277.335 390.196C277.335 388.126 275.755 386.406 273.695 386.226L268.255 385.746C253.585 384.466 241.695 369.626 241.695 352.576C241.685 335.536 253.565 322.206 268.235 322.806L273.165 323.006C275.425 323.106 277.315 321.286 277.315 319.016V259.786H277.305Z" fill="#B22FFF"/>
<path d="M584.205 64.2759L584.185 122.706C584.185 124.436 583.235 125.966 581.805 126.756L436.695 117.176V46.3359H436.705L548.425 54.6159L577.215 56.7559C581.155 57.0459 584.205 60.3259 584.205 64.2759Z" fill="#E66F00"/>
<path d="M575.096 127.826C560.426 129.286 548.536 145.946 548.536 165.036C548.536 176.066 552.506 185.686 558.696 191.686L436.706 187.996L427.626 188.476C412.946 189.246 401.056 174.396 401.056 155.296C401.056 136.196 412.936 119.536 427.616 118.086L436.696 117.176L581.806 126.756C581.266 127.066 580.656 127.266 579.996 127.336L575.096 127.826Z" fill="#BC5D02"/>
<path d="M584.195 196.376V259.926L436.705 258.826V187.996L558.695 191.686L580.275 192.336C582.455 192.406 584.195 194.186 584.195 196.376Z" fill="#E66F00"/>
<path d="M436.265 258.826V187.996L427.185 188.476C412.505 189.246 400.615 174.396 400.615 155.296C400.615 136.196 412.495 119.536 427.175 118.086L436.255 117.176V46.3359" stroke="#FFA416" stroke-width="3" stroke-linejoin="round"/>
<path d="M436.245 258.826V329.666H445.955C461.625 329.666 474.315 345.896 474.315 365.896C474.315 385.896 462.505 400.976 447.605 402.066L445.955 402.136H436.245V471.486" stroke="#D045FF" stroke-width="3" stroke-linejoin="round"/>
<mask id="mask0_1504_5164" style="mask-type:luminance" maskUnits="userSpaceOnUse" x="277" y="12" width="160" height="293">
<path d="M357.595 12.696L358.645 12.786C370.405 14.226 379.165 26.226 379.175 42.416V54.106L436.695 46.336V117.176L427.615 118.086C412.935 119.536 401.055 136.206 401.055 155.296C401.055 174.386 412.945 189.246 427.625 188.476L436.705 187.996V258.826L383.995 259.116C381.335 259.136 379.195 261.286 379.195 263.946V270.836C379.205 289.706 367.305 304.696 352.645 304.326C337.975 303.956 326.085 288.906 326.075 270.726V264.326C326.075 261.646 323.895 259.476 321.215 259.496L277.305 259.786V221.316L277.285 204.236C277.285 199.846 280.725 196.216 285.115 195.976L286.365 195.906C301.035 195.136 312.925 179.956 312.925 161.996C312.925 144.036 301.025 130.656 286.355 132.126H286.345C281.485 132.606 277.265 128.786 277.265 123.896L277.245 79.856C277.245 73.966 281.525 68.946 287.345 68.026L326.035 61.876V50.616C326.025 32.426 337.915 15.566 352.595 12.966C354.305 12.666 355.975 12.576 357.595 12.696Z" fill="white"/>
</mask>
<g mask="url(#mask0_1504_5164)">
<path d="M259.585 25.656L278.385 22.166V28.156L259.585 31.566V25.656Z" fill="#E66F00" fill-opacity="0.3"/>
<path d="M272.205 133.906L291.015 131.946V137.986L272.205 139.866V133.906Z" fill="#E66F00" fill-opacity="0.3"/>
<path d="M305.785 130.406L344.985 126.326V132.606L305.785 136.516V130.406Z" fill="#E66F00" fill-opacity="0.3"/>
<path d="M368.115 123.916L384.965 122.166V128.626L368.115 130.306V123.916Z" fill="#E66F00" fill-opacity="0.3"/>
<path d="M296.064 131.416L303.064 130.686V136.786L296.064 137.486V131.416Z" fill="#E66F00" fill-opacity="0.3"/>
<path d="M347.795 126.036L354.795 125.306V131.636L347.795 132.326V126.036Z" fill="#E66F00" fill-opacity="0.3"/>
<path d="M358.145 124.956L365.145 124.226V130.606L358.145 131.296V124.956Z" fill="#E66F00" fill-opacity="0.3"/>
<path d="M274.944 117.946L320.984 112.626V118.806L274.944 123.926V117.946Z" fill="#E66F00" fill-opacity="0.3"/>
<path d="M333.595 111.166L351.295 109.116V115.426L333.595 117.396V111.166Z" fill="#E66F00" fill-opacity="0.3"/>
<path d="M374.035 157.896L386.505 156.896V163.366L374.035 164.316V157.896Z" fill="#E66F00" fill-opacity="0.3"/>
<path d="M311.904 59.0959L318.424 58.0859V64.2559L311.904 65.2359V59.0959Z" fill="#E66F00" fill-opacity="0.3"/>
<path d="M287.755 145.026L298.555 143.996V150.076L287.755 151.056V145.026Z" fill="#E66F00" fill-opacity="0.3"/>
<path d="M289.984 62.4959L307.114 59.8359V65.9559L289.984 68.5359V62.4959Z" fill="#E66F00" fill-opacity="0.3"/>
<path d="M323.135 57.356L340.255 54.7061V60.966L323.135 63.5461V57.356Z" fill="#E66F00" fill-opacity="0.3"/>
<path d="M278.385 44.7661L335.845 35.0361V41.2861L278.385 50.7561V44.7661Z" fill="#E66F00" fill-opacity="0.3"/>
<path d="M343.484 34.606C344.304 34.466 344.984 35.046 344.984 35.966C344.984 36.886 344.304 37.716 343.484 37.856C342.664 37.996 341.984 37.386 341.984 36.466C341.984 35.546 342.654 34.746 343.484 34.606ZM343.304 42.396C342.564 42.516 342.024 42.016 342.024 41.196C342.024 40.376 342.634 39.606 343.434 39.476C344.294 39.336 344.974 39.926 344.974 41.146C344.974 43.226 343.594 44.606 342.274 44.956V43.856C342.884 43.636 343.624 42.986 343.694 42.226C343.624 42.316 343.454 42.366 343.304 42.396Z" fill="#E66F00" fill-opacity="0.3"/>
<path d="M345.325 52.526C346.145 52.396 346.825 52.986 346.825 53.906C346.825 54.826 346.145 55.656 345.325 55.776C344.505 55.896 343.825 55.286 343.825 54.366C343.825 53.446 344.495 52.656 345.325 52.526ZM345.145 60.326C344.405 60.436 343.865 59.936 343.865 59.106C343.865 58.276 344.475 57.526 345.275 57.406C346.135 57.276 346.815 57.876 346.815 59.096C346.815 61.176 345.435 62.546 344.115 62.876V61.776C344.725 61.566 345.465 60.926 345.535 60.166C345.465 60.256 345.295 60.306 345.145 60.326Z" fill="#E66F00" fill-opacity="0.3"/>
<path d="M279.765 61.1161L282.015 60.7661L286.755 70.2561L284.525 70.5861L279.755 61.1161H279.765Z" fill="#E66F00" fill-opacity="0.3"/>
<path d="M289.984 207.476L302.164 206.876V212.966L289.984 213.516V207.476Z" fill="#E66F00" fill-opacity="0.3"/>
<path d="M272.205 208.346L284.385 207.746V213.766L272.205 214.306V208.346Z" fill="#E66F00" fill-opacity="0.3"/>
<path d="M305.785 206.696L344.985 204.776V211.066L305.785 212.806V206.696Z" fill="#E66F00" fill-opacity="0.3"/>
<path d="M368.115 203.646L384.965 202.816V209.276L368.115 210.036V203.646Z" fill="#E66F00" fill-opacity="0.3"/>
<path d="M347.795 204.636L354.795 204.296V210.626L347.795 210.936V204.636Z" fill="#E66F00" fill-opacity="0.3"/>
<path d="M358.145 204.136L365.145 203.786V210.166L358.145 210.476V204.136Z" fill="#E66F00" fill-opacity="0.3"/>
<path d="M276.475 148.486V146.506L283.365 145.856V147.846L276.475 148.486ZM276.475 151.626V149.616L283.365 148.986V151.006L276.475 151.626Z" fill="#E66F00" fill-opacity="0.3"/>
<path d="M287.755 164.826L307.115 163.276V169.386L287.755 170.856V164.826Z" fill="#E66F00" fill-opacity="0.3"/>
<path d="M327.805 161.616L363.175 158.776V165.136L327.805 167.816V161.616Z" fill="#E66F00" fill-opacity="0.3"/>
<path d="M276.475 168.126V166.146L283.365 165.596V167.586L276.475 168.126ZM276.475 171.266V169.256L283.365 168.726V170.746L276.475 171.266Z" fill="#E66F00" fill-opacity="0.3"/>
<path d="M312.755 167.176V164.836L317.055 164.496V166.846L312.755 167.176Z" fill="#E66F00" fill-opacity="0.3"/>
<path d="M322.605 165.126L318.665 163.556V161.196L324.775 163.816V166.076L318.665 169.636V167.316L322.605 165.136V165.126Z" fill="#E66F00" fill-opacity="0.3"/>
<path d="M339.575 135.046L340.995 136.336C339.455 138.136 338.505 140.186 338.505 142.966C338.505 145.746 339.455 147.616 340.995 149.126L339.575 150.676C337.825 149.136 336.385 146.836 336.385 143.156C336.385 139.476 337.815 136.916 339.575 135.046Z" fill="#E66F00" fill-opacity="0.3"/>
<path d="M345.805 150.126L344.385 148.816C345.925 147.026 346.875 144.946 346.875 142.176C346.875 139.406 345.925 137.506 344.385 135.996L345.805 134.426C347.555 135.956 348.995 138.266 348.995 141.976C348.995 145.686 347.565 148.266 345.805 150.116V150.126Z" fill="#E66F00" fill-opacity="0.3"/>
<path d="M351.765 138.916C352.585 138.836 353.265 139.466 353.265 140.396C353.265 141.326 352.585 142.106 351.765 142.186C350.945 142.266 350.265 141.596 350.265 140.676C350.265 139.756 350.935 138.996 351.765 138.916ZM351.585 146.736C350.845 146.806 350.305 146.266 350.305 145.426C350.305 144.586 350.915 143.876 351.715 143.806C352.575 143.726 353.255 144.376 353.255 145.606C353.255 147.696 351.875 148.986 350.555 149.236V148.136C351.165 147.956 351.905 147.366 351.975 146.606C351.905 146.686 351.735 146.736 351.585 146.746V146.736Z" fill="#E66F00" fill-opacity="0.3"/>
<path d="M370.245 153.026L371.665 154.366C370.125 156.176 369.175 158.266 369.175 161.096C369.175 163.926 370.125 165.866 371.665 167.436L370.245 168.996C368.495 167.396 367.055 165.026 367.055 161.266C367.055 157.506 368.485 154.906 370.245 153.036V153.026Z" fill="#E66F00" fill-opacity="0.3"/>
<path d="M392.335 167.386L390.915 166.016C392.455 164.186 393.405 162.066 393.405 159.206C393.405 156.346 392.455 154.366 390.915 152.786L392.335 151.186C394.085 152.796 395.525 155.206 395.525 159.036C395.525 162.866 394.095 165.506 392.335 167.386Z" fill="#E66F00" fill-opacity="0.3"/>
<path d="M398.295 155.906C399.115 155.836 399.795 156.506 399.795 157.456C399.795 158.406 399.115 159.216 398.295 159.276C397.475 159.336 396.795 158.646 396.795 157.696C396.795 156.746 397.465 155.976 398.295 155.906ZM398.115 163.976C397.375 164.036 396.835 163.466 396.835 162.606C396.835 161.746 397.445 161.016 398.245 160.956C399.105 160.886 399.785 161.576 399.785 162.836C399.785 164.996 398.405 166.296 397.085 166.536V165.396C397.695 165.226 398.435 164.626 398.505 163.836C398.435 163.916 398.265 163.966 398.115 163.976Z" fill="#E66F00" fill-opacity="0.3"/>
<path d="M287.755 182.396L307.115 181.096V187.206L287.755 188.426V182.396Z" fill="#E66F00" fill-opacity="0.3"/>
<path d="M327.805 179.696L375.275 176.496V182.916L327.805 185.906V179.696Z" fill="#E66F00" fill-opacity="0.3"/>
<path d="M276.475 185.556V183.576L283.365 183.116V185.106L276.475 185.556ZM276.475 188.696V186.686L283.365 186.236V188.256L276.475 188.696Z" fill="#E66F00" fill-opacity="0.3"/>
<path d="M312.755 185.066V182.726L317.055 182.446V184.796L312.755 185.076V185.066Z" fill="#E66F00" fill-opacity="0.3"/>
<path d="M322.605 183.146L318.665 181.526V179.166L324.775 181.866V184.126L318.665 187.606V185.286L322.605 183.156V183.146Z" fill="#E66F00" fill-opacity="0.3"/>
<path d="M384.004 170.686L385.424 172.056C383.884 173.866 382.934 175.956 382.934 178.816C382.934 181.676 383.884 183.636 385.424 185.246L384.004 186.806C382.254 185.166 380.814 182.756 380.814 178.956C380.814 175.156 382.244 172.556 384.004 170.686Z" fill="#E66F00" fill-opacity="0.3"/>
<path d="M390.234 186.426L388.814 185.036C390.354 183.236 391.304 181.126 391.304 178.266C391.304 175.406 390.354 173.416 388.814 171.816L390.234 170.246C391.984 171.876 393.424 174.296 393.424 178.126C393.424 181.956 391.994 184.566 390.234 186.426Z" fill="#E66F00" fill-opacity="0.3"/>
<path d="M396.185 175.046C397.005 174.986 397.685 175.666 397.685 176.616C397.685 177.566 397.005 178.366 396.185 178.416C395.365 178.466 394.685 177.766 394.685 176.816C394.685 175.866 395.355 175.106 396.185 175.046ZM396.005 183.106C395.265 183.156 394.725 182.576 394.725 181.716C394.725 180.856 395.335 180.136 396.135 180.086C396.995 180.026 397.675 180.716 397.675 181.986C397.675 184.136 396.295 185.426 394.975 185.646V184.506C395.585 184.346 396.325 183.756 396.395 182.966C396.325 183.046 396.155 183.086 396.005 183.096V183.106Z" fill="#E66F00" fill-opacity="0.3"/>
<path d="M259.585 82.5161L291.015 78.0061V84.0461L259.585 88.4161V82.5161Z" fill="#E66F00" fill-opacity="0.3"/>
<path d="M302.165 143.656L333.595 140.676V146.916L302.165 149.756V143.656Z" fill="#E66F00" fill-opacity="0.3"/>
<path d="M270.314 298.386L281.114 298.576V304.576L270.314 304.336V298.386Z" fill="#E66F00" fill-opacity="0.3"/>
<path d="M322.134 294.296L323.554 295.726C322.014 297.336 321.064 299.256 321.064 301.996C321.064 304.736 322.014 306.696 323.554 308.366L322.134 309.736C320.384 308.016 318.944 305.596 318.944 301.956C318.944 298.316 320.374 295.946 322.134 294.306V294.296Z" fill="#E66F00" fill-opacity="0.3"/>
<path d="M328.374 309.886L326.954 308.436C328.494 306.836 329.444 304.896 329.444 302.156C329.444 299.416 328.494 297.436 326.954 295.776L328.374 294.386C330.124 296.096 331.564 298.536 331.564 302.196C331.564 305.856 330.134 308.246 328.374 309.886Z" fill="#E66F00" fill-opacity="0.3"/>
<path d="M334.324 299.476C335.144 299.486 335.824 300.186 335.824 301.106C335.824 302.026 335.144 302.726 334.324 302.706C333.504 302.686 332.824 301.956 332.824 301.046C332.824 300.136 333.494 299.456 334.324 299.476ZM334.144 307.176C333.404 307.156 332.864 306.566 332.864 305.746C332.864 304.926 333.474 304.286 334.274 304.296C335.134 304.316 335.814 305.036 335.814 306.246C335.814 308.306 334.434 309.426 333.114 309.526V308.436C333.724 308.336 334.464 307.826 334.534 307.076C334.464 307.146 334.294 307.176 334.144 307.176Z" fill="#E66F00" fill-opacity="0.3"/>
<path d="M284.734 298.636L316.154 299.196V305.356L284.734 304.656V298.636Z" fill="#E66F00" fill-opacity="0.3"/>
<path d="M255.625 228.316L298.405 226.836V232.916L255.625 234.206V228.316Z" fill="#E66F00" fill-opacity="0.3"/>
<path d="M315.575 226.246L326.385 225.866V232.066L315.575 232.396V226.246Z" fill="#E66F00" fill-opacity="0.3"/>
<path d="M371.135 224.316L381.935 223.946V230.396L371.135 230.716V224.316Z" fill="#E66F00" fill-opacity="0.3"/>
<path d="M304.305 229.076V227.056L311.195 226.816V228.846L304.305 229.076ZM304.305 232.276V230.226L311.195 230.006V232.066L304.305 232.276Z" fill="#E66F00" fill-opacity="0.3"/>
<path d="M366.905 219.306L368.325 220.706C366.785 222.446 365.835 224.476 365.835 227.306C365.835 230.136 366.785 232.106 368.325 233.746L366.905 235.236C365.155 233.556 363.715 231.126 363.715 227.376C363.715 223.626 365.145 221.096 366.905 219.306Z" fill="#E66F00" fill-opacity="0.3"/>
<path d="M329.995 225.746L361.425 224.656V231.016L329.995 231.956V225.746Z" fill="#E66F00" fill-opacity="0.3"/>
<path d="M386.505 223.786L441.525 221.886V228.596L386.505 230.256V223.786Z" fill="#E66F00" fill-opacity="0.3"/>
<path d="M307.115 75.696L353.035 69.106V75.426L307.115 81.806V75.696Z" fill="#E66F00" fill-opacity="0.3"/>
<path d="M358.115 66.9659C358.935 66.8459 359.615 67.4459 359.615 68.3759C359.615 69.3059 358.935 70.1259 358.115 70.2459C357.295 70.3659 356.615 69.7359 356.615 68.8059C356.615 67.8759 357.285 67.0859 358.115 66.9659ZM357.935 74.8259C357.195 74.9259 356.655 74.4159 356.655 73.5759C356.655 72.7359 357.265 71.9859 358.065 71.8759C358.925 71.7559 359.605 72.3759 359.605 73.6059C359.605 75.7059 358.225 77.0659 356.905 77.3859V76.2759C357.515 76.0659 358.255 75.4359 358.325 74.6659C358.255 74.7559 358.085 74.8059 357.935 74.8259Z" fill="#E66F00" fill-opacity="0.3"/>
<path d="M296.065 74.276L298.315 73.946L303.055 83.616L300.825 83.926L296.055 74.276H296.065Z" fill="#E66F00" fill-opacity="0.3"/>
<path d="M288.944 93.9459L307.114 91.5459V97.6659L288.944 99.9859V93.9459Z" fill="#E66F00" fill-opacity="0.3"/>
<path d="M320.984 89.7159L386.504 81.0659V87.5259L320.984 95.8959V89.7159Z" fill="#E66F00" fill-opacity="0.3"/>
<path d="M393.245 78.7361C394.065 78.6261 394.745 79.2561 394.745 80.2061C394.745 81.1561 394.065 81.9961 393.245 82.0961C392.425 82.1961 391.745 81.5461 391.745 80.5961C391.745 79.6461 392.415 78.8461 393.245 78.7361ZM393.065 86.7861C392.325 86.8761 391.785 86.3461 391.785 85.4861C391.785 84.6261 392.395 83.8661 393.195 83.7661C394.055 83.6561 394.735 84.2961 394.735 85.5561C394.735 87.7061 393.355 89.0761 392.035 89.3861V88.2461C392.645 88.0461 393.385 87.4061 393.455 86.6161C393.385 86.7061 393.215 86.7561 393.065 86.7761V86.7861Z" fill="#E66F00" fill-opacity="0.3"/>
<path d="M278.675 92.3459L280.925 92.0459L285.665 101.636L283.435 101.916L278.665 92.3459H278.675Z" fill="#E66F00" fill-opacity="0.3"/>
<path d="M310.885 88.0161L313.135 87.7161L317.875 97.5461L315.645 97.8261L310.875 88.0161H310.885Z" fill="#E66F00" fill-opacity="0.3"/>
<path d="M328.765 107.466L330.185 108.716C328.645 110.536 327.695 112.596 327.695 115.346C327.695 118.096 328.645 119.936 330.185 121.406L328.765 122.976C327.015 121.486 325.575 119.236 325.575 115.586C325.575 111.936 327.005 109.356 328.765 107.476V107.466Z" fill="#E66F00" fill-opacity="0.3"/>
<path d="M354.565 120.186L353.145 118.896C354.685 117.066 355.635 114.956 355.635 112.166C355.635 109.376 354.685 107.486 353.145 105.996L354.565 104.386C356.315 105.896 357.755 108.186 357.755 111.916C357.755 115.646 356.325 118.266 354.565 120.176V120.186Z" fill="#E66F00" fill-opacity="0.3"/>
<path d="M365.115 115.576C365.115 116.526 365.605 116.746 366.115 116.686L366.515 116.646V118.696L365.945 118.756C364.285 118.936 363.035 118.156 363.035 115.976V113.686C363.035 112.706 362.495 112.386 361.715 112.476V110.286C362.495 110.196 363.035 109.766 363.035 108.796V106.526C363.035 104.346 364.285 103.286 365.945 103.086L366.515 103.016V105.066L366.115 105.116C365.605 105.176 365.115 105.496 365.115 106.436V109.066C365.115 109.996 364.665 110.766 363.775 111.156C364.655 111.346 365.115 112.016 365.115 112.956V115.586V115.576Z" fill="#E66F00" fill-opacity="0.3"/>
<path d="M339.044 33.766C339.754 33.646 340.254 34.086 340.254 34.846C340.254 35.566 339.694 36.276 338.934 36.406C338.114 36.546 337.484 35.986 337.484 34.926C337.484 32.946 338.804 31.736 340.034 31.416V32.506C339.464 32.676 338.784 33.246 338.684 33.906C338.744 33.856 338.904 33.776 339.044 33.756V33.766Z" fill="#E66F00" fill-opacity="0.3"/>
<path d="M272.785 285.436L404.405 286.496V293.046L272.785 291.396V285.436Z" fill="#E66F00" fill-opacity="0.3"/>
<path d="M408.985 285.766C409.695 285.766 410.195 286.326 410.195 287.126C410.195 287.886 409.635 288.526 408.875 288.516C408.055 288.516 407.425 287.806 407.425 286.696C407.425 284.626 408.745 283.596 409.975 283.486V284.636C409.405 284.706 408.725 285.176 408.625 285.856C408.685 285.806 408.845 285.766 408.985 285.766Z" fill="#E66F00" fill-opacity="0.3"/>
</g>
<mask id="mask1_1504_5164" style="mask-type:luminance" maskUnits="userSpaceOnUse" x="241" y="258" width="234" height="214">
<path d="M277.305 259.786L321.215 259.496C323.895 259.476 326.075 261.646 326.075 264.326V270.726C326.085 288.906 337.975 303.956 352.645 304.326C367.305 304.696 379.205 289.706 379.195 270.836V263.946C379.195 261.286 381.335 259.136 383.995 259.116L436.705 258.826V329.666H446.415C462.085 329.666 474.775 345.896 474.775 365.896C474.775 385.896 462.965 400.976 448.065 402.066L446.415 402.136H436.705V471.306L384.465 464.836C381.475 464.466 379.225 461.916 379.225 458.896V452.496C379.215 433.626 367.325 417.106 352.665 415.606C337.995 414.096 326.105 427.616 326.115 445.796V457.056L277.355 449.936L277.335 390.196C277.335 388.126 275.755 386.406 273.695 386.226L268.255 385.746C253.585 384.466 241.695 369.626 241.695 352.576C241.685 335.536 253.565 322.206 268.235 322.806L273.165 323.006C275.425 323.106 277.315 321.286 277.315 319.016V259.786H277.305Z" fill="white"/>
</mask>
<g mask="url(#mask1_1504_5164)">
<path d="M286.176 361.956L304.976 363.096V369.076L286.176 367.876V361.956Z" fill="#8302CE" fill-opacity="0.3"/>
<path d="M319.746 363.986L358.946 366.356V372.506L319.746 370.016V363.986Z" fill="#8302CE" fill-opacity="0.3"/>
<path d="M382.075 367.756L398.925 368.776V375.056L382.075 373.976V367.756Z" fill="#8302CE" fill-opacity="0.3"/>
<path d="M310.035 363.396L317.035 363.816V369.836L310.035 369.396V363.396Z" fill="#8302CE" fill-opacity="0.3"/>
<path d="M361.756 366.526L368.756 366.946V373.136L361.756 372.686V366.526Z" fill="#8302CE" fill-opacity="0.3"/>
<path d="M372.105 367.156L379.105 367.576V373.796L372.105 373.346V367.156Z" fill="#8302CE" fill-opacity="0.3"/>
<path d="M255.886 274.096L283.866 274.466V280.386L255.886 279.916V274.096Z" fill="#8302CE" fill-opacity="0.3"/>
<path d="M255.886 344.856L283.866 346.306V352.226L255.886 350.676V344.856Z" fill="#8302CE" fill-opacity="0.3"/>
<path d="M288.916 346.576L334.956 348.976V355.046L288.916 352.506V346.576Z" fill="#8302CE" fill-opacity="0.3"/>
<path d="M347.556 349.626L365.256 350.556V356.726L347.556 355.746V349.626Z" fill="#8302CE" fill-opacity="0.3"/>
<path d="M388.006 401.806L400.466 402.776V409.066L388.006 408.056V401.806Z" fill="#8302CE" fill-opacity="0.3"/>
<path d="M269.586 373.346L287.286 374.536V380.456L269.586 379.206V373.346Z" fill="#8302CE" fill-opacity="0.3"/>
<path d="M255.886 293.076L267.846 293.356V299.216L255.886 298.896V293.076Z" fill="#8302CE" fill-opacity="0.3"/>
<path d="M325.865 294.736L332.385 294.886V300.956L325.865 300.786V294.736Z" fill="#8302CE" fill-opacity="0.3"/>
<path d="M301.716 375.506L312.516 376.226V382.236L301.716 381.476V375.506Z" fill="#8302CE" fill-opacity="0.3"/>
<path d="M273.546 293.496L290.676 293.896V299.836L273.546 299.376V293.496Z" fill="#8302CE" fill-opacity="0.3"/>
<path d="M303.956 294.216L321.076 294.626V300.656L303.956 300.196V294.216Z" fill="#8302CE" fill-opacity="0.3"/>
<path d="M337.096 295.006L354.226 295.406V301.546L337.096 301.086V295.006Z" fill="#8302CE" fill-opacity="0.3"/>
<path d="M292.346 274.586L349.806 275.346V281.476L292.346 280.526V274.586Z" fill="#8302CE" fill-opacity="0.3"/>
<path d="M261.986 257.436V259.666L255.876 256.716V254.596L261.986 251.676V253.886L258.046 255.646L261.986 257.436Z" fill="#8302CE" fill-opacity="0.3"/>
<path d="M265.286 256.056C265.286 255.396 265.506 254.686 266.306 254.066L266.956 253.566C267.266 253.326 267.406 253.046 267.406 252.726C267.406 252.266 267.056 251.836 266.446 251.836C265.836 251.836 265.446 252.296 265.446 252.896C265.446 253.146 265.476 253.326 265.506 253.386H263.206C263.166 253.196 263.146 253.006 263.146 252.776C263.146 251.096 264.386 249.696 266.456 249.696C268.826 249.696 269.906 251.146 269.906 252.566C269.906 253.686 269.396 254.476 268.546 255.106L268.006 255.516C267.576 255.836 267.306 256.136 267.306 256.706H265.356C265.316 256.516 265.286 256.276 265.286 256.056ZM266.376 257.376C267.126 257.376 267.716 257.956 267.716 258.726C267.716 259.496 267.136 260.056 266.376 260.056C265.616 260.056 265.036 259.456 265.036 258.716C265.036 257.976 265.616 257.376 266.376 257.376Z" fill="#8302CE" fill-opacity="0.3"/>
<path d="M357.445 276.286C358.265 276.296 358.945 276.986 358.945 277.886C358.945 278.786 358.265 279.486 357.445 279.466C356.625 279.446 355.945 278.736 355.945 277.836C355.945 276.936 356.615 276.276 357.445 276.286ZM357.265 283.886C356.525 283.876 355.985 283.286 355.985 282.476C355.985 281.666 356.595 281.026 357.395 281.046C358.255 281.056 358.935 281.766 358.935 282.956C358.935 284.986 357.555 286.096 356.235 286.206V285.136C356.845 285.026 357.585 284.526 357.655 283.796C357.585 283.866 357.415 283.896 357.265 283.896V283.886Z" fill="#8302CE" fill-opacity="0.3"/>
<path d="M359.285 294.166C360.105 294.186 360.785 294.876 360.785 295.776C360.785 296.676 360.105 297.366 359.285 297.346C358.465 297.326 357.785 296.606 357.785 295.706C357.785 294.806 358.455 294.146 359.285 294.166ZM359.105 301.766C358.365 301.746 357.825 301.156 357.825 300.346C357.825 299.536 358.435 298.906 359.235 298.926C360.095 298.946 360.775 299.656 360.775 300.856C360.775 302.896 359.395 303.986 358.075 304.086V303.006C358.685 302.906 359.425 302.406 359.495 301.676C359.425 301.746 359.255 301.776 359.105 301.766Z" fill="#8302CE" fill-opacity="0.3"/>
<path d="M293.726 291.036L295.976 291.086L300.716 301.326L298.486 301.266L293.716 291.036H293.726Z" fill="#8302CE" fill-opacity="0.3"/>
<path d="M273.505 368.756L271.275 368.616L276.025 358.926L278.275 359.056L273.505 368.756Z" fill="#8302CE" fill-opacity="0.3"/>
<path d="M278.196 369.056L275.966 368.916L280.716 359.196L282.966 359.326L278.196 369.056Z" fill="#8302CE" fill-opacity="0.3"/>
<path d="M303.956 437.646L316.136 438.866V444.886L303.956 443.626V437.646Z" fill="#8302CE" fill-opacity="0.3"/>
<path d="M286.176 435.866L298.356 437.086V443.046L286.176 441.786V435.866Z" fill="#8302CE" fill-opacity="0.3"/>
<path d="M319.746 439.226L358.946 443.156V449.316L319.746 445.256V439.226Z" fill="#8302CE" fill-opacity="0.3"/>
<path d="M382.075 445.486L398.925 447.166V453.446L382.075 451.706V445.486Z" fill="#8302CE" fill-opacity="0.3"/>
<path d="M361.756 443.446L368.756 444.146V450.326L361.756 449.606V443.446Z" fill="#8302CE" fill-opacity="0.3"/>
<path d="M372.105 444.476L379.105 445.186V451.396L372.105 450.676V444.476Z" fill="#8302CE" fill-opacity="0.3"/>
<path d="M273.505 442.156L271.275 441.926L276.025 432.426L278.275 432.646L273.505 442.156Z" fill="#8302CE" fill-opacity="0.3"/>
<path d="M278.196 442.646L275.966 442.416L280.716 432.886L282.966 433.106L278.196 442.646Z" fill="#8302CE" fill-opacity="0.3"/>
<path d="M290.436 377.116V375.156L297.326 375.616V377.586L290.436 377.116ZM290.436 380.226V378.236L297.326 378.716V380.716L290.436 380.236V380.226Z" fill="#8302CE" fill-opacity="0.3"/>
<path d="M269.586 392.606L287.286 393.986V399.906L269.586 398.476V392.606Z" fill="#8302CE" fill-opacity="0.3"/>
<path d="M301.716 395.106L321.076 396.606V402.636L301.716 401.076V395.106Z" fill="#8302CE" fill-opacity="0.3"/>
<path d="M341.775 398.216L377.145 400.966V407.176L341.775 404.316V398.216Z" fill="#8302CE" fill-opacity="0.3"/>
<path d="M290.436 396.606V394.646L297.326 395.186V397.156L290.436 396.616V396.606ZM290.436 399.716V397.726L297.326 398.276V400.276L290.436 399.716Z" fill="#8302CE" fill-opacity="0.3"/>
<path d="M326.716 401.336V399.036L331.016 399.376V401.686L326.716 401.346V401.336Z" fill="#8302CE" fill-opacity="0.3"/>
<path d="M336.566 400.856L332.626 398.696V396.366L338.736 399.896V402.116L332.626 404.666V402.386L336.566 400.856Z" fill="#8302CE" fill-opacity="0.3"/>
<path d="M353.536 374.026L354.956 375.516C353.416 377.036 352.466 378.896 352.466 381.606C352.466 384.316 353.416 386.316 354.956 388.046L353.536 389.336C351.786 387.546 350.346 385.066 350.346 381.456C350.346 377.846 351.776 375.566 353.536 374.016V374.026Z" fill="#8302CE" fill-opacity="0.3"/>
<path d="M359.775 389.786L358.355 388.286C359.895 386.776 360.845 384.896 360.845 382.176C360.845 379.456 359.895 377.456 358.355 375.726L359.775 374.416C361.525 376.196 362.965 378.686 362.965 382.316C362.965 385.946 361.535 388.236 359.775 389.776V389.786Z" fill="#8302CE" fill-opacity="0.3"/>
<path d="M365.726 379.766C366.546 379.826 367.226 380.546 367.226 381.446C367.226 382.346 366.546 383.016 365.726 382.956C364.906 382.896 364.226 382.146 364.226 381.246C364.226 380.346 364.896 379.706 365.726 379.766ZM365.546 387.386C364.806 387.336 364.266 386.716 364.266 385.906C364.266 385.096 364.876 384.486 365.676 384.546C366.536 384.606 367.216 385.346 367.216 386.546C367.216 388.586 365.836 389.626 364.516 389.666V388.586C365.126 388.516 365.866 388.046 365.936 387.316C365.866 387.386 365.696 387.406 365.546 387.396V387.386Z" fill="#8302CE" fill-opacity="0.3"/>
<path d="M384.206 396.466L385.626 397.996C384.086 399.526 383.136 401.406 383.136 404.166C383.136 406.926 384.086 408.956 385.626 410.726L384.206 412.026C382.456 410.196 381.016 407.666 381.016 403.996C381.016 400.326 382.446 398.026 384.206 396.466Z" fill="#8302CE" fill-opacity="0.3"/>
<path d="M406.306 413.866L404.886 412.316C406.426 410.786 407.376 408.866 407.376 406.086C407.376 403.306 406.426 401.236 404.886 399.466L406.306 398.136C408.056 399.976 409.496 402.536 409.496 406.256C409.496 409.976 408.066 412.306 406.306 413.866Z" fill="#8302CE" fill-opacity="0.3"/>
<path d="M412.256 403.646C413.076 403.706 413.756 404.456 413.756 405.386C413.756 406.316 413.076 406.986 412.256 406.916C411.436 406.846 410.756 406.066 410.756 405.146C410.756 404.226 411.426 403.576 412.256 403.646ZM412.076 411.446C411.336 411.386 410.796 410.756 410.796 409.916C410.796 409.076 411.406 408.466 412.206 408.526C413.066 408.596 413.746 409.366 413.746 410.586C413.746 412.676 412.366 413.726 411.046 413.756V412.656C411.656 412.586 412.396 412.116 412.466 411.366C412.396 411.436 412.226 411.456 412.076 411.436V411.446Z" fill="#8302CE" fill-opacity="0.3"/>
<path d="M269.586 409.696L287.286 411.236V417.166L269.586 415.566V409.696Z" fill="#8302CE" fill-opacity="0.3"/>
<path d="M301.716 412.496L321.076 414.176V420.206L301.716 418.466V412.496Z" fill="#8302CE" fill-opacity="0.3"/>
<path d="M341.775 415.976L389.235 420.106V426.356L341.775 422.076V415.976Z" fill="#8302CE" fill-opacity="0.3"/>
<path d="M290.436 413.886V411.926L297.326 412.526V414.496L290.436 413.886ZM290.436 416.996V415.006L297.326 415.616V417.616L290.436 416.996Z" fill="#8302CE" fill-opacity="0.3"/>
<path d="M326.716 418.966V416.666L331.016 417.046V419.356L326.716 418.976V418.966Z" fill="#8302CE" fill-opacity="0.3"/>
<path d="M336.566 418.576L332.626 416.386V414.056L338.736 417.646V419.866L332.626 422.356V420.076L336.566 418.576Z" fill="#8302CE" fill-opacity="0.3"/>
<path d="M397.965 415.786L399.385 417.336C397.845 418.856 396.895 420.746 396.895 423.526C396.895 426.306 397.845 428.356 399.385 430.156L397.965 431.456C396.215 429.596 394.775 427.036 394.775 423.346C394.775 419.656 396.205 417.346 397.965 415.796V415.786Z" fill="#8302CE" fill-opacity="0.3"/>
<path d="M404.195 432.026L402.775 430.466C404.315 428.946 405.265 427.046 405.265 424.266C405.265 421.486 404.315 419.416 402.775 417.626L404.195 416.316C405.945 418.166 407.385 420.736 407.385 424.456C407.385 428.176 405.955 430.486 404.195 432.036V432.026Z" fill="#8302CE" fill-opacity="0.3"/>
<path d="M410.155 421.886C410.975 421.956 411.655 422.716 411.655 423.636C411.655 424.556 410.975 425.226 410.155 425.156C409.335 425.086 408.655 424.296 408.655 423.376C408.655 422.456 409.325 421.816 410.155 421.886ZM409.975 429.676C409.235 429.606 408.695 428.966 408.695 428.136C408.695 427.306 409.305 426.696 410.105 426.766C410.965 426.846 411.645 427.616 411.645 428.846C411.645 430.936 410.265 431.976 408.945 431.986V430.886C409.555 430.826 410.295 430.356 410.365 429.606C410.295 429.676 410.125 429.686 409.975 429.676Z" fill="#8302CE" fill-opacity="0.3"/>
<path d="M255.886 308.166L267.846 308.546V314.406L255.886 313.986V308.166Z" fill="#8302CE" fill-opacity="0.3"/>
<path d="M273.546 308.736L304.976 309.736V315.716L273.546 314.606V308.736Z" fill="#8302CE" fill-opacity="0.3"/>
<path d="M316.136 376.476L347.556 378.586V384.696L316.136 382.486V376.476Z" fill="#8302CE" fill-opacity="0.3"/>
<path d="M269.586 453.286L312.376 458.026V464.026L269.586 459.156V453.286Z" fill="#8302CE" fill-opacity="0.3"/>
<path d="M329.546 459.926L340.346 461.116V467.216L329.546 465.986V459.926Z" fill="#8302CE" fill-opacity="0.3"/>
<path d="M385.105 466.076L395.905 467.266V473.536L385.105 472.306V466.076Z" fill="#8302CE" fill-opacity="0.3"/>
<path d="M318.266 461.086V459.096L325.156 459.856V461.856L318.266 461.086ZM318.266 464.246V462.226L325.156 463.006V465.036L318.266 464.256V464.246Z" fill="#8302CE" fill-opacity="0.3"/>
<path d="M380.876 460.566L382.296 462.136C380.756 463.606 379.806 465.456 379.806 468.206C379.806 470.956 380.756 473.026 382.296 474.836L380.876 476.086C379.126 474.196 377.686 471.626 377.686 467.966C377.686 464.306 379.116 462.046 380.876 460.556V460.566Z" fill="#8302CE" fill-opacity="0.3"/>
<path d="M343.966 461.516L375.386 464.996V471.206L343.966 467.626V461.516Z" fill="#8302CE" fill-opacity="0.3"/>
<path d="M400.466 467.776L455.496 473.866V480.326L400.466 474.056V467.776Z" fill="#8302CE" fill-opacity="0.3"/>
<path d="M321.075 310.256L366.995 311.726V317.906L321.075 316.286V310.256Z" fill="#8302CE" fill-opacity="0.3"/>
<path d="M372.075 310.516C372.895 310.546 373.575 311.246 373.575 312.156C373.575 313.066 372.895 313.756 372.075 313.726C371.255 313.696 370.575 312.966 370.575 312.056C370.575 311.146 371.245 310.486 372.075 310.516ZM371.895 318.166C371.155 318.136 370.615 317.546 370.615 316.726C370.615 315.906 371.225 315.276 372.025 315.306C372.885 315.336 373.565 316.056 373.565 317.256C373.565 319.306 372.185 320.396 370.865 320.486V319.406C371.475 319.306 372.215 318.816 372.285 318.076C372.215 318.146 372.045 318.176 371.895 318.166Z" fill="#8302CE" fill-opacity="0.3"/>
<path d="M310.035 306.936L312.285 307.006L317.025 317.376L314.795 317.296L310.025 306.946L310.035 306.936Z" fill="#8302CE" fill-opacity="0.3"/>
<path d="M255.886 323.256L267.846 323.736V329.606L255.886 329.086V323.256Z" fill="#8302CE" fill-opacity="0.3"/>
<path d="M273.546 323.966L290.676 324.656V330.596L273.546 329.846V323.966Z" fill="#8302CE" fill-opacity="0.3"/>
<path d="M302.905 325.156L321.075 325.886V331.916L302.905 331.126V325.156Z" fill="#8302CE" fill-opacity="0.3"/>
<path d="M334.956 326.446L400.466 329.086V335.366L334.956 332.516V326.446Z" fill="#8302CE" fill-opacity="0.3"/>
<path d="M407.206 327.956C408.026 327.986 408.706 328.706 408.706 329.636C408.706 330.566 408.026 331.256 407.206 331.226C406.386 331.196 405.706 330.436 405.706 329.516C405.706 328.596 406.376 327.926 407.206 327.956ZM407.026 335.746C406.286 335.716 405.746 335.106 405.746 334.276C405.746 333.446 406.356 332.806 407.156 332.836C408.016 332.876 408.696 333.616 408.696 334.836C408.696 336.926 407.316 338.026 405.996 338.106V337.006C406.606 336.916 407.346 336.416 407.416 335.666C407.346 335.736 407.176 335.766 407.026 335.756V335.746Z" fill="#8302CE" fill-opacity="0.3"/>
<path d="M292.646 321.806L294.896 321.896L299.636 332.206L297.406 332.106L292.636 321.806H292.646Z" fill="#8302CE" fill-opacity="0.3"/>
<path d="M324.846 323.046L327.096 323.136L331.836 333.626L329.606 333.526L324.836 323.056L324.846 323.046Z" fill="#8302CE" fill-opacity="0.3"/>
<path d="M342.725 345.196L344.145 346.656C342.605 348.186 341.655 350.046 341.655 352.756C341.655 355.466 342.605 357.426 344.145 359.116L342.725 360.426C340.975 358.676 339.535 356.226 339.535 352.636C339.535 349.046 340.965 346.756 342.725 345.196Z" fill="#8302CE" fill-opacity="0.3"/>
<path d="M368.525 361.916L367.105 360.426C368.645 358.886 369.595 356.986 369.595 354.256C369.595 351.526 368.645 349.526 367.105 347.816L368.525 346.476C370.275 348.236 371.715 350.716 371.715 354.366C371.715 358.016 370.285 360.336 368.525 361.906V361.916Z" fill="#8302CE" fill-opacity="0.3"/>
<path d="M379.076 359.126C379.076 360.046 379.566 360.346 380.076 360.376L380.476 360.396V362.396L379.906 362.366C378.246 362.266 376.996 361.306 376.996 359.176V356.946C376.996 355.996 376.456 355.596 375.676 355.546V353.406C376.456 353.446 376.996 353.116 376.996 352.166V349.946C376.996 347.816 378.246 346.986 379.906 347.076L380.476 347.106V349.106L380.076 349.086C379.566 349.056 379.076 349.286 379.076 350.216V352.776C379.076 353.686 378.626 354.356 377.736 354.596C378.616 354.926 379.076 355.646 379.076 356.576V359.136V359.126Z" fill="#8302CE" fill-opacity="0.3"/>
<path d="M353.016 274.666C353.726 274.666 354.226 275.196 354.226 275.946C354.226 276.656 353.666 277.246 352.906 277.236C352.086 277.226 351.456 276.566 351.456 275.526C351.456 273.586 352.776 272.636 354.006 272.546V273.616C353.436 273.686 352.756 274.116 352.656 274.746C352.716 274.706 352.876 274.656 353.016 274.666Z" fill="#8302CE" fill-opacity="0.3"/>
<path d="M289.465 273.846C290.175 273.846 290.675 274.356 290.675 275.086C290.675 275.766 290.115 276.346 289.355 276.336C288.535 276.326 287.905 275.686 287.905 274.686C287.905 272.816 289.225 271.896 290.455 271.806V272.846C289.885 272.906 289.205 273.326 289.105 273.936C289.165 273.896 289.325 273.856 289.465 273.856V273.846Z" fill="#8302CE" fill-opacity="0.3"/>
<path d="M463.356 469.486L464.776 471.116C463.236 472.656 462.286 474.586 462.286 477.456C462.286 480.326 463.236 482.466 464.776 484.356L463.356 485.666C461.606 483.706 460.166 481.026 460.166 477.216C460.166 473.406 461.596 471.046 463.356 469.476V469.486Z" fill="#8302CE" fill-opacity="0.3"/>
<path d="M469.586 486.396L468.166 484.756C469.706 483.216 470.656 481.266 470.656 478.406C470.656 475.546 469.706 473.376 468.166 471.496L469.586 470.166C471.336 472.116 472.776 474.806 472.776 478.646C472.776 482.486 471.346 484.846 469.586 486.406V486.396Z" fill="#8302CE" fill-opacity="0.3"/>
<path d="M474.496 486.966L473.076 485.316C474.616 483.776 475.566 481.826 475.566 478.946C475.566 476.066 474.616 473.906 473.076 472.016L474.496 470.686C476.246 472.646 477.686 475.336 477.686 479.186C477.686 483.036 476.256 485.406 474.496 486.966Z" fill="#8302CE" fill-opacity="0.3"/>
</g>
<mask id="mask2_1504_5164" style="mask-type:luminance" maskUnits="userSpaceOnUse" x="117" y="220" width="161" height="230">
<path d="M268.235 322.806C253.565 322.206 241.685 335.536 241.695 352.576C241.695 369.626 253.585 384.466 268.255 385.746L273.695 386.226C275.755 386.406 277.335 388.126 277.335 390.196L277.355 449.936L229.415 443.506C226.445 443.106 224.235 440.576 224.235 437.586V433.056L224.225 432.396C224.225 415.586 212.335 400.736 197.655 399.216C182.985 397.716 171.105 409.566 171.115 425.706V435.686L125.895 429.616C121.375 429.016 117.995 425.156 117.985 420.586L117.965 381.646C117.965 376.796 122.125 372.986 126.955 373.406H127.045C141.715 374.686 153.595 362.846 153.585 346.926C153.575 331.026 141.685 317.656 127.005 317.056L125.855 317.006C121.425 316.826 117.925 313.186 117.925 308.746L117.895 266.556C117.895 263.346 120.485 260.736 123.695 260.716L171.035 260.426V250.436C171.025 234.306 182.905 220.786 197.585 220.236C197.675 220.236 197.775 220.226 197.865 220.226L199.705 220.256H199.785C205.415 220.576 210.545 222.926 214.645 226.706C220.455 232.076 224.155 240.326 224.155 249.696V260.106L277.305 259.786V319.016C277.315 321.286 275.425 323.106 273.165 323.006L268.235 322.806Z" fill="white"/>
</mask>
<g mask="url(#mask2_1504_5164)">
<path d="M137.815 313.526L153.215 313.956L153.075 319.666L137.685 319.186L137.815 313.526Z" fill="#4C1FDB" fill-opacity="0.3"/>
<path d="M165.304 314.296L197.394 315.246L197.264 321.106L165.164 320.056L165.304 314.296Z" fill="#4C1FDB" fill-opacity="0.3"/>
<path d="M216.334 315.816L230.124 316.246L229.994 322.226L216.204 321.746L216.334 315.816Z" fill="#4C1FDB" fill-opacity="0.3"/>
<path d="M157.355 314.076L163.085 314.236L162.945 319.986L157.215 319.806L157.355 314.076Z" fill="#4C1FDB" fill-opacity="0.3"/>
<path d="M199.694 315.316L205.424 315.486L205.294 321.376L199.564 321.186L199.694 315.316Z" fill="#4C1FDB" fill-opacity="0.3"/>
<path d="M208.174 315.566L213.904 315.746L213.764 321.666L208.034 321.466L208.174 315.566Z" fill="#4C1FDB" fill-opacity="0.3"/>
<path d="M115.025 230.306L137.925 229.796L137.785 235.466L114.885 235.906L115.025 230.306Z" fill="#4C1FDB" fill-opacity="0.3"/>
<path d="M113.374 298.216L136.284 298.636L136.144 304.296L113.234 303.796L113.374 298.216Z" fill="#4C1FDB" fill-opacity="0.3"/>
<path d="M140.414 298.716L178.104 299.456L177.964 305.256L140.274 304.386L140.414 298.716Z" fill="#4C1FDB" fill-opacity="0.3"/>
<path d="M188.424 299.666L202.914 299.976L202.774 305.856L188.284 305.506L188.424 299.666Z" fill="#4C1FDB" fill-opacity="0.3"/>
<path d="M220.465 348.016L230.675 348.526L230.545 354.496L220.335 353.956L220.465 348.016Z" fill="#4C1FDB" fill-opacity="0.3"/>
<path d="M123.954 325.016L138.444 325.516L138.314 331.186L123.814 330.636L123.954 325.016Z" fill="#4C1FDB" fill-opacity="0.3"/>
<path d="M114.584 248.536L124.374 248.426L124.244 254.046L114.444 254.126L114.584 248.536Z" fill="#4C1FDB" fill-opacity="0.3"/>
<path d="M171.855 247.926L177.195 247.876L177.055 253.676L171.725 253.706L171.855 247.926Z" fill="#4C1FDB" fill-opacity="0.3"/>
<path d="M150.254 325.926L159.104 326.246L158.964 331.976L150.124 331.636L150.254 325.926Z" fill="#4C1FDB" fill-opacity="0.3"/>
<path d="M129.034 248.366L143.054 248.216L142.924 253.906L128.904 254.006L129.034 248.366Z" fill="#4C1FDB" fill-opacity="0.3"/>
<path d="M153.924 248.106L167.934 247.966L167.804 253.726L153.784 253.826L153.924 248.106Z" fill="#4C1FDB" fill-opacity="0.3"/>
<path d="M181.044 247.836L195.064 247.716L194.934 253.576L180.914 253.656L181.044 247.836Z" fill="#4C1FDB" fill-opacity="0.3"/>
<path d="M144.864 229.646L191.884 228.676L191.754 234.536L144.734 235.346L144.864 229.646Z" fill="#4C1FDB" fill-opacity="0.3"/>
<path d="M198.115 229.356C198.785 229.346 199.335 229.976 199.315 230.836C199.295 231.696 198.725 232.376 198.055 232.396C197.375 232.406 196.845 231.746 196.855 230.886C196.875 230.026 197.435 229.376 198.115 229.356ZM197.805 236.616C197.205 236.616 196.765 236.086 196.785 235.306C196.805 234.536 197.315 233.906 197.965 233.896C198.675 233.886 199.215 234.536 199.185 235.676C199.145 237.616 197.985 238.716 196.905 238.856L196.925 237.826C197.425 237.706 198.045 237.206 198.115 236.506C198.055 236.576 197.915 236.606 197.795 236.606L197.805 236.616Z" fill="#4C1FDB" fill-opacity="0.3"/>
<path d="M199.235 246.376C199.905 246.376 200.455 247.016 200.435 247.876C200.415 248.736 199.845 249.416 199.175 249.416C198.495 249.416 197.965 248.746 197.975 247.896C197.995 247.036 198.555 246.386 199.235 246.376ZM198.925 253.636C198.325 253.636 197.885 253.096 197.905 252.316C197.925 251.546 198.435 250.916 199.085 250.916C199.795 250.916 200.335 251.566 200.305 252.706C200.265 254.646 199.105 255.736 198.025 255.866L198.045 254.836C198.545 254.726 199.165 254.226 199.235 253.526C199.175 253.596 199.035 253.626 198.915 253.626L198.925 253.636Z" fill="#4C1FDB" fill-opacity="0.3"/>
<path d="M145.624 245.376L147.464 245.356L151.114 255.016H149.294L145.614 245.386L145.624 245.376Z" fill="#4C1FDB" fill-opacity="0.3"/>
<path d="M127.274 320.486L125.454 320.426L129.564 310.976L131.414 311.026L127.274 320.486Z" fill="#4C1FDB" fill-opacity="0.3"/>
<path d="M131.104 320.606L129.284 320.546L133.394 311.076L135.244 311.126L131.104 320.606Z" fill="#4C1FDB" fill-opacity="0.3"/>
<path d="M150.695 385.176L160.665 385.876L160.535 391.606L150.555 390.876L150.695 385.176Z" fill="#4C1FDB" fill-opacity="0.3"/>
<path d="M136.134 384.156L146.104 384.856L145.974 390.536L135.994 389.816L136.134 384.156Z" fill="#4C1FDB" fill-opacity="0.3"/>
<path d="M163.624 386.086L195.734 388.366L195.594 394.216L163.494 391.826L163.624 386.086Z" fill="#4C1FDB" fill-opacity="0.3"/>
<path d="M214.675 389.736L228.475 390.736L228.345 396.696L214.545 395.646L214.675 389.736Z" fill="#4C1FDB" fill-opacity="0.3"/>
<path d="M198.034 388.536L203.764 388.946L203.634 394.826L197.904 394.386L198.034 388.536Z" fill="#4C1FDB" fill-opacity="0.3"/>
<path d="M206.514 389.146L212.244 389.556L212.104 395.466L206.374 395.026L206.514 389.146Z" fill="#4C1FDB" fill-opacity="0.3"/>
<path d="M125.575 390.676L123.755 390.546L127.875 381.276L129.725 381.396L125.585 390.676H125.575Z" fill="#4C1FDB" fill-opacity="0.3"/>
<path d="M129.415 390.956L127.595 390.826L131.715 381.536L133.565 381.666L129.425 390.966L129.415 390.956Z" fill="#4C1FDB" fill-opacity="0.3"/>
<path d="M140.965 327.876L141.005 325.996L146.645 326.196L146.605 328.076L140.965 327.876ZM140.895 330.856L140.945 328.956L146.585 329.166L146.535 331.076L140.895 330.866V330.856Z" fill="#4C1FDB" fill-opacity="0.3"/>
<path d="M123.504 343.456L138.004 344.116L137.864 349.776L123.374 349.066L123.504 343.456Z" fill="#4C1FDB" fill-opacity="0.3"/>
<path d="M149.815 344.656L165.675 345.396L165.535 351.146L149.675 350.356L149.815 344.656Z" fill="#4C1FDB" fill-opacity="0.3"/>
<path d="M182.615 346.196L211.575 347.586L211.445 353.496L182.475 352.006L182.615 346.196Z" fill="#4C1FDB" fill-opacity="0.3"/>
<path d="M140.524 346.506L140.564 344.636L146.204 344.896L146.164 346.776L140.524 346.506ZM140.454 349.476L140.504 347.576L146.144 347.846L146.094 349.756L140.454 349.476Z" fill="#4C1FDB" fill-opacity="0.3"/>
<path d="M170.185 349.706L170.235 347.506L173.755 347.676L173.705 349.876L170.185 349.706Z" fill="#4C1FDB" fill-opacity="0.3"/>
<path d="M178.285 348.896L175.105 346.976L175.155 344.756L180.085 347.906L180.035 350.016L174.965 352.666L175.015 350.486L178.285 348.886V348.896Z" fill="#4C1FDB" fill-opacity="0.3"/>
<path d="M192.795 322.726L193.925 324.096C192.625 325.596 191.805 327.396 191.745 329.986C191.685 332.556 192.415 334.436 193.645 336.036L192.455 337.316C191.055 335.676 189.935 333.356 190.015 329.926C190.095 326.486 191.315 324.266 192.795 322.726Z" fill="#4C1FDB" fill-opacity="0.3"/>
<path d="M197.565 337.536L196.435 336.156C197.735 334.666 198.555 332.846 198.615 330.256C198.675 327.656 197.945 325.786 196.715 324.196L197.905 322.906C199.305 324.546 200.425 326.866 200.345 330.326C200.265 333.786 199.045 336.016 197.565 337.546V337.536Z" fill="#4C1FDB" fill-opacity="0.3"/>
<path d="M202.665 327.796C203.335 327.826 203.885 328.486 203.865 329.346C203.845 330.206 203.275 330.856 202.595 330.836C201.915 330.806 201.375 330.116 201.395 329.256C201.415 328.396 201.975 327.766 202.655 327.796H202.665ZM202.355 335.056C201.755 335.026 201.315 334.466 201.335 333.686C201.355 332.916 201.865 332.316 202.515 332.336C203.225 332.366 203.765 333.046 203.735 334.186C203.695 336.126 202.535 337.166 201.455 337.246L201.475 336.216C201.975 336.126 202.595 335.656 202.665 334.956C202.605 335.026 202.465 335.046 202.345 335.046L202.355 335.056Z" fill="#4C1FDB" fill-opacity="0.3"/>
<path d="M217.474 343.076L218.604 344.476C217.304 345.976 216.484 347.796 216.434 350.426C216.374 353.036 217.104 354.946 218.334 356.576L217.144 357.866C215.744 356.186 214.624 353.826 214.704 350.336C214.784 346.846 216.004 344.606 217.474 343.066V343.076Z" fill="#4C1FDB" fill-opacity="0.3"/>
<path d="M235.234 358.856L234.104 357.426C235.404 355.916 236.224 354.066 236.274 351.426C236.334 348.776 235.604 346.856 234.374 345.216L235.564 343.906C236.964 345.596 238.084 347.976 238.004 351.516C237.924 355.046 236.704 357.316 235.234 358.856Z" fill="#4C1FDB" fill-opacity="0.3"/>
<path d="M240.335 348.966C241.005 348.996 241.555 349.686 241.535 350.566C241.515 351.446 240.945 352.106 240.265 352.076C239.585 352.036 239.045 351.326 239.065 350.446C239.085 349.566 239.645 348.936 240.325 348.966H240.335ZM240.025 356.376C239.425 356.346 238.985 355.756 239.005 354.966C239.025 354.176 239.535 353.566 240.185 353.606C240.895 353.646 241.435 354.346 241.405 355.516C241.365 357.506 240.205 358.546 239.125 358.616L239.145 357.566C239.645 357.476 240.265 357.006 240.335 356.296C240.275 356.366 240.135 356.386 240.015 356.376H240.025Z" fill="#4C1FDB" fill-opacity="0.3"/>
<path d="M123.115 359.806L137.605 360.606L137.475 366.266L122.975 365.416L123.115 359.806Z" fill="#4C1FDB" fill-opacity="0.3"/>
<path d="M149.424 361.256L165.274 362.156L165.144 367.906L149.284 366.956L149.424 361.256Z" fill="#4C1FDB" fill-opacity="0.3"/>
<path d="M182.225 363.116L221.095 365.376L220.965 371.306L182.095 368.926L182.225 363.116Z" fill="#4C1FDB" fill-opacity="0.3"/>
<path d="M140.134 363.016L140.174 361.146L145.814 361.466L145.774 363.346L140.134 363.026V363.016ZM140.064 365.986L140.114 364.086L145.754 364.416L145.704 366.326L140.064 365.996V365.986Z" fill="#4C1FDB" fill-opacity="0.3"/>
<path d="M169.795 366.506L169.845 364.306L173.365 364.506L173.315 366.706L169.795 366.496V366.506Z" fill="#4C1FDB" fill-opacity="0.3"/>
<path d="M177.895 365.776L174.715 363.826L174.765 361.606L179.695 364.806L179.645 366.916L174.575 369.516L174.625 367.346L177.895 365.776Z" fill="#4C1FDB" fill-opacity="0.3"/>
<path d="M228.344 360.966L229.474 362.386C228.174 363.886 227.354 365.706 227.304 368.346C227.244 370.976 227.974 372.906 229.204 374.556L228.014 375.836C226.614 374.126 225.494 371.746 225.574 368.236C225.654 364.726 226.874 362.486 228.344 360.956V360.966Z" fill="#4C1FDB" fill-opacity="0.3"/>
<path d="M233.124 376.186L231.994 374.756C233.294 373.266 234.114 371.416 234.164 368.786C234.224 366.136 233.494 364.216 232.264 362.566L233.454 361.276C234.854 362.976 235.974 365.366 235.894 368.896C235.814 372.426 234.594 374.676 233.124 376.196V376.186Z" fill="#4C1FDB" fill-opacity="0.3"/>
<path d="M238.224 366.346C238.894 366.386 239.444 367.076 239.424 367.956C239.404 368.836 238.834 369.486 238.154 369.446C237.474 369.406 236.934 368.686 236.954 367.806C236.974 366.926 237.534 366.306 238.214 366.346H238.224ZM237.914 373.746C237.314 373.706 236.874 373.116 236.894 372.326C236.914 371.536 237.424 370.936 238.074 370.976C238.784 371.016 239.324 371.726 239.294 372.896C239.254 374.876 238.094 375.916 237.014 375.976L237.034 374.926C237.534 374.846 238.154 374.376 238.224 373.666C238.164 373.736 238.024 373.756 237.904 373.746H237.914Z" fill="#4C1FDB" fill-opacity="0.3"/>
<path d="M114.225 263.026L124.025 262.996L123.885 268.616H114.095L114.225 263.026Z" fill="#4C1FDB" fill-opacity="0.3"/>
<path d="M128.685 262.986L154.415 262.926L154.275 268.656L128.555 268.616L128.685 262.986Z" fill="#4C1FDB" fill-opacity="0.3"/>
<path d="M162.065 326.346L187.795 327.276L187.655 333.106L161.925 332.096L162.065 326.346Z" fill="#4C1FDB" fill-opacity="0.3"/>
<path d="M122.105 401.456L157.145 404.276L157.015 409.996L121.975 407.066L122.105 401.456Z" fill="#4C1FDB" fill-opacity="0.3"/>
<path d="M171.215 405.426L180.065 406.146L179.925 411.946L171.085 411.186L171.215 405.426Z" fill="#4C1FDB" fill-opacity="0.3"/>
<path d="M216.725 409.176L225.575 409.916L225.435 415.866L216.585 415.096L216.725 409.176Z" fill="#4C1FDB" fill-opacity="0.3"/>
<path d="M161.924 406.966L161.964 405.066L167.604 405.526L167.564 407.426L161.924 406.956V406.966ZM161.854 409.976L161.904 408.056L167.544 408.526L167.494 410.456L161.854 409.976Z" fill="#4C1FDB" fill-opacity="0.3"/>
<path d="M213.364 404.106L214.494 405.546C213.194 406.996 212.374 408.786 212.314 411.406C212.254 414.006 212.984 415.946 214.214 417.616L213.024 418.856C211.624 417.126 210.504 414.736 210.584 411.266C210.664 407.786 211.884 405.596 213.364 404.116V404.106Z" fill="#4C1FDB" fill-opacity="0.3"/>
<path d="M183.025 406.386L208.765 408.516L208.635 414.406L182.895 412.196L183.025 406.386Z" fill="#4C1FDB" fill-opacity="0.3"/>
<path d="M229.305 410.236L274.375 414.056L274.245 420.176L229.175 416.196L229.305 410.236Z" fill="#4C1FDB" fill-opacity="0.3"/>
<path d="M167.594 262.916L205.174 262.906L205.044 268.796L167.454 268.676L167.594 262.916Z" fill="#4C1FDB" fill-opacity="0.3"/>
<path d="M209.365 261.596C210.035 261.596 210.585 262.246 210.565 263.116C210.545 263.976 209.975 264.656 209.305 264.656C208.625 264.656 208.095 263.976 208.105 263.116C208.125 262.256 208.685 261.606 209.365 261.606V261.596ZM209.055 268.896C208.455 268.896 208.015 268.336 208.035 267.566C208.055 266.786 208.565 266.166 209.215 266.166C209.925 266.166 210.465 266.836 210.435 267.986C210.395 269.936 209.235 271.026 208.155 271.146L208.175 270.116C208.675 270.006 209.295 269.516 209.365 268.806C209.305 268.876 209.165 268.906 209.045 268.906L209.055 268.896Z" fill="#4C1FDB" fill-opacity="0.3"/>
<path d="M158.614 260.086H160.464L164.124 269.846H162.304L158.624 260.086H158.614Z" fill="#4C1FDB" fill-opacity="0.3"/>
<path d="M113.874 277.506L123.674 277.566L123.534 283.176L113.744 283.096L113.874 277.506Z" fill="#4C1FDB" fill-opacity="0.3"/>
<path d="M128.334 277.586L142.354 277.676L142.224 283.356L128.204 283.226L128.334 277.586Z" fill="#4C1FDB" fill-opacity="0.3"/>
<path d="M152.364 277.746L167.244 277.856L167.104 283.616L152.234 283.466L152.364 277.746Z" fill="#4C1FDB" fill-opacity="0.3"/>
<path d="M178.595 277.946L232.225 278.436L232.095 284.416L178.465 283.746L178.595 277.946Z" fill="#4C1FDB" fill-opacity="0.3"/>
<path d="M237.774 277.166C238.444 277.166 238.994 277.836 238.974 278.716C238.954 279.596 238.384 280.276 237.714 280.266C237.034 280.266 236.504 279.566 236.514 278.686C236.534 277.806 237.094 277.156 237.774 277.166ZM237.464 284.576C236.864 284.576 236.424 284.006 236.444 283.216C236.464 282.426 236.974 281.796 237.624 281.806C238.334 281.806 238.874 282.496 238.844 283.666C238.804 285.646 237.644 286.746 236.564 286.856L236.584 285.806C237.084 285.696 237.704 285.206 237.774 284.486C237.714 284.556 237.574 284.586 237.454 284.586L237.464 284.576Z" fill="#4C1FDB" fill-opacity="0.3"/>
<path d="M144.034 274.876H145.884L149.534 284.596L147.714 284.576L144.034 274.876Z" fill="#4C1FDB" fill-opacity="0.3"/>
<path d="M170.395 275.026H172.245L175.905 284.906L174.085 284.886L170.405 275.036L170.395 275.026Z" fill="#4C1FDB" fill-opacity="0.3"/>
<path d="M184.555 295.596L185.685 296.946C184.385 298.456 183.565 300.266 183.505 302.846C183.445 305.406 184.175 307.266 185.405 308.836L184.215 310.126C182.815 308.516 181.695 306.226 181.775 302.806C181.855 299.386 183.075 297.146 184.555 295.596Z" fill="#4C1FDB" fill-opacity="0.3"/>
<path d="M205.355 310.696L204.225 309.326C205.525 307.806 206.345 305.966 206.395 303.366C206.455 300.756 205.725 298.886 204.495 297.306L205.685 295.986C207.085 297.606 208.205 299.926 208.125 303.396C208.045 306.876 206.825 309.126 205.355 310.686V310.696Z" fill="#4C1FDB" fill-opacity="0.3"/>
<path d="M214.055 307.706C214.035 308.586 214.425 308.856 214.845 308.866H215.175L215.135 310.776H214.665C213.305 310.726 212.305 309.846 212.345 307.826L212.395 305.696C212.415 304.786 211.975 304.426 211.345 304.406L211.395 302.366C212.035 302.376 212.485 302.056 212.505 301.146L212.555 299.036C212.605 297.006 213.645 296.176 215.005 296.206H215.475L215.435 298.116H215.105C214.685 298.096 214.275 298.336 214.255 299.216L214.205 301.656C214.185 302.526 213.805 303.176 213.075 303.436C213.785 303.726 214.145 304.396 214.125 305.276L214.075 307.716L214.055 307.706Z" fill="#4C1FDB" fill-opacity="0.3"/>
<path d="M194.524 227.936C195.104 227.926 195.504 228.406 195.484 229.126C195.464 229.796 195.004 230.386 194.374 230.396C193.704 230.406 193.204 229.796 193.224 228.806C193.264 226.956 194.364 226.006 195.374 225.886L195.354 226.916C194.884 226.996 194.314 227.426 194.224 228.036C194.274 227.996 194.404 227.946 194.524 227.946V227.936Z" fill="#4C1FDB" fill-opacity="0.3"/>
<path d="M142.524 229.026C143.104 229.016 143.504 229.486 143.484 230.176C143.464 230.826 143.004 231.396 142.374 231.416C141.704 231.426 141.204 230.846 141.224 229.876C141.264 228.076 142.374 227.156 143.374 227.036L143.354 228.026C142.884 228.106 142.314 228.526 142.224 229.116C142.274 229.076 142.404 229.026 142.524 229.026Z" fill="#4C1FDB" fill-opacity="0.3"/>
</g>
<path d="M277.355 449.936L277.335 390.196C277.335 388.126 275.755 386.406 273.695 386.226L268.255 385.746C253.585 384.466 241.695 369.626 241.695 352.576C241.685 335.536 253.565 322.206 268.235 322.806L273.165 323.006C275.425 323.106 277.315 321.286 277.315 319.016V259.786" stroke="#A278FF" stroke-width="3" stroke-miterlimit="10"/>
<path d="M119.825 352.966L120.565 364.336C119.215 364.626 117.745 365.236 116.175 366.296C115.225 366.926 114.245 367.726 113.225 368.716L112.765 356.696L111.755 355.116L119.825 352.966Z" fill="#FFC5B2"/>
<path d="M75.8154 210.456C77.2754 219.536 74.4254 228.006 67.7254 231.966C58.1354 237.626 44.2554 231.886 36.7354 219.136L32.0654 211.236L75.8154 210.456Z" fill="#181818"/>
<path d="M199.436 320.355L204.106 328.255L113.846 349.785L109.186 341.885C101.666 329.125 103.346 314.195 112.936 308.545C122.536 302.875 136.426 308.615 143.946 321.365L148.606 329.255L198.206 318.085C198.586 318.855 198.996 319.605 199.436 320.355Z" fill="#181818"/>
<path d="M80.3657 369.535L113.846 349.785L204.106 328.255L169.336 348.785L81.3757 369.755C81.0357 369.835 80.6857 369.855 80.3457 369.825L80.3657 369.535Z" fill="#C93824"/>
<path d="M271.275 287.635L239.735 308.736L198.205 318.086L148.605 329.255L183.375 308.736L270.555 287.945C270.825 287.885 271.065 287.775 271.275 287.635Z" fill="#C93824"/>
<path d="M156.105 262.546L183.375 308.736L148.605 329.256L143.945 321.366C136.425 308.616 122.535 302.876 112.935 308.546C103.345 314.196 101.665 329.126 109.185 341.886L113.845 349.786L80.3652 369.536L80.3452 369.826C79.3352 369.736 78.4152 369.166 77.8852 368.276L51.8252 324.126L45.8752 327.626C36.2752 333.296 22.3952 327.546 14.8652 314.796C7.33523 302.046 9.02522 287.116 18.6252 281.456L24.5552 277.946L1.01522 238.066C-1.03478 234.586 0.115224 230.096 3.60522 228.036L32.0652 211.236L36.7352 219.136C44.2552 231.886 58.1352 237.626 67.7252 231.966C74.4252 228.006 77.2752 219.536 75.8152 210.456C75.1852 206.516 73.7552 202.466 71.4852 198.626L66.8252 190.726L101.595 170.196L128.855 216.386L134.805 212.866C144.405 207.216 158.275 212.946 165.805 225.706C173.335 238.446 171.655 253.376 162.055 259.046L156.105 262.546Z" fill="#EE5A24"/>
<path d="M272.026 284.495C272.666 285.595 272.296 286.945 271.326 287.605C271.306 287.615 271.296 287.625 271.276 287.635C271.066 287.775 270.826 287.885 270.556 287.945L183.376 308.735L156.106 262.545L162.056 259.045C171.656 253.375 173.336 238.445 165.806 225.705C158.276 212.945 144.406 207.215 134.806 212.865L128.856 216.385L101.596 170.195L186.586 149.925C189.716 149.185 192.966 150.555 194.596 153.325L219.106 194.855L225.046 191.355C234.646 185.685 248.536 191.435 256.056 204.175C263.586 216.925 261.906 231.855 252.306 237.515L246.366 241.035L272.026 284.495Z" fill="#DD4B1D"/>
<mask id="mask3_1504_5164" style="mask-type:luminance" maskUnits="userSpaceOnUse" x="0" y="170" width="184" height="200">
<path d="M156.105 262.546L183.375 308.736L148.605 329.256L143.945 321.366C136.425 308.616 122.535 302.876 112.935 308.546C103.345 314.196 101.665 329.126 109.185 341.886L113.845 349.786L80.3652 369.536L80.3452 369.826C79.3352 369.736 78.4152 369.166 77.8852 368.276L51.8252 324.126L45.8752 327.626C36.2752 333.296 22.3952 327.546 14.8652 314.796C7.33523 302.046 9.02522 287.116 18.6252 281.456L24.5552 277.946L1.01522 238.066C-1.03478 234.586 0.115224 230.096 3.60522 228.036L32.0652 211.236L36.7352 219.136C44.2552 231.886 58.1352 237.626 67.7252 231.966C74.4252 228.006 77.2752 219.536 75.8152 210.456C75.1852 206.516 73.7552 202.466 71.4852 198.626L66.8252 190.726L101.595 170.196L128.855 216.386L134.805 212.866C144.405 207.216 158.275 212.946 165.805 225.706C173.335 238.446 171.655 253.376 162.055 259.046L156.105 262.546Z" fill="white"/>
</mask>
<g mask="url(#mask3_1504_5164)">
<path d="M55.5543 283.53L40.3984 292.098L43.2577 297.156L58.4135 288.588L55.5543 283.53Z" fill="#DD4B1D"/>
<path d="M99.0465 258.936L67.4551 276.795L70.3143 281.853L101.906 263.994L99.0465 258.936Z" fill="#DD4B1D"/>
<path d="M131.271 240.731L117.69 248.408L120.55 253.466L134.13 245.789L131.271 240.731Z" fill="#DD4B1D"/>
<path d="M65.268 278.037L59.627 281.226L62.4862 286.284L68.1272 283.095L65.268 278.037Z" fill="#DD4B1D"/>
<path d="M106.955 254.471L101.314 257.66L104.174 262.717L109.815 259.528L106.955 254.471Z" fill="#DD4B1D"/>
<path d="M115.293 249.758L109.652 252.947L112.512 258.004L118.153 254.815L115.293 249.758Z" fill="#DD4B1D"/>
<path d="M31.0436 279.892L8.48828 292.643L11.3475 297.701L33.9029 284.95L31.0436 279.892Z" fill="#DD4B1D"/>
<path d="M72.219 256.607L35.1084 277.586L37.9676 282.644L75.0782 261.665L72.219 256.607Z" fill="#DD4B1D"/>
<path d="M96.6371 242.809L82.3691 250.875L85.2284 255.933L99.4963 247.867L96.6371 242.809Z" fill="#DD4B1D"/>
<path d="M147.937 267.308L137.891 272.987L140.75 278.045L150.796 272.366L147.937 267.308Z" fill="#DD4B1D"/>
<path d="M47.3226 302.267L33.0547 310.333L35.9139 315.391L50.1818 307.325L47.3226 302.267Z" fill="#DD4B1D"/>
<path d="M44.7258 212.827L39.4678 215.799L42.327 220.857L47.585 217.885L44.7258 212.827Z" fill="#DD4B1D"/>
<path d="M67.6564 290.775L58.9512 295.697L61.8104 300.754L70.5157 295.833L67.6564 290.775Z" fill="#DD4B1D"/>
<path d="M11.1073 231.834L-2.69922 239.639L0.159996 244.696L13.9666 236.891L11.1073 231.834Z" fill="#DD4B1D"/>
<path d="M35.6132 217.966L21.8066 225.771L24.6659 230.829L38.4724 223.024L35.6132 217.966Z" fill="#DD4B1D"/>
<path d="M62.3232 202.867L48.5166 210.672L51.3758 215.73L65.1824 207.925L62.3232 202.867Z" fill="#DD4B1D"/>
<path d="M49.4498 188.408L3.1377 214.589L5.99691 219.647L52.309 193.466L49.4498 188.408Z" fill="#DD4B1D"/>
<path d="M55.9852 185.626C56.6452 185.256 57.5152 185.496 57.9252 186.236C58.3352 186.976 58.1252 187.866 57.4652 188.246C56.8052 188.626 55.9252 188.346 55.5052 187.606C55.0852 186.866 55.3152 186.006 55.9852 185.626ZM59.3752 191.956C58.7852 192.296 58.0752 192.066 57.6952 191.396C57.3152 190.726 57.5152 189.916 58.1452 189.556C58.8452 189.166 59.7152 189.426 60.2652 190.406C61.2052 192.076 60.6252 193.636 59.6252 194.346L59.1252 193.466C59.5652 193.086 59.9152 192.326 59.6352 191.696C59.6152 191.786 59.4952 191.886 59.3652 191.956H59.3752Z" fill="#DD4B1D"/>
<path d="M65.7645 199.455C66.4245 199.085 67.2945 199.325 67.7045 200.065C68.1145 200.805 67.9045 201.695 67.2445 202.075C66.5845 202.455 65.7045 202.175 65.2845 201.435C64.8645 200.695 65.0945 199.835 65.7645 199.455ZM69.1545 205.785C68.5645 206.125 67.8545 205.895 67.4745 205.225C67.0945 204.555 67.2945 203.745 67.9245 203.385C68.6245 202.995 69.4945 203.255 70.0445 204.235C70.9845 205.905 70.4045 207.465 69.4045 208.175L68.9045 207.295C69.3445 206.915 69.6945 206.155 69.4145 205.525C69.3945 205.615 69.2745 205.715 69.1445 205.785H69.1545Z" fill="#DD4B1D"/>
<path d="M12.1445 227.946L13.9645 226.916L22.6445 233.346L20.8545 234.356L12.1545 227.946H12.1445Z" fill="#DD4B1D"/>
<path d="M33.8444 304.396L32.0544 305.406L31.0244 294.656L32.8444 293.625L33.8544 304.385L33.8444 304.396Z" fill="#DD4B1D"/>
<path d="M37.6247 302.256L35.8347 303.266L34.8047 292.516L36.6247 291.486L37.6347 302.246L37.6247 302.256Z" fill="#DD4B1D"/>
<path d="M100.226 341.579L90.4062 347.13L93.2655 352.188L103.085 346.637L100.226 341.579Z" fill="#DD4B1D"/>
<path d="M85.8977 349.682L76.0781 355.233L78.9374 360.291L88.7569 354.74L85.8977 349.682Z" fill="#DD4B1D"/>
<path d="M134.725 322.063L103.134 339.922L105.993 344.98L137.584 327.121L134.725 322.063Z" fill="#DD4B1D"/>
<path d="M166.959 303.859L153.379 311.536L156.238 316.593L169.818 308.916L166.959 303.859Z" fill="#DD4B1D"/>
<path d="M142.633 317.598L136.992 320.787L139.851 325.845L145.492 322.656L142.633 317.598Z" fill="#DD4B1D"/>
<path d="M150.976 312.894L145.335 316.083L148.194 321.141L153.835 317.952L150.976 312.894Z" fill="#DD4B1D"/>
<path d="M69.5348 367.525L67.7448 368.535L66.7148 357.785L68.5348 356.755L69.5448 367.515L69.5348 367.525Z" fill="#DD4B1D"/>
<path d="M73.3151 365.385L71.5251 366.395L70.4951 355.645L72.3151 354.615L73.3251 365.375L73.3151 365.385Z" fill="#DD4B1D"/>
<path d="M50.9947 302.875L50.0547 301.205L55.6047 298.065L56.5447 299.735L50.9947 302.875ZM52.4947 305.525L51.5347 303.825L57.0847 300.685L58.0447 302.385L52.4947 305.525Z" fill="#DD4B1D"/>
<path d="M56.7211 318.876L42.4531 326.942L45.3123 331.999L59.5803 323.934L56.7211 318.876Z" fill="#DD4B1D"/>
<path d="M83.9406 303.481L68.332 312.305L71.1912 317.362L86.7998 308.539L83.9406 303.481Z" fill="#DD4B1D"/>
<path d="M129.133 277.934L100.623 294.051L103.482 299.109L131.992 282.992L129.133 277.934Z" fill="#DD4B1D"/>
<path d="M60.3843 319.476L59.4443 317.806L64.9943 314.666L65.9343 316.336L60.3843 319.476ZM61.8843 322.126L60.9243 320.426L66.4743 317.286L67.4343 318.986L61.8843 322.126Z" fill="#DD4B1D"/>
<path d="M90.505 304.516L89.415 302.586L92.885 300.625L93.975 302.556L90.505 304.516Z" fill="#DD4B1D"/>
<path d="M97.8548 298.975L93.8148 299.235L92.7148 297.295L99.0748 297.055L100.115 298.895L96.6248 304.205L95.5448 302.305L97.8448 298.975H97.8548Z" fill="#DD4B1D"/>
<path d="M98.4048 268.006L100.195 268.506C99.7048 270.546 99.8348 272.556 101.105 274.806C102.375 277.056 104.035 278.206 106.025 278.836L105.535 280.636C103.345 280.066 101.085 278.756 99.3948 275.776C97.7048 272.796 97.7548 270.176 98.3948 268.016L98.4048 268.006Z" fill="#DD4B1D"/>
<path d="M110.555 277.796L108.765 277.296C109.255 275.256 109.115 273.226 107.855 271.006C106.595 268.786 104.925 267.606 102.935 266.976L103.425 265.176C105.615 265.746 107.875 267.056 109.565 270.036C111.255 273.016 111.205 275.636 110.565 277.796H110.555Z" fill="#DD4B1D"/>
<path d="M110.514 266.516C111.174 266.146 112.044 266.386 112.454 267.126C112.864 267.866 112.654 268.756 111.994 269.136C111.334 269.516 110.454 269.236 110.034 268.496C109.614 267.756 109.844 266.896 110.514 266.516ZM113.904 272.846C113.314 273.186 112.604 272.956 112.224 272.286C111.844 271.616 112.044 270.806 112.674 270.446C113.374 270.056 114.244 270.316 114.794 271.296C115.734 272.966 115.154 274.526 114.154 275.236L113.654 274.356C114.094 273.976 114.444 273.216 114.164 272.586C114.144 272.676 114.024 272.776 113.894 272.846H113.904Z" fill="#DD4B1D"/>
<path d="M132.504 270.635L134.294 271.135C133.804 273.175 133.934 275.186 135.204 277.426C136.474 279.666 138.134 280.826 140.124 281.456L139.634 283.255C137.444 282.685 135.184 281.376 133.494 278.396C131.804 275.416 131.854 272.795 132.494 270.635H132.504Z" fill="#DD4B1D"/>
<path d="M157.454 273.195L155.664 272.695C156.154 270.655 156.014 268.625 154.754 266.395C153.494 264.165 151.824 262.995 149.834 262.365L150.324 260.565C152.514 261.135 154.774 262.445 156.464 265.425C158.154 268.405 158.104 271.025 157.464 273.185L157.454 273.195Z" fill="#DD4B1D"/>
<path d="M157.404 261.915C158.064 261.545 158.934 261.785 159.344 262.525C159.754 263.265 159.544 264.155 158.884 264.535C158.224 264.915 157.344 264.635 156.924 263.895C156.504 263.155 156.734 262.295 157.404 261.915ZM160.794 268.245C160.204 268.585 159.494 268.355 159.114 267.685C158.734 267.015 158.934 266.205 159.564 265.845C160.264 265.455 161.134 265.715 161.684 266.695C162.624 268.365 162.044 269.925 161.044 270.635L160.544 269.755C160.984 269.375 161.334 268.615 161.054 267.985C161.034 268.075 160.914 268.175 160.784 268.245H160.794Z" fill="#DD4B1D"/>
<path d="M65.0511 333.599L50.7832 341.665L53.6424 346.723L67.9104 338.657L65.0511 333.599Z" fill="#DD4B1D"/>
<path d="M92.2707 318.204L76.6621 327.028L79.5213 332.086L95.1299 323.262L92.2707 318.204Z" fill="#DD4B1D"/>
<path d="M147.21 287.152L108.95 308.781L111.809 313.839L150.069 292.21L147.21 287.152Z" fill="#DD4B1D"/>
<path d="M68.7144 334.206L67.7744 332.535L73.3244 329.396L74.2644 331.065L68.7144 334.206ZM70.2144 336.855L69.2544 335.156L74.8044 332.016L75.7644 333.716L70.2144 336.855Z" fill="#DD4B1D"/>
<path d="M98.8351 319.245L97.7451 317.315L101.215 315.355L102.305 317.285L98.8351 319.245Z" fill="#DD4B1D"/>
<path d="M106.175 313.705L102.135 313.965L101.035 312.025L107.395 311.785L108.435 313.625L104.945 318.935L103.865 317.035L106.165 313.705H106.175Z" fill="#DD4B1D"/>
<path d="M151.924 279.106L153.714 279.606C153.224 281.646 153.354 283.656 154.624 285.906C155.894 288.156 157.554 289.306 159.544 289.936L159.054 291.736C156.864 291.166 154.604 289.856 152.914 286.876C151.234 283.896 151.274 281.276 151.914 279.116L151.924 279.106Z" fill="#DD4B1D"/>
<path d="M164.074 288.886L162.284 288.386C162.774 286.346 162.634 284.316 161.374 282.096C160.114 279.876 158.444 278.696 156.454 278.066L156.944 276.266C159.134 276.836 161.394 278.146 163.084 281.126C164.774 284.106 164.724 286.726 164.084 288.886H164.074Z" fill="#DD4B1D"/>
<path d="M164.034 277.606C164.694 277.236 165.564 277.476 165.974 278.216C166.384 278.956 166.174 279.846 165.514 280.226C164.854 280.606 163.974 280.326 163.554 279.586C163.134 278.846 163.364 277.986 164.034 277.606ZM167.424 283.936C166.834 284.276 166.124 284.046 165.744 283.376C165.364 282.706 165.564 281.896 166.194 281.536C166.894 281.146 167.764 281.406 168.314 282.386C169.254 284.056 168.674 285.616 167.674 286.326L167.174 285.446C167.614 285.066 167.964 284.306 167.684 283.676C167.664 283.766 167.544 283.866 167.414 283.936H167.424Z" fill="#DD4B1D"/>
<path d="M0.119078 255.333L-9.52637 260.786L-6.66715 265.844L2.97829 260.391L0.119078 255.333Z" fill="#DD4B1D"/>
<path d="M30.0374 238.411L4.70508 252.731L7.56429 257.789L32.8966 243.468L30.0374 238.411Z" fill="#DD4B1D"/>
<path d="M95.9115 274.802L70.5791 289.123L73.4383 294.18L98.7707 279.86L95.9115 274.802Z" fill="#DD4B1D"/>
<path d="M106.494 359.739L72.0127 379.232L74.8719 384.29L109.354 364.797L106.494 359.739Z" fill="#DD4B1D"/>
<path d="M129.036 346.99L120.331 351.911L123.19 356.969L131.896 352.048L129.036 346.99Z" fill="#DD4B1D"/>
<path d="M173.813 321.68L165.107 326.601L167.967 331.659L176.672 326.738L173.813 321.68Z" fill="#DD4B1D"/>
<path d="M112.375 359.095L111.435 357.425L116.985 354.285L117.925 355.955L112.375 359.095ZM113.875 361.745L112.915 360.045L118.465 356.905L119.425 358.605L113.875 361.745Z" fill="#DD4B1D"/>
<path d="M159.375 324.456L161.165 324.956C160.675 326.996 160.805 329.006 162.075 331.246C163.345 333.486 165.005 334.646 166.995 335.276L166.505 337.076C164.315 336.506 162.055 335.196 160.365 332.216C158.675 329.236 158.725 326.616 159.365 324.456H159.375Z" fill="#DD4B1D"/>
<path d="M157.288 331.03L131.956 345.351L134.815 350.409L160.148 336.088L157.288 331.03Z" fill="#DD4B1D"/>
<path d="M221.842 294.544L177.497 319.613L180.356 324.671L224.701 299.602L221.842 294.544Z" fill="#DD4B1D"/>
<path d="M80.0334 210.162L43.0186 231.087L45.8778 236.144L82.8926 215.219L80.0334 210.162Z" fill="#DD4B1D"/>
<path d="M83.4852 206.735C84.1452 206.365 85.0152 206.605 85.4252 207.345C85.8352 208.085 85.6252 208.975 84.9652 209.355C84.3052 209.735 83.4252 209.455 83.0052 208.715C82.5852 207.975 82.8152 207.115 83.4852 206.735ZM86.8752 213.065C86.2852 213.405 85.5752 213.175 85.1952 212.505C84.8152 211.835 85.0152 211.025 85.6452 210.665C86.3452 210.275 87.2152 210.535 87.7652 211.515C88.7052 213.185 88.1252 214.745 87.1252 215.455L86.6252 214.575C87.0652 214.195 87.4152 213.435 87.1352 212.805C87.1152 212.895 86.9952 212.995 86.8652 213.065H86.8752Z" fill="#DD4B1D"/>
<path d="M32.6943 233.625L34.5143 232.595L43.1943 239.025L41.4043 240.035L32.7043 233.625H32.6943Z" fill="#DD4B1D"/>
<path d="M7.52631 268.431L-2.11914 273.884L0.740074 278.941L10.3855 273.489L7.52631 268.431Z" fill="#DD4B1D"/>
<path d="M25.9267 258.037L12.1201 265.842L14.9793 270.9L28.7859 263.095L25.9267 258.037Z" fill="#DD4B1D"/>
<path d="M50.4332 244.179L35.7822 252.461L38.6414 257.519L53.2924 249.237L50.4332 244.179Z" fill="#DD4B1D"/>
<path d="M114.412 208.012L61.6055 237.864L64.4647 242.921L117.271 213.069L114.412 208.012Z" fill="#DD4B1D"/>
<path d="M119.205 203.836C119.865 203.466 120.735 203.706 121.145 204.446C121.555 205.186 121.345 206.076 120.685 206.456C120.025 206.836 119.145 206.556 118.725 205.816C118.305 205.076 118.535 204.216 119.205 203.836ZM122.595 210.166C122.005 210.506 121.295 210.276 120.915 209.606C120.535 208.936 120.735 208.126 121.365 207.766C122.065 207.376 122.935 207.636 123.485 208.616C124.425 210.286 123.845 211.846 122.845 212.556L122.345 211.676C122.785 211.296 123.135 210.536 122.855 209.906C122.835 209.996 122.715 210.096 122.585 210.166H122.595Z" fill="#DD4B1D"/>
<path d="M26.085 254.656L27.905 253.625L36.585 260.056L34.795 261.065L26.095 254.656H26.085Z" fill="#DD4B1D"/>
<path d="M52.0449 239.986L53.8649 238.956L62.5449 245.386L60.7549 246.396L52.0549 239.986H52.0449Z" fill="#DD4B1D"/>
<path d="M76.5044 249.615L78.2944 250.115C77.8044 252.155 77.9344 254.165 79.2044 256.405C80.4744 258.645 82.1344 259.805 84.1244 260.435L83.6344 262.235C81.4444 261.665 79.1844 260.355 77.4944 257.375C75.8044 254.395 75.8544 251.775 76.4944 249.615H76.5044Z" fill="#DD4B1D"/>
<path d="M104.434 250.485L102.644 249.985C103.134 247.945 102.994 245.915 101.734 243.695C100.474 241.475 98.8045 240.295 96.8145 239.665L97.3045 237.865C99.4945 238.435 101.754 239.745 103.444 242.725C105.134 245.705 105.084 248.325 104.444 250.485H104.434Z" fill="#DD4B1D"/>
<path d="M111.375 242.916C111.795 243.666 112.315 243.666 112.735 243.426L113.065 243.246L113.985 244.866L113.525 245.126C112.195 245.876 110.775 245.726 109.795 243.996L108.765 242.176C108.325 241.396 107.715 241.346 107.095 241.696L106.105 239.956C106.735 239.596 107.005 239.066 106.565 238.286L105.545 236.476C104.565 234.746 105.165 233.446 106.495 232.696L106.955 232.436L107.875 234.056L107.545 234.236C107.125 234.466 106.855 234.896 107.275 235.646L108.455 237.726C108.875 238.466 108.835 239.236 108.245 239.876C109.085 239.706 109.775 240.066 110.195 240.816L111.375 242.896V242.916Z" fill="#DD4B1D"/>
<path d="M51.6951 186.356C52.2651 186.036 52.9151 186.226 53.2551 186.846C53.5851 187.426 53.4151 188.176 52.7951 188.526C52.1351 188.896 51.3251 188.656 50.8451 187.796C49.9451 186.196 50.5551 184.796 51.4951 184.156L51.9951 185.036C51.5651 185.356 51.2251 186.026 51.4451 186.596C51.4651 186.536 51.5851 186.426 51.6951 186.356Z" fill="#DD4B1D"/>
<path d="M0.4646 215.315C1.0346 214.995 1.6846 215.185 2.0246 215.805C2.3546 216.385 2.1846 217.135 1.5646 217.485C0.904603 217.855 0.094602 217.615 -0.385398 216.755C-1.2854 215.155 -0.6754 213.755 0.2646 213.115L0.7646 213.995C0.3346 214.315 -0.00539958 214.985 0.2146 215.555C0.2346 215.495 0.3546 215.385 0.4646 215.315Z" fill="#DD4B1D"/>
<path d="M219.584 360.365L113.493 420.34L116.352 425.398L222.444 365.423L219.584 360.365Z" fill="#DD4B1D"/>
</g>
<path d="M183.376 308.736L156.106 262.546L162.056 259.046C171.656 253.376 173.336 238.446 165.806 225.706C158.276 212.946 144.406 207.216 134.806 212.866L128.856 216.386L101.596 170.196" stroke="#FF804D" stroke-width="3" stroke-linejoin="round"/>
<path d="M271.326 287.606L271.486 287.496" stroke="black" stroke-width="0.5" stroke-linecap="round" stroke-linejoin="round"/>
<path d="M135.019 370.001C139.336 373.649 146.116 384.531 138.687 393.33C134.569 398.222 130 396.812 130 396.812C131.341 390.501 132.62 383.723 133.772 377.193C134.202 374.747 134.621 372.333 135.019 370.001Z" fill="#181818"/>
<path d="M108.825 430.296C98.1153 434.076 85.7953 459.406 85.7953 459.406L80.6653 456.836L75.0353 454.016L69.1953 451.096C74.1853 435.186 102.395 415.996 102.395 415.996C105.605 414.506 124.055 419.776 124.055 419.776C124.055 419.776 135.405 451.246 134.925 468.316H117.525L108.825 430.296Z" fill="#181818"/>
<path d="M125.196 376.565L134.046 377.765C132.946 384.065 131.726 390.605 130.446 396.695C128.366 406.675 126.136 415.415 124.056 419.775C124.056 419.775 105.606 414.505 102.396 415.995C102.396 415.995 112.616 393.075 112.376 379.835C113.546 380.085 114.686 380.075 115.536 380.005V380.055C115.716 381.685 112.406 386.095 115.226 386.525C118.046 386.955 120.976 383.285 120.976 383.285C121.646 384.065 122.396 384.625 123.216 384.865C123.216 384.865 124.106 381.295 125.196 376.565Z" fill="#F4901E"/>
<path d="M122.176 468.315H131.686C131.686 468.315 131.616 469.645 130.806 471.345C129.996 473.035 118.406 478.275 117.006 475.395C115.606 472.525 121.356 469.945 122.176 468.315Z" fill="#FFC5B2"/>
<path d="M128 365.248C127.247 369.242 126.306 373.553 125.48 377.208C124.341 382.219 123.41 386.001 123.41 386.001C122.553 385.746 121.769 385.153 121.068 384.327C117.315 379.973 115.684 369.093 116.05 366.328C117.692 365.205 119.228 364.559 120.64 364.252C123.714 363.563 126.212 364.421 128 365.248Z" fill="#181818"/>
<path d="M112.375 379.835C111.745 379.705 111.115 379.505 110.495 379.195C108.215 378.055 108.395 372.895 108.605 370.445C108.675 369.695 109.295 369.135 110.045 369.135H112.225C112.595 369.135 112.955 368.975 113.225 368.715C114.245 367.725 115.225 366.925 116.175 366.295C115.825 368.905 117.385 379.175 120.975 383.285C120.975 383.285 118.045 386.955 115.225 386.525C112.405 386.095 115.715 381.685 115.535 380.055V380.005C114.685 380.075 113.545 380.085 112.375 379.835Z" fill="#FFC5B2"/>
<path d="M75.0355 454.016L80.6655 456.836C80.6655 456.836 79.9255 458.066 78.7155 460.486C77.5055 462.896 65.2955 462.226 64.4955 459.406C63.6855 456.576 71.8655 455.656 75.0355 454.016Z" fill="#FFC5B2"/>
<path d="M516.675 89.6255C516.685 90.5355 515.505 91.0655 514.715 90.9455C512.095 90.5455 507.835 83.9956 507.745 82.4256C509.375 82.3856 511.505 82.3855 513.335 82.5155C514.005 83.4455 516.625 87.4755 516.675 89.6255Z" fill="#FFC5B2"/>
<path d="M487.556 82.3354C489.586 82.5054 492.806 82.7355 495.326 82.6755C496.336 84.1055 498.606 87.4555 498.176 89.3055C498.036 89.9255 496.746 90.4754 496.136 90.6054C493.676 91.0954 487.786 85.6454 487.556 82.3354Z" fill="#FFC5B2"/>
<path d="M517.105 81.0756C516.995 82.1056 516.065 82.8356 515.045 82.6856C514.535 82.6056 513.955 82.5456 513.335 82.5056C511.505 82.3756 509.375 82.3756 507.745 82.4056C506.265 82.4356 505.195 82.4856 505.195 82.4856C502.945 81.6056 505.595 61.3056 504.495 58.3556C504.225 57.6256 503.555 57.3656 503.185 57.1356C502.845 56.9356 502.425 57.2156 502.455 57.6056C502.825 62.1856 499.575 78.4756 498.935 81.5756C498.865 81.9456 498.585 82.2456 498.225 82.3456C497.545 82.5356 496.505 82.6256 495.315 82.6556C492.795 82.7156 489.585 82.4856 487.545 82.3156C486.265 82.2156 485.295 81.1556 485.285 79.8756C485.245 73.5156 485.855 54.7756 487.155 44.9556C487.105 45.5756 487.655 45.8656 488.275 45.9756C493.465 46.8756 508.095 47.1256 511.085 44.2156C514.065 46.2856 516.235 50.2956 517.555 55.0656C518.945 60.0656 517.645 75.4056 517.105 81.0656V81.0756Z" fill="#181818"/>
<path d="M520.495 27.3755L520.575 42.8755L511.525 42.9155L496.865 42.9955L496.845 39.2455L496.825 35.0255L496.785 27.4955L510.295 27.4255L520.495 27.3755ZM512.055 36.1355C512.475 34.7955 511.725 33.3555 510.385 32.9355C509.045 32.5155 507.615 33.2655 507.195 34.6055C506.775 35.9455 507.515 37.3755 508.855 37.7955C510.195 38.2155 511.635 37.4755 512.055 36.1355Z" fill="#B5B4B3"/>
<path d="M511.525 42.9154C511.525 42.9154 511.615 43.4354 511.475 43.7054C511.385 43.8854 511.255 44.0654 511.085 44.2254C508.105 47.1354 493.465 46.8954 488.275 45.9854C487.665 45.8754 487.115 45.5854 487.155 44.9654C487.265 43.2254 487.485 40.1954 487.565 39.5654C488.615 39.8054 490.075 39.8754 491.625 39.8154L496.845 42.9854L511.505 42.9054L511.525 42.9154Z" fill="#EE5A24"/>
<path d="M510.386 32.9255C511.726 33.3455 512.476 34.7855 512.056 36.1255C511.636 37.4655 510.196 38.2055 508.856 37.7855C507.516 37.3655 506.776 35.9355 507.196 34.5955C507.616 33.2555 509.046 32.5055 510.386 32.9255Z" fill="#FEFEFF"/>
<path d="M495.725 34.9454L495.465 39.4854C494.235 39.6654 492.905 39.7954 491.645 39.8254C490.085 39.8754 488.635 39.8054 487.585 39.5654C487.095 39.4654 486.695 39.3254 486.415 39.1354C484.095 37.6054 484.925 27.8854 485.765 23.4154C486.405 20.0154 490.755 17.2454 493.935 15.9854L493.965 16.0454C494.675 17.1954 498.635 20.4454 501.805 16.7554C502.365 16.4354 502.865 15.9354 503.295 15.2854C504.845 15.8854 509.425 17.5554 510.145 20.9754C510.535 22.7954 510.605 25.2354 510.295 27.4154L496.785 27.4854L496.825 35.0154L495.725 34.9354V34.9454Z" fill="#EE5A24"/>
<path d="M491.016 9.47552H490.966C490.646 9.36552 490.446 9.03552 490.476 8.69552C490.676 6.41552 492.066 -1.79448 500.836 0.355519C500.836 0.355519 508.866 1.96552 505.196 9.09552L500.766 4.05552C499.816 6.17552 495.686 10.8955 491.016 9.47552Z" fill="#181818"/>
<path d="M505.205 9.09543C505.205 10.8554 504.785 12.6254 504.135 14.0854C503.865 14.6854 503.565 15.2354 503.235 15.7054C502.725 16.4554 502.155 17.0354 501.515 17.3954C499.885 18.3454 497.825 17.9654 495.335 15.6954C494.785 15.1954 494.225 14.5954 493.625 13.9154C493.555 13.8254 493.505 13.7354 493.435 13.6454C492.755 13.4054 490.955 12.6854 490.395 11.4154C489.935 10.3454 490.375 9.72543 491.015 9.48543C495.685 10.9054 499.815 6.17543 500.765 4.06543L505.195 9.10543H505.205V9.09543Z" fill="#FFC5B2"/>
<path d="M496.835 39.2456L496.855 42.9956L491.635 39.8356C492.895 39.7956 494.225 39.6656 495.455 39.4856C495.935 39.4156 496.395 39.3356 496.835 39.2456Z" fill="#8C8C8C"/>
<path d="M496.825 35.0256L496.845 39.2456C496.405 39.3356 495.945 39.4156 495.465 39.4856L495.725 34.9456L496.825 35.0256Z" fill="#FFC5B2"/>
<path d="M496.446 15.2854C498.606 17.2554 500.386 17.5754 501.796 16.7554C498.626 20.4454 494.666 17.1954 493.956 16.0454L493.926 15.9854C494.936 15.5854 495.826 15.3454 496.436 15.2854H496.446Z" fill="#FFC5B2"/>
<path d="M352.646 399.506C352.826 400.946 351.546 402.136 350.116 401.876L339.316 399.826L337.176 388.876C338.296 389.556 339.266 390.116 340.096 390.556C341.336 391.226 342.806 390.236 342.656 388.846L341.186 375.086C341.126 374.506 341.576 373.996 342.156 373.996C342.646 373.996 343.046 374.336 343.126 374.796L343.286 375.676C343.346 376.016 343.586 376.286 343.906 376.416L348.896 378.346C349.616 378.626 350.126 379.276 350.216 380.036L352.626 399.516L352.646 399.506Z" fill="#FFC5B2"/>
<path d="M325.856 381.636C327.246 382.296 328.856 383.246 330.746 384.606C333.176 386.376 335.356 387.776 337.176 388.866L339.316 399.806L328.456 397.746C328.266 400.556 328.526 407.166 328.996 415.106L308.226 410.836C311.046 393.656 313.856 378.936 313.936 378.486C315.046 378.436 316.196 378.176 317.296 377.796C317.296 377.796 323.136 380.116 323.136 377.666L325.846 381.626L325.856 381.636Z" fill="#6526FF"/>
<path d="M338.225 464.335C338.905 464.535 339.365 465.145 339.365 465.855C339.365 466.695 338.735 467.375 337.905 467.455L324.365 468.595C323.505 468.665 322.755 468.055 322.655 467.195L322.275 464.165L330.515 462.025L338.225 464.325V464.335Z" fill="#FFC5B2"/>
<path d="M317.366 433.445L316.326 462.165L314.296 462.545H314.286L306.006 464.115L303.096 464.665C300.626 461.035 304.456 433.735 308.236 410.835L329.006 415.105C330.136 434.375 332.486 461.505 332.486 461.505L330.516 462.025L322.276 464.165L319.456 464.905L318.716 465.095L318.666 463.805L317.376 433.445H317.366Z" fill="#181818"/>
<path d="M327.585 366.635C329.185 366.635 328.245 372.955 327.585 373.515C326.915 374.085 323.155 375.215 323.155 377.675C323.155 380.135 317.315 377.805 317.315 377.805C318.845 377.265 320.285 376.485 321.355 375.615C326.415 371.495 321.355 365.805 321.355 365.805C322.125 365.755 323.655 364.685 325.005 363.305C326.075 364.555 325.975 366.635 327.585 366.635Z" fill="#FFC5B2"/>
<path d="M313.945 378.485C309.515 378.685 305.905 375.705 309.665 365.215C310.045 364.145 310.765 363.225 311.695 362.585C314.785 360.465 322.125 355.835 325.945 356.945C329.005 357.835 327.245 361.005 325.005 363.305C323.655 364.685 322.125 365.745 321.355 365.805C321.355 365.805 326.415 371.495 321.355 375.615C320.285 376.485 318.845 377.265 317.315 377.805C316.215 378.185 315.065 378.435 313.955 378.495L313.945 378.485Z" fill="#181818"/>
<path d="M319.446 464.915V466.185C319.446 467.025 318.786 467.725 317.956 467.785L307.716 468.495C306.796 468.555 306.006 467.815 306.006 466.885V464.125L314.286 462.555H314.296L318.626 463.815H318.656L318.706 465.105L319.446 464.915Z" fill="#FFC5B2"/>
<path d="M135.374 367.302C135.835 363.389 136.361 359.832 136.944 357.688C137.109 357.069 137.486 356.538 137.996 356.154L140.309 354.41C140.775 354.064 140.904 353.423 140.621 352.925C140.471 352.668 140.238 352.479 139.971 352.394C139.704 352.31 139.404 352.33 139.134 352.455L137.917 353.15L139.003 349.383C139.319 347.322 138.174 345.303 136.224 344.54C136.122 344.497 136.017 344.464 135.903 344.428C134.768 344.069 133.536 344.183 132.476 344.75L132.112 344.939C130.876 345.597 130.028 346.787 129.803 348.163C129.176 351.971 127.824 360.395 126.426 370.294C126.11 372.554 125.789 374.896 125.469 377.27L134 379C134.287 375.472 134.924 371.114 135.374 367.302Z" fill="#FFC5B2"/>
</svg>
