<svg viewBox="0 0 360 360" fill="none" xmlns="http://www.w3.org/2000/svg">
<path d="M87.4367 215.323C81.2015 216.554 77.1551 222.609 78.3935 228.83C79.6247 235.058 85.6799 239.105 91.9007 237.873C98.1215 236.642 102.175 230.587 100.944 224.366C99.7127 218.138 93.6575 214.092 87.4367 215.323ZM84.1031 198.497C90.3311 197.265 94.3775 191.21 93.1463 184.989C91.9151 178.761 85.8599 174.715 79.6319 175.946C73.4039 177.177 69.3575 183.233 70.5887 189.453C71.8199 195.681 77.8751 199.728 84.1031 198.497ZM95.2415 254.7C89.0135 255.931 84.9671 261.986 86.1983 268.207C87.4295 274.435 93.4847 278.481 99.7055 277.25C105.941 276.019 109.98 269.964 108.749 263.743C107.517 257.522 101.462 253.469 95.2415 254.7ZM137.124 231.854L154.274 318.384L94.7807 330.177L74.3471 334.238C69.3215 335.232 64.4327 331.963 63.4391 326.937L48.0815 249.501L40.9391 250.927C28.4111 253.404 15.8183 245.246 13.5647 232.661C11.3903 220.471 19.3751 208.721 31.5791 206.301L39.2255 204.789L25.3367 134.755L114.365 117.115L128.239 187.149L121.097 188.561C108.569 191.045 100.037 203.393 102.758 215.885C105.401 227.981 117.266 235.8 129.463 233.381L137.109 231.869L137.124 231.854Z" fill="#F2F3F5"/>
<path d="M112.572 107.993L114.38 117.101L25.3515 134.741C25.2507 134.251 25.1931 133.769 25.1787 133.286C25.0059 128.808 28.1091 124.726 32.6523 123.833L45.5547 121.277L44.1435 114.134C41.8683 102.679 48.4995 91.1663 59.2635 87.5591C59.2995 87.5375 59.3355 87.5231 59.3715 87.5159C59.6739 87.4151 59.9979 87.3215 60.3147 87.2351C60.6027 87.1487 60.8979 87.0767 61.1931 87.0119C61.3299 86.9687 61.4739 86.9399 61.6179 86.9111C61.8411 86.8535 62.0787 86.8103 62.3091 86.7743C62.3595 86.7527 62.4171 86.7527 62.4747 86.7383C62.7195 86.6951 62.9499 86.6591 63.1947 86.6303C63.5547 86.5727 63.9147 86.5295 64.2819 86.5007C64.4475 86.4863 64.6059 86.4719 64.7715 86.4647C71.2443 85.9823 77.4363 88.3151 81.958 92.5271C82.6852 93.2039 83.3619 93.9239 84.0027 94.7015C84.4203 95.2127 84.8236 95.7383 85.1979 96.2855C86.9044 98.7695 88.1427 101.628 88.7619 104.76L90.2884 112.406L112.587 107.985L112.572 107.993Z" fill="#EA580C"/>
<path d="M108.749 263.736C109.98 269.964 105.941 276.012 99.7053 277.243C93.4773 278.474 87.4293 274.428 86.1981 268.2C84.9669 261.972 89.0133 255.924 95.2413 254.693C101.469 253.462 107.517 257.508 108.749 263.736Z" fill="black"/>
<path d="M100.944 224.359C102.175 230.587 98.129 236.635 91.901 237.866C85.673 239.098 79.625 235.051 78.3938 228.823C77.1554 222.595 81.2018 216.547 87.437 215.316C93.665 214.085 99.713 218.131 100.944 224.359Z" fill="black"/>
<path d="M93.1395 184.983C94.3707 191.211 90.3243 197.259 84.0963 198.49C77.8611 199.721 71.8131 195.675 70.5819 189.447C69.3507 183.219 73.3971 177.171 79.6251 175.939C85.8603 174.708 91.9083 178.755 93.1395 184.983Z" fill="#EA580C"/>
<path d="M84.1035 198.489L87.4371 215.323" stroke="black" stroke-width="1.5" stroke-miterlimit="10" stroke-linecap="round" stroke-linejoin="round"/>
<path d="M91.9004 237.866L95.2412 254.7" stroke="black" stroke-width="1.5" stroke-miterlimit="10" stroke-linecap="round" stroke-linejoin="round"/>
<path d="M114.379 117.1L128.253 187.135L121.111 188.546C108.583 191.03 100.051 203.378 102.773 215.87C105.415 227.966 117.281 235.785 129.477 233.366L137.124 231.854L154.274 318.384L94.7807 330.177L74.3471 334.238C69.3215 335.232 64.4327 331.963 63.4391 326.937L48.0815 249.501L40.9391 250.927C28.4111 253.404 15.8183 245.246 13.5647 232.66C11.3903 220.471 19.3751 208.72 31.5791 206.301L39.2255 204.789L25.3367 134.755" stroke="black" stroke-width="1.5" stroke-miterlimit="10" stroke-linecap="round" stroke-linejoin="round"/>
<path d="M25.3515 134.748C25.2507 134.258 25.1931 133.776 25.1787 133.293C25.0059 128.815 28.1091 124.732 32.6523 123.84L45.5547 121.284" stroke="black" stroke-width="1.5" stroke-miterlimit="10" stroke-linecap="round" stroke-linejoin="round"/>
<path d="M90.2734 112.413L112.572 107.992L114.379 117.1" stroke="black" stroke-width="1.5" stroke-miterlimit="10" stroke-linecap="round" stroke-linejoin="round"/>
<path d="M81.9434 92.5339C82.6706 93.2035 83.3474 93.9307 83.9882 94.7083C84.4058 95.2195 84.809 95.7451 85.1834 96.2923" stroke="black" stroke-width="1.5" stroke-miterlimit="10" stroke-linecap="round" stroke-linejoin="round"/>
<path d="M64.2744 86.5077C64.44 86.4933 64.5984 86.4789 64.764 86.4717" stroke="black" stroke-width="1.5" stroke-miterlimit="10" stroke-linecap="round" stroke-linejoin="round"/>
<path d="M62.4668 86.7525C62.7116 86.7093 62.942 86.6733 63.1868 86.6445" stroke="black" stroke-width="1.5" stroke-miterlimit="10" stroke-linecap="round" stroke-linejoin="round"/>
<path d="M59.3643 87.5228C59.6667 87.422 59.9907 87.3284 60.3075 87.242C60.5955 87.1556 60.8907 87.0837 61.1859 87.0189C61.3227 86.9757 61.4667 86.9469 61.6107 86.9181C61.8339 86.8605 62.0715 86.8173 62.3019 86.7812" stroke="black" stroke-width="1.5" stroke-miterlimit="10" stroke-linecap="round" stroke-linejoin="round"/>
<path d="M44.1359 114.141C41.8607 102.686 48.4919 91.1731 59.2559 87.5659" stroke="black" stroke-width="1.5" stroke-miterlimit="10" stroke-linecap="round" stroke-linejoin="round"/>
<path d="M45.5467 121.284L44.1355 114.141L44.0347 113.637C41.7739 102.211 48.4771 91.1011 59.2555 87.5659C59.2915 87.5443 59.3275 87.5299 59.3635 87.5227C59.6659 87.4075 59.9827 87.3139 60.3067 87.2419C60.5947 87.1555 60.8899 87.0835 61.1851 87.0187C61.3219 86.9755 61.4659 86.9467 61.6099 86.9179C61.7251 86.8891 61.8403 86.8603 61.9627 86.8387C62.0851 86.8171 62.2003 86.7955 62.3083 86.7811C62.3587 86.7595 62.4163 86.7595 62.4739 86.7451C62.7187 86.7019 62.9635 86.6659 63.1939 86.6371C63.5539 86.5795 63.9139 86.5363 64.2811 86.5075C64.4467 86.4931 64.6051 86.4787 64.7707 86.4715C71.2435 85.9891 77.4355 88.3219 81.9571 92.5339C82.6843 93.2107 83.3611 93.9307 84.0019 94.7083C84.4195 95.2195 84.8227 95.7451 85.1971 96.2923C86.9035 98.7763 88.1419 101.635 88.7611 104.767L90.2875 112.413" stroke="black" stroke-width="1.5" stroke-miterlimit="10" stroke-linecap="round" stroke-linejoin="round"/>
<path d="M328.039 56.4768C333.129 57.1032 336.737 61.7472 336.11 66.8304L154.663 44.3376L155.808 35.136L226.721 43.9272L227.621 36.6984C229.19 24.012 240.897 14.616 253.541 16.4304C265.802 18.1872 274.457 29.448 272.923 41.796L271.965 49.536L328.039 56.484V56.4768Z" fill="#EA580C"/>
<path d="M336.11 66.8303L312.012 261.266C311.378 266.35 306.748 269.964 301.658 269.338L189.619 255.442L129.427 247.982L140.277 160.43L133.048 159.53C120.362 157.961 110.966 146.254 112.78 133.61C114.537 121.349 125.798 112.694 138.146 114.228L145.886 115.186L154.67 44.3303L336.117 66.8231L336.11 66.8303ZM294.739 146.066L296.812 129.37L230.752 121.19L228.679 137.88L294.739 146.074V146.066ZM291.384 173.146L293.457 156.449L227.397 148.27L225.324 164.966L291.384 173.146ZM288.028 200.225L290.102 183.528L176.414 169.438L174.34 186.134L288.028 200.225ZM284.025 237.996C284.601 233.388 281.325 229.183 276.717 228.607L226.007 222.329C225.597 222.286 225.201 222.257 224.798 222.264C220.687 222.343 217.152 225.439 216.626 229.637C216.057 234.245 219.333 238.45 223.941 239.018L274.644 245.304C275.054 245.347 275.45 245.376 275.853 245.369C279.972 245.29 283.507 242.194 284.025 237.996ZM254.167 94.2911L256.24 77.5943L188.841 69.2351L186.767 85.9319L254.167 94.2911ZM217.598 136.498L219.672 119.801L183.139 115.272L181.065 131.969L217.598 136.498ZM214.243 163.577L216.316 146.88L179.776 142.351L177.717 159.048L214.25 163.577H214.243Z" fill="black"/>
<path d="M296.812 129.362L294.739 146.059L228.679 137.873L230.752 121.183L296.812 129.362Z" fill="white"/>
<path d="M227.379 148.248L225.308 164.946L291.366 173.139L293.437 156.441L227.379 148.248Z" fill="white"/>
<path d="M290.101 183.528L288.028 200.225L174.34 186.134L176.413 169.438L290.101 183.528ZM282.297 191.642L284.968 188.107L280.576 187.567L276.177 187.027L277.905 191.102L279.633 195.177L282.297 191.642Z" fill="white"/>
<path d="M284.968 188.107L282.297 191.642L279.633 195.178L277.905 191.102L276.177 187.02L280.576 187.567L284.968 188.107Z" fill="black"/>
<path d="M276.717 228.607C281.325 229.183 284.601 233.388 284.025 237.996C283.507 242.201 279.971 245.297 275.853 245.369C275.457 245.376 275.054 245.347 274.643 245.304L223.941 239.018C219.333 238.45 216.057 234.252 216.626 229.637C217.151 225.432 220.686 222.336 224.798 222.264C225.194 222.257 225.597 222.286 226.007 222.329L276.717 228.607Z" fill="#EA580C"/>
<path d="M188.825 69.2354L186.754 85.9338L254.148 94.2924L256.219 77.5939L188.825 69.2354Z" fill="white"/>
<path d="M183.128 115.264L181.057 131.962L217.59 136.493L219.661 119.795L183.128 115.264Z" fill="white"/>
<path d="M216.309 146.887L214.243 163.584L177.71 159.055L179.769 142.358L216.309 146.887Z" fill="white"/>
<path d="M172.195 200.765L286.546 214.941" stroke="#EA580C" stroke-width="1.5" stroke-miterlimit="10" stroke-linecap="round" stroke-linejoin="round"/>
<path d="M184.615 100.562L298.966 114.746" stroke="#EA580C" stroke-width="1.5" stroke-miterlimit="10" stroke-linecap="round" stroke-linejoin="round"/>
<path d="M280.577 187.567L284.969 188.107L282.298 191.642L279.634 195.177L277.906 191.102L276.178 187.02L280.577 187.567Z" stroke="black" stroke-width="1.5" stroke-miterlimit="10" stroke-linecap="round" stroke-linejoin="round"/>
<path d="M336.11 66.8303C336.744 61.7471 333.129 57.1031 328.039 56.4767L271.965 49.5287L272.923 41.7887C274.449 29.4407 265.802 18.1799 253.541 16.4231C240.897 14.6087 229.183 24.0047 227.621 36.6911L226.721 43.9199L155.808 35.1287L154.663 44.3303L145.879 115.186L138.139 114.228C125.791 112.702 114.53 121.349 112.773 133.61C110.959 146.254 120.355 157.968 133.041 159.53L140.27 160.43L129.42 247.982L189.612 255.442L301.651 269.338C306.741 269.964 311.378 266.35 312.005 261.266L336.103 66.8303" stroke="black" stroke-width="1.5" stroke-miterlimit="10" stroke-linecap="round" stroke-linejoin="round"/>
<path d="M283.082 271.591L279.569 270.972C277.394 270.591 275.947 268.517 276.329 266.335C276.71 264.154 278.784 262.707 280.951 263.088L284.465 263.707C286.639 264.089 288.086 266.17 287.705 268.344C287.51 269.439 286.898 270.346 286.063 270.929C285.228 271.512 284.169 271.786 283.082 271.591Z" fill="#EA580C"/>
<path d="M276.329 266.343C276.71 264.168 278.784 262.714 280.951 263.095L284.465 263.715C286.639 264.096 288.086 266.177 287.705 268.351C287.51 269.446 286.898 270.353 286.063 270.936C285.228 271.519 284.169 271.793 283.082 271.599L279.569 270.979C277.394 270.598 275.947 268.524 276.329 266.343Z" stroke="black" stroke-width="1.5" stroke-miterlimit="10" stroke-linecap="round" stroke-linejoin="round"/>
<path d="M308.174 350.143L337.413 341.719C329.248 323.071 321.4 294.321 324.892 283.471L304.905 277.034C299.8 292.889 298.094 327.117 308.174 350.143Z" fill="black"/>
<path d="M331.25 265.831L326.368 288.158L301.917 282.816L306.799 260.489C308.275 253.735 314.942 249.451 321.695 250.927C328.449 252.403 332.733 259.078 331.257 265.831H331.25Z" fill="white"/>
<path d="M321.695 250.934C314.942 249.458 308.275 253.742 306.799 260.496L301.917 282.823L326.368 288.166L331.25 265.838C332.726 259.085 328.442 252.41 321.688 250.934H321.695Z" stroke="black" stroke-width="1.5" stroke-miterlimit="10" stroke-linecap="round" stroke-linejoin="round"/>
<path d="M281.016 272.282L283.708 262.087C291.067 264.024 309.074 263.254 317.534 260.647L320.652 270.727C310.262 273.938 290.253 274.723 281.016 272.282Z" fill="white"/>
<path d="M317.527 260.647C309.067 263.261 291.06 264.031 283.702 262.087L281.009 272.282C290.246 274.723 310.255 273.938 320.645 270.727" stroke="black" stroke-width="1.5" stroke-miterlimit="10" stroke-linecap="round" stroke-linejoin="round"/>
<path d="M336.881 271.202C337.234 273.693 335.355 275.947 332.828 276.048L317.96 276.66C315.274 276.768 313.157 274.406 313.568 271.749L316.728 251.431C316.995 251.575 317.297 251.704 317.585 251.82C323.252 254.066 329.667 251.294 331.913 245.635C332.439 244.31 332.691 242.935 332.691 241.588L336.874 271.202H336.881Z" fill="black"/>
<path d="M332.698 241.588C332.698 242.935 332.446 244.31 331.92 245.635C329.674 251.301 323.251 254.073 317.592 251.819C317.304 251.704 317.002 251.575 316.735 251.431L319.961 230.68C321.847 230.378 323.827 230.558 325.728 231.314C330.055 233.035 332.698 237.182 332.698 241.567C332.698 241.567 332.698 241.574 332.698 241.588Z" fill="black"/>
<path d="M319.954 230.688L316.728 251.438C311.652 248.911 309.276 242.87 311.408 237.506C312.898 233.748 316.224 231.264 319.954 230.68V230.688Z" fill="#EA580C"/>
<path d="M332.698 241.589C332.698 242.935 332.446 244.31 331.92 245.635C329.674 251.301 323.251 254.073 317.592 251.82C317.304 251.705 317.002 251.575 316.735 251.431C311.659 248.904 309.283 242.863 311.414 237.499C312.905 233.741 316.231 231.257 319.961 230.673C321.847 230.378 323.827 230.565 325.728 231.314C330.055 233.035 332.698 237.182 332.698 241.567" stroke="black" stroke-width="1.5" stroke-miterlimit="10" stroke-linecap="round" stroke-linejoin="round"/>
<path d="M319.953 230.688L316.727 251.438L313.567 271.756C313.156 274.413 315.273 276.782 317.959 276.667L332.827 276.055C335.354 275.954 337.226 273.7 336.88 271.209L332.697 241.595C332.697 241.595 332.697 241.588 332.697 241.574" stroke="black" stroke-width="1.5" stroke-miterlimit="10" stroke-linecap="round" stroke-linejoin="round"/>
<path d="M321.905 343.174L324.209 351.612L308.218 351.446L302.429 351.389C299.506 351.36 298.455 347.515 300.96 346.003L305.914 343.008L319.601 334.735L321.905 343.174Z" fill="black"/>
</svg>
