<svg viewBox="0 0 200 200" fill="none" xmlns="http://www.w3.org/2000/svg">
<g clip-path="url(#clip0_2361_3586)">
<path d="M200 0H0V200H200V0Z" fill="white"/>
<path d="M163.83 64.05C176.17 62.61 187.36 71.32 189.02 83.58C190.74 96.23 181.27 107.85 168.59 109.33L161.37 110.17L166.12 150.9C166.41 153.38 164.63 155.63 162.15 155.92L147.34 157.65L145 137.59H144.99C144.99 137.59 144.99 137.51 144.99 137.46C142.97 120.11 132.45 105.83 118.09 98.27C109.45 93.72 99.4199 91.6 88.9999 92.72H88.9899L88.4899 92.77L87.4699 92.89L86.9699 92.95C76.5699 94.27 67.2999 98.64 59.9399 105.06C47.7099 115.73 40.7599 132.05 42.7899 149.4C42.7899 149.44 42.8099 149.48 42.8099 149.52H42.7999L45.1399 169.58L35.4799 170.71C32.9999 171 30.7499 169.22 30.4599 166.74L25.7099 126.01L15.6599 40.06C15.3699 37.58 17.1499 35.33 19.6299 35.04L146.32 20.26C148.8 19.97 151.05 21.75 151.34 24.23L156.09 64.96L163.82 64.06L163.83 64.05Z" fill="#F2F3F5" stroke="black" stroke-width="1.5" stroke-miterlimit="10"/>
<path d="M102.5 131.61L110.73 114.01L118.09 98.27C132.45 105.83 142.96 120.12 144.99 137.46C144.99 137.5 144.99 137.54 144.99 137.59H145L147.34 157.65L121.41 160.68L122.31 168.42C123.77 180.91 114.83 192.21 102.34 193.67C89.8598 195.13 78.5598 186.19 77.0998 173.7L76.1998 165.96L45.1198 169.59L42.7798 149.53H42.7899C42.7899 149.53 42.7699 149.45 42.7699 149.4C40.7499 132.05 47.6898 115.73 59.9198 105.06L70.7098 118.68L82.7698 133.92L94.4799 148.7L102.48 131.61H102.5Z" fill="black" stroke="black" stroke-width="1.5" stroke-miterlimit="10"/>
<path d="M118.1 98.27L110.74 114.01L104.4 107.8L89.0098 92.71C99.4298 91.59 109.46 93.71 118.1 98.26V98.27Z" fill="white"/>
<path d="M104.39 107.8L110.73 114.01L102.5 131.61L97.5201 119.8C96.6801 117.81 97.1001 115.51 98.5901 113.94L104.4 107.81L104.39 107.8Z" fill="white"/>
<path d="M89 92.72L104.39 107.81L98.58 113.94C97.09 115.51 96.67 117.81 97.51 119.8L102.49 131.61L94.49 148.7L82.78 133.92L84.91 121.27C85.27 119.14 84.33 117 82.52 115.81L75.46 111.18L86.96 92.96C87.13 92.93 87.3 92.91 87.47 92.89L88.49 92.77C88.66 92.75 88.83 92.73 89 92.72Z" fill="black"/>
<path d="M86.9597 92.95L75.4597 111.17L70.7197 118.67L59.9297 105.05C67.2897 98.63 76.5597 94.26 86.9597 92.95Z" fill="white"/>
<path d="M82.5197 115.81C84.3297 116.99 85.2697 119.14 84.9097 121.27L82.7797 133.92L70.7197 118.68L75.4597 111.18L82.5197 115.81Z" fill="white"/>
<path d="M75.46 111.18L82.52 115.81C84.33 116.99 85.27 119.14 84.91 121.27L82.78 133.92L82.76 134.04" stroke="black" stroke-width="1.5" stroke-miterlimit="10"/>
<path d="M118.1 98.27L110.73 114.01L102.5 131.61L94.4997 148.7L82.7897 133.92L70.7197 118.68L59.9297 105.06" stroke="black" stroke-width="1.5" stroke-linecap="round" stroke-linejoin="round"/>
<path d="M110.73 114.01L104.39 107.8L88.9997 92.71H88.9897L88.4897 92.76L87.4697 92.88L86.9697 92.94H86.9597L75.4597 111.17L70.7197 118.67" stroke="black" stroke-width="1.5" stroke-miterlimit="10"/>
<path d="M104.39 107.8L98.5803 113.93C97.0903 115.5 96.6703 117.8 97.5103 119.79L102.49 131.6L102.54 131.72" stroke="black" stroke-width="1.5" stroke-miterlimit="10"/>
<path d="M129.45 123.68L132.29 148.04L92.0197 152.74L89.1797 128.38L129.45 123.68ZM124.96 134.87L124.61 131.83L110.85 133.44L111.2 136.48L124.96 134.87ZM118.83 142.04L118.48 139L111.6 139.8L111.95 142.84L118.83 142.04ZM107.9 143.32L106.8 133.91L95.7797 135.2L96.8797 144.61L107.9 143.32Z" fill="white"/>
<path d="M124.61 131.81L110.85 133.42L111.2 136.46L124.96 134.85L124.6 131.81H124.61Z" fill="#A5A19D"/>
<path d="M118.48 138.99L111.6 139.79L111.96 142.83L118.84 142.03L118.48 138.99Z" fill="#A5A19D"/>
<path d="M106.8 133.89L95.7803 135.18L96.8803 144.59L107.9 143.3L106.8 133.89Z" fill="black"/>
<path d="M129.46 123.67L89.1904 128.37L92.0404 152.73L132.31 148.03L129.47 123.67H129.46Z" stroke="white" stroke-width="1.5" stroke-linecap="round" stroke-linejoin="round"/>
<path d="M89.1805 128.38L65.7305 100.69" stroke="white" stroke-width="1.5" stroke-linecap="round" stroke-linejoin="round"/>
<path d="M129.45 123.68L133.98 111.3" stroke="white" stroke-width="1.5" stroke-miterlimit="10"/>
<path d="M45.1296 169.58L42.7896 149.52H42.7996C42.7996 149.52 42.7796 149.44 42.7796 149.39C40.7596 132.04 47.6996 115.72 59.9296 105.05C67.2896 98.6299 76.5596 94.2599 86.9596 92.9499C87.1296 92.9199 87.2996 92.8999 87.4696 92.8799" stroke="black" stroke-width="1.5" stroke-miterlimit="10"/>
<path d="M147.35 157.65L145.01 137.59H145C145 137.59 145 137.51 145 137.46C142.98 120.11 132.46 105.83 118.1 98.27C109.46 93.72 99.43 91.6 89.01 92.72C88.84 92.72 88.67 92.75 88.5 92.77" stroke="black" stroke-width="1.5" stroke-miterlimit="10"/>
<path d="M108.91 19.78C122.08 25.98 131.84 38.63 133.65 54.15C136.44 78.05 119.33 99.67 95.4404 102.46C71.5504 105.25 49.9204 88.15 47.1304 64.25C46.5804 59.56 46.8004 54.97 47.6904 50.59L108.9 19.8V19.79L108.91 19.78ZM106.94 49.96C106.75 48.34 105.28 47.18 103.66 47.37C102.04 47.56 100.88 49.03 101.07 50.65C101.26 52.27 102.73 53.43 104.35 53.24C105.97 53.05 107.13 51.58 106.94 49.96ZM96.6604 51.16C96.4704 49.54 95.0004 48.38 93.3804 48.57C91.7604 48.76 90.6004 50.23 90.7904 51.85C90.9804 53.47 92.4504 54.63 94.0704 54.44C95.6904 54.25 96.8504 52.78 96.6604 51.16Z" fill="#EA580C"/>
<path d="M108.91 19.7799L47.7002 50.5799C51.3202 32.5999 66.1402 18.1899 85.3502 15.9499C93.7202 14.9699 101.81 16.4399 108.92 19.7799H108.91Z" fill="black"/>
<path d="M104.01 53.2501C105.64 53.2501 106.96 51.9301 106.96 50.3001C106.96 48.6701 105.64 47.3501 104.01 47.3501C102.38 47.3501 101.06 48.6701 101.06 50.3001C101.06 51.9301 102.38 53.2501 104.01 53.2501Z" fill="black"/>
<path d="M93.7303 54.4501C95.3603 54.4501 96.6803 53.13 96.6803 51.5C96.6803 49.87 95.3603 48.55 93.7303 48.55C92.1003 48.55 90.7803 49.87 90.7803 51.5C90.7803 53.13 92.1003 54.4501 93.7303 54.4501Z" fill="black"/>
<path d="M108.91 19.7799C122.08 25.9799 131.84 38.6299 133.65 54.1499C136.44 78.0499 119.33 99.6699 95.4404 102.46C71.5504 105.25 49.9204 88.1499 47.1304 64.2499C46.5804 59.5599 46.8004 54.9699 47.6904 50.5899C51.3104 32.6099 66.1304 18.1999 85.3404 15.9599C93.7104 14.9799 101.8 16.4499 108.91 19.7899V19.7799Z" stroke="black" stroke-width="1.5" stroke-miterlimit="10"/>
<path d="M47.7002 50.58L108.91 19.79" stroke="black" stroke-width="1.5" stroke-miterlimit="10"/>
<path d="M93.7303 54.4501C95.3603 54.4501 96.6803 53.13 96.6803 51.5C96.6803 49.87 95.3603 48.55 93.7303 48.55C92.1003 48.55 90.7803 49.87 90.7803 51.5C90.7803 53.13 92.1003 54.4501 93.7303 54.4501Z" stroke="black" stroke-width="1.5" stroke-miterlimit="10"/>
<path d="M104.01 53.2501C105.64 53.2501 106.96 51.9301 106.96 50.3001C106.96 48.6701 105.64 47.3501 104.01 47.3501C102.38 47.3501 101.06 48.6701 101.06 50.3001C101.06 51.9301 102.38 53.2501 104.01 53.2501Z" stroke="black" stroke-width="1.5" stroke-miterlimit="10"/>
<path d="M102.28 57.72C102.58 60.25 100.77 62.54 98.2399 62.83C95.7099 63.13 93.4199 61.31 93.1299 58.78" stroke="white" stroke-width="1.5" stroke-miterlimit="10"/>
</g>
<defs>
<clipPath id="clip0_2361_3586">
<rect width="200" height="200" fill="white"/>
</clipPath>
</defs>
</svg>
