<svg viewBox="0 0 497 433" fill="none" xmlns="http://www.w3.org/2000/svg">
<g clip-path="url(#clip0_2361_3682)">
<path d="M332.36 88.3L123.44 237.87L357.43 344.01L332.36 88.3Z" stroke="black" stroke-width="1.5" stroke-linecap="round" stroke-linejoin="round"/>
<path d="M375.145 133.999C398.944 110.2 398.944 71.6154 375.145 47.8169C351.347 24.0183 312.762 24.0183 288.963 47.8169C265.165 71.6154 265.165 110.2 288.963 133.999C312.762 157.798 351.347 157.798 375.145 133.999Z" fill="white" stroke="black" stroke-width="1.5" stroke-linecap="round" stroke-linejoin="round"/>
<path d="M314.68 69.8201C314.68 69.9901 314.68 70.1801 314.63 70.4001C315.93 71.7201 318.49 72.5401 321.66 72.7301C321.23 73.1901 320.68 73.9801 320.46 74.5501C317.72 74.1701 315.54 73.3001 314.03 71.9101C313.17 73.0101 311.27 74.0501 307.14 74.6201C306.92 74.1201 306.42 73.3701 306.01 72.9601H299.91V71.2101H306.87V72.7901C312.08 72.1201 312.63 70.7701 312.63 69.7401V69.4301H310.64C310.11 70.2901 309.51 71.0601 308.89 71.6601C308.53 71.3501 307.71 70.7701 307.21 70.5301C308.46 69.4501 309.44 67.7901 309.97 66.1101L311.96 66.5401C311.82 66.9501 311.67 67.3301 311.5 67.7401H318.99L319.3 67.6401L320.84 68.1401C320.24 69.4101 319.42 70.8001 318.75 71.6901L317 71.0701C317.31 70.6401 317.67 70.0101 318.01 69.4101H314.67V69.7901L314.68 69.8201ZM314.48 84.3701C316.95 85.1901 319.62 86.1901 321.25 86.9901L319.23 88.2101C317.77 87.4201 315.25 86.3401 312.77 85.5001L314.16 84.3701H306.98L308.97 85.2801C307.03 86.4601 304.03 87.6101 301.63 88.2801C301.25 87.8201 300.45 87.0101 299.97 86.6001C302.42 86.1201 305.23 85.3001 306.88 84.3701H303.02V74.7201H318.67V84.3701H314.47H314.48ZM306.3 69.2201H300.42V67.5401H306.3V69.2201ZM305.19 77.5001H316.45V76.1301H305.19V77.5001ZM305.19 80.1901H316.45V78.8501H305.19V80.1901ZM305.19 82.9501H316.45V81.5601H305.19V82.9501Z" fill="black"/>
<path d="M332.48 72.0101H323.84V70.2301H327.94C327.58 69.3401 326.91 67.9701 326.31 66.9901L327.92 66.1001C328.52 67.1101 329.24 68.3801 329.58 69.2401L328 70.2201H332.49V72.0001L332.48 72.0101ZM324.8 75.1801V73.4301H331.62V75.1801H324.8ZM324.8 76.5901H331.64V78.3201H324.8V76.5901ZM331.64 86.8601H326.55V87.9401H324.8V79.8301H331.64V86.8601ZM326.55 81.6301V85.0601H329.86V81.6301H326.55ZM343.33 67.5201C343.16 76.4001 343.14 85.3301 344.27 85.6701C344.41 85.7201 344.58 84.1601 344.65 82.5501C344.99 83.1001 345.54 83.9201 345.87 84.2501C345.58 87.6601 344.6 88.4301 343.35 87.9001C341.02 87.0801 341.07 79.0401 341.09 69.6301H337.54V76.4001H340.35V78.4601H337.54V88.2501H335.45V78.4601H332.47V76.4001H335.45V69.6301H332.76V67.5201H343.32H343.33Z" fill="black"/>
<path d="M307.45 111.1C306.03 112.95 303.92 114.92 302.12 116.14C301.69 115.71 300.78 114.99 300.2 114.65C302.05 113.59 303.99 111.89 305.19 110.31L307.45 111.1ZM312.01 109.14V114.54C312.01 115.69 311.75 116.32 310.86 116.65C310 116.99 308.72 117.01 306.97 117.01C306.85 116.39 306.49 115.43 306.13 114.83C307.47 114.9 308.84 114.9 309.25 114.88C309.63 114.86 309.73 114.76 309.73 114.5V109.34C303.71 109.82 302.72 109.96 301.98 110.25C301.88 109.82 301.55 108.76 301.31 108.16C302.15 108.04 303.16 107.68 304.57 106.98C305.43 106.6 307.19 105.73 309.2 104.56C304.5 104.87 303.7 104.99 303.15 105.21C303.05 104.75 302.74 103.67 302.48 103.12C303.08 103.02 303.66 102.76 304.45 102.33C305.22 101.97 307.38 100.72 309.2 99.23C306.63 99.81 303.9 100.31 301.35 100.72C301.28 100.14 300.94 99.3 300.73 98.82C306.13 97.93 312.23 96.54 315.73 94.98L317.36 96.73C315.42 97.55 313.04 98.29 310.5 98.91L311.92 99.8C310.46 100.93 308.9 101.96 307.31 102.82L312.42 102.58C313.31 101.98 314.2 101.33 315.04 100.68L316.74 102.14C313.81 104.25 310.74 106.03 307.67 107.49L316.29 106.91C315.67 106.17 314.97 105.45 314.37 104.82L316.19 103.91C317.94 105.54 319.96 107.75 320.97 109.19L319.07 110.37C318.76 109.91 318.33 109.31 317.82 108.69L312.01 109.12V109.14ZM315.56 110.05C317.41 111.37 319.78 113.29 320.98 114.59L319.04 115.93C317.96 114.63 315.63 112.62 313.76 111.2L315.56 110.05Z" fill="black"/>
<path d="M326.29 110.77C326.05 112.86 325.64 115.14 325.16 116.58C324.78 116.36 323.91 116.1 323.48 115.96C324.01 114.52 324.34 112.41 324.51 110.46L326.29 110.77ZM330.9 109.38C330.85 109.07 330.76 108.66 330.64 108.23C325.58 109.12 324.83 109.31 324.35 109.57C324.25 109.14 323.92 108.08 323.65 107.53C324.2 107.39 324.73 106.81 325.45 105.92C325.81 105.54 326.43 104.7 327.18 103.59C325.02 103.85 324.52 103.97 324.18 104.14C324.06 103.71 323.72 102.68 323.51 102.12C323.92 102 324.33 101.52 324.83 100.8C325.31 100.15 326.92 97.4399 327.85 94.8999L329.89 95.7599C328.86 97.9399 327.56 100.2 326.24 101.98L328.35 101.81C329.02 100.71 329.69 99.5299 330.25 98.3299L332.12 99.4799C330.66 102.14 328.78 104.88 326.89 107.09L330.13 106.61C329.89 105.87 329.6 105.17 329.31 104.52L330.87 103.97C331.59 105.51 332.31 107.47 332.55 108.72L330.89 109.37L330.9 109.38ZM328.74 110.34C329.05 111.9 329.34 113.96 329.41 115.28L327.68 115.71C327.63 114.37 327.39 112.28 327.13 110.69L328.74 110.33V110.34ZM331.28 109.69C331.78 110.99 332.34 112.71 332.55 113.82L330.97 114.37C330.75 113.24 330.23 111.51 329.77 110.19L331.28 109.69ZM343.21 114.68C343.69 114.68 343.76 114.22 343.83 111.46C344.29 111.82 345.17 112.18 345.73 112.32C345.54 115.7 345.03 116.64 343.43 116.64H341.53C339.66 116.64 339.2 115.99 339.2 113.9V106.05L337.35 106.27C337.16 111.67 336.49 115.13 332.41 117.17C332.17 116.59 331.55 115.8 331.07 115.39C334.57 113.81 335.08 111.07 335.22 106.56C333.95 106.7 333.52 106.82 333.2 106.99C333.08 106.53 332.7 105.43 332.41 104.81C332.96 104.67 333.44 104.04 334.09 103.06C334.43 102.6 335.1 101.45 335.84 100.01H332.62V97.9199H336.84C337.27 96.9599 337.68 95.9799 338.02 94.9699L340.47 95.6399C340.13 96.3799 339.77 97.1799 339.44 97.9199H345.32V100.01H338.36C337.5 101.59 336.58 103.11 335.67 104.43L341.79 103.85C341.33 103.01 340.83 102.22 340.4 101.5L342.2 100.71C343.45 102.56 344.91 104.98 345.51 106.57L343.54 107.51C343.35 106.98 343.08 106.36 342.75 105.66L341.31 105.83V113.89C341.31 114.56 341.36 114.68 341.86 114.68H343.2H343.21Z" fill="black"/>
<path d="M458.221 10.95C461.431 8.65001 465.881 9.39001 468.181 12.6C470.471 15.8 469.741 20.26 466.531 22.56L464.551 23.98L472.861 35.6L461.251 43.9L462.671 45.88C464.961 49.08 464.211 53.54 461.011 55.83C457.811 58.12 453.351 57.38 451.061 54.18L449.641 52.2L438.021 60.51L429.711 48.89L427.731 50.31C424.531 52.6 420.071 51.87 417.771 48.66C415.471 45.45 416.231 41 419.431 38.71L421.411 37.29L413.101 25.67L424.721 17.36L426.141 19.34C428.431 22.54 432.891 23.29 436.091 21C439.291 18.71 440.041 14.24 437.741 11.04L436.321 9.06001L447.931 0.76001L456.241 12.38L458.221 10.96V10.95Z" fill="black"/>
<path d="M465.19 68.5401L496.25 92.2201L487.31 103.95L485.55 102.6C482.34 100.15 477.66 100.49 475.12 103.63C472.48 106.87 473.07 111.63 476.36 114.14L478.36 115.67L469.42 127.4L457.69 118.46L456.35 120.22C453.9 123.43 449.29 124.34 446.01 121.99C442.61 119.56 441.93 114.83 444.44 111.53L445.96 109.52L434.23 100.58L457.91 69.5201C459.64 67.2501 462.9 66.8101 465.17 68.5501L465.19 68.5401Z" fill="#A5A19D"/>
<path d="M394.45 22.0601L397.65 35.6501L395.32 36.2001C391.57 37.0801 389.25 40.8401 390.13 44.5901C391.01 48.3301 394.77 50.6601 398.52 49.7801L400.84 49.2401L404.05 62.8201L390.46 66.0201L391.01 68.3401C391.89 72.1001 389.57 75.8501 385.82 76.7401C382.07 77.6201 378.31 75.3001 377.44 71.5501L376.89 69.2301L363.31 72.4301L360.1 58.8501L362.42 58.3001C366.17 57.4101 368.49 53.6601 367.61 49.9001C366.73 46.1501 362.96 43.8301 359.22 44.7101L356.9 45.2601L353.7 31.6701L367.28 28.4701L366.73 26.1401C365.85 22.4001 368.17 18.6301 371.92 17.7501C375.68 16.8701 379.43 19.1901 380.32 22.9401L380.87 25.2701L394.46 22.0601H394.45Z" fill="#F3F3F5"/>
<path d="M400.63 98.2001L414.13 102.84L409.49 116.33L411.79 117.13C415.52 118.41 417.5 122.47 416.23 126.19C414.95 129.92 410.89 131.9 407.16 130.63L404.86 129.83L400.22 143.33L386.72 138.7L387.51 136.39C388.79 132.66 386.81 128.6 383.08 127.33C379.35 126.05 375.29 128.03 374.02 131.76L373.23 134.07L359.72 129.43L364.36 115.92L366.67 116.71C370.39 117.99 374.46 116.01 375.73 112.28C377.01 108.55 375.03 104.49 371.3 103.22L368.99 102.43L373.63 88.9201L387.13 93.5601L387.92 91.2501C389.2 87.5301 393.26 85.5401 396.98 86.8201C400.71 88.1001 402.69 92.1601 401.42 95.8901L400.63 98.1901V98.2001Z" fill="#E75B24"/>
<path d="M376.89 69.2201L377.44 71.5401C378.32 75.2901 382.08 77.6101 385.82 76.7301C389.57 75.8401 391.89 72.0901 391.01 68.3301L390.46 66.0101L404.05 62.8101L400.84 49.2301L398.52 49.7701C394.77 50.6601 391.01 48.3301 390.13 44.5801C389.24 40.8301 391.57 37.0701 395.32 36.1901L397.65 35.6401L394.45 22.0501L380.86 25.2601L380.31 22.9301C379.42 19.1801 375.67 16.8601 371.91 17.7401C368.16 18.6201 365.84 22.3901 366.72 26.1301L367.27 28.4601L353.69 31.6601L356.89 45.2501L359.21 44.7001C362.96 43.8201 366.72 46.1401 367.6 49.8901C368.48 53.6501 366.16 57.4001 362.41 58.2901L360.09 58.8401L363.3 72.4201L376.88 69.2201H376.89Z" stroke="black" stroke-width="1.5" stroke-linecap="round" stroke-linejoin="round"/>
<path d="M478.37 115.67L469.43 127.4L457.7 118.46L456.36 120.22C453.91 123.43 449.3 124.34 446.02 121.99C442.62 119.56 441.94 114.83 444.45 111.53L445.97 109.52L434.24 100.58L457.92 69.5201C459.65 67.2501 462.91 66.8101 465.18 68.5501L496.24 92.2301L487.3 103.96L485.54 102.61C482.33 100.16 477.65 100.5 475.11 103.64C472.47 106.88 473.06 111.64 476.35 114.15L478.35 115.68L478.37 115.67Z" stroke="black" stroke-width="1.5" stroke-linecap="round" stroke-linejoin="round"/>
<path d="M438.01 60.5L449.63 52.19L451.05 54.17C453.34 57.37 457.79 58.11 461 55.82C464.21 53.53 464.95 49.07 462.66 45.87L461.24 43.89L472.85 35.59L464.54 23.97L466.52 22.55C469.73 20.25 470.47 15.8 468.17 12.59C465.87 9.37999 461.43 8.64999 458.21 10.94L456.23 12.36L447.92 0.73999L436.31 9.03999L437.73 11.02C440.02 14.22 439.28 18.69 436.08 20.98C432.88 23.27 428.42 22.52 426.13 19.32L424.71 17.34L413.09 25.65L421.4 37.27L419.42 38.69C416.22 40.98 415.47 45.44 417.76 48.64C420.05 51.84 424.52 52.59 427.72 50.29L429.7 48.87L438.01 60.49V60.5Z" stroke="black" stroke-width="1.5" stroke-linecap="round" stroke-linejoin="round"/>
<path d="M400.22 143.34L404.86 129.84L407.16 130.64C410.88 131.91 414.95 129.93 416.23 126.2C417.51 122.48 415.52 118.42 411.79 117.14L409.49 116.34L414.13 102.85L400.63 98.2099L401.42 95.9099C402.7 92.1799 400.71 88.1199 396.98 86.8399C393.26 85.5599 389.2 87.5499 387.92 91.2699L387.13 93.5799L373.63 88.9399L368.99 102.45L371.3 103.24C375.03 104.52 377.01 108.57 375.73 112.3C374.45 116.03 370.39 118.01 366.67 116.73L364.36 115.94L359.72 129.45L373.23 134.09L374.02 131.78C375.3 128.05 379.35 126.07 383.08 127.35C386.81 128.63 388.79 132.68 387.51 136.41L386.72 138.72L400.22 143.35V143.34Z" stroke="black" stroke-width="1.5" stroke-linecap="round" stroke-linejoin="round"/>
<path d="M167.466 280.684C191.264 256.885 191.264 218.3 167.466 194.501C143.667 170.703 105.082 170.703 81.2835 194.501C57.4849 218.3 57.4849 256.885 81.2835 280.684C105.082 304.482 143.667 304.482 167.466 280.684Z" fill="white" stroke="black" stroke-width="1.5" stroke-linecap="round" stroke-linejoin="round"/>
<path d="M118.28 218.53C117.34 217.74 115.4 216.63 113.86 215.94L115.04 214.26C116.55 214.86 118.52 215.89 119.5 216.68L118.28 218.53ZM114.66 227.86C115.96 226.06 117.8 222.99 119.2 220.25L120.83 221.74C119.58 224.24 118 227.12 116.58 229.37L114.66 227.86ZM116.44 207.89C117.95 208.51 119.94 209.57 120.95 210.34L119.65 212.19C118.71 211.35 116.75 210.22 115.19 209.52L116.44 207.89ZM133.5 229.64C133.31 228.99 132.95 228.22 132.52 227.38C124.02 228.41 122.94 228.6 122.22 228.94C122.1 228.46 121.72 227.33 121.45 226.71C121.95 226.59 122.41 226.04 122.99 225.15C123.49 224.48 124.89 222.15 125.94 219.61H121V217.5H126.93V213.61H122.01V211.5H126.93V207.64H129.21V211.5H134.32V213.61H129.21V217.5H135.23V219.61H128.61C127.51 221.99 126.14 224.34 124.79 226.26L131.49 225.56C130.89 224.58 130.22 223.62 129.59 222.73L131.39 221.87C133.05 223.96 134.8 226.74 135.49 228.64L133.5 229.65V229.64Z" fill="black"/>
<path d="M152.971 219.01V220.64H158.541V222.49H152.971V224.19H159.591V226.11H152.971V229.64H150.811V226.11H144.571V224.19H150.811V222.49H145.581V220.64H150.811V219.01H145.891V217.19H150.811V215.49H144.951V214C144.451 214.89 143.801 215.78 143.151 216.64V229.65H141.061V219.14C140.271 220 139.431 220.82 138.661 221.47C138.471 220.99 137.921 219.79 137.561 219.24C139.601 217.68 141.831 215.3 143.201 212.93L144.951 213.65V213.6H150.811V211.92H145.991V210.1H150.811V207.68H152.971V210.1H158.231V213.6H159.861V215.5H158.231V219.03H152.971V219.01ZM144.881 208.54C143.441 210.63 141.141 212.91 139.001 214.32C138.761 213.82 138.211 212.93 137.871 212.47C139.691 211.32 141.761 209.35 142.741 207.69L144.881 208.53V208.54ZM152.971 213.58H156.111V211.9H152.971V213.58ZM152.971 217.18H156.111V215.48H152.971V217.18Z" fill="black"/>
<path d="M122.03 254.89C121.48 253.98 120.25 252.39 119.22 251.12C118.67 253.76 117.52 256.3 115.24 258.15C114.93 257.69 114.23 256.95 113.7 256.57C116.58 254.43 117.37 250.95 117.59 247.78H113.94V245.74H117.66V242.24H114.4V240.25H117.66V236.67H119.75V240.25H122.97V242.24H119.75V245.74H123.37V247.78H119.67C119.65 248.12 119.6 248.48 119.57 248.81C120.55 249.77 122.98 252.53 123.55 253.25L122.01 254.88L122.03 254.89ZM133.57 256.06C134 256.06 134.1 255.72 134.17 253.04C134.58 253.42 135.47 253.74 135.99 253.88C135.82 257.19 135.29 258.03 133.76 258.03H131.98C130.13 258.03 129.75 257.38 129.75 255.41V250.75H128.02C127.59 254.3 126.44 256.94 122.33 258.43C122.09 257.95 121.54 257.13 121.08 256.77C124.66 255.59 125.54 253.53 125.9 250.75H124.17V237.31H134.51V250.75H131.8V255.38C131.8 255.98 131.87 256.05 132.33 256.05H133.55L133.57 256.06ZM126.28 241.23H132.4V239.33H126.28V241.23ZM126.28 245H132.4V243.03H126.28V245ZM126.28 248.74H132.4V246.8H126.28V248.74Z" fill="black"/>
<path d="M144.951 253.83H149.561V255.53H144.951V258.46H143.081V255.53H138.021V253.83H143.081V252.8H139.191V246.13H143.081V245.15H138.401V243.49H143.081V242.12H144.471C143.941 241.59 143.291 240.97 142.741 240.51L143.631 239.77H141.901C141.111 240.95 140.271 242.03 139.431 242.87C139.121 242.49 138.351 241.74 137.891 241.38C139.331 240.13 140.651 238.19 141.421 236.24L143.441 236.82C143.271 237.23 143.081 237.61 142.861 238.02H148.601V239.77H144.591C145.361 240.37 146.171 241.11 146.631 241.67L145.191 242.97C145.121 242.87 145.051 242.78 144.951 242.68V243.5H149.411V245.16H144.951V246.14H148.791V252.81H144.951V253.84V253.83ZM140.961 248.79H143.071V247.52H140.961V248.79ZM143.081 251.38V250.11H140.971V251.38H143.081ZM144.951 247.52V248.79H146.941V247.52H144.951ZM146.941 250.11H144.951V251.38H146.941V250.11ZM151.931 239.77C151.281 240.92 150.511 241.93 149.751 242.75C149.391 242.39 148.531 241.74 148.071 241.43C149.441 240.18 150.611 238.26 151.241 236.25L153.281 236.75C153.141 237.18 152.991 237.59 152.821 238.02H159.681V239.77H154.981C155.701 240.35 156.541 241.04 156.971 241.57L155.481 242.87C154.981 242.22 153.941 241.26 153.081 240.61L154.141 239.77H151.931ZM156.811 255.87C157.671 255.87 157.841 255.34 157.941 252.82C158.421 253.18 159.311 253.54 159.881 253.68C159.641 256.9 159.041 257.88 156.981 257.88H153.311C150.981 257.88 150.291 257.23 150.291 254.74V243.1H158.311V250.06C158.311 251.07 158.121 251.69 157.401 252.03C156.661 252.39 155.581 252.44 154.041 252.44C153.921 251.84 153.581 250.93 153.271 250.38C154.401 250.4 155.451 250.4 155.791 250.4C156.101 250.38 156.201 250.3 156.201 250.02V245.05H152.411V254.75C152.411 255.69 152.581 255.88 153.561 255.88H156.821L156.811 255.87Z" fill="black"/>
<path d="M98.0101 222.69L111.2 302.45C111.87 306.48 109.14 310.3 105.1 310.96L28.5601 323.62C24.5301 324.29 20.7101 321.56 20.0501 317.52L1.10014 202.95C0.430141 198.92 3.16014 195.11 7.20014 194.44L42.3801 188.62L98.0101 222.69Z" fill="white" stroke="black" stroke-width="1.5" stroke-linecap="round" stroke-linejoin="round"/>
<path d="M20.9697 217.46C23.8697 216.98 26.6097 218.94 27.0897 221.84C27.5697 224.73 25.6097 227.47 22.7097 227.95C19.8197 228.43 17.0797 226.47 16.5997 223.58C16.1197 220.68 18.0797 217.94 20.9697 217.46Z" fill="#E75B24"/>
<path d="M24.2597 237.31C27.1597 236.83 29.8997 238.79 30.3797 241.69C30.8597 244.58 28.8997 247.32 25.9997 247.8C23.1097 248.28 20.3697 246.32 19.8897 243.43C19.4097 240.53 21.3697 237.79 24.2597 237.31Z" fill="#E75B24"/>
<path d="M27.54 257.17C30.44 256.69 33.18 258.65 33.66 261.54C34.14 264.44 32.18 267.18 29.28 267.66C26.39 268.14 23.65 266.18 23.17 263.28C22.69 260.39 24.65 257.65 27.54 257.17Z" fill="#E75B24"/>
<path d="M30.83 277.02C33.73 276.54 36.47 278.5 36.95 281.39C37.43 284.29 35.47 287.03 32.57 287.51C29.68 287.99 26.94 286.03 26.46 283.13C25.98 280.24 27.94 277.5 30.83 277.02Z" fill="#E75B24"/>
<path d="M34.1103 296.87C37.0103 296.39 39.7503 298.35 40.2303 301.24C40.7103 304.14 38.7503 306.88 35.8503 307.36C32.9603 307.84 30.2203 305.88 29.7403 302.98C29.2603 300.09 31.2203 297.35 34.1103 296.87Z" fill="#E75B24"/>
<path d="M46.3403 216.2L31.0703 218.72L31.8703 223.53L47.1403 221.01L46.3403 216.2Z" fill="#A5A19D"/>
<path d="M86.1706 230.01L34.3506 238.58L35.1506 243.39L86.9706 234.82L86.1806 230.01H86.1706Z" fill="#A5A19D"/>
<path d="M89.4606 249.86L37.6406 258.43L38.4406 263.24L90.2606 254.67L89.4706 249.86H89.4606Z" fill="#A5A19D"/>
<path d="M92.7399 269.71L40.9199 278.28L41.7199 283.09L93.5399 274.52L92.7399 269.71Z" fill="#A5A19D"/>
<path d="M96.0202 289.56L44.2002 298.13L45.0002 302.94L96.8202 294.37L96.0302 289.56H96.0202Z" fill="#A5A19D"/>
<path d="M19.7197 222.47L22.1497 224.21L27.4297 216.84" stroke="black" stroke-width="1.5" stroke-linecap="round" stroke-linejoin="round"/>
<path d="M22.9297 241.89L25.3597 243.63L30.6397 236.26" stroke="black" stroke-width="1.5" stroke-linecap="round" stroke-linejoin="round"/>
<path d="M26.2305 261.81L28.6605 263.55L33.9405 256.18" stroke="black" stroke-width="1.5" stroke-linecap="round" stroke-linejoin="round"/>
<path d="M29.5205 281.74L31.9505 283.48L37.2305 276.11" stroke="black" stroke-width="1.5" stroke-linecap="round" stroke-linejoin="round"/>
<path d="M32.8203 301.67L35.2503 303.41L40.5303 296.04" stroke="black" stroke-width="1.5" stroke-linecap="round" stroke-linejoin="round"/>
<path d="M98.0098 222.69L56.0698 229.63C52.0398 230.3 48.2198 227.57 47.5598 223.53L41.7998 188.71" stroke="black" stroke-width="1.5" stroke-linecap="round" stroke-linejoin="round"/>
<path d="M400.523 385.84C424.322 362.042 424.322 323.457 400.523 299.658C376.725 275.86 338.14 275.86 314.341 299.658C290.543 323.457 290.543 362.042 314.341 385.84C338.14 409.639 376.725 409.639 400.523 385.84Z" fill="white" stroke="black" stroke-width="1.5" stroke-linecap="round" stroke-linejoin="round"/>
<path d="M336.03 305.74C336.01 306.65 335.98 307.9 335.86 309.32C336.2 312.32 337.66 321.9 346.04 325.62C345.39 326.12 344.72 326.92 344.41 327.52C338.77 324.86 336.15 319.57 334.88 315.28C333.68 319.79 331.14 324.64 325.71 327.64C325.33 327.06 324.61 326.34 323.86 325.86C333.68 320.77 333.41 309.59 333.48 305.75H336.02L336.03 305.74Z" fill="black"/>
<path d="M369.32 312.72H363.39V324.51C363.39 326 363.01 326.65 362.09 327.01C361.15 327.39 359.67 327.44 357.29 327.44C357.19 326.79 356.83 325.74 356.52 325.09C358.1 325.16 359.78 325.14 360.26 325.14C360.74 325.12 360.93 324.97 360.93 324.52V313.43C358.22 317.94 353.82 322.5 349.53 325C349.15 324.38 348.43 323.51 347.78 322.98C351.93 320.89 356.06 316.84 358.65 312.73H348.55V310.45H360.93V305.67H363.38V310.45H369.31V312.73L369.32 312.72Z" fill="black"/>
<path d="M331.23 348.48L331.64 350.52C329.17 351.58 326.53 352.66 324.46 353.5L323.76 351.22C324.58 350.96 325.54 350.6 326.62 350.21V342.34H323.96V340.23H326.62V334.78H328.64V340.23H331.16V342.34H328.64V349.47L331.23 348.49V348.48ZM345.87 343.75V345.77H331.08V343.75H339.91C340.46 342.43 341.11 340.53 341.42 339.17L343.48 339.7C343 341.04 342.42 342.56 341.92 343.76H345.86L345.87 343.75ZM345.08 339.12H332V337.13H337.57C337.43 336.36 337.19 335.4 336.95 334.68L338.97 334.34C339.28 335.23 339.57 336.31 339.74 337.12H345.09V339.11L345.08 339.12ZM333.08 347.59H343.98V356.38H341.87V355.54H335.13V356.48H333.09V347.6L333.08 347.59ZM334.74 343.66C334.62 342.6 334.12 341 333.56 339.8L335.36 339.25C335.96 340.45 336.49 342.01 336.66 343.04L334.74 343.66ZM335.12 349.59V353.57H341.86V349.59H335.12Z" fill="black"/>
<path d="M369.37 338.64H363.66C365.44 339.91 367.43 341.59 368.49 342.79L366.59 344.01H367.14V354.02C367.14 355.29 366.78 355.82 365.84 356.11C364.88 356.37 363.34 356.37 361.16 356.37C361.09 355.79 360.82 355 360.58 354.45C361.97 354.52 363.75 354.52 364.13 354.5C364.56 354.5 364.71 354.36 364.71 354V351.53C361.06 352.32 357.32 353.07 354.44 353.62L353.77 351.6C356.39 351.26 360.63 350.57 364.71 349.9V345.87H353.38V348.08C353.38 350.74 352.97 354.34 350.69 356.74C350.35 356.31 349.42 355.61 348.89 355.37C350.98 353.26 351.19 350.28 351.19 348.03V344.02H366.48C366.12 343.54 365.59 343.01 365.02 342.44C353.07 342.99 351.75 343.02 350.83 343.33C350.71 342.9 350.42 341.82 350.16 341.24C350.76 341.14 351.38 340.69 352.22 340.04C352.56 339.8 353.16 339.3 353.88 338.65H348.38V336.68H355.92C356.64 335.91 357.41 335.02 358.08 334.18L360.34 335.07C359.86 335.62 359.38 336.15 358.85 336.68H369.36V338.65L369.37 338.64ZM363.13 340.75C362.46 340.22 361.81 339.69 361.16 339.21L362.12 338.63H356.84C355.88 339.52 354.92 340.33 353.96 341.05L363.13 340.74V340.75ZM354.75 346.56C357.56 346.92 361.26 347.81 363.2 348.65L362.5 350.21C360.6 349.37 356.93 348.39 354.05 347.95L354.75 346.56Z" fill="black"/>
<path d="M434.3 373.32L424.22 431.96L403.2 428.35L403.76 425.11C404.76 419.31 401.08 413.58 395.32 412.48C389.45 411.36 383.82 415.28 382.81 421.15L382.19 424.75L361.16 421.13L364.77 400.11L361.53 399.55C355.74 398.56 351.56 393.17 352.44 387.36C353.35 381.45 358.92 377.46 364.8 378.46L368.39 379.08L372 358.06L430.64 368.14C433.08 368.56 434.72 370.88 434.3 373.33V373.32Z" fill="#A5A19D"/>
<path d="M382.18 424.73L361.15 421.11L364.76 400.09L361.52 399.53C355.73 398.54 351.55 393.15 352.43 387.34C353.34 381.43 358.91 377.44 364.79 378.44L368.38 379.06L371.99 358.04L430.63 368.12C433.07 368.54 434.71 370.86 434.29 373.31L424.21 431.95L403.19 428.34L403.75 425.1C404.75 419.3 401.07 413.57 395.31 412.47C389.44 411.35 383.81 415.27 382.8 421.14L382.18 424.74V424.73Z" stroke="black" stroke-width="1.5" stroke-miterlimit="10" stroke-linecap="round"/>
<path d="M403.11 363.4L408.48 332.17" stroke="black" stroke-width="1.5" stroke-miterlimit="10" stroke-linecap="round"/>
<path d="M408.3 333.22C408.3 333.22 395.21 335.83 385.44 329.39C375.66 322.95 372.9 309.89 372.9 309.89C372.9 309.89 385.99 307.28 395.76 313.72C405.54 320.16 408.3 333.22 408.3 333.22Z" fill="#E75B24" stroke="black" stroke-width="1.5" stroke-miterlimit="10" stroke-linecap="round"/>
<path d="M408.3 333.22C408.3 333.22 419.76 340.05 431.13 337.24C442.49 334.43 449.46 323.05 449.46 323.05C449.46 323.05 438 316.22 426.63 319.03C415.27 321.84 408.3 333.22 408.3 333.22Z" fill="#E75B24" stroke="black" stroke-width="1.5" stroke-miterlimit="10" stroke-linecap="round"/>
<path d="M255.47 197.42C253.73 201.34 250.93 205.4 248.35 207.89C247.8 207.27 246.53 206.03 245.82 205.45C248.35 203.32 250.86 199.86 252.3 196.39L255.48 197.42H255.47ZM262.16 208.39C264.1 211.02 266.29 214.41 267.46 216.63L264.52 218.18C264.21 217.51 263.78 216.7 263.28 215.84C251.74 216.75 250.11 216.89 248.94 217.34C248.75 216.72 248.2 215.14 247.77 214.28C248.58 214.07 249.2 213.42 250.14 212.37C251.17 211.34 254.15 207.26 256.04 203.31L259.36 204.72C257.52 207.95 255.23 211.12 252.91 213.7L261.68 213.13C260.92 211.93 260.13 210.69 259.39 209.64L262.16 208.37V208.39ZM262.62 196.44C263.65 199.79 265.85 203.15 268.76 204.95C268.11 205.57 267.09 206.93 266.61 207.82C263.89 205.74 261.76 202.54 260.42 199.39H256.6V196.45H262.62V196.44Z" fill="black"/>
<path d="M291.99 207.79V210.56H270.22V207.79H275.36V203.2H271.06V200.45H275.36V196.03H278.32V200.45H283.82V196.03H286.78V200.45H291.25V203.2H286.78V207.79H291.99ZM279.42 212.64C277.63 214.69 275 216.85 272.71 218.21C272.09 217.59 271.04 216.68 270.37 216.23C272.62 215.04 275.15 213.08 276.42 211.48L279.43 212.65L279.42 212.64ZM278.32 207.79H283.82V203.2H278.32V207.79ZM285.32 211.4C287.35 212.86 290.31 215.08 291.82 216.54L289 218.21C287.69 216.75 284.84 214.43 282.72 212.81L285.32 211.4Z" fill="black"/>
<path d="M253.87 239.94C253.58 239.32 253.01 238.39 252.44 237.53V246.85H249.69V238.27C248.93 240.11 248.02 241.81 247.09 243C246.83 242.19 246.23 241.02 245.78 240.3C247.12 238.75 248.43 236.21 249.32 233.9H246.29V231.25H249.71V228.5C248.71 228.69 247.73 228.83 246.79 228.95C246.65 228.33 246.31 227.35 246 226.78C248.7 226.33 251.66 225.63 253.55 224.8L255.46 226.97C254.55 227.33 253.52 227.64 252.45 227.93V231.25H255.01V233.9H252.45V234.59C253.09 235.12 255.05 237.19 255.51 237.72L253.89 239.94H253.87ZM268.09 243.86V246.34H254.66V243.86H260.08V241.66H255.85V239.27H260.08V237.33C258.65 237.45 257.24 237.52 255.9 237.57C255.8 236.95 255.49 235.99 255.23 235.42C258.96 235.21 263.26 234.78 265.89 234.08L267.61 236.23C266.22 236.56 264.62 236.83 262.93 237.04V239.26H267.16V241.65H262.93V243.85H268.09V243.86ZM267.08 233.8H255.99V225.58H267.08V233.8ZM264.31 227.97H258.62V231.41H264.31V227.97Z" fill="black"/>
<path d="M285.3 231.38C285.8 238.36 287.26 243.88 289 243.88C289.5 243.88 289.79 242.61 289.91 239.58C290.55 240.25 291.61 240.94 292.4 241.25C291.97 245.77 291.01 246.87 288.74 246.87C284.65 246.87 282.86 239.8 282.29 231.39H270.41V228.62H282.14C282.09 227.33 282.07 225.99 282.07 224.68H285.13C285.11 225.99 285.11 227.33 285.15 228.62H288.93C288.28 227.81 287.09 226.83 286.13 226.11L288.02 224.56C289.1 225.3 290.51 226.42 291.15 227.21L289.53 228.62H291.78V231.39H285.3V231.38ZM277.74 242.11C279.2 241.85 280.73 241.56 282.18 241.27L282.4 243.8C278.48 244.66 274.28 245.52 271.19 246.19L270.4 243.32C271.62 243.13 273.2 242.89 274.92 242.6V236.84H271.31V234.09H281.56V236.84H277.74V242.1V242.11Z" fill="black"/>
</g>
<defs>
<clipPath id="clip0_2361_3682">
<rect width="496.75" height="432.83" fill="white" transform="translate(0.25)"/>
</clipPath>
</defs>
</svg>
