<svg width="200" height="200" viewBox="0 0 200 200" fill="none" xmlns="http://www.w3.org/2000/svg">
<mask id="mask0_2526_2892" style="mask-type:luminance" maskUnits="userSpaceOnUse" x="0" y="0" width="200" height="200">
<path d="M200 0H0V200H200V0Z" fill="white"/>
</mask>
<g mask="url(#mask0_2526_2892)">
<path d="M200 0H0V200H200V0Z" fill="white"/>
<path d="M150.66 109.92L177.25 114.22L168.57 167.94L141.98 163.64L144.07 150.67L150.65 109.93L150.66 109.92Z" fill="#F2F3F5"/>
<path d="M121.52 147.02L144.08 150.67L141.99 163.64L121.53 147.02H121.52Z" fill="#F2F3F5"/>
<path d="M144.08 150.66L121.52 147.01L141.98 163.63L168.57 167.93L166.73 179.35C166.3 182.01 163.81 183.79 161.16 183.36L117.77 176.35L119.01 168.67C120.79 157.63 114.96 146.82 105.36 142.2C97.6403 127.54 83.3703 116.56 65.7603 113.72L64.6803 113.54C51.4603 111.4 38.5903 114.21 27.9403 120.59L29.2303 112.62L21.5403 111.38C8.04028 109.2 -1.53972 96.3201 0.89028 82.8601C3.25028 69.8101 15.6403 61.0101 28.7803 63.1301L37.0103 64.4601L44.0203 21.0801C44.4503 18.4401 46.9403 16.6401 49.5903 17.0601L184.51 38.8601C187.15 39.2901 188.95 41.7801 188.53 44.4301L177.26 114.2L150.67 109.9L144.09 150.64H144.1L144.08 150.66Z" fill="#F2F3F5"/>
<path d="M105.37 142.19C103.24 141.16 100.91 140.44 98.45 140.09C85.32 138.21 73.08 147.2 70.95 160.35L69.62 168.58L26.23 161.57C23.58 161.14 21.78 158.66 22.21 156L27.93 120.6C38.58 114.22 51.46 111.42 64.67 113.55L65.75 113.73C83.36 116.58 97.63 127.55 105.35 142.2L105.37 142.19Z" fill="#A5A19D"/>
<path d="M105.37 142.21C103.24 141.17 100.91 140.45 98.4603 140.1C85.3303 138.22 73.0903 147.21 70.9603 160.36L69.6303 168.59L26.2403 161.58C23.6003 161.15 21.8003 158.67 22.2203 156.02L27.9403 120.61L29.2303 112.64L21.5403 111.4C8.04028 109.22 -1.53972 96.3401 0.89028 82.8801C3.25028 69.8301 15.6403 61.0301 28.7803 63.1501L37.0103 64.4801L44.0203 21.1001C44.4503 18.4601 46.9403 16.6601 49.5903 17.0801L184.51 38.8801C187.15 39.3101 188.95 41.8001 188.53 44.4501L177.26 114.22L168.58 167.94L166.74 179.36C166.31 182.02 163.82 183.81 161.17 183.37L117.78 176.36L119.02 168.68C120.81 157.64 114.97 146.83 105.37 142.21Z" stroke="black" stroke-width="1.5" stroke-miterlimit="10"/>
<path d="M105.37 142.19C97.6502 127.54 83.3802 116.56 65.7702 113.72L64.6902 113.54C51.4702 111.4 38.6002 114.21 27.9502 120.59" stroke="black" stroke-width="1.5" stroke-miterlimit="10"/>
<path d="M141.85 67.5701L137.36 95.3601L165.14 99.8501L169.63 72.0601L141.85 67.5701Z" fill="#E9580C"/>
<path d="M106.95 43.74L102.46 71.52L130.24 76.01L134.73 48.23L106.95 43.74Z" fill="#E9580C"/>
<path d="M106.95 43.74L102.46 71.52L130.24 76.01L134.73 48.23L106.95 43.74Z" stroke="black" stroke-width="1.5" stroke-miterlimit="10"/>
<path d="M141.85 67.5701L137.36 95.3601L165.14 99.8501L169.63 72.0601L141.85 67.5701Z" stroke="black" stroke-width="1.5" stroke-miterlimit="10"/>
<path d="M100.16 63.0599C110.04 71.6599 115.38 84.9999 113.14 98.8799C109.69 120.25 89.5702 134.76 68.2102 131.31C60.9402 130.13 54.4502 127.02 49.2002 122.59L74.4102 53.4399C76.4902 53.4399 78.5902 53.5999 80.7102 53.9399C88.1902 55.1499 94.8402 58.3999 100.17 63.0399L100.16 63.0599ZM98.4402 95.6699C98.6802 94.2199 97.6902 92.8599 96.2402 92.6199C94.7902 92.3799 93.4302 93.3699 93.1902 94.8199C92.9602 96.2699 93.9402 97.6299 95.3902 97.8699C96.8402 98.1099 98.2002 97.1199 98.4302 95.6699H98.4402ZM89.2502 94.1899C89.4802 92.7399 88.5002 91.3799 87.0502 91.1399C85.6002 90.8999 84.2402 91.8899 84.0102 93.3399C83.7802 94.7899 84.7602 96.1499 86.2102 96.3899C87.6602 96.6299 89.0202 95.6399 89.2602 94.1899H89.2502Z" fill="#E9580C"/>
<path d="M95.8202 97.9101C97.2902 97.9101 98.4802 96.7201 98.4802 95.2501C98.4802 93.7801 97.2902 92.5901 95.8202 92.5901C94.3502 92.5901 93.1602 93.7801 93.1602 95.2501C93.1602 96.7201 94.3502 97.9101 95.8202 97.9101Z" fill="black"/>
<path d="M86.6297 96.4201C88.0997 96.4201 89.2897 95.2301 89.2897 93.7601C89.2897 92.2901 88.0997 91.1001 86.6297 91.1001C85.1597 91.1001 83.9697 92.2901 83.9697 93.7601C83.9697 95.2301 85.1597 96.4201 86.6297 96.4201Z" fill="black"/>
<path d="M49.2005 122.6L43.6905 137.71C40.9705 145.18 30.2005 144.59 28.3105 136.87L22.7905 114.37C22.3505 112.57 22.5505 110.67 23.3405 109L38.6705 76.6899C37.3205 79.7099 36.3405 82.9599 35.7805 86.3899C33.5005 100.48 39.0405 114.02 49.2105 122.6H49.2005Z" fill="black"/>
<path d="M74.3997 53.4499C76.4797 53.4499 78.5797 53.6099 80.6997 53.9499C88.1797 55.1599 94.8297 58.4099 100.16 63.0499C110.04 71.6499 115.38 84.9899 113.14 98.8699C109.69 120.24 89.5697 134.75 68.2097 131.3C60.9397 130.12 54.4497 127.01 49.1997 122.58C39.0397 114 33.4997 100.45 35.7697 86.3699C36.3297 82.9399 37.2997 79.6899 38.6597 76.6699C38.9597 75.9899 39.2697 75.3299 39.6097 74.6799C46.2297 61.8199 59.6297 53.4399 74.3997 53.4399V53.4499Z" stroke="black" stroke-width="1.5" stroke-miterlimit="10"/>
<path d="M86.6297 96.4201C88.0997 96.4201 89.2897 95.2301 89.2897 93.7601C89.2897 92.2901 88.0997 91.1001 86.6297 91.1001C85.1597 91.1001 83.9697 92.2901 83.9697 93.7601C83.9697 95.2301 85.1597 96.4201 86.6297 96.4201Z" stroke="black" stroke-width="1.5" stroke-miterlimit="10"/>
<path d="M95.8202 97.9101C97.2902 97.9101 98.4802 96.7201 98.4802 95.2501C98.4802 93.7801 97.2902 92.5901 95.8202 92.5901C94.3502 92.5901 93.1602 93.7801 93.1602 95.2501C93.1602 96.7201 94.3502 97.9101 95.8202 97.9101Z" stroke="black" stroke-width="1.5" stroke-miterlimit="10"/>
<path d="M92.4995 101.25C92.1395 103.51 90.0095 105.05 87.7495 104.69C85.4895 104.32 83.9495 102.19 84.3195 99.9299" stroke="white" stroke-width="1.5" stroke-miterlimit="10"/>
<path d="M74.5805 52.97L74.4105 53.45L49.2005 122.6L43.6905 137.71C40.9705 145.18 30.2005 144.59 28.3105 136.87L22.7905 114.37C22.3505 112.57 22.5505 110.67 23.3405 109L38.6705 76.69L39.6205 74.7" stroke="black" stroke-width="1.5" stroke-miterlimit="10"/>
<path d="M115.19 61.05L115.04 62.19C115.01 62.41 114.76 62.52 114.58 62.4L110.48 59.71C110.38 59.64 110.33 59.53 110.35 59.42L110.53 58.07C110.55 57.95 110.63 57.86 110.74 57.82L115.41 56.32C115.62 56.25 115.83 56.43 115.8 56.65L115.65 57.78C115.63 57.9 115.55 57.99 115.44 58.03L112.86 58.79C112.61 58.86 112.57 59.2 112.79 59.34L115.07 60.76C115.17 60.82 115.22 60.94 115.21 61.06L115.19 61.05Z" fill="white"/>
<path d="M126.04 60.5901L123.76 59.1701C123.66 59.1101 123.61 58.9901 123.62 58.8701L123.77 57.7401C123.8 57.5201 124.05 57.4101 124.23 57.5301L128.33 60.2301C128.43 60.3001 128.48 60.4101 128.46 60.5201L128.28 61.8701C128.26 61.9901 128.19 62.0801 128.07 62.1201L123.4 63.6101C123.19 63.6801 122.98 63.5001 123.01 63.2801L123.16 62.1401C123.18 62.0201 123.26 61.9301 123.37 61.8901L125.95 61.1301C126.2 61.0601 126.25 60.7201 126.02 60.5801L126.04 60.5901Z" fill="white"/>
<path d="M117.8 63.2099L116.65 63.0499C116.43 63.0199 116.32 62.7699 116.44 62.5799L121.04 55.6199C121.11 55.5199 121.22 55.4699 121.33 55.4899L122.5 55.6499C122.72 55.6799 122.83 55.9299 122.71 56.1199L118.09 63.0799C118.02 63.1699 117.91 63.2299 117.8 63.2099Z" fill="white"/>
<path d="M149.92 85.6999L149.77 86.8399C149.74 87.0599 149.49 87.1699 149.31 87.0499L145.21 84.3599C145.11 84.2899 145.06 84.1799 145.08 84.0699L145.26 82.7199C145.28 82.5999 145.36 82.5099 145.47 82.4699L150.14 80.9699C150.35 80.8999 150.56 81.0799 150.53 81.2999L150.38 82.4299C150.36 82.5499 150.28 82.6399 150.17 82.6799L147.59 83.4399C147.34 83.5099 147.3 83.8499 147.52 83.9899L149.8 85.4099C149.9 85.4699 149.95 85.5899 149.94 85.7099L149.92 85.6999Z" fill="white"/>
<path d="M160.78 85.24L158.5 83.82C158.4 83.76 158.35 83.64 158.36 83.52L158.51 82.39C158.54 82.17 158.79 82.06 158.97 82.18L163.07 84.88C163.17 84.95 163.22 85.06 163.2 85.17L163.02 86.52C163 86.64 162.93 86.73 162.81 86.77L158.14 88.26C157.93 88.33 157.72 88.15 157.75 87.93L157.9 86.79C157.92 86.67 158 86.58 158.11 86.54L160.69 85.78C160.94 85.71 160.99 85.37 160.76 85.23L160.78 85.24Z" fill="white"/>
<path d="M152.54 87.8701L151.39 87.7101C151.17 87.6801 151.06 87.4301 151.18 87.2401L155.78 80.2801C155.85 80.1801 155.96 80.1301 156.07 80.1501L157.24 80.3101C157.46 80.3401 157.57 80.5901 157.45 80.7801L152.83 87.7401C152.76 87.8301 152.65 87.8901 152.54 87.8701Z" fill="white"/>
<path d="M182.06 127.43L178.72 173.79L110.02 168.81L110.87 157.3L113.39 122.46L182.08 127.44H182.07L182.06 127.43ZM147.66 155.87C152.47 156.22 156.66 152.6 157.01 147.79C157.36 142.98 153.74 138.79 148.93 138.46C144.12 138.11 139.93 141.72 139.58 146.54C139.25 151.33 142.86 155.52 147.66 155.86V155.87Z" fill="#A5A19D"/>
<path d="M157.01 147.8C156.66 152.59 152.48 156.22 147.66 155.88C142.86 155.53 139.26 151.35 139.58 146.56C139.93 141.75 144.11 138.14 148.93 138.48C153.73 138.81 157.36 143 157.01 147.8Z" fill="white"/>
<path d="M110.85 157.29L110 168.8L83.0704 158.67C81.1904 157.96 81.8104 155.19 83.8104 155.34L110.84 157.3L110.85 157.29Z" fill="#A5A19D"/>
<path d="M110.01 168.8L83.0801 158.67C81.2001 157.96 81.8201 155.19 83.8201 155.34L110.85 157.3" stroke="black" stroke-width="1.5" stroke-linecap="round" stroke-linejoin="round"/>
<path d="M110.85 157.29L113.37 122.45L182.06 127.43L178.7 173.78L110 168.79L110.85 157.28V157.29Z" stroke="black" stroke-width="1.5" stroke-linecap="round" stroke-linejoin="round"/>
<path d="M109.45 74.4101C102.66 61.2901 89.0597 53.2401 74.5897 53.2701L72.3797 53.3401C69.0697 53.5201 65.7397 54.1501 62.4397 55.2301C57.7097 56.7901 53.4797 59.1701 49.8497 62.1501C49.7197 62.2501 49.5997 62.3501 49.4697 62.4601C49.1197 62.7501 48.7797 63.0601 48.4397 63.3601C44.8697 66.5301 41.8397 70.3501 39.6097 74.6901L38.6597 76.6801C37.2997 79.7001 36.3297 82.9501 35.7697 86.3801C33.4997 100.47 39.0397 114.01 49.1997 122.59L63.0397 84.6201C64.0397 81.8801 66.4797 79.9301 69.3797 79.5501L109.45 74.4001V74.4101Z" fill="black" stroke="black" stroke-miterlimit="10"/>
</g>
</svg>
