<svg width="16" height="16" viewBox="0 0 16 16" fill="none" xmlns="http://www.w3.org/2000/svg">
<path fill-rule="evenodd" clip-rule="evenodd" d="M14.4001 7.99998C14.4001 11.5346 11.5347 14.4 8.0001 14.4C4.46548 14.4 1.6001 11.5346 1.6001 7.99998C1.6001 4.46535 4.46548 1.59998 8.0001 1.59998C11.5347 1.59998 14.4001 4.46535 14.4001 7.99998ZM8.00011 5.59998C7.705 5.59998 7.44618 5.75935 7.30664 6.00056C7.08541 6.383 6.59603 6.51369 6.21358 6.29246C5.83113 6.07123 5.70044 5.58184 5.92168 5.19939C6.33544 4.48412 7.11076 3.99998 8.00011 3.99998C9.32559 3.99998 10.4001 5.07449 10.4001 6.39998C10.4001 7.44495 9.73226 8.33394 8.80011 8.66341V8.79998C8.80011 9.2418 8.44194 9.59998 8.00011 9.59998C7.55828 9.59998 7.20011 9.2418 7.20011 8.79998V7.99998C7.20011 7.55815 7.55828 7.19998 8.00011 7.19998C8.44194 7.19998 8.80011 6.8418 8.80011 6.39998C8.80011 5.95815 8.44194 5.59998 8.00011 5.59998ZM8.0001 12C8.44192 12 8.8001 11.6418 8.8001 11.2C8.8001 10.7581 8.44192 10.4 8.0001 10.4C7.55827 10.4 7.2001 10.7581 7.2001 11.2C7.2001 11.6418 7.55827 12 8.0001 12Z" fill="#9CA3AF"/>
</svg>
